%TF.GenerationSoftware,KiCad,Pcbnew,8.0.7*%
%TF.CreationDate,2025-01-05T13:11:30+01:00*%
%TF.ProjectId,tiliqua-panel,74696c69-7175-4612-9d70-616e656c2e6b,rev?*%
%TF.SameCoordinates,Original*%
%TF.FileFunction,Legend,Bot*%
%TF.FilePolarity,Positive*%
%FSLAX46Y46*%
G04 Gerber Fmt 4.6, Leading zero omitted, Abs format (unit mm)*
G04 Created by KiCad (PCBNEW 8.0.7) date 2025-01-05 13:11:30*
%MOMM*%
%LPD*%
G01*
G04 APERTURE LIST*
%ADD10C,0.150000*%
%ADD11C,0.200000*%
%ADD12C,6.400000*%
%ADD13O,7.500000X4.400000*%
%ADD14C,7.400000*%
G04 APERTURE END LIST*
%LPC*%
D10*
X13341495Y-20444501D02*
X19541495Y-20444501D01*
X19541495Y-24544501D01*
X13341495Y-24544501D01*
X13341495Y-20444501D01*
G36*
X13341495Y-20444501D02*
G01*
X19541495Y-20444501D01*
X19541495Y-24544501D01*
X13341495Y-24544501D01*
X13341495Y-20444501D01*
G37*
D11*
X750800Y-62444300D02*
X7750800Y-62444300D01*
X7750800Y-64323900D01*
X750800Y-64323900D01*
X750800Y-62444300D01*
G36*
X750800Y-62444300D02*
G01*
X7750800Y-62444300D01*
X7750800Y-64323900D01*
X750800Y-64323900D01*
X750800Y-62444300D01*
G37*
X750800Y-103820900D02*
X7750800Y-103820900D01*
X7750800Y-105700500D01*
X750800Y-105700500D01*
X750800Y-103820900D01*
G36*
X750800Y-103820900D02*
G01*
X7750800Y-103820900D01*
X7750800Y-105700500D01*
X750800Y-105700500D01*
X750800Y-103820900D01*
G37*
D10*
X8550000Y-4750000D02*
X27000000Y-4750000D01*
X27000000Y-128500000D01*
X8550000Y-128500000D01*
X8550000Y-4750000D01*
G36*
X8550000Y-4750000D02*
G01*
X27000000Y-4750000D01*
X27000000Y-128500000D01*
X8550000Y-128500000D01*
X8550000Y-4750000D01*
G37*
D11*
X750800Y-117613100D02*
X7750800Y-117613100D01*
X7750800Y-119492700D01*
X750800Y-119492700D01*
X750800Y-117613100D01*
G36*
X750800Y-117613100D02*
G01*
X7750800Y-117613100D01*
X7750800Y-119492700D01*
X750800Y-119492700D01*
X750800Y-117613100D01*
G37*
X750800Y-34859900D02*
X7750800Y-34859900D01*
X7750800Y-36739500D01*
X750800Y-36739500D01*
X750800Y-34859900D01*
G36*
X750800Y-34859900D02*
G01*
X7750800Y-34859900D01*
X7750800Y-36739500D01*
X750800Y-36739500D01*
X750800Y-34859900D01*
G37*
X750800Y-21067700D02*
X7750800Y-21067700D01*
X7750800Y-22947300D01*
X750800Y-22947300D01*
X750800Y-21067700D01*
G36*
X750800Y-21067700D02*
G01*
X7750800Y-21067700D01*
X7750800Y-22947300D01*
X750800Y-22947300D01*
X750800Y-21067700D01*
G37*
X750800Y-48652100D02*
X7750800Y-48652100D01*
X7750800Y-50531700D01*
X750800Y-50531700D01*
X750800Y-48652100D01*
G36*
X750800Y-48652100D02*
G01*
X7750800Y-48652100D01*
X7750800Y-50531700D01*
X750800Y-50531700D01*
X750800Y-48652100D01*
G37*
D10*
X-3000000Y0D02*
X27000000Y0D01*
X27000000Y-9000000D01*
X-3000000Y-9000000D01*
X-3000000Y0D01*
G36*
X-3000000Y0D02*
G01*
X27000000Y0D01*
X27000000Y-9000000D01*
X-3000000Y-9000000D01*
X-3000000Y0D01*
G37*
X-3000000Y-120000000D02*
X27000000Y-120000000D01*
X27000000Y-128500000D01*
X-3000000Y-128500000D01*
X-3000000Y-120000000D01*
G36*
X-3000000Y-120000000D02*
G01*
X27000000Y-120000000D01*
X27000000Y-128500000D01*
X-3000000Y-128500000D01*
X-3000000Y-120000000D01*
G37*
D11*
X14000000Y-117560200D02*
X21000000Y-117560200D01*
X21000000Y-119439800D01*
X14000000Y-119439800D01*
X14000000Y-117560200D01*
G36*
X14000000Y-117560200D02*
G01*
X21000000Y-117560200D01*
X21000000Y-119439800D01*
X14000000Y-119439800D01*
X14000000Y-117560200D01*
G37*
D10*
X-4000000Y-2250000D02*
X-258800Y-2250000D01*
X-258800Y-126000000D01*
X-4000000Y-126000000D01*
X-4000000Y-2250000D01*
G36*
X-4000000Y-2250000D02*
G01*
X-258800Y-2250000D01*
X-258800Y-126000000D01*
X-4000000Y-126000000D01*
X-4000000Y-2250000D01*
G37*
D11*
X750800Y-76236500D02*
X7750800Y-76236500D01*
X7750800Y-78116100D01*
X750800Y-78116100D01*
X750800Y-76236500D01*
G36*
X750800Y-76236500D02*
G01*
X7750800Y-76236500D01*
X7750800Y-78116100D01*
X750800Y-78116100D01*
X750800Y-76236500D01*
G37*
D10*
X8450000Y-9950000D02*
X11650000Y-9950000D01*
X11650000Y-19950000D01*
X8450000Y-19950000D01*
X8450000Y-9950000D01*
G36*
X8450000Y-9950000D02*
G01*
X11650000Y-9950000D01*
X11650000Y-19950000D01*
X8450000Y-19950000D01*
X8450000Y-9950000D01*
G37*
D11*
X750800Y-90028700D02*
X7750800Y-90028700D01*
X7750800Y-91908300D01*
X750800Y-91908300D01*
X750800Y-90028700D01*
G36*
X750800Y-90028700D02*
G01*
X7750800Y-90028700D01*
X7750800Y-91908300D01*
X750800Y-91908300D01*
X750800Y-90028700D01*
G37*
D12*
%TO.C,REF\u002A\u002A*%
X4210000Y-111890000D03*
%TD*%
%TO.C,REF\u002A\u002A*%
X4200000Y-84330000D03*
%TD*%
%TO.C,REF\u002A\u002A*%
X4200000Y-70540000D03*
%TD*%
%TO.C,REF\u002A\u002A*%
X4200000Y-42960000D03*
%TD*%
D13*
%TO.C,E2*%
X19525000Y-3000000D03*
%TD*%
D12*
%TO.C,REF\u002A\u002A*%
X20400000Y-112074074D03*
%TD*%
%TO.C,REF\u002A\u002A*%
X4200000Y-98120000D03*
%TD*%
%TO.C,REF\u002A\u002A*%
X4190000Y-29190000D03*
%TD*%
D13*
%TO.C,E3*%
X4475000Y-125500000D03*
%TD*%
D12*
%TO.C,REF\u002A\u002A*%
X4200000Y-15391200D03*
%TD*%
%TO.C,REF\u002A\u002A*%
X4210000Y-56760000D03*
%TD*%
D14*
%TO.C,REF\u002A\u002A*%
X19800000Y-15400000D03*
%TD*%
D13*
%TO.C,E4*%
X19525000Y-125500000D03*
%TD*%
%TO.C,E1*%
X4525000Y-3000000D03*
%TD*%
%LPD*%
M02*
