%TF.GenerationSoftware,KiCad,Pcbnew,8.0.7*%
%TF.CreationDate,2025-01-05T13:11:30+01:00*%
%TF.ProjectId,tiliqua-panel,74696c69-7175-4612-9d70-616e656c2e6b,rev?*%
%TF.SameCoordinates,Original*%
%TF.FileFunction,Copper,L1,Top*%
%TF.FilePolarity,Positive*%
%FSLAX46Y46*%
G04 Gerber Fmt 4.6, Leading zero omitted, Abs format (unit mm)*
G04 Created by KiCad (PCBNEW 8.0.7) date 2025-01-05 13:11:30*
%MOMM*%
%LPD*%
G01*
G04 APERTURE LIST*
%TA.AperFunction,EtchedComponent*%
%ADD10C,1.400000*%
%TD*%
%TA.AperFunction,ComponentPad*%
%ADD11O,7.500000X4.400000*%
%TD*%
G04 APERTURE END LIST*
D10*
%TO.C,REF\u002A\u002A*%
X8460000Y-111890000D02*
G75*
G02*
X-40000Y-111890000I-4250000J0D01*
G01*
X-40000Y-111890000D02*
G75*
G02*
X8460000Y-111890000I4250000J0D01*
G01*
X8450000Y-84330000D02*
G75*
G02*
X-50000Y-84330000I-4250000J0D01*
G01*
X-50000Y-84330000D02*
G75*
G02*
X8450000Y-84330000I4250000J0D01*
G01*
X8450000Y-70540000D02*
G75*
G02*
X-50000Y-70540000I-4250000J0D01*
G01*
X-50000Y-70540000D02*
G75*
G02*
X8450000Y-70540000I4250000J0D01*
G01*
X8450000Y-42960000D02*
G75*
G02*
X-50000Y-42960000I-4250000J0D01*
G01*
X-50000Y-42960000D02*
G75*
G02*
X8450000Y-42960000I4250000J0D01*
G01*
X8450000Y-98120000D02*
G75*
G02*
X-50000Y-98120000I-4250000J0D01*
G01*
X-50000Y-98120000D02*
G75*
G02*
X8450000Y-98120000I4250000J0D01*
G01*
X8440000Y-29190000D02*
G75*
G02*
X-60000Y-29190000I-4250000J0D01*
G01*
X-60000Y-29190000D02*
G75*
G02*
X8440000Y-29190000I4250000J0D01*
G01*
X8450000Y-15391200D02*
G75*
G02*
X-50000Y-15391200I-4250000J0D01*
G01*
X-50000Y-15391200D02*
G75*
G02*
X8450000Y-15391200I4250000J0D01*
G01*
X8460000Y-56760000D02*
G75*
G02*
X-40000Y-56760000I-4250000J0D01*
G01*
X-40000Y-56760000D02*
G75*
G02*
X8460000Y-56760000I4250000J0D01*
G01*
%TD*%
D11*
%TO.P,E2,1,1*%
%TO.N,GND*%
X19525000Y-3000000D03*
%TD*%
%TO.P,E3,1,1*%
%TO.N,GND*%
X4475000Y-125500000D03*
%TD*%
%TO.P,E4,1,1*%
%TO.N,GND*%
X19525000Y-125500000D03*
%TD*%
%TO.P,E1,1,1*%
%TO.N,GND*%
X4525000Y-3000000D03*
%TD*%
%TA.AperFunction,Conductor*%
%TO.N,GND*%
G36*
X26486843Y-420207D02*
G01*
X26556084Y-475426D01*
X26594511Y-555218D01*
X26599500Y-599500D01*
X26599500Y-62893055D01*
X26579793Y-62979398D01*
X26541129Y-63033854D01*
X25770476Y-63803578D01*
X25770405Y-63803641D01*
X25728079Y-63845923D01*
X25728073Y-63845929D01*
X25687884Y-63886070D01*
X25662284Y-63930359D01*
X25662277Y-63930371D01*
X25635106Y-63977367D01*
X25620394Y-64032162D01*
X25620390Y-64032177D01*
X25607755Y-64079217D01*
X25607730Y-64128655D01*
X25607730Y-64128670D01*
X25607690Y-64196253D01*
X25607696Y-64196356D01*
X25599531Y-80325751D01*
X25598964Y-80335022D01*
X25599488Y-80391710D01*
X25599496Y-80393641D01*
X25599472Y-80443568D01*
X25599598Y-80444460D01*
X25599868Y-80446437D01*
X25599967Y-80447198D01*
X25613321Y-80495249D01*
X25613831Y-80497120D01*
X25626750Y-80545429D01*
X25627099Y-80546249D01*
X25627877Y-80548104D01*
X25628172Y-80548818D01*
X25653551Y-80591851D01*
X25654528Y-80593525D01*
X25679466Y-80636769D01*
X25679998Y-80637448D01*
X25681222Y-80639029D01*
X25681707Y-80639662D01*
X25681808Y-80639761D01*
X25681810Y-80639764D01*
X25717462Y-80674761D01*
X25718684Y-80675974D01*
X25758771Y-80716102D01*
X25765786Y-80722199D01*
X26383812Y-81328881D01*
X26549940Y-81491960D01*
X26597751Y-81566509D01*
X26609534Y-81634428D01*
X26600069Y-85751565D01*
X26580164Y-85837863D01*
X26541784Y-85891822D01*
X25716981Y-86716624D01*
X25716945Y-86716661D01*
X25679547Y-86754038D01*
X25653242Y-86799600D01*
X25653217Y-86799643D01*
X25626831Y-86845316D01*
X25626794Y-86845404D01*
X25613254Y-86895940D01*
X25613240Y-86895993D01*
X25599500Y-86947215D01*
X25599500Y-87000633D01*
X25594966Y-103142474D01*
X25594913Y-103143300D01*
X25594948Y-103207983D01*
X25594948Y-103208142D01*
X25594934Y-103260746D01*
X25594972Y-103261034D01*
X25608586Y-103311732D01*
X25608628Y-103311889D01*
X25622201Y-103362601D01*
X25622322Y-103362894D01*
X25648652Y-103408441D01*
X25648733Y-103408582D01*
X25674904Y-103453941D01*
X25675090Y-103454183D01*
X25675102Y-103454195D01*
X25675104Y-103454198D01*
X25711743Y-103490796D01*
X25711824Y-103490877D01*
X25711817Y-103490883D01*
X25711942Y-103490995D01*
X25758341Y-103537421D01*
X25758976Y-103537978D01*
X26557930Y-104336058D01*
X26605090Y-104411021D01*
X26616293Y-104476988D01*
X26599919Y-127900639D01*
X26580151Y-127986968D01*
X26524885Y-128056171D01*
X26445065Y-128094542D01*
X26400919Y-128099500D01*
X-2400500Y-128099500D01*
X-2486843Y-128079793D01*
X-2556084Y-128024574D01*
X-2594511Y-127944782D01*
X-2599500Y-127900500D01*
X-2599500Y-119048200D01*
X1249400Y-119048200D01*
X7269200Y-119048200D01*
X7269200Y-119010100D01*
X18500000Y-119010100D01*
X22019800Y-119010100D01*
X22019800Y-118044900D01*
X18500000Y-118044900D01*
X18500000Y-119010100D01*
X7269200Y-119010100D01*
X7269200Y-118083000D01*
X1249400Y-118083000D01*
X1249400Y-119048200D01*
X-2599500Y-119048200D01*
X-2599500Y-111890000D01*
X-1145325Y-111890000D01*
X-1126032Y-112344163D01*
X-1068294Y-112795054D01*
X-972524Y-113239424D01*
X-839415Y-113674072D01*
X-669925Y-114095865D01*
X-465274Y-114501765D01*
X-251545Y-114848883D01*
X-226937Y-114888848D01*
X43356Y-115254310D01*
X43372Y-115254329D01*
X343686Y-115595554D01*
X671867Y-115910090D01*
X671872Y-115910094D01*
X1025546Y-116195666D01*
X1402164Y-116450215D01*
X1402168Y-116450217D01*
X1799013Y-116671908D01*
X2213217Y-116859141D01*
X2213224Y-116859143D01*
X2213232Y-116859147D01*
X2641839Y-117010584D01*
X3081744Y-117125126D01*
X3529778Y-117201949D01*
X3982714Y-117240500D01*
X3982717Y-117240500D01*
X4437283Y-117240500D01*
X4437286Y-117240500D01*
X4890222Y-117201949D01*
X5338256Y-117125126D01*
X5778161Y-117010584D01*
X6206768Y-116859147D01*
X6206778Y-116859142D01*
X6206782Y-116859141D01*
X6381078Y-116780353D01*
X6620987Y-116671908D01*
X7017836Y-116450215D01*
X7394454Y-116195666D01*
X7748128Y-115910094D01*
X8076310Y-115595558D01*
X8376634Y-115254322D01*
X8646938Y-114888847D01*
X8885274Y-114501765D01*
X9089925Y-114095865D01*
X9259415Y-113674072D01*
X9392524Y-113239424D01*
X9488294Y-112795054D01*
X9546032Y-112344163D01*
X9564707Y-111904555D01*
X16949500Y-111904555D01*
X16949500Y-112243592D01*
X16982730Y-112580979D01*
X17048869Y-112913478D01*
X17048874Y-112913500D01*
X17147282Y-113237908D01*
X17147289Y-113237927D01*
X17277022Y-113551131D01*
X17436838Y-113850126D01*
X17531014Y-113991069D01*
X17625190Y-114132013D01*
X17625193Y-114132017D01*
X17625196Y-114132021D01*
X17768573Y-114306726D01*
X17840265Y-114394083D01*
X17840270Y-114394088D01*
X17840279Y-114394098D01*
X18079975Y-114633794D01*
X18079984Y-114633802D01*
X18079991Y-114633809D01*
X18342061Y-114848884D01*
X18552996Y-114989827D01*
X18623947Y-115037235D01*
X18623949Y-115037236D01*
X18922942Y-115197051D01*
X19236160Y-115326790D01*
X19560586Y-115425203D01*
X19893096Y-115491344D01*
X20230488Y-115524574D01*
X20230490Y-115524574D01*
X20569510Y-115524574D01*
X20569512Y-115524574D01*
X20906904Y-115491344D01*
X21239414Y-115425203D01*
X21563840Y-115326790D01*
X21877058Y-115197051D01*
X22176051Y-115037236D01*
X22457939Y-114848884D01*
X22720009Y-114633809D01*
X22959735Y-114394083D01*
X23174810Y-114132013D01*
X23363162Y-113850125D01*
X23522977Y-113551132D01*
X23652716Y-113237914D01*
X23751129Y-112913488D01*
X23817270Y-112580978D01*
X23850500Y-112243586D01*
X23850500Y-111904562D01*
X23817270Y-111567170D01*
X23751129Y-111234660D01*
X23652716Y-110910234D01*
X23522977Y-110597016D01*
X23363162Y-110298023D01*
X23174810Y-110016135D01*
X22959735Y-109754065D01*
X22959728Y-109754058D01*
X22959720Y-109754049D01*
X22720024Y-109514353D01*
X22720014Y-109514344D01*
X22720009Y-109514339D01*
X22632652Y-109442647D01*
X22457947Y-109299270D01*
X22457943Y-109299267D01*
X22457939Y-109299264D01*
X22316995Y-109205088D01*
X22176052Y-109110912D01*
X21877057Y-108951096D01*
X21563853Y-108821363D01*
X21563844Y-108821359D01*
X21563840Y-108821358D01*
X21563836Y-108821357D01*
X21563834Y-108821356D01*
X21239426Y-108722948D01*
X21239417Y-108722946D01*
X21239414Y-108722945D01*
X21239404Y-108722943D01*
X20906905Y-108656804D01*
X20569518Y-108623574D01*
X20569512Y-108623574D01*
X20230488Y-108623574D01*
X20230481Y-108623574D01*
X19893094Y-108656804D01*
X19560595Y-108722943D01*
X19560573Y-108722948D01*
X19236165Y-108821356D01*
X19236146Y-108821363D01*
X18922942Y-108951096D01*
X18623947Y-109110912D01*
X18342061Y-109299264D01*
X18342052Y-109299270D01*
X18079994Y-109514336D01*
X18079975Y-109514353D01*
X17840279Y-109754049D01*
X17840262Y-109754068D01*
X17625196Y-110016126D01*
X17625190Y-110016135D01*
X17436838Y-110298021D01*
X17277022Y-110597016D01*
X17147289Y-110910220D01*
X17147282Y-110910239D01*
X17048874Y-111234647D01*
X17048869Y-111234669D01*
X16982730Y-111567168D01*
X16949500Y-111904555D01*
X9564707Y-111904555D01*
X9565325Y-111890000D01*
X9546032Y-111435837D01*
X9488294Y-110984946D01*
X9392524Y-110540576D01*
X9259415Y-110105928D01*
X9089928Y-109684144D01*
X9089928Y-109684141D01*
X8885274Y-109278235D01*
X8885269Y-109278226D01*
X8646937Y-108891151D01*
X8376643Y-108525689D01*
X8376627Y-108525670D01*
X8076313Y-108184445D01*
X7748132Y-107869909D01*
X7394456Y-107584336D01*
X7394454Y-107584334D01*
X7017836Y-107329785D01*
X7017831Y-107329782D01*
X6620986Y-107108091D01*
X6206782Y-106920858D01*
X6206768Y-106920853D01*
X5778161Y-106769416D01*
X5338256Y-106654874D01*
X5338252Y-106654873D01*
X5338251Y-106654873D01*
X4890217Y-106578050D01*
X4890219Y-106578050D01*
X4552936Y-106549343D01*
X4437286Y-106539500D01*
X3982714Y-106539500D01*
X3867064Y-106549343D01*
X3529781Y-106578050D01*
X3081748Y-106654873D01*
X2641842Y-106769415D01*
X2213217Y-106920858D01*
X1799013Y-107108091D01*
X1402168Y-107329782D01*
X1402166Y-107329783D01*
X1402164Y-107329785D01*
X1052983Y-107565789D01*
X1025543Y-107584336D01*
X671867Y-107869909D01*
X343686Y-108184445D01*
X43372Y-108525670D01*
X43356Y-108525689D01*
X-226937Y-108891151D01*
X-465269Y-109278226D01*
X-465274Y-109278235D01*
X-669928Y-109684141D01*
X-669928Y-109684144D01*
X-839415Y-110105928D01*
X-972524Y-110540576D01*
X-1068294Y-110984946D01*
X-1126032Y-111435837D01*
X-1145325Y-111890000D01*
X-2599500Y-111890000D01*
X-2599500Y-105256000D01*
X1249400Y-105256000D01*
X7269200Y-105256000D01*
X7269200Y-104290800D01*
X1249400Y-104290800D01*
X1249400Y-105256000D01*
X-2599500Y-105256000D01*
X-2599500Y-98120000D01*
X-1155325Y-98120000D01*
X-1136032Y-98574163D01*
X-1078294Y-99025054D01*
X-982524Y-99469424D01*
X-849415Y-99904072D01*
X-679925Y-100325865D01*
X-475274Y-100731765D01*
X-475269Y-100731773D01*
X-236937Y-101118848D01*
X33356Y-101484310D01*
X33372Y-101484329D01*
X333686Y-101825554D01*
X661867Y-102140090D01*
X661872Y-102140094D01*
X1015546Y-102425666D01*
X1392164Y-102680215D01*
X1392168Y-102680217D01*
X1789013Y-102901908D01*
X2203217Y-103089141D01*
X2203224Y-103089143D01*
X2203232Y-103089147D01*
X2631839Y-103240584D01*
X3071744Y-103355126D01*
X3519778Y-103431949D01*
X3972714Y-103470500D01*
X3972717Y-103470500D01*
X4427283Y-103470500D01*
X4427286Y-103470500D01*
X4880222Y-103431949D01*
X5328256Y-103355126D01*
X5768161Y-103240584D01*
X6196768Y-103089147D01*
X6196778Y-103089142D01*
X6196782Y-103089141D01*
X6371078Y-103010353D01*
X6610987Y-102901908D01*
X7007836Y-102680215D01*
X7384454Y-102425666D01*
X7738128Y-102140094D01*
X8066310Y-101825558D01*
X8366634Y-101484322D01*
X8636938Y-101118847D01*
X8875274Y-100731765D01*
X9079925Y-100325865D01*
X9249415Y-99904072D01*
X9382524Y-99469424D01*
X9478294Y-99025054D01*
X9536032Y-98574163D01*
X9555325Y-98120000D01*
X9536032Y-97665837D01*
X9478294Y-97214946D01*
X9382524Y-96770576D01*
X9249415Y-96335928D01*
X9079928Y-95914144D01*
X9079928Y-95914141D01*
X8875274Y-95508235D01*
X8875269Y-95508226D01*
X8636937Y-95121151D01*
X8366643Y-94755689D01*
X8366627Y-94755670D01*
X8066313Y-94414445D01*
X7738132Y-94099909D01*
X7384456Y-93814336D01*
X7384454Y-93814334D01*
X7007836Y-93559785D01*
X7007831Y-93559782D01*
X6610986Y-93338091D01*
X6196782Y-93150858D01*
X6196768Y-93150853D01*
X5768161Y-92999416D01*
X5328256Y-92884874D01*
X5328252Y-92884873D01*
X5328251Y-92884873D01*
X4880217Y-92808050D01*
X4880219Y-92808050D01*
X4542936Y-92779343D01*
X4427286Y-92769500D01*
X3972714Y-92769500D01*
X3857064Y-92779343D01*
X3519781Y-92808050D01*
X3071748Y-92884873D01*
X2631842Y-92999415D01*
X2203217Y-93150858D01*
X1789013Y-93338091D01*
X1392168Y-93559782D01*
X1392166Y-93559783D01*
X1392164Y-93559785D01*
X1042983Y-93795789D01*
X1015543Y-93814336D01*
X661867Y-94099909D01*
X333686Y-94414445D01*
X33372Y-94755670D01*
X33356Y-94755689D01*
X-236937Y-95121151D01*
X-475269Y-95508226D01*
X-475274Y-95508235D01*
X-679928Y-95914141D01*
X-679928Y-95914144D01*
X-849415Y-96335928D01*
X-982524Y-96770576D01*
X-1078294Y-97214946D01*
X-1136032Y-97665837D01*
X-1155325Y-98120000D01*
X-2599500Y-98120000D01*
X-2599500Y-91463800D01*
X1249400Y-91463800D01*
X7269200Y-91463800D01*
X7269200Y-90498600D01*
X1249400Y-90498600D01*
X1249400Y-91463800D01*
X-2599500Y-91463800D01*
X-2599500Y-84330000D01*
X-1155325Y-84330000D01*
X-1136032Y-84784163D01*
X-1078294Y-85235054D01*
X-982524Y-85679424D01*
X-849415Y-86114072D01*
X-679925Y-86535865D01*
X-475274Y-86941765D01*
X-337245Y-87165939D01*
X-236937Y-87328848D01*
X33356Y-87694310D01*
X33372Y-87694329D01*
X333686Y-88035554D01*
X661867Y-88350090D01*
X661872Y-88350094D01*
X1015546Y-88635666D01*
X1392164Y-88890215D01*
X1392168Y-88890217D01*
X1789013Y-89111908D01*
X2203217Y-89299141D01*
X2203224Y-89299143D01*
X2203232Y-89299147D01*
X2631839Y-89450584D01*
X3071744Y-89565126D01*
X3519778Y-89641949D01*
X3972714Y-89680500D01*
X3972717Y-89680500D01*
X4427283Y-89680500D01*
X4427286Y-89680500D01*
X4880222Y-89641949D01*
X5328256Y-89565126D01*
X5768161Y-89450584D01*
X6196768Y-89299147D01*
X6196778Y-89299142D01*
X6196782Y-89299141D01*
X6371078Y-89220353D01*
X6610987Y-89111908D01*
X7007836Y-88890215D01*
X7384454Y-88635666D01*
X7738128Y-88350094D01*
X8066310Y-88035558D01*
X8366634Y-87694322D01*
X8636938Y-87328847D01*
X8871883Y-86947273D01*
X12549500Y-86947273D01*
X12549500Y-103302727D01*
X12565622Y-103362894D01*
X12576794Y-103404590D01*
X12629515Y-103495907D01*
X12629518Y-103495911D01*
X12704088Y-103570481D01*
X12704092Y-103570484D01*
X12795409Y-103623205D01*
X12795413Y-103623207D01*
X12897273Y-103650500D01*
X12897275Y-103650500D01*
X19002725Y-103650500D01*
X19002727Y-103650500D01*
X19104587Y-103623207D01*
X19135029Y-103605631D01*
X19195907Y-103570484D01*
X19195911Y-103570481D01*
X19195910Y-103570481D01*
X19195913Y-103570480D01*
X19270480Y-103495913D01*
X19270481Y-103495910D01*
X19270484Y-103495907D01*
X19323205Y-103404590D01*
X19323204Y-103404590D01*
X19323207Y-103404587D01*
X19350500Y-103302727D01*
X19350500Y-86947273D01*
X19323207Y-86845413D01*
X19323151Y-86845316D01*
X19270484Y-86754092D01*
X19270481Y-86754088D01*
X19195911Y-86679518D01*
X19195907Y-86679515D01*
X19104590Y-86626794D01*
X19104587Y-86626793D01*
X19002727Y-86599500D01*
X13002727Y-86599500D01*
X12897273Y-86599500D01*
X12807442Y-86623569D01*
X12795409Y-86626794D01*
X12704092Y-86679515D01*
X12704088Y-86679518D01*
X12629518Y-86754088D01*
X12629515Y-86754092D01*
X12576794Y-86845409D01*
X12576793Y-86845413D01*
X12549500Y-86947273D01*
X8871883Y-86947273D01*
X8875274Y-86941765D01*
X9079925Y-86535865D01*
X9249415Y-86114072D01*
X9382524Y-85679424D01*
X9478294Y-85235054D01*
X9536032Y-84784163D01*
X9555325Y-84330000D01*
X9536032Y-83875837D01*
X9478294Y-83424946D01*
X9382524Y-82980576D01*
X9249415Y-82545928D01*
X9079928Y-82124144D01*
X9079928Y-82124141D01*
X8875274Y-81718235D01*
X8875269Y-81718226D01*
X8636937Y-81331151D01*
X8366643Y-80965689D01*
X8366627Y-80965670D01*
X8066313Y-80624445D01*
X7738132Y-80309909D01*
X7384456Y-80024336D01*
X7384454Y-80024334D01*
X7007836Y-79769785D01*
X7007831Y-79769782D01*
X6610986Y-79548091D01*
X6196782Y-79360858D01*
X6196768Y-79360853D01*
X5768161Y-79209416D01*
X5328256Y-79094874D01*
X5328252Y-79094873D01*
X5328251Y-79094873D01*
X4880217Y-79018050D01*
X4880219Y-79018050D01*
X4542936Y-78989343D01*
X4427286Y-78979500D01*
X3972714Y-78979500D01*
X3857064Y-78989343D01*
X3519781Y-79018050D01*
X3071748Y-79094873D01*
X2631842Y-79209415D01*
X2203217Y-79360858D01*
X1789013Y-79548091D01*
X1392168Y-79769782D01*
X1392166Y-79769783D01*
X1392164Y-79769785D01*
X1089278Y-79974500D01*
X1015543Y-80024336D01*
X661867Y-80309909D01*
X333686Y-80624445D01*
X33372Y-80965670D01*
X33356Y-80965689D01*
X-236937Y-81331151D01*
X-475269Y-81718226D01*
X-475274Y-81718235D01*
X-679928Y-82124141D01*
X-679928Y-82124144D01*
X-849415Y-82545928D01*
X-982524Y-82980576D01*
X-1078294Y-83424946D01*
X-1136032Y-83875837D01*
X-1155325Y-84330000D01*
X-2599500Y-84330000D01*
X-2599500Y-77671600D01*
X1249400Y-77671600D01*
X7269200Y-77671600D01*
X7269200Y-76706400D01*
X1249400Y-76706400D01*
X1249400Y-77671600D01*
X-2599500Y-77671600D01*
X-2599500Y-70540000D01*
X-1155325Y-70540000D01*
X-1136032Y-70994163D01*
X-1078294Y-71445054D01*
X-982524Y-71889424D01*
X-849415Y-72324072D01*
X-679925Y-72745865D01*
X-475274Y-73151765D01*
X-475269Y-73151773D01*
X-236937Y-73538848D01*
X33356Y-73904310D01*
X33372Y-73904329D01*
X333686Y-74245554D01*
X661867Y-74560090D01*
X661872Y-74560094D01*
X1015546Y-74845666D01*
X1392164Y-75100215D01*
X1392168Y-75100217D01*
X1789013Y-75321908D01*
X2203217Y-75509141D01*
X2203224Y-75509143D01*
X2203232Y-75509147D01*
X2631839Y-75660584D01*
X3071744Y-75775126D01*
X3519778Y-75851949D01*
X3972714Y-75890500D01*
X3972717Y-75890500D01*
X4427283Y-75890500D01*
X4427286Y-75890500D01*
X4880222Y-75851949D01*
X5328256Y-75775126D01*
X5768161Y-75660584D01*
X6196768Y-75509147D01*
X6196778Y-75509142D01*
X6196782Y-75509141D01*
X6371078Y-75430353D01*
X6610987Y-75321908D01*
X7007836Y-75100215D01*
X7384454Y-74845666D01*
X7738128Y-74560094D01*
X8066310Y-74245558D01*
X8366634Y-73904322D01*
X8636938Y-73538847D01*
X8875274Y-73151765D01*
X9079925Y-72745865D01*
X9249415Y-72324072D01*
X9382524Y-71889424D01*
X9478294Y-71445054D01*
X9536032Y-70994163D01*
X9555325Y-70540000D01*
X9536032Y-70085837D01*
X9478294Y-69634946D01*
X9382524Y-69190576D01*
X9249415Y-68755928D01*
X9079928Y-68334144D01*
X9079928Y-68334141D01*
X8875274Y-67928235D01*
X8875269Y-67928226D01*
X8636937Y-67541151D01*
X8366643Y-67175689D01*
X8366627Y-67175670D01*
X8066313Y-66834445D01*
X7738132Y-66519909D01*
X7384456Y-66234336D01*
X7384454Y-66234334D01*
X7007836Y-65979785D01*
X7007831Y-65979782D01*
X6610986Y-65758091D01*
X6196782Y-65570858D01*
X6196768Y-65570853D01*
X5768161Y-65419416D01*
X5328256Y-65304874D01*
X5328252Y-65304873D01*
X5328251Y-65304873D01*
X4880217Y-65228050D01*
X4880219Y-65228050D01*
X4542936Y-65199343D01*
X4427286Y-65189500D01*
X3972714Y-65189500D01*
X3857064Y-65199343D01*
X3519781Y-65228050D01*
X3071748Y-65304873D01*
X2631842Y-65419415D01*
X2203217Y-65570858D01*
X1789013Y-65758091D01*
X1392168Y-65979782D01*
X1392166Y-65979783D01*
X1392164Y-65979785D01*
X1042983Y-66215789D01*
X1015543Y-66234336D01*
X661867Y-66519909D01*
X333686Y-66834445D01*
X33372Y-67175670D01*
X33356Y-67175689D01*
X-236937Y-67541151D01*
X-475269Y-67928226D01*
X-475274Y-67928235D01*
X-679928Y-68334141D01*
X-679928Y-68334144D01*
X-849415Y-68755928D01*
X-982524Y-69190576D01*
X-1078294Y-69634946D01*
X-1136032Y-70085837D01*
X-1155325Y-70540000D01*
X-2599500Y-70540000D01*
X-2599500Y-64072273D01*
X12549500Y-64072273D01*
X12549500Y-80427727D01*
X12568094Y-80497120D01*
X12576794Y-80529590D01*
X12629515Y-80620907D01*
X12629518Y-80620911D01*
X12704088Y-80695481D01*
X12704092Y-80695484D01*
X12795409Y-80748205D01*
X12795413Y-80748207D01*
X12897273Y-80775500D01*
X12897275Y-80775500D01*
X19002725Y-80775500D01*
X19002727Y-80775500D01*
X19104587Y-80748207D01*
X19166879Y-80712243D01*
X19195907Y-80695484D01*
X19195911Y-80695481D01*
X19195910Y-80695481D01*
X19195913Y-80695480D01*
X19270480Y-80620913D01*
X19270481Y-80620910D01*
X19270484Y-80620907D01*
X19323205Y-80529590D01*
X19323204Y-80529590D01*
X19323207Y-80529587D01*
X19350500Y-80427727D01*
X19350500Y-64072273D01*
X19323207Y-63970413D01*
X19300088Y-63930369D01*
X19270484Y-63879092D01*
X19270481Y-63879088D01*
X19195911Y-63804518D01*
X19195907Y-63804515D01*
X19104590Y-63751794D01*
X19104587Y-63751793D01*
X19002727Y-63724500D01*
X13002727Y-63724500D01*
X12897273Y-63724500D01*
X12807442Y-63748569D01*
X12795409Y-63751794D01*
X12704092Y-63804515D01*
X12704088Y-63804518D01*
X12629518Y-63879088D01*
X12629515Y-63879092D01*
X12576794Y-63970409D01*
X12576793Y-63970413D01*
X12549500Y-64072273D01*
X-2599500Y-64072273D01*
X-2599500Y-63879400D01*
X1249400Y-63879400D01*
X7269200Y-63879400D01*
X7269200Y-62914200D01*
X1249400Y-62914200D01*
X1249400Y-63879400D01*
X-2599500Y-63879400D01*
X-2599500Y-56760000D01*
X-1145325Y-56760000D01*
X-1126032Y-57214163D01*
X-1068294Y-57665054D01*
X-972524Y-58109424D01*
X-839415Y-58544072D01*
X-669925Y-58965865D01*
X-465274Y-59371765D01*
X-465269Y-59371773D01*
X-226937Y-59758848D01*
X43356Y-60124310D01*
X43372Y-60124329D01*
X343686Y-60465554D01*
X671867Y-60780090D01*
X671872Y-60780094D01*
X1025546Y-61065666D01*
X1402164Y-61320215D01*
X1402168Y-61320217D01*
X1799013Y-61541908D01*
X2213217Y-61729141D01*
X2213224Y-61729143D01*
X2213232Y-61729147D01*
X2641839Y-61880584D01*
X3081744Y-61995126D01*
X3529778Y-62071949D01*
X3982714Y-62110500D01*
X3982717Y-62110500D01*
X4437283Y-62110500D01*
X4437286Y-62110500D01*
X4890222Y-62071949D01*
X5338256Y-61995126D01*
X5778161Y-61880584D01*
X6206768Y-61729147D01*
X6206778Y-61729142D01*
X6206782Y-61729141D01*
X6381078Y-61650353D01*
X6620987Y-61541908D01*
X7017836Y-61320215D01*
X7394454Y-61065666D01*
X7748128Y-60780094D01*
X8076310Y-60465558D01*
X8376634Y-60124322D01*
X8646938Y-59758847D01*
X8885274Y-59371765D01*
X9089925Y-58965865D01*
X9259415Y-58544072D01*
X9392524Y-58109424D01*
X9488294Y-57665054D01*
X9546032Y-57214163D01*
X9565325Y-56760000D01*
X9546032Y-56305837D01*
X9488294Y-55854946D01*
X9481764Y-55824649D01*
X9392527Y-55410592D01*
X9392524Y-55410576D01*
X9259415Y-54975928D01*
X9089928Y-54554144D01*
X9089928Y-54554141D01*
X8885274Y-54148235D01*
X8885269Y-54148226D01*
X8646937Y-53761151D01*
X8376643Y-53395689D01*
X8376627Y-53395670D01*
X8076313Y-53054445D01*
X7748132Y-52739909D01*
X7394456Y-52454336D01*
X7394454Y-52454334D01*
X7017836Y-52199785D01*
X7017831Y-52199782D01*
X6620986Y-51978091D01*
X6206782Y-51790858D01*
X6206768Y-51790853D01*
X5778161Y-51639416D01*
X5338256Y-51524874D01*
X5338252Y-51524873D01*
X5338251Y-51524873D01*
X4890217Y-51448050D01*
X4890219Y-51448050D01*
X4552936Y-51419343D01*
X4437286Y-51409500D01*
X3982714Y-51409500D01*
X3867064Y-51419343D01*
X3529781Y-51448050D01*
X3081748Y-51524873D01*
X2641842Y-51639415D01*
X2213217Y-51790858D01*
X1799013Y-51978091D01*
X1402168Y-52199782D01*
X1402166Y-52199783D01*
X1402164Y-52199785D01*
X1052983Y-52435789D01*
X1025543Y-52454336D01*
X671867Y-52739909D01*
X343686Y-53054445D01*
X43372Y-53395670D01*
X43356Y-53395689D01*
X-226937Y-53761151D01*
X-465269Y-54148226D01*
X-465274Y-54148235D01*
X-669928Y-54554141D01*
X-669928Y-54554144D01*
X-839415Y-54975928D01*
X-972524Y-55410576D01*
X-972527Y-55410592D01*
X-1061764Y-55824649D01*
X-1068294Y-55854946D01*
X-1126032Y-56305837D01*
X-1145325Y-56760000D01*
X-2599500Y-56760000D01*
X-2599500Y-50087200D01*
X1249400Y-50087200D01*
X7269200Y-50087200D01*
X7269200Y-49122000D01*
X1249400Y-49122000D01*
X1249400Y-50087200D01*
X-2599500Y-50087200D01*
X-2599500Y-42960000D01*
X-1155325Y-42960000D01*
X-1136032Y-43414163D01*
X-1078294Y-43865054D01*
X-982524Y-44309424D01*
X-849415Y-44744072D01*
X-679925Y-45165865D01*
X-475274Y-45571765D01*
X-258990Y-45923033D01*
X-236937Y-45958848D01*
X33356Y-46324310D01*
X33372Y-46324329D01*
X333686Y-46665554D01*
X661867Y-46980090D01*
X661872Y-46980094D01*
X1015546Y-47265666D01*
X1392164Y-47520215D01*
X1392168Y-47520217D01*
X1789013Y-47741908D01*
X2203217Y-47929141D01*
X2203224Y-47929143D01*
X2203232Y-47929147D01*
X2631839Y-48080584D01*
X3071744Y-48195126D01*
X3519778Y-48271949D01*
X3972714Y-48310500D01*
X3972717Y-48310500D01*
X4427283Y-48310500D01*
X4427286Y-48310500D01*
X4880222Y-48271949D01*
X5328256Y-48195126D01*
X5768161Y-48080584D01*
X6196768Y-47929147D01*
X6196778Y-47929142D01*
X6196782Y-47929141D01*
X6371078Y-47850353D01*
X6610987Y-47741908D01*
X7007836Y-47520215D01*
X7384454Y-47265666D01*
X7738128Y-46980094D01*
X8066310Y-46665558D01*
X8366634Y-46324322D01*
X8636938Y-45958847D01*
X8686628Y-45878146D01*
X13596635Y-45878146D01*
X13598914Y-45907771D01*
X13599500Y-45923033D01*
X13599500Y-55934657D01*
X13598678Y-55952721D01*
X13597712Y-55963318D01*
X13599341Y-56004045D01*
X13599500Y-56011998D01*
X13599500Y-56052725D01*
X13600555Y-56060741D01*
X13601927Y-56068693D01*
X13614038Y-56107600D01*
X13616249Y-56115236D01*
X13626794Y-56154590D01*
X13629890Y-56162066D01*
X13633266Y-56169374D01*
X13633269Y-56169379D01*
X13633270Y-56169381D01*
X13655059Y-56203860D01*
X13659151Y-56210632D01*
X13679519Y-56245912D01*
X13684437Y-56252320D01*
X13689603Y-56258523D01*
X13719543Y-56286160D01*
X13725279Y-56291672D01*
X13754087Y-56320480D01*
X13762525Y-56326955D01*
X13776357Y-56338604D01*
X14947795Y-57419932D01*
X14990807Y-57477161D01*
X15306930Y-58109407D01*
X15429545Y-58354636D01*
X15436908Y-58371212D01*
X15446143Y-58394849D01*
X15446144Y-58394852D01*
X15446147Y-58394856D01*
X15447018Y-58396040D01*
X15464704Y-58424955D01*
X15465362Y-58426270D01*
X15482201Y-58445260D01*
X15493598Y-58459359D01*
X15508633Y-58479796D01*
X15508635Y-58479798D01*
X15508637Y-58479800D01*
X15509783Y-58480717D01*
X15534349Y-58504068D01*
X15535323Y-58505166D01*
X15535327Y-58505170D01*
X15556508Y-58519155D01*
X15571158Y-58529817D01*
X16116205Y-58965854D01*
X16123878Y-58971992D01*
X16140278Y-58986671D01*
X16154087Y-59000480D01*
X16160444Y-59004150D01*
X16185257Y-59021095D01*
X16190983Y-59025676D01*
X16190985Y-59025677D01*
X16190984Y-59025677D01*
X16203066Y-59030970D01*
X16208854Y-59033506D01*
X16228500Y-59043441D01*
X16245413Y-59053207D01*
X16252499Y-59055105D01*
X16280861Y-59065055D01*
X16283580Y-59066246D01*
X16287572Y-59067995D01*
X16306886Y-59070936D01*
X16328406Y-59075444D01*
X16347273Y-59080500D01*
X16354605Y-59080500D01*
X16384569Y-59082769D01*
X16391824Y-59083874D01*
X16411236Y-59081717D01*
X16433211Y-59080500D01*
X19182726Y-59080500D01*
X19182727Y-59080500D01*
X19284588Y-59053207D01*
X19375913Y-59000480D01*
X20200480Y-58175913D01*
X20253207Y-58084588D01*
X20280500Y-57982727D01*
X20280500Y-57877273D01*
X20280500Y-43954053D01*
X20282413Y-43936149D01*
X20281531Y-43936077D01*
X20282599Y-43923081D01*
X20280738Y-43885065D01*
X20280500Y-43875334D01*
X20280500Y-43837272D01*
X20279211Y-43827483D01*
X20277442Y-43817751D01*
X20265809Y-43781524D01*
X20263061Y-43772187D01*
X20253208Y-43735416D01*
X20249419Y-43726269D01*
X20245204Y-43717352D01*
X20224581Y-43685356D01*
X20219508Y-43677045D01*
X20216749Y-43672266D01*
X20200480Y-43644087D01*
X20200476Y-43644083D01*
X20194458Y-43636239D01*
X20188075Y-43628714D01*
X20159872Y-43603143D01*
X20152824Y-43596431D01*
X20125913Y-43569520D01*
X20115563Y-43561578D01*
X20116100Y-43560877D01*
X20101555Y-43550269D01*
X19563980Y-43062868D01*
X19410637Y-42923837D01*
X19403111Y-42916646D01*
X19377004Y-42890360D01*
X19368648Y-42883903D01*
X19359946Y-42877878D01*
X19327003Y-42860949D01*
X19317872Y-42855951D01*
X19300890Y-42846069D01*
X19285860Y-42837323D01*
X19285856Y-42837321D01*
X19276093Y-42833238D01*
X19266158Y-42829682D01*
X19266156Y-42829681D01*
X19266152Y-42829680D01*
X19229939Y-42821851D01*
X19219832Y-42819388D01*
X19184098Y-42809682D01*
X19173612Y-42808265D01*
X19163081Y-42807400D01*
X19126096Y-42809211D01*
X19115688Y-42809448D01*
X16233535Y-42799611D01*
X16212243Y-42798395D01*
X16191825Y-42796126D01*
X16191816Y-42796127D01*
X16185577Y-42797077D01*
X16154959Y-42799343D01*
X16148644Y-42799321D01*
X16148633Y-42799323D01*
X16128761Y-42804575D01*
X16107881Y-42808911D01*
X16087575Y-42812003D01*
X16087569Y-42812005D01*
X16081779Y-42814542D01*
X16052798Y-42824652D01*
X16046691Y-42826266D01*
X16046689Y-42826267D01*
X16028853Y-42836483D01*
X16009819Y-42846069D01*
X15990990Y-42854319D01*
X15990979Y-42854325D01*
X15986045Y-42858273D01*
X15960667Y-42875541D01*
X15955184Y-42878681D01*
X15955177Y-42878687D01*
X15940594Y-42893170D01*
X15924683Y-42907361D01*
X15481372Y-43262010D01*
X15459398Y-43277285D01*
X15448832Y-43283620D01*
X15438697Y-43294095D01*
X15420015Y-43311096D01*
X15408636Y-43320200D01*
X15401341Y-43330116D01*
X15384072Y-43350553D01*
X15375510Y-43359402D01*
X15375504Y-43359410D01*
X15368427Y-43372148D01*
X15354782Y-43393405D01*
X15346147Y-43405143D01*
X15346145Y-43405147D01*
X15341665Y-43416614D01*
X15330269Y-43440833D01*
X14879338Y-44252510D01*
X14856473Y-44285374D01*
X13710898Y-45621878D01*
X13700523Y-45633083D01*
X13679520Y-45654086D01*
X13675312Y-45659570D01*
X13665381Y-45673596D01*
X13661601Y-45679393D01*
X13648761Y-45706191D01*
X13641641Y-45719694D01*
X13626793Y-45745411D01*
X13624133Y-45751833D01*
X13618194Y-45767890D01*
X13616035Y-45774494D01*
X13610569Y-45803695D01*
X13607188Y-45818576D01*
X13599499Y-45847273D01*
X13598589Y-45854183D01*
X13597012Y-45871186D01*
X13596635Y-45878146D01*
X8686628Y-45878146D01*
X8875274Y-45571765D01*
X9079925Y-45165865D01*
X9249415Y-44744072D01*
X9382524Y-44309424D01*
X9478294Y-43865054D01*
X9536032Y-43414163D01*
X9555325Y-42960000D01*
X9536032Y-42505837D01*
X9478294Y-42054946D01*
X9382524Y-41610576D01*
X9249415Y-41175928D01*
X9079928Y-40754144D01*
X9079928Y-40754141D01*
X8875274Y-40348235D01*
X8875269Y-40348226D01*
X8636937Y-39961151D01*
X8366643Y-39595689D01*
X8366627Y-39595670D01*
X8066313Y-39254445D01*
X7738132Y-38939909D01*
X7384456Y-38654336D01*
X7384454Y-38654334D01*
X7007836Y-38399785D01*
X7007831Y-38399782D01*
X6610986Y-38178091D01*
X6196782Y-37990858D01*
X6196768Y-37990853D01*
X5768161Y-37839416D01*
X5328256Y-37724874D01*
X5328252Y-37724873D01*
X5328251Y-37724873D01*
X4880217Y-37648050D01*
X4880219Y-37648050D01*
X4542936Y-37619343D01*
X4427286Y-37609500D01*
X3972714Y-37609500D01*
X3857064Y-37619343D01*
X3519781Y-37648050D01*
X3071748Y-37724873D01*
X2631842Y-37839415D01*
X2203217Y-37990858D01*
X1789013Y-38178091D01*
X1392168Y-38399782D01*
X1392166Y-38399783D01*
X1392164Y-38399785D01*
X1042983Y-38635789D01*
X1015543Y-38654336D01*
X661867Y-38939909D01*
X333686Y-39254445D01*
X33372Y-39595670D01*
X33356Y-39595689D01*
X-236937Y-39961151D01*
X-475269Y-40348226D01*
X-475274Y-40348235D01*
X-679928Y-40754141D01*
X-679928Y-40754144D01*
X-849415Y-41175928D01*
X-982524Y-41610576D01*
X-1078294Y-42054946D01*
X-1136032Y-42505837D01*
X-1155325Y-42960000D01*
X-2599500Y-42960000D01*
X-2599500Y-36295000D01*
X1249400Y-36295000D01*
X7269200Y-36295000D01*
X7269200Y-35849994D01*
X12470050Y-35849994D01*
X12470050Y-35850005D01*
X12487829Y-36132613D01*
X12487830Y-36132617D01*
X12540893Y-36410786D01*
X12572500Y-36508059D01*
X12628401Y-36680102D01*
X12748972Y-36936330D01*
X12900707Y-37175426D01*
X13081212Y-37393619D01*
X13287641Y-37587469D01*
X13516737Y-37753917D01*
X13764889Y-37890340D01*
X13764892Y-37890341D01*
X14028172Y-37994582D01*
X14028179Y-37994583D01*
X14028182Y-37994585D01*
X14302465Y-38065009D01*
X14583411Y-38100500D01*
X14583415Y-38100500D01*
X21016585Y-38100500D01*
X21016589Y-38100500D01*
X21297535Y-38065009D01*
X21571818Y-37994585D01*
X21571822Y-37994583D01*
X21571827Y-37994582D01*
X21701130Y-37943386D01*
X21835111Y-37890340D01*
X22083263Y-37753917D01*
X22312359Y-37587469D01*
X22518788Y-37393619D01*
X22699293Y-37175426D01*
X22851028Y-36936330D01*
X22971599Y-36680102D01*
X23059107Y-36410783D01*
X23112169Y-36132620D01*
X23112169Y-36132615D01*
X23112170Y-36132613D01*
X23129950Y-35850005D01*
X23129950Y-35849994D01*
X23112170Y-35567386D01*
X23112169Y-35567382D01*
X23080636Y-35402080D01*
X23059107Y-35289217D01*
X22971599Y-35019898D01*
X22851028Y-34763670D01*
X22699293Y-34524574D01*
X22655340Y-34471444D01*
X22518794Y-34306388D01*
X22518784Y-34306377D01*
X22471358Y-34261841D01*
X22312359Y-34112531D01*
X22255085Y-34070919D01*
X22083272Y-33946089D01*
X22083261Y-33946082D01*
X21835119Y-33809664D01*
X21835107Y-33809658D01*
X21571827Y-33705417D01*
X21571812Y-33705413D01*
X21297539Y-33634992D01*
X21297531Y-33634990D01*
X21016595Y-33599500D01*
X21016589Y-33599500D01*
X20927727Y-33599500D01*
X14782583Y-33599500D01*
X14725000Y-33599500D01*
X14583411Y-33599500D01*
X14583404Y-33599500D01*
X14302468Y-33634990D01*
X14302460Y-33634992D01*
X14028187Y-33705413D01*
X14028172Y-33705417D01*
X13764892Y-33809658D01*
X13764880Y-33809664D01*
X13516738Y-33946082D01*
X13516727Y-33946089D01*
X13287643Y-34112529D01*
X13081215Y-34306377D01*
X13081205Y-34306388D01*
X12900711Y-34524568D01*
X12900701Y-34524582D01*
X12748976Y-34763663D01*
X12748970Y-34763673D01*
X12628399Y-35019903D01*
X12540893Y-35289213D01*
X12487830Y-35567382D01*
X12487829Y-35567386D01*
X12470050Y-35849994D01*
X7269200Y-35849994D01*
X7269200Y-35329800D01*
X1249400Y-35329800D01*
X1249400Y-36295000D01*
X-2599500Y-36295000D01*
X-2599500Y-29190000D01*
X-1165325Y-29190000D01*
X-1146032Y-29644163D01*
X-1088294Y-30095054D01*
X-992524Y-30539424D01*
X-859415Y-30974072D01*
X-689925Y-31395865D01*
X-485274Y-31801765D01*
X-485269Y-31801773D01*
X-246937Y-32188848D01*
X23356Y-32554310D01*
X23372Y-32554329D01*
X323686Y-32895554D01*
X651867Y-33210090D01*
X651872Y-33210094D01*
X1005546Y-33495666D01*
X1382164Y-33750215D01*
X1382168Y-33750217D01*
X1779013Y-33971908D01*
X2193217Y-34159141D01*
X2193224Y-34159143D01*
X2193232Y-34159147D01*
X2621839Y-34310584D01*
X3061744Y-34425126D01*
X3509778Y-34501949D01*
X3962714Y-34540500D01*
X3962717Y-34540500D01*
X4417283Y-34540500D01*
X4417286Y-34540500D01*
X4870222Y-34501949D01*
X5318256Y-34425126D01*
X5758161Y-34310584D01*
X6186768Y-34159147D01*
X6186778Y-34159142D01*
X6186782Y-34159141D01*
X6361078Y-34080353D01*
X6600987Y-33971908D01*
X6997836Y-33750215D01*
X7374454Y-33495666D01*
X7728128Y-33210094D01*
X8056310Y-32895558D01*
X8356634Y-32554322D01*
X8626938Y-32188847D01*
X8865274Y-31801765D01*
X9069925Y-31395865D01*
X9239415Y-30974072D01*
X9372524Y-30539424D01*
X9468294Y-30095054D01*
X9526032Y-29644163D01*
X9545325Y-29190000D01*
X9526032Y-28735837D01*
X9473478Y-28325426D01*
X9468294Y-28284945D01*
X9425490Y-28086336D01*
X9372524Y-27840576D01*
X9239415Y-27405928D01*
X9076297Y-26999994D01*
X12545050Y-26999994D01*
X12545050Y-27000005D01*
X12562829Y-27282613D01*
X12562830Y-27282617D01*
X12615893Y-27560786D01*
X12647500Y-27658059D01*
X12703401Y-27830102D01*
X12808884Y-28054266D01*
X12823970Y-28086326D01*
X12823976Y-28086336D01*
X12950017Y-28284946D01*
X12975707Y-28325426D01*
X13156212Y-28543619D01*
X13362641Y-28737469D01*
X13591737Y-28903917D01*
X13839889Y-29040340D01*
X13839892Y-29040341D01*
X14103172Y-29144582D01*
X14103179Y-29144583D01*
X14103182Y-29144585D01*
X14377465Y-29215009D01*
X14658411Y-29250500D01*
X14658415Y-29250500D01*
X21091585Y-29250500D01*
X21091589Y-29250500D01*
X21372535Y-29215009D01*
X21646818Y-29144585D01*
X21646822Y-29144583D01*
X21646827Y-29144582D01*
X21776130Y-29093386D01*
X21910111Y-29040340D01*
X22158263Y-28903917D01*
X22387359Y-28737469D01*
X22593788Y-28543619D01*
X22774293Y-28325426D01*
X22926028Y-28086330D01*
X23046599Y-27830102D01*
X23134107Y-27560783D01*
X23187169Y-27282620D01*
X23187169Y-27282615D01*
X23187170Y-27282613D01*
X23204950Y-27000005D01*
X23204950Y-26999994D01*
X23187170Y-26717386D01*
X23187169Y-26717382D01*
X23155636Y-26552080D01*
X23134107Y-26439217D01*
X23046599Y-26169898D01*
X22926028Y-25913670D01*
X22774293Y-25674574D01*
X22593788Y-25456381D01*
X22387359Y-25262531D01*
X22259872Y-25169906D01*
X22158272Y-25096089D01*
X22158261Y-25096082D01*
X21910119Y-24959664D01*
X21910107Y-24959658D01*
X21646827Y-24855417D01*
X21646812Y-24855413D01*
X21372539Y-24784992D01*
X21372531Y-24784990D01*
X21091595Y-24749500D01*
X21091589Y-24749500D01*
X21002727Y-24749500D01*
X14857583Y-24749500D01*
X14800000Y-24749500D01*
X14658411Y-24749500D01*
X14658404Y-24749500D01*
X14377468Y-24784990D01*
X14377460Y-24784992D01*
X14103187Y-24855413D01*
X14103172Y-24855417D01*
X13839892Y-24959658D01*
X13839880Y-24959664D01*
X13591738Y-25096082D01*
X13591727Y-25096089D01*
X13362643Y-25262529D01*
X13156215Y-25456377D01*
X13156205Y-25456388D01*
X12975711Y-25674568D01*
X12975701Y-25674582D01*
X12823976Y-25913663D01*
X12823970Y-25913673D01*
X12703399Y-26169903D01*
X12615893Y-26439213D01*
X12562830Y-26717382D01*
X12562829Y-26717386D01*
X12545050Y-26999994D01*
X9076297Y-26999994D01*
X9069928Y-26984144D01*
X9069928Y-26984141D01*
X8865274Y-26578235D01*
X8865269Y-26578226D01*
X8626937Y-26191151D01*
X8356643Y-25825689D01*
X8356627Y-25825670D01*
X8056313Y-25484445D01*
X7728132Y-25169909D01*
X7374456Y-24884336D01*
X7374454Y-24884334D01*
X6997836Y-24629785D01*
X6997831Y-24629782D01*
X6600986Y-24408091D01*
X6186782Y-24220858D01*
X6186768Y-24220853D01*
X5758161Y-24069416D01*
X5318256Y-23954874D01*
X5318252Y-23954873D01*
X5318251Y-23954873D01*
X4870217Y-23878050D01*
X4870219Y-23878050D01*
X4532936Y-23849343D01*
X4417286Y-23839500D01*
X3962714Y-23839500D01*
X3847064Y-23849343D01*
X3509781Y-23878050D01*
X3061748Y-23954873D01*
X2621842Y-24069415D01*
X2193217Y-24220858D01*
X1779013Y-24408091D01*
X1382168Y-24629782D01*
X1382166Y-24629783D01*
X1382164Y-24629785D01*
X1048336Y-24855413D01*
X1005543Y-24884336D01*
X651867Y-25169909D01*
X323686Y-25484445D01*
X23372Y-25825670D01*
X23356Y-25825689D01*
X-246937Y-26191151D01*
X-485269Y-26578226D01*
X-485274Y-26578235D01*
X-689928Y-26984141D01*
X-689928Y-26984144D01*
X-859415Y-27405928D01*
X-992524Y-27840576D01*
X-1045490Y-28086336D01*
X-1088294Y-28284945D01*
X-1093478Y-28325426D01*
X-1146032Y-28735837D01*
X-1165325Y-29190000D01*
X-2599500Y-29190000D01*
X-2599500Y-22502800D01*
X1249400Y-22502800D01*
X7269200Y-22502800D01*
X7269200Y-21537600D01*
X1249400Y-21537600D01*
X1249400Y-22502800D01*
X-2599500Y-22502800D01*
X-2599500Y-15391200D01*
X-1155325Y-15391200D01*
X-1136032Y-15845363D01*
X-1078294Y-16296254D01*
X-982524Y-16740624D01*
X-849415Y-17175272D01*
X-679925Y-17597065D01*
X-475274Y-18002965D01*
X-273502Y-18330664D01*
X-236937Y-18390048D01*
X33356Y-18755510D01*
X33372Y-18755529D01*
X333686Y-19096754D01*
X661867Y-19411290D01*
X661872Y-19411294D01*
X1015546Y-19696866D01*
X1392164Y-19951415D01*
X1789013Y-20173108D01*
X2203217Y-20360341D01*
X2203224Y-20360343D01*
X2203232Y-20360347D01*
X2631839Y-20511784D01*
X3071744Y-20626326D01*
X3519778Y-20703149D01*
X3972714Y-20741700D01*
X3972717Y-20741700D01*
X4427283Y-20741700D01*
X4427286Y-20741700D01*
X4880222Y-20703149D01*
X5328256Y-20626326D01*
X5768161Y-20511784D01*
X6196768Y-20360347D01*
X6196778Y-20360342D01*
X6196782Y-20360341D01*
X6371078Y-20281553D01*
X6610987Y-20173108D01*
X7007836Y-19951415D01*
X7384454Y-19696866D01*
X7738128Y-19411294D01*
X8066310Y-19096758D01*
X8366634Y-18755522D01*
X8636938Y-18390047D01*
X8875274Y-18002965D01*
X9079925Y-17597065D01*
X9249415Y-17175272D01*
X9382524Y-16740624D01*
X9478294Y-16296254D01*
X9536032Y-15845363D01*
X9550969Y-15493746D01*
X10578678Y-15493746D01*
X10578679Y-15493751D01*
X10578679Y-15493755D01*
X10600731Y-15654418D01*
X10826167Y-17296879D01*
X11299998Y-18599996D01*
X11300000Y-18600002D01*
X11845402Y-19609614D01*
X11845407Y-19609622D01*
X12340380Y-20387436D01*
X12956080Y-21023848D01*
X13469833Y-21537600D01*
X13592462Y-21660229D01*
X14450000Y-22300000D01*
X15298097Y-22741600D01*
X16217335Y-23165864D01*
X17384062Y-23554772D01*
X18374011Y-23766904D01*
X19646803Y-23837615D01*
X19650000Y-23050000D01*
X18851559Y-23025003D01*
X18816090Y-23020683D01*
X17852778Y-22814259D01*
X17834809Y-22809521D01*
X16628740Y-22430471D01*
X16586022Y-22411268D01*
X15381999Y-21688854D01*
X15356987Y-21671089D01*
X14532889Y-20984341D01*
X14509561Y-20961400D01*
X13640809Y-19953647D01*
X13632334Y-19943112D01*
X13013728Y-19118304D01*
X12990786Y-19079059D01*
X12616691Y-18228843D01*
X12607313Y-18202722D01*
X12227171Y-16854948D01*
X12220518Y-16818960D01*
X12117576Y-15686601D01*
X12117266Y-15654430D01*
X12149303Y-15205919D01*
X15849500Y-15205919D01*
X15849500Y-15594080D01*
X15887546Y-15980360D01*
X15963268Y-16361041D01*
X15963272Y-16361057D01*
X16075941Y-16732477D01*
X16075945Y-16732489D01*
X16224483Y-17091092D01*
X16407451Y-17433403D01*
X16407457Y-17433413D01*
X16515279Y-17594780D01*
X16623102Y-17756148D01*
X16623105Y-17756152D01*
X16623108Y-17756156D01*
X16869335Y-18056184D01*
X16869353Y-18056204D01*
X17143795Y-18330646D01*
X17143815Y-18330664D01*
X17216175Y-18390048D01*
X17443852Y-18576898D01*
X17685355Y-18738265D01*
X17766586Y-18792542D01*
X17766596Y-18792548D01*
X18108907Y-18975516D01*
X18467512Y-19124055D01*
X18838949Y-19236730D01*
X19219642Y-19312454D01*
X19605924Y-19350500D01*
X19605926Y-19350500D01*
X19994074Y-19350500D01*
X19994076Y-19350500D01*
X20380358Y-19312454D01*
X20761051Y-19236730D01*
X21132488Y-19124055D01*
X21491093Y-18975516D01*
X21833412Y-18792543D01*
X22156148Y-18576898D01*
X22456193Y-18330657D01*
X22730657Y-18056193D01*
X22976898Y-17756148D01*
X23192543Y-17433412D01*
X23375516Y-17091093D01*
X23524055Y-16732488D01*
X23636730Y-16361051D01*
X23712454Y-15980358D01*
X23750500Y-15594076D01*
X23750500Y-15205924D01*
X23712454Y-14819642D01*
X23636730Y-14438949D01*
X23524055Y-14067512D01*
X23375516Y-13708907D01*
X23327953Y-13619922D01*
X23192548Y-13366596D01*
X23192542Y-13366586D01*
X23071440Y-13185345D01*
X22976898Y-13043852D01*
X22976891Y-13043843D01*
X22730664Y-12743815D01*
X22730646Y-12743795D01*
X22456204Y-12469353D01*
X22456184Y-12469335D01*
X22156156Y-12223108D01*
X22156152Y-12223105D01*
X22156148Y-12223102D01*
X21994780Y-12115279D01*
X21833413Y-12007457D01*
X21833403Y-12007451D01*
X21491092Y-11824483D01*
X21132489Y-11675945D01*
X21132477Y-11675941D01*
X20840316Y-11587314D01*
X20761051Y-11563270D01*
X20761041Y-11563268D01*
X20380360Y-11487546D01*
X19994080Y-11449500D01*
X19994076Y-11449500D01*
X19605924Y-11449500D01*
X19605919Y-11449500D01*
X19219639Y-11487546D01*
X18838958Y-11563268D01*
X18838953Y-11563269D01*
X18838949Y-11563270D01*
X18838944Y-11563271D01*
X18838942Y-11563272D01*
X18467522Y-11675941D01*
X18467510Y-11675945D01*
X18108907Y-11824483D01*
X17766596Y-12007451D01*
X17766586Y-12007457D01*
X17443852Y-12223102D01*
X17443843Y-12223108D01*
X17143815Y-12469335D01*
X17143795Y-12469353D01*
X16869353Y-12743795D01*
X16869335Y-12743815D01*
X16623108Y-13043843D01*
X16623102Y-13043852D01*
X16407457Y-13366586D01*
X16407451Y-13366596D01*
X16224483Y-13708907D01*
X16075945Y-14067510D01*
X16075941Y-14067522D01*
X15963272Y-14438942D01*
X15963268Y-14438958D01*
X15887546Y-14819639D01*
X15849500Y-15205919D01*
X12149303Y-15205919D01*
X12185932Y-14693109D01*
X12189287Y-14668278D01*
X12396533Y-13632051D01*
X12402873Y-13608179D01*
X12782439Y-12469481D01*
X12796004Y-12438084D01*
X13274841Y-11548815D01*
X13293237Y-11520651D01*
X13700000Y-11000000D01*
X13665454Y-10971831D01*
X12203553Y-9779793D01*
X12155030Y-9840448D01*
X12155025Y-9840454D01*
X11447914Y-10971831D01*
X10959009Y-11926418D01*
X10959007Y-11926423D01*
X10690810Y-13322434D01*
X10649440Y-14240552D01*
X10649325Y-14242815D01*
X10578678Y-15493746D01*
X9550969Y-15493746D01*
X9555325Y-15391200D01*
X9536032Y-14937037D01*
X9478294Y-14486146D01*
X9382524Y-14041776D01*
X9249415Y-13607128D01*
X9152757Y-13366586D01*
X9079929Y-13185345D01*
X9079928Y-13185341D01*
X8875274Y-12779435D01*
X8875269Y-12779426D01*
X8636937Y-12392351D01*
X8366643Y-12026889D01*
X8366627Y-12026870D01*
X8066313Y-11685645D01*
X7738132Y-11371109D01*
X7384456Y-11085536D01*
X7384454Y-11085534D01*
X7007836Y-10830985D01*
X7007831Y-10830982D01*
X6610986Y-10609291D01*
X6196782Y-10422058D01*
X6196768Y-10422053D01*
X5768161Y-10270616D01*
X5328256Y-10156074D01*
X5328252Y-10156073D01*
X5328251Y-10156073D01*
X4880217Y-10079250D01*
X4880219Y-10079250D01*
X4542936Y-10050543D01*
X4427286Y-10040700D01*
X3972714Y-10040700D01*
X3857064Y-10050543D01*
X3519781Y-10079250D01*
X3071748Y-10156073D01*
X2631842Y-10270615D01*
X2203217Y-10422058D01*
X1789013Y-10609291D01*
X1392168Y-10830982D01*
X1392166Y-10830983D01*
X1392164Y-10830985D01*
X1183784Y-10971825D01*
X1015543Y-11085536D01*
X661867Y-11371109D01*
X333686Y-11685645D01*
X33372Y-12026870D01*
X33356Y-12026889D01*
X-236937Y-12392351D01*
X-475269Y-12779426D01*
X-475274Y-12779435D01*
X-679928Y-13185341D01*
X-679929Y-13185345D01*
X-752757Y-13366586D01*
X-849415Y-13607128D01*
X-982524Y-14041776D01*
X-1078294Y-14486146D01*
X-1136032Y-14937037D01*
X-1155325Y-15391200D01*
X-2599500Y-15391200D01*
X-2599500Y-599500D01*
X-2579793Y-513157D01*
X-2524574Y-443916D01*
X-2444782Y-405489D01*
X-2400500Y-400500D01*
X11947273Y-400500D01*
X26400500Y-400500D01*
X26486843Y-420207D01*
G37*
%TD.AperFunction*%
%TD*%
M02*
