%TF.GenerationSoftware,KiCad,Pcbnew,8.0.7*%
%TF.CreationDate,2025-01-04T21:32:03+01:00*%
%TF.ProjectId,tiliqua-motherboard,74696c69-7175-4612-9d6d-6f7468657262,rev?*%
%TF.SameCoordinates,Original*%
%TF.FileFunction,Paste,Bot*%
%TF.FilePolarity,Positive*%
%FSLAX46Y46*%
G04 Gerber Fmt 4.6, Leading zero omitted, Abs format (unit mm)*
G04 Created by KiCad (PCBNEW 8.0.7) date 2025-01-04 21:32:03*
%MOMM*%
%LPD*%
G01*
G04 APERTURE LIST*
G04 Aperture macros list*
%AMRoundRect*
0 Rectangle with rounded corners*
0 $1 Rounding radius*
0 $2 $3 $4 $5 $6 $7 $8 $9 X,Y pos of 4 corners*
0 Add a 4 corners polygon primitive as box body*
4,1,4,$2,$3,$4,$5,$6,$7,$8,$9,$2,$3,0*
0 Add four circle primitives for the rounded corners*
1,1,$1+$1,$2,$3*
1,1,$1+$1,$4,$5*
1,1,$1+$1,$6,$7*
1,1,$1+$1,$8,$9*
0 Add four rect primitives between the rounded corners*
20,1,$1+$1,$2,$3,$4,$5,0*
20,1,$1+$1,$4,$5,$6,$7,0*
20,1,$1+$1,$6,$7,$8,$9,0*
20,1,$1+$1,$8,$9,$2,$3,0*%
G04 Aperture macros list end*
%ADD10RoundRect,0.147500X-0.147500X-0.172500X0.147500X-0.172500X0.147500X0.172500X-0.147500X0.172500X0*%
%ADD11RoundRect,0.135000X0.035355X-0.226274X0.226274X-0.035355X-0.035355X0.226274X-0.226274X0.035355X0*%
%ADD12RoundRect,0.135000X-0.035355X0.226274X-0.226274X0.035355X0.035355X-0.226274X0.226274X-0.035355X0*%
%ADD13R,1.400000X1.200000*%
%ADD14RoundRect,0.150000X0.150000X-0.512500X0.150000X0.512500X-0.150000X0.512500X-0.150000X-0.512500X0*%
%ADD15R,1.800000X0.300000*%
%ADD16R,3.200000X2.500000*%
%ADD17R,0.500000X0.400000*%
%ADD18R,0.500000X0.300000*%
%ADD19R,1.600000X3.100000*%
%ADD20RoundRect,0.087500X0.087500X-0.725000X0.087500X0.725000X-0.087500X0.725000X-0.087500X-0.725000X0*%
%ADD21RoundRect,0.135000X0.185000X-0.135000X0.185000X0.135000X-0.185000X0.135000X-0.185000X-0.135000X0*%
%ADD22RoundRect,0.135000X-0.135000X-0.185000X0.135000X-0.185000X0.135000X0.185000X-0.135000X0.185000X0*%
%ADD23RoundRect,0.140000X-0.170000X0.140000X-0.170000X-0.140000X0.170000X-0.140000X0.170000X0.140000X0*%
G04 APERTURE END LIST*
D10*
%TO.C,D6*%
X1480000Y-2650000D03*
X2450000Y-2650000D03*
%TD*%
D11*
%TO.C,R49*%
X11858960Y-73873543D03*
X12580208Y-73152295D03*
%TD*%
D12*
%TO.C,R37*%
X9454893Y-79649130D03*
X8733645Y-80370378D03*
%TD*%
D13*
%TO.C,Y2*%
X11300798Y-87562359D03*
X13500798Y-87562359D03*
X13500798Y-89262359D03*
X11300798Y-89262359D03*
%TD*%
D10*
%TO.C,D16*%
X1500000Y-8340000D03*
X2470000Y-8340000D03*
%TD*%
%TO.C,D14*%
X1480000Y-4550000D03*
X2450000Y-4550000D03*
%TD*%
D14*
%TO.C,U6*%
X14133656Y-67837499D03*
X13183657Y-67837499D03*
X12233658Y-67837499D03*
X12233658Y-65562499D03*
X14133656Y-65562499D03*
%TD*%
D11*
%TO.C,R48*%
X14510724Y-77794791D03*
X15231972Y-77073543D03*
%TD*%
D10*
%TO.C,D10*%
X1487500Y-3600000D03*
X2457500Y-3600000D03*
%TD*%
%TO.C,D8*%
X1495000Y-6440000D03*
X2465000Y-6440000D03*
%TD*%
D15*
%TO.C,J1*%
X8800000Y-50100000D03*
X8800000Y-50600000D03*
X8800000Y-51100000D03*
X8800000Y-51600000D03*
X8800000Y-52100000D03*
X8800000Y-52600000D03*
X8800000Y-53100000D03*
X8800000Y-53600000D03*
X8800000Y-54100000D03*
X8800000Y-54600000D03*
X8800000Y-55100000D03*
X8800000Y-55600000D03*
X8800000Y-56100000D03*
X8800000Y-56600000D03*
D16*
X10700000Y-48150000D03*
X10700000Y-58550000D03*
%TD*%
D17*
%TO.C,RN4*%
X9110000Y-7690000D03*
D18*
X9110000Y-8190000D03*
X9110000Y-8690000D03*
D17*
X9110000Y-9190000D03*
X8110000Y-9190000D03*
D18*
X8110000Y-8690000D03*
X8110000Y-8190000D03*
D17*
X8110000Y-7690000D03*
%TD*%
D11*
%TO.C,R36*%
X8380646Y-79392067D03*
X9101894Y-78670819D03*
%TD*%
D19*
%TO.C,U4*%
X22195000Y-90290000D03*
X19655000Y-90290000D03*
X17115000Y-90290000D03*
X17115000Y-81400000D03*
X19655000Y-81400000D03*
X22195000Y-81400000D03*
%TD*%
D10*
%TO.C,D12*%
X1500000Y-7390000D03*
X2470000Y-7390000D03*
%TD*%
D11*
%TO.C,R47*%
X15213992Y-78478524D03*
X15935240Y-77757276D03*
%TD*%
D17*
%TO.C,RN2*%
X9040000Y-2690000D03*
D18*
X9040000Y-3190000D03*
X9040000Y-3690000D03*
D17*
X9040000Y-4190000D03*
X8040000Y-4190000D03*
D18*
X8040000Y-3690000D03*
X8040000Y-3190000D03*
D17*
X8040000Y-2690000D03*
%TD*%
D20*
%TO.C,U11*%
X13204508Y-85438856D03*
X12704508Y-85438856D03*
X12204508Y-85438856D03*
X11704508Y-85438856D03*
X11204508Y-85438856D03*
X11204508Y-81213856D03*
X11704508Y-81213856D03*
X12204508Y-81213856D03*
X12704508Y-81213856D03*
X13204508Y-81213856D03*
%TD*%
D21*
%TO.C,R34*%
X8872338Y-72953827D03*
X8872338Y-71933827D03*
%TD*%
D10*
%TO.C,D20*%
X1500000Y-9290000D03*
X2470000Y-9290000D03*
%TD*%
D21*
%TO.C,R45*%
X12183657Y-70709998D03*
X12183657Y-69690000D03*
%TD*%
%TO.C,R35*%
X7933657Y-72949999D03*
X7933657Y-71929999D03*
%TD*%
D10*
%TO.C,D18*%
X1487500Y-5500000D03*
X2457500Y-5500000D03*
%TD*%
D22*
%TO.C,R46*%
X13683657Y-63949999D03*
X14703655Y-63949999D03*
%TD*%
D23*
%TO.C,C36*%
X14433657Y-84469999D03*
X14433657Y-85429999D03*
%TD*%
M02*
