M48
; DRILL file {KiCad 8.0.7} date 2025-01-05T12:24:48+0100
; FORMAT={-:-/ absolute / inch / decimal}
; #@! TF.CreationDate,2025-01-05T12:24:48+01:00
; #@! TF.GenerationSoftware,Kicad,Pcbnew,8.0.7
; #@! TF.FileFunction,Plated,1,6,PTH
FMAT,2
INCH
; #@! TA.AperFunction,Plated,PTH,ViaDrill
T1C0.0118
; #@! TA.AperFunction,Plated,PTH,ComponentDrill
T2C0.0118
; #@! TA.AperFunction,Plated,PTH,ComponentDrill
T3C0.0138
; #@! TA.AperFunction,Plated,PTH,ComponentDrill
T4C0.0157
; #@! TA.AperFunction,Plated,PTH,ViaDrill
T5C0.0236
; #@! TA.AperFunction,Plated,PTH,ComponentDrill
T6C0.0236
; #@! TA.AperFunction,Plated,PTH,ComponentDrill
T7C0.0394
; #@! TA.AperFunction,Plated,PTH,ComponentDrill
T8C0.0512
; #@! TA.AperFunction,Plated,PTH,ComponentDrill
T9C0.0866
; #@! TA.AperFunction,Plated,PTH,ComponentDrill
T10C0.1693
%
G90
G05
T1
X0.0272Y-0.8051
X0.0272Y-0.8839
X0.0272Y-0.9626
X0.0272Y-1.0413
X0.0272Y-1.1201
X0.0272Y-1.1988
X0.0275Y-0.1043
X0.0275Y-0.1407
X0.0275Y-0.1791
X0.0275Y-0.2165
X0.0281Y-0.2535
X0.0281Y-0.2909
X0.0281Y-0.3283
X0.0281Y-0.3657
X0.0288Y-0.5264
X0.0288Y-0.5638
X0.0299Y-0.4524
X0.0299Y-0.4886
X0.0342Y-4.2794
X0.037Y-0.0669
X0.0466Y-3.0886
X0.0466Y-3.1673
X0.0466Y-3.2461
X0.0466Y-3.3248
X0.0466Y-3.4035
X0.0466Y-3.4823
X0.0466Y-3.561
X0.0466Y-3.6398
X0.0466Y-3.7185
X0.0567Y-1.435
X0.0567Y-1.5138
X0.0567Y-1.5925
X0.0567Y-1.6713
X0.0567Y-1.75
X0.0567Y-1.8287
X0.0663Y-0.4114
X0.0665Y-1.2382
X0.0744Y-2.0236
X0.0752Y-4.229
X0.0761Y-0.0374
X0.0845Y-2.8986
X0.1076Y-0.6083
X0.1163Y-2.6661
X0.1345Y-0.4191
X0.1357Y-0.8047
X0.1405Y-2.0728
X0.1413Y-3.7913
X0.1549Y-2.124
X0.1551Y-3.0157
X0.198Y-2.1571
X0.2122Y-1.2569
X0.2238Y-2.0945
X0.2332Y-0.5136
X0.2375Y-1.9697
X0.2415Y-1.8524
X0.2435Y-1.2608
X0.2494Y-1.4272
X0.2511Y-2.8716
X0.2535Y-2.065
X0.2569Y-2.1466
X0.2575Y-2.9744
X0.2594Y-0.8976
X0.2604Y-4.2904
X0.2631Y-2.0256
X0.2689Y-0.609
X0.2747Y-1.2766
X0.2762Y-2.1217
X0.2836Y-2.9466
X0.289Y-2.9902
X0.2913Y-1.9961
X0.3014Y-2.4587
X0.3105Y-0.5175
X0.3106Y-0.815
X0.3123Y-2.9596
X0.3146Y-3.815
X0.3323Y-4.2697
X0.3559Y-0.0839
X0.3602Y-0.7701
X0.365Y-2.9739
X0.3717Y-2.5177
X0.3805Y-0.8022
X0.3805Y-1.2608
X0.3882Y-0.426
X0.3886Y-0.8346
X0.3933Y-2.565
X0.3933Y-2.4157
X0.3987Y-2.5352
X0.399Y-3.3051
X0.4006Y-2.0904
X0.4011Y-2.051
X0.4016Y-2.124
X0.4021Y-0.8976
X0.4031Y-2.002
X0.411Y-4.2697
X0.4123Y-2.9705
X0.417Y-2.3921
X0.4226Y-1.9759
X0.4305Y-3.3051
X0.4307Y-1.3366
X0.4383Y-2.065
X0.4445Y-2.676
X0.4504Y-2.1437
X0.4553Y-1.3169
X0.4777Y-1.9862
X0.4895Y-1.622
X0.4898Y-4.2697
X0.4961Y-1.6845
X0.4994Y-1.7648
X0.5016Y-2.502
X0.5037Y-1.8435
X0.5094Y-0.0335
X0.5167Y-1.7331
X0.52Y-1.8165
X0.5214Y-0.7785
X0.5223Y-1.5984
X0.5252Y-2.4783
X0.5289Y-1.6616
X0.5387Y-2.626
X0.5439Y-1.7506
X0.5449Y-1.5531
X0.5465Y-0.4411
X0.5486Y-1.7894
X0.5486Y-1.8298
X0.5508Y-1.2122
X0.5532Y-1.7218
X0.5584Y-1.878
X0.5673Y-2.7484
X0.5683Y-1.9665
X0.5683Y-3.2854
X0.5685Y-1.435
X0.5685Y-1.5846
X0.5685Y-4.2697
X0.5701Y-2.962
X0.5781Y-2.6267
X0.5783Y-0.4872
X0.5801Y-1.7815
X0.5801Y-1.9941
X0.5988Y-2.7476
X0.6076Y-0.1358
X0.6116Y-0.2933
X0.6134Y-1.1008
X0.6195Y-1.588
X0.6273Y-1.1988
X0.6273Y-2.3504
X0.631Y-2.3173
X0.6318Y-2.7471
X0.646Y-2.6515
X0.647Y-2.3898
X0.6472Y-0.5689
X0.6472Y-0.6476
X0.6472Y-0.7264
X0.6479Y-3.124
X0.6512Y-2.6204
X0.6512Y-2.2932
X0.6577Y-2.2382
X0.6581Y-0.9685
X0.6639Y-1.9499
X0.6667Y-1.6398
X0.6667Y-1.8917
X0.6699Y-1.8527
X0.6699Y-1.7735
X0.6704Y-2.913
X0.6746Y-2.1134
X0.6856Y-1.9248
X0.6901Y-2.6586
X0.6988Y-0.4843
X0.7043Y-2.3898
X0.7161Y-2.7881
X0.7161Y-0.9803
X0.7218Y-1.6004
X0.7257Y-2.6555
X0.726Y-3.2854
X0.7313Y-2.5005
X0.7318Y-2.3327
X0.7339Y-0.2421
X0.7358Y-0.0276
X0.7375Y-1.5217
X0.7407Y-1.5659
X0.7454Y-2.6161
X0.7457Y-3.4429
X0.7476Y-2.274
X0.7476Y-2.3054
X0.7492Y-0.0992
X0.7533Y-2.9232
X0.7564Y-2.3524
X0.7585Y-2.7805
X0.7756Y-0.1217
X0.7769Y-0.2461
X0.7772Y-0.9035
X0.7848Y-0.8445
X0.785Y-3.3233
X0.8005Y-1.3012
X0.8008Y-0.0571
X0.8008Y-0.3425
X0.8043Y-2.9128
X0.8053Y-0.2763
X0.8087Y-2.651
X0.8096Y-1.5453
X0.8096Y-1.5925
X0.8143Y-1.4449
X0.8242Y-1.3563
X0.8244Y-3.128
X0.8244Y-3.3248
X0.8257Y-0.3233
X0.8264Y-0.2295
X0.832Y-1.6949
X0.8358Y-2.9109
X0.8421Y-2.624
X0.8469Y-1.0756
X0.852Y-0.1094
X0.852Y-0.3047
X0.8638Y-3.0492
X0.8657Y-3.3217
X0.8707Y-2.0236
X0.8735Y-2.4262
X0.8776Y-0.0874
X0.8776Y-0.2815
X0.8835Y-2.8091
X0.8872Y-1.4272
X0.9022Y-2.5436
X0.9028Y-0.0646
X0.9041Y-2.4902
X0.905Y-2.4261
X0.9051Y-2.575
X0.91Y-2.4587
X0.9341Y-3.2648
X0.9344Y-1.3012
X0.9353Y-3.3839
X0.9356Y-2.4902
X0.9425Y-2.6555
X0.9425Y-3.1476
X0.9445Y-3.5232
X0.9455Y-2.0364
X0.9622Y-0.0571
X0.9622Y-2.9222
X0.9691Y-2.0581
X0.9698Y-2.7898
X0.9816Y-1.2991
X0.9816Y-1.4055
X0.9895Y-1.3327
X0.9895Y-1.3642
X0.9898Y-2.6575
X0.9908Y-2.0809
X0.9909Y-2.9352
X1.0016Y-3.187
X1.0144Y-2.1083
X1.0211Y-2.9128
X1.0213Y-2.813
X1.0253Y-2.6221
X1.0311Y-2.2251
X1.0311Y-2.4449
X1.0321Y-0.5512
X1.0339Y-0.3171
X1.0339Y-0.349
X1.0409Y-0.0571
X1.0439Y-2.7756
X1.0562Y-2.4258
X1.0606Y-3.0886
X1.0754Y-2.8124
X1.084Y-1.7215
X1.0899Y-1.563
X1.0902Y-1.6191
X1.0911Y-2.7569
X1.102Y-1.5217
X1.1155Y-1.4508
X1.1197Y-0.0571
X1.1197Y-0.4114
X1.1197Y-0.4902
X1.1197Y-0.5689
X1.1197Y-0.7264
X1.1197Y-0.8051
X1.1197Y-2.9311
X1.1246Y-2.7569
X1.1256Y-2.1378
X1.1256Y-2.5198
X1.1276Y-1.8681
X1.1276Y-1.9469
X1.1276Y-2.0256
X1.1309Y-1.7916
X1.1315Y-2.4232
X1.1394Y-3.0492
X1.1551Y-2.6083
X1.1591Y-2.5453
X1.1591Y-3.128
X1.1591Y-3.3642
X1.1802Y-2.9219
X1.1806Y-2.7467
X1.1864Y-0.372
X1.189Y-2.5897
X1.1906Y-3.0768
X1.1982Y-1.4154
X1.1982Y-1.75
X1.1982Y-1.8287
X1.1982Y-1.9075
X1.1982Y-1.9862
X1.1982Y-2.065
X1.1982Y-2.1437
X1.1984Y-0.1358
X1.1994Y-0.3327
X1.208Y-3.3248
X1.208Y-3.4035
X1.2143Y-2.4107
X1.2179Y-1.0413
X1.2179Y-2.2224
X1.2181Y-3.2461
T2
X0.7772Y-2.2008
X0.7772Y-2.3071
X0.8835Y-2.2008
X0.8835Y-2.3071
X1.0705Y-3.1673
X1.0705Y-3.1949
X1.1Y-3.1673
X1.1Y-3.1949
X1.1295Y-3.1673
X1.1295Y-3.1949
T3
X0.2165Y-1.0238
X0.2165Y-1.0533
X0.2191Y-0.675
X0.2191Y-0.7045
X0.2519Y-1.0238
X0.2519Y-1.0533
X0.2545Y-0.675
X0.2545Y-0.7045
X0.2874Y-1.0238
X0.29Y-0.675
X0.3051Y-1.0533
X0.3077Y-0.7045
X0.3228Y-1.0238
X0.3254Y-0.675
X0.3405Y-1.0533
X0.3431Y-0.7045
X0.3582Y-1.0238
X0.3608Y-0.675
X0.3759Y-1.0533
X0.3785Y-0.7045
X0.4114Y-1.0238
X0.4114Y-1.0533
X0.414Y-0.675
X0.414Y-0.7045
X0.4468Y-1.0238
X0.4468Y-1.0533
X0.4494Y-0.675
X0.4494Y-0.7045
T4
X1.0662Y-0.9354
X1.0662Y-3.4977
X1.0852Y-0.8895
X1.0852Y-0.9813
X1.0852Y-3.4518
X1.0852Y-3.5437
X1.1312Y-0.8704
X1.1312Y-1.0003
X1.1312Y-3.4328
X1.1312Y-3.5627
X1.1771Y-0.8895
X1.1771Y-0.9813
X1.1771Y-3.4518
X1.1771Y-3.5437
X1.1961Y-0.9354
X1.1961Y-3.4977
T5
X0.1549Y-3.7106
X0.1955Y-0.9065
X0.4248Y-3.5807
X0.4898Y-3.7559
X0.5598Y-3.1476
X0.5598Y-3.5965
X0.6866Y-3.0886
X0.8835Y-2.9311
X0.8957Y-2.7457
X0.9819Y-3.3642
X1.01Y-3.5501
X1.0213Y-3.3248
X1.0666Y-3.3671
X1.0941Y-0.6571
X1.1128Y-0.1722
T7
X0.1535Y-2.2146
X0.1535Y-2.3146
X0.1535Y-2.4146
X0.1535Y-2.5146
X0.1535Y-2.6146
X0.1535Y-2.7146
X0.1535Y-3.1146
X0.1535Y-3.2146
X0.1535Y-3.3146
X0.1535Y-3.4146
X0.1535Y-3.5146
X0.1535Y-3.6146
X0.2102Y-0.1358
X0.2102Y-0.2343
X0.2102Y-0.3327
X0.2535Y-2.2146
X0.2535Y-2.3146
X0.2535Y-2.4146
X0.2535Y-2.5146
X0.2535Y-2.6146
X0.2535Y-2.7146
X0.2535Y-3.1146
X0.2535Y-3.2146
X0.2535Y-3.3146
X0.2535Y-3.4146
X0.2535Y-3.5146
X0.2535Y-3.6146
X0.4563Y-0.1358
X0.4563Y-0.3327
X0.6965Y-3.7724
X0.6965Y-3.8724
X0.6965Y-3.9724
X0.6965Y-4.0724
X0.6965Y-4.1724
X0.7965Y-3.7724
X0.7965Y-3.8724
X0.7965Y-3.9724
X0.7965Y-4.0724
X0.7965Y-4.1724
T8
X0.0813Y-1.3228
X0.0813Y-1.9409
X0.2742Y-1.3465
X0.2742Y-1.9173
T9
X1.1312Y-0.9354
X1.1312Y-3.4977
T10
X0.9297Y-1.8583
T6
G00X0.1998Y-0.9823
M15
G01X0.2234Y-0.9823
M16
G05
G00X0.1998Y-1.0949
M15
G01X0.2234Y-1.0949
M16
G05
G00X0.2024Y-0.6335
M15
G01X0.226Y-0.6335
M16
G05
G00X0.2024Y-0.7461
M15
G01X0.226Y-0.7461
M16
G05
G00X0.4301Y-0.9823
M15
G01X0.4734Y-0.9823
M16
G05
G00X0.4301Y-1.0949
M15
G01X0.4734Y-1.0949
M16
G05
G00X0.4327Y-0.6335
M15
G01X0.476Y-0.6335
M16
G05
G00X0.4327Y-0.7461
M15
G01X0.476Y-0.7461
M16
G05
T7
G00X0.0429Y-4.0515
M15
G01X0.0429Y-4.0987
M16
G05
G00X0.1413Y-3.9727
M15
G01X0.1413Y-4.02
M16
G05
G00X0.287Y-4.0515
M15
G01X0.287Y-4.0987
M16
G05
G00X0.3618Y-3.9727
M15
G01X0.3618Y-4.02
M16
G05
G00X0.5075Y-4.0515
M15
G01X0.5075Y-4.0987
M16
G05
M30
