%TF.GenerationSoftware,KiCad,Pcbnew,8.0.7*%
%TF.CreationDate,2025-01-04T21:32:03+01:00*%
%TF.ProjectId,tiliqua-motherboard,74696c69-7175-4612-9d6d-6f7468657262,rev?*%
%TF.SameCoordinates,Original*%
%TF.FileFunction,Legend,Bot*%
%TF.FilePolarity,Positive*%
%FSLAX46Y46*%
G04 Gerber Fmt 4.6, Leading zero omitted, Abs format (unit mm)*
G04 Created by KiCad (PCBNEW 8.0.7) date 2025-01-04 21:32:03*
%MOMM*%
%LPD*%
G01*
G04 APERTURE LIST*
G04 Aperture macros list*
%AMRoundRect*
0 Rectangle with rounded corners*
0 $1 Rounding radius*
0 $2 $3 $4 $5 $6 $7 $8 $9 X,Y pos of 4 corners*
0 Add a 4 corners polygon primitive as box body*
4,1,4,$2,$3,$4,$5,$6,$7,$8,$9,$2,$3,0*
0 Add four circle primitives for the rounded corners*
1,1,$1+$1,$2,$3*
1,1,$1+$1,$4,$5*
1,1,$1+$1,$6,$7*
1,1,$1+$1,$8,$9*
0 Add four rect primitives between the rounded corners*
20,1,$1+$1,$2,$3,$4,$5,0*
20,1,$1+$1,$4,$5,$6,$7,0*
20,1,$1+$1,$6,$7,$8,$9,0*
20,1,$1+$1,$8,$9,$2,$3,0*%
G04 Aperture macros list end*
%ADD10C,0.150000*%
%ADD11C,0.325000*%
%ADD12C,0.375000*%
%ADD13C,0.200000*%
%ADD14C,0.250000*%
%ADD15C,0.100000*%
%ADD16C,0.120000*%
%ADD17C,0.010000*%
%ADD18C,0.300000*%
%ADD19C,0.000000*%
%ADD20C,0.600000*%
%ADD21O,1.600000X1.000000*%
%ADD22O,2.000000X1.000000*%
%ADD23R,1.700000X1.700000*%
%ADD24O,1.700000X1.700000*%
%ADD25C,1.800000*%
%ADD26C,6.400000*%
%ADD27C,0.700000*%
%ADD28C,4.400000*%
%ADD29C,1.100000*%
%ADD30C,1.600000*%
%ADD31O,1.500000X3.500000*%
%ADD32RoundRect,0.147500X-0.147500X-0.172500X0.147500X-0.172500X0.147500X0.172500X-0.147500X0.172500X0*%
%ADD33RoundRect,0.135000X0.035355X-0.226274X0.226274X-0.035355X-0.035355X0.226274X-0.226274X0.035355X0*%
%ADD34RoundRect,0.135000X-0.035355X0.226274X-0.226274X0.035355X0.035355X-0.226274X0.226274X-0.035355X0*%
%ADD35R,1.400000X1.200000*%
%ADD36RoundRect,0.150000X0.150000X-0.512500X0.150000X0.512500X-0.150000X0.512500X-0.150000X-0.512500X0*%
%ADD37R,1.800000X0.300000*%
%ADD38R,3.200000X2.500000*%
%ADD39R,0.500000X0.400000*%
%ADD40R,0.500000X0.300000*%
%ADD41R,1.600000X3.100000*%
%ADD42RoundRect,0.087500X0.087500X-0.725000X0.087500X0.725000X-0.087500X0.725000X-0.087500X-0.725000X0*%
%ADD43RoundRect,0.135000X0.185000X-0.135000X0.185000X0.135000X-0.185000X0.135000X-0.185000X-0.135000X0*%
%ADD44RoundRect,0.135000X-0.135000X-0.185000X0.135000X-0.185000X0.135000X0.185000X-0.135000X0.185000X0*%
%ADD45RoundRect,0.140000X-0.170000X0.140000X-0.170000X-0.140000X0.170000X-0.140000X0.170000X0.140000X0*%
G04 APERTURE END LIST*
D10*
X9738784Y-97530247D02*
X10888784Y-98180247D01*
X10888784Y-98180247D02*
X8488784Y-99630247D01*
X8488784Y-99630247D02*
X10238784Y-98230247D01*
X10238784Y-98230247D02*
X9738784Y-97530247D01*
X16365000Y-104675000D02*
X14040000Y-104675000D01*
X2692246Y-57618527D02*
X7772246Y-57618527D01*
X7772246Y-60158527D01*
X2692246Y-60158527D01*
X2692246Y-57618527D01*
G36*
X2692246Y-57618527D02*
G01*
X7772246Y-57618527D01*
X7772246Y-60158527D01*
X2692246Y-60158527D01*
X2692246Y-57618527D01*
G37*
X16365000Y-107175000D02*
X14040000Y-107175000D01*
X14040000Y-107175000D02*
X14040000Y-94600000D01*
X16365000Y-94600000D02*
X16365000Y-107175000D01*
X16363650Y-97029800D02*
X21476150Y-97029800D01*
X21476150Y-104670200D01*
X16363650Y-104670200D01*
X16363650Y-97029800D01*
G36*
X16363650Y-97029800D02*
G01*
X21476150Y-97029800D01*
X21476150Y-104670200D01*
X16363650Y-104670200D01*
X16363650Y-97029800D01*
G37*
X2673468Y-80430000D02*
X7753468Y-80430000D01*
X7753468Y-82970000D01*
X2673468Y-82970000D01*
X2673468Y-80430000D01*
G36*
X2673468Y-80430000D02*
G01*
X7753468Y-80430000D01*
X7753468Y-82970000D01*
X2673468Y-82970000D01*
X2673468Y-80430000D01*
G37*
X14040000Y-94600000D02*
X16365000Y-94600000D01*
X16352500Y-97025000D02*
X14027500Y-97025000D01*
D11*
X14786409Y-99959524D02*
X14724504Y-99835714D01*
X14724504Y-99835714D02*
X14724504Y-99650000D01*
X14724504Y-99650000D02*
X14786409Y-99464286D01*
X14786409Y-99464286D02*
X14910219Y-99340476D01*
X14910219Y-99340476D02*
X15034028Y-99278571D01*
X15034028Y-99278571D02*
X15281647Y-99216667D01*
X15281647Y-99216667D02*
X15467361Y-99216667D01*
X15467361Y-99216667D02*
X15714980Y-99278571D01*
X15714980Y-99278571D02*
X15838790Y-99340476D01*
X15838790Y-99340476D02*
X15962600Y-99464286D01*
X15962600Y-99464286D02*
X16024504Y-99650000D01*
X16024504Y-99650000D02*
X16024504Y-99773809D01*
X16024504Y-99773809D02*
X15962600Y-99959524D01*
X15962600Y-99959524D02*
X15900695Y-100021428D01*
X15900695Y-100021428D02*
X15467361Y-100021428D01*
X15467361Y-100021428D02*
X15467361Y-99773809D01*
X16024504Y-100578571D02*
X14724504Y-100578571D01*
X14724504Y-100578571D02*
X16024504Y-101321428D01*
X16024504Y-101321428D02*
X14724504Y-101321428D01*
X16024504Y-101940476D02*
X14724504Y-101940476D01*
X14724504Y-101940476D02*
X14724504Y-102250000D01*
X14724504Y-102250000D02*
X14786409Y-102435714D01*
X14786409Y-102435714D02*
X14910219Y-102559524D01*
X14910219Y-102559524D02*
X15034028Y-102621429D01*
X15034028Y-102621429D02*
X15281647Y-102683333D01*
X15281647Y-102683333D02*
X15467361Y-102683333D01*
X15467361Y-102683333D02*
X15714980Y-102621429D01*
X15714980Y-102621429D02*
X15838790Y-102559524D01*
X15838790Y-102559524D02*
X15962600Y-102435714D01*
X15962600Y-102435714D02*
X16024504Y-102250000D01*
X16024504Y-102250000D02*
X16024504Y-101940476D01*
D12*
X20261428Y-109378428D02*
X20761428Y-108664142D01*
X21118571Y-109378428D02*
X21118571Y-107878428D01*
X21118571Y-107878428D02*
X20547142Y-107878428D01*
X20547142Y-107878428D02*
X20404285Y-107949857D01*
X20404285Y-107949857D02*
X20332856Y-108021285D01*
X20332856Y-108021285D02*
X20261428Y-108164142D01*
X20261428Y-108164142D02*
X20261428Y-108378428D01*
X20261428Y-108378428D02*
X20332856Y-108521285D01*
X20332856Y-108521285D02*
X20404285Y-108592714D01*
X20404285Y-108592714D02*
X20547142Y-108664142D01*
X20547142Y-108664142D02*
X21118571Y-108664142D01*
X19618571Y-108592714D02*
X19118571Y-108592714D01*
X18904285Y-109378428D02*
X19618571Y-109378428D01*
X19618571Y-109378428D02*
X19618571Y-107878428D01*
X19618571Y-107878428D02*
X18904285Y-107878428D01*
X18261428Y-109378428D02*
X18261428Y-107878428D01*
X18261428Y-107878428D02*
X17904285Y-107878428D01*
X17904285Y-107878428D02*
X17689999Y-107949857D01*
X17689999Y-107949857D02*
X17547142Y-108092714D01*
X17547142Y-108092714D02*
X17475713Y-108235571D01*
X17475713Y-108235571D02*
X17404285Y-108521285D01*
X17404285Y-108521285D02*
X17404285Y-108735571D01*
X17404285Y-108735571D02*
X17475713Y-109021285D01*
X17475713Y-109021285D02*
X17547142Y-109164142D01*
X17547142Y-109164142D02*
X17689999Y-109307000D01*
X17689999Y-109307000D02*
X17904285Y-109378428D01*
X17904285Y-109378428D02*
X18261428Y-109378428D01*
X16761428Y-109235571D02*
X16689999Y-109307000D01*
X16689999Y-109307000D02*
X16761428Y-109378428D01*
X16761428Y-109378428D02*
X16832856Y-109307000D01*
X16832856Y-109307000D02*
X16761428Y-109235571D01*
X16761428Y-109235571D02*
X16761428Y-109378428D01*
X16761428Y-108807000D02*
X16832856Y-107949857D01*
X16832856Y-107949857D02*
X16761428Y-107878428D01*
X16761428Y-107878428D02*
X16689999Y-107949857D01*
X16689999Y-107949857D02*
X16761428Y-108807000D01*
X16761428Y-108807000D02*
X16761428Y-107878428D01*
X21325714Y-107462000D02*
X16554285Y-107462000D01*
D13*
X15367381Y-96709695D02*
X15824524Y-96709695D01*
X15595952Y-96709695D02*
X15595952Y-95909695D01*
X15595952Y-95909695D02*
X15672143Y-96023980D01*
X15672143Y-96023980D02*
X15748333Y-96100171D01*
X15748333Y-96100171D02*
X15824524Y-96138266D01*
X15062619Y-95985885D02*
X15024523Y-95947790D01*
X15024523Y-95947790D02*
X14948333Y-95909695D01*
X14948333Y-95909695D02*
X14757857Y-95909695D01*
X14757857Y-95909695D02*
X14681666Y-95947790D01*
X14681666Y-95947790D02*
X14643571Y-95985885D01*
X14643571Y-95985885D02*
X14605476Y-96062076D01*
X14605476Y-96062076D02*
X14605476Y-96138266D01*
X14605476Y-96138266D02*
X14643571Y-96252552D01*
X14643571Y-96252552D02*
X15100714Y-96709695D01*
X15100714Y-96709695D02*
X14605476Y-96709695D01*
D14*
X15658400Y-95243666D02*
X14896496Y-95243666D01*
X15277448Y-95624619D02*
X15277448Y-94862714D01*
D13*
X15317381Y-106784695D02*
X15774524Y-106784695D01*
X15545952Y-106784695D02*
X15545952Y-105984695D01*
X15545952Y-105984695D02*
X15622143Y-106098980D01*
X15622143Y-106098980D02*
X15698333Y-106175171D01*
X15698333Y-106175171D02*
X15774524Y-106213266D01*
X15012619Y-106060885D02*
X14974523Y-106022790D01*
X14974523Y-106022790D02*
X14898333Y-105984695D01*
X14898333Y-105984695D02*
X14707857Y-105984695D01*
X14707857Y-105984695D02*
X14631666Y-106022790D01*
X14631666Y-106022790D02*
X14593571Y-106060885D01*
X14593571Y-106060885D02*
X14555476Y-106137076D01*
X14555476Y-106137076D02*
X14555476Y-106213266D01*
X14555476Y-106213266D02*
X14593571Y-106327552D01*
X14593571Y-106327552D02*
X15050714Y-106784695D01*
X15050714Y-106784695D02*
X14555476Y-106784695D01*
D14*
X15570951Y-105243666D02*
X14809047Y-105243666D01*
X10595909Y-94149796D02*
X10119718Y-93816463D01*
X10595909Y-93578368D02*
X9595909Y-93578368D01*
X9595909Y-93578368D02*
X9595909Y-93959320D01*
X9595909Y-93959320D02*
X9643528Y-94054558D01*
X9643528Y-94054558D02*
X9691147Y-94102177D01*
X9691147Y-94102177D02*
X9786385Y-94149796D01*
X9786385Y-94149796D02*
X9929242Y-94149796D01*
X9929242Y-94149796D02*
X10024480Y-94102177D01*
X10024480Y-94102177D02*
X10072099Y-94054558D01*
X10072099Y-94054558D02*
X10119718Y-93959320D01*
X10119718Y-93959320D02*
X10119718Y-93578368D01*
X10595909Y-94721225D02*
X10548290Y-94625987D01*
X10548290Y-94625987D02*
X10500670Y-94578368D01*
X10500670Y-94578368D02*
X10405432Y-94530749D01*
X10405432Y-94530749D02*
X10119718Y-94530749D01*
X10119718Y-94530749D02*
X10024480Y-94578368D01*
X10024480Y-94578368D02*
X9976861Y-94625987D01*
X9976861Y-94625987D02*
X9929242Y-94721225D01*
X9929242Y-94721225D02*
X9929242Y-94864082D01*
X9929242Y-94864082D02*
X9976861Y-94959320D01*
X9976861Y-94959320D02*
X10024480Y-95006939D01*
X10024480Y-95006939D02*
X10119718Y-95054558D01*
X10119718Y-95054558D02*
X10405432Y-95054558D01*
X10405432Y-95054558D02*
X10500670Y-95006939D01*
X10500670Y-95006939D02*
X10548290Y-94959320D01*
X10548290Y-94959320D02*
X10595909Y-94864082D01*
X10595909Y-94864082D02*
X10595909Y-94721225D01*
X10595909Y-95483130D02*
X9595909Y-95483130D01*
X10072099Y-95483130D02*
X10072099Y-96054558D01*
X10595909Y-96054558D02*
X9595909Y-96054558D01*
X10548290Y-96483130D02*
X10595909Y-96625987D01*
X10595909Y-96625987D02*
X10595909Y-96864082D01*
X10595909Y-96864082D02*
X10548290Y-96959320D01*
X10548290Y-96959320D02*
X10500670Y-97006939D01*
X10500670Y-97006939D02*
X10405432Y-97054558D01*
X10405432Y-97054558D02*
X10310194Y-97054558D01*
X10310194Y-97054558D02*
X10214956Y-97006939D01*
X10214956Y-97006939D02*
X10167337Y-96959320D01*
X10167337Y-96959320D02*
X10119718Y-96864082D01*
X10119718Y-96864082D02*
X10072099Y-96673606D01*
X10072099Y-96673606D02*
X10024480Y-96578368D01*
X10024480Y-96578368D02*
X9976861Y-96530749D01*
X9976861Y-96530749D02*
X9881623Y-96483130D01*
X9881623Y-96483130D02*
X9786385Y-96483130D01*
X9786385Y-96483130D02*
X9691147Y-96530749D01*
X9691147Y-96530749D02*
X9643528Y-96578368D01*
X9643528Y-96578368D02*
X9595909Y-96673606D01*
X9595909Y-96673606D02*
X9595909Y-96911701D01*
X9595909Y-96911701D02*
X9643528Y-97054558D01*
D15*
%TO.C,D6*%
X925000Y-2650000D02*
G75*
G02*
X825000Y-2650000I-50000J0D01*
G01*
X825000Y-2650000D02*
G75*
G02*
X925000Y-2650000I50000J0D01*
G01*
D16*
%TO.C,R49*%
X12059524Y-73135578D02*
X11842243Y-73352859D01*
X12596925Y-73672979D02*
X12379644Y-73890260D01*
%TO.C,R37*%
X8716928Y-79849694D02*
X8934209Y-79632413D01*
X9254329Y-80387095D02*
X9471610Y-80169814D01*
%TO.C,Y2*%
X10400798Y-86762359D02*
X10400798Y-90062359D01*
X14400798Y-86762359D02*
X10400798Y-86762359D01*
D15*
%TO.C,D16*%
X945000Y-8340000D02*
G75*
G02*
X845000Y-8340000I-50000J0D01*
G01*
X845000Y-8340000D02*
G75*
G02*
X945000Y-8340000I50000J0D01*
G01*
%TO.C,D14*%
X925000Y-4550000D02*
G75*
G02*
X825000Y-4550000I-50000J0D01*
G01*
X825000Y-4550000D02*
G75*
G02*
X925000Y-4550000I50000J0D01*
G01*
D16*
%TO.C,U6*%
X11623657Y-65899999D02*
X11623656Y-66699999D01*
X11623657Y-67499999D02*
X11623656Y-66699999D01*
X14743657Y-65899999D02*
X14743658Y-66699999D01*
X14743657Y-67499999D02*
X14743658Y-66699999D01*
X15023657Y-68239999D02*
X14693657Y-67999999D01*
X15023657Y-67759999D01*
X15023657Y-68239999D01*
G36*
X15023657Y-68239999D02*
G01*
X14693657Y-67999999D01*
X15023657Y-67759999D01*
X15023657Y-68239999D01*
G37*
%TO.C,R48*%
X14711288Y-77056826D02*
X14494007Y-77274107D01*
X15248689Y-77594227D02*
X15031408Y-77811508D01*
D15*
%TO.C,D10*%
X932500Y-3600000D02*
G75*
G02*
X832500Y-3600000I-50000J0D01*
G01*
X832500Y-3600000D02*
G75*
G02*
X932500Y-3600000I50000J0D01*
G01*
%TO.C,D8*%
X940000Y-6440000D02*
G75*
G02*
X840000Y-6440000I-50000J0D01*
G01*
X840000Y-6440000D02*
G75*
G02*
X940000Y-6440000I50000J0D01*
G01*
D13*
%TO.C,J1*%
X9100000Y-49800000D02*
X9100000Y-49550000D01*
X9100000Y-56900000D02*
X9100000Y-57150000D01*
X13550000Y-47050000D02*
X12500000Y-47050000D01*
X13550000Y-47050000D02*
X13550000Y-59600000D01*
X13550000Y-59600000D02*
X12550000Y-59600000D01*
X8450000Y-49350000D02*
G75*
G02*
X8050000Y-49350000I-200000J0D01*
G01*
X8050000Y-49350000D02*
G75*
G02*
X8450000Y-49350000I200000J0D01*
G01*
D16*
%TO.C,RN4*%
X8860000Y-7260000D02*
X8360000Y-7260000D01*
X8860000Y-9620000D02*
X8360000Y-9620000D01*
%TO.C,R36*%
X8581210Y-78654102D02*
X8363929Y-78871383D01*
X9118611Y-79191503D02*
X8901330Y-79408784D01*
D17*
%TO.C,REF\u002A\u002A*%
X8457822Y-98097822D02*
X7590198Y-98097822D01*
X7590198Y-94577029D01*
X8457822Y-94577029D01*
X8457822Y-98097822D01*
G36*
X8457822Y-98097822D02*
G01*
X7590198Y-98097822D01*
X7590198Y-94577029D01*
X8457822Y-94577029D01*
X8457822Y-98097822D01*
G37*
X3249158Y-94838062D02*
X3880726Y-95438599D01*
X4024673Y-95450604D01*
X4600635Y-95498635D01*
X4702791Y-95507124D01*
X4830612Y-95517657D01*
X4949767Y-95527379D01*
X5057914Y-95536102D01*
X5152713Y-95543642D01*
X5231819Y-95549813D01*
X5292892Y-95554427D01*
X5333590Y-95557300D01*
X5351570Y-95558246D01*
X5359808Y-95555749D01*
X5377599Y-95544529D01*
X5404411Y-95523249D01*
X5416129Y-95512979D01*
X5441466Y-95490775D01*
X5489986Y-95445977D01*
X5551192Y-95387719D01*
X5626307Y-95314871D01*
X5716549Y-95226297D01*
X5823144Y-95120866D01*
X5893094Y-95051508D01*
X5990658Y-94954820D01*
X6087941Y-94858474D01*
X6182014Y-94765362D01*
X6269950Y-94678382D01*
X6348820Y-94600431D01*
X6415699Y-94534404D01*
X6467658Y-94483198D01*
X6671620Y-94282486D01*
X6709671Y-94318942D01*
X6718245Y-94327540D01*
X6739297Y-94352905D01*
X6747723Y-94370305D01*
X6740530Y-94383928D01*
X6718944Y-94409256D01*
X6687995Y-94439621D01*
X6668447Y-94458104D01*
X6632752Y-94492573D01*
X6582684Y-94541288D01*
X6520001Y-94602531D01*
X6446457Y-94674580D01*
X6363810Y-94755715D01*
X6273815Y-94844216D01*
X6178228Y-94938363D01*
X6078805Y-95036435D01*
X5529343Y-95578839D01*
X5814746Y-95600934D01*
X5875662Y-95605750D01*
X5957548Y-95612784D01*
X6019569Y-95619128D01*
X6064987Y-95625252D01*
X6097062Y-95631628D01*
X6119052Y-95638723D01*
X6134219Y-95647009D01*
X6155416Y-95658607D01*
X6194386Y-95668150D01*
X6250531Y-95670989D01*
X6332773Y-95670990D01*
X6332773Y-95897326D01*
X6156733Y-95897326D01*
X6156733Y-96742918D01*
X6212262Y-96791797D01*
X6226722Y-96805164D01*
X6284813Y-96877612D01*
X6320576Y-96959468D01*
X6332773Y-97048100D01*
X6326306Y-97126308D01*
X6299047Y-97214768D01*
X6250327Y-97290493D01*
X6236403Y-97305252D01*
X6191328Y-97342136D01*
X6138819Y-97374497D01*
X6087061Y-97397703D01*
X6044239Y-97407121D01*
X6038023Y-97407303D01*
X6015246Y-97408658D01*
X5999513Y-97412200D01*
X5992069Y-97419610D01*
X5994156Y-97432568D01*
X6007020Y-97452757D01*
X6031905Y-97481855D01*
X6070053Y-97521544D01*
X6122710Y-97573504D01*
X6191119Y-97639416D01*
X6276524Y-97720960D01*
X6322111Y-97764396D01*
X6398441Y-97837000D01*
X6470808Y-97905691D01*
X6536366Y-97967777D01*
X6592274Y-98020566D01*
X6635686Y-98061366D01*
X6663758Y-98087485D01*
X6741436Y-98158881D01*
X6653416Y-98247137D01*
X6081287Y-97701310D01*
X6045188Y-97666895D01*
X5916272Y-97544454D01*
X5804754Y-97439349D01*
X5710288Y-97351264D01*
X5632529Y-97279884D01*
X5571131Y-97224895D01*
X5525748Y-97185981D01*
X5496035Y-97162827D01*
X5481644Y-97155118D01*
X5481559Y-97155117D01*
X5463624Y-97156175D01*
X5423421Y-97159262D01*
X5363687Y-97164142D01*
X5287158Y-97170568D01*
X5196569Y-97178300D01*
X5094657Y-97187095D01*
X4984159Y-97196713D01*
X4867811Y-97206909D01*
X4748348Y-97217444D01*
X4628507Y-97228074D01*
X4511025Y-97238558D01*
X4398637Y-97248654D01*
X4294081Y-97258119D01*
X4200091Y-97266712D01*
X4119405Y-97274191D01*
X4054759Y-97280313D01*
X4008888Y-97284838D01*
X3984530Y-97287522D01*
X3931089Y-97294610D01*
X3931089Y-97569703D01*
X3720470Y-97570032D01*
X3509852Y-97570361D01*
X3050891Y-98022086D01*
X2591931Y-98473811D01*
X2504848Y-98474430D01*
X2417767Y-98475049D01*
X2966952Y-97933230D01*
X3019998Y-97880863D01*
X3129772Y-97772197D01*
X3223114Y-97679291D01*
X3301173Y-97600945D01*
X3365097Y-97535957D01*
X3416035Y-97483128D01*
X3429126Y-97469109D01*
X3611172Y-97469109D01*
X3830496Y-97469109D01*
X3830495Y-97387377D01*
X3830489Y-97380105D01*
X3829612Y-97339050D01*
X3825867Y-97316723D01*
X3817270Y-97307471D01*
X3801840Y-97305644D01*
X3779160Y-97313694D01*
X3741428Y-97341270D01*
X3692179Y-97387377D01*
X3611172Y-97469109D01*
X3429126Y-97469109D01*
X3455135Y-97441257D01*
X3483548Y-97409145D01*
X3502420Y-97385590D01*
X3512901Y-97369392D01*
X3516139Y-97359351D01*
X3515158Y-97342421D01*
X3507995Y-97332916D01*
X3488401Y-97331278D01*
X3450124Y-97335218D01*
X3426025Y-97337935D01*
X3385744Y-97341716D01*
X3358961Y-97343240D01*
X3349728Y-97343985D01*
X3339838Y-97351254D01*
X3336562Y-97371332D01*
X3337992Y-97410311D01*
X3338553Y-97420263D01*
X3337921Y-97460102D01*
X3329167Y-97488440D01*
X3309289Y-97516370D01*
X3305104Y-97521180D01*
X3254427Y-97560518D01*
X3195934Y-97577828D01*
X3134575Y-97572526D01*
X3075297Y-97544025D01*
X3071607Y-97541267D01*
X3039850Y-97503178D01*
X3021067Y-97453524D01*
X3016071Y-97399998D01*
X3025679Y-97350293D01*
X3050704Y-97312100D01*
X3063480Y-97299169D01*
X3066576Y-97286572D01*
X3056998Y-97268533D01*
X3033082Y-97238072D01*
X3025731Y-97228726D01*
X2979339Y-97156570D01*
X2938084Y-97071085D01*
X2904936Y-96980233D01*
X2882868Y-96891973D01*
X2874852Y-96814264D01*
X2874788Y-96806009D01*
X2870321Y-96760121D01*
X2857795Y-96734921D01*
X2835784Y-96727227D01*
X2828849Y-96726324D01*
X2822885Y-96721385D01*
X2818519Y-96709388D01*
X2815503Y-96687320D01*
X2813590Y-96652164D01*
X2812530Y-96600906D01*
X2812077Y-96530529D01*
X2811980Y-96438020D01*
X2812150Y-96351340D01*
X2812835Y-96277668D01*
X2813558Y-96249406D01*
X2912575Y-96249406D01*
X2912576Y-96626633D01*
X2975446Y-96626633D01*
X2975446Y-96249406D01*
X2912575Y-96249406D01*
X2813558Y-96249406D01*
X2814215Y-96223735D01*
X2816470Y-96186712D01*
X2819778Y-96163770D01*
X2824320Y-96152079D01*
X2830270Y-96148813D01*
X2972893Y-96148813D01*
X3076040Y-96148812D01*
X3076040Y-96727227D01*
X2985122Y-96727227D01*
X2993753Y-96799529D01*
X3012249Y-96910002D01*
X3045691Y-97021184D01*
X3092324Y-97113150D01*
X3152786Y-97187458D01*
X3201782Y-97235302D01*
X3201782Y-97225149D01*
X3314951Y-97225149D01*
X3362104Y-97220987D01*
X3383498Y-97219065D01*
X3441909Y-97213076D01*
X3480382Y-97207174D01*
X3502912Y-97200273D01*
X3513498Y-97191288D01*
X3516139Y-97179130D01*
X3517937Y-97168199D01*
X3523438Y-97163558D01*
X3935703Y-97163558D01*
X3943732Y-97163747D01*
X3974653Y-97162092D01*
X4026653Y-97158451D01*
X4097487Y-97153005D01*
X4184912Y-97145937D01*
X4286681Y-97137430D01*
X4400552Y-97127665D01*
X4524279Y-97116825D01*
X4655618Y-97105093D01*
X4756908Y-97095921D01*
X4882526Y-97084434D01*
X4998762Y-97073678D01*
X5103380Y-97063869D01*
X5194140Y-97055219D01*
X5268804Y-97047943D01*
X5325134Y-97042254D01*
X5360891Y-97038366D01*
X5373837Y-97036494D01*
X5369826Y-97030812D01*
X5350138Y-97009980D01*
X5316322Y-96976128D01*
X5270837Y-96931588D01*
X5216146Y-96878690D01*
X5154710Y-96819764D01*
X5088990Y-96757141D01*
X5021449Y-96693152D01*
X4954547Y-96630126D01*
X4890746Y-96570394D01*
X4832507Y-96516287D01*
X4782292Y-96470135D01*
X4742563Y-96434267D01*
X4715780Y-96411016D01*
X4704406Y-96402710D01*
X4693383Y-96410852D01*
X4666999Y-96434522D01*
X4627527Y-96471522D01*
X4577191Y-96519650D01*
X4518217Y-96576704D01*
X4452830Y-96640480D01*
X4383255Y-96708778D01*
X4311716Y-96779395D01*
X4240438Y-96850129D01*
X4171647Y-96918778D01*
X4107566Y-96983139D01*
X4050422Y-97041012D01*
X4002439Y-97090189D01*
X3965841Y-97128476D01*
X3942854Y-97153666D01*
X3935703Y-97163558D01*
X3523438Y-97163558D01*
X3526530Y-97160950D01*
X3546505Y-97156900D01*
X3582450Y-97155137D01*
X3638952Y-97154752D01*
X3761766Y-97154752D01*
X3801840Y-97114554D01*
X3899654Y-97016435D01*
X4037542Y-96878119D01*
X3931089Y-96878119D01*
X3931089Y-96123663D01*
X4170000Y-96123663D01*
X4170000Y-96742169D01*
X4386906Y-96532408D01*
X4428334Y-96492230D01*
X4485200Y-96436672D01*
X4534082Y-96388430D01*
X4572441Y-96350029D01*
X4597741Y-96323997D01*
X4607443Y-96312860D01*
X4604767Y-96308627D01*
X4602222Y-96305818D01*
X4803046Y-96305818D01*
X4807405Y-96313556D01*
X4827241Y-96336605D01*
X4860375Y-96371291D01*
X4903820Y-96414513D01*
X4954587Y-96463168D01*
X4968051Y-96475860D01*
X5028275Y-96532771D01*
X5099864Y-96600587D01*
X5177437Y-96674200D01*
X5255611Y-96748507D01*
X5329005Y-96818401D01*
X5333409Y-96822599D01*
X5401784Y-96887580D01*
X5454732Y-96937165D01*
X5494767Y-96973312D01*
X5524411Y-96997983D01*
X5546181Y-97013142D01*
X5562595Y-97020744D01*
X5576174Y-97022753D01*
X5589434Y-97021128D01*
X5590819Y-97020844D01*
X5622228Y-97007302D01*
X5636863Y-96980252D01*
X5668063Y-96896871D01*
X5720038Y-96822582D01*
X5788791Y-96764155D01*
X5871315Y-96724110D01*
X5964606Y-96704974D01*
X6043565Y-96698636D01*
X6043565Y-95749161D01*
X6015273Y-95742542D01*
X6008329Y-95741371D01*
X5977281Y-95737732D01*
X5927081Y-95732766D01*
X5861727Y-95726842D01*
X5785219Y-95720331D01*
X5701555Y-95713599D01*
X5416129Y-95691276D01*
X5110565Y-95992174D01*
X5054705Y-96047364D01*
X4986888Y-96114891D01*
X4926643Y-96175471D01*
X4876053Y-96226979D01*
X4837200Y-96267290D01*
X4812170Y-96294278D01*
X4803046Y-96305818D01*
X4602222Y-96305818D01*
X4586782Y-96288776D01*
X4553480Y-96254549D01*
X4506712Y-96207773D01*
X4448325Y-96150276D01*
X4380169Y-96083888D01*
X4304094Y-96010436D01*
X4221950Y-95931748D01*
X4138943Y-95852659D01*
X4057136Y-95775129D01*
X3990082Y-95712254D01*
X3936007Y-95662498D01*
X3893129Y-95624322D01*
X3859673Y-95596189D01*
X3833861Y-95576560D01*
X3830135Y-95574195D01*
X4024673Y-95574195D01*
X4024908Y-95574616D01*
X4036350Y-95586491D01*
X4063198Y-95612869D01*
X4103018Y-95651429D01*
X4153372Y-95699847D01*
X4211828Y-95755797D01*
X4275948Y-95816957D01*
X4343298Y-95881005D01*
X4411443Y-95945615D01*
X4477948Y-96008465D01*
X4540377Y-96067232D01*
X4596295Y-96119591D01*
X4704406Y-96220467D01*
X4706476Y-96222399D01*
X4981968Y-95946695D01*
X5049224Y-95879274D01*
X5112162Y-95815733D01*
X5160100Y-95766510D01*
X5194594Y-95729804D01*
X5217199Y-95703810D01*
X5229471Y-95686725D01*
X5232966Y-95676744D01*
X5229238Y-95672065D01*
X5219844Y-95670884D01*
X5204749Y-95670127D01*
X5165883Y-95667399D01*
X5106895Y-95662892D01*
X5030473Y-95656821D01*
X4939305Y-95649404D01*
X4836080Y-95640858D01*
X4723483Y-95631398D01*
X4604205Y-95621242D01*
X4499077Y-95612277D01*
X4388350Y-95602934D01*
X4287814Y-95594558D01*
X4199943Y-95587347D01*
X4127215Y-95581504D01*
X4072110Y-95577231D01*
X4037104Y-95574727D01*
X4024673Y-95574195D01*
X3830135Y-95574195D01*
X3813914Y-95563899D01*
X3798056Y-95556666D01*
X3784509Y-95553325D01*
X3777910Y-95552439D01*
X3741548Y-95548511D01*
X3688018Y-95543541D01*
X3623421Y-95538073D01*
X3553863Y-95532656D01*
X3529635Y-95530820D01*
X3464178Y-95525512D01*
X3407717Y-95520452D01*
X3365618Y-95516137D01*
X3343243Y-95513066D01*
X3314951Y-95507045D01*
X3314951Y-97225149D01*
X3201782Y-97225149D01*
X3201782Y-95820779D01*
X3111094Y-95824474D01*
X3020406Y-95828168D01*
X3005252Y-95903614D01*
X2998379Y-95941449D01*
X2988756Y-96004632D01*
X2981496Y-96063935D01*
X2972893Y-96148813D01*
X2830270Y-96148813D01*
X2830272Y-96148812D01*
X2844888Y-96138063D01*
X2854215Y-96107945D01*
X2855846Y-96096418D01*
X2861591Y-96057114D01*
X2869378Y-96004812D01*
X2878003Y-95947624D01*
X2882393Y-95916084D01*
X2887148Y-95869925D01*
X2888295Y-95837359D01*
X2885495Y-95823977D01*
X2883671Y-95821692D01*
X2879165Y-95800595D01*
X2876029Y-95762645D01*
X2874852Y-95713953D01*
X2874852Y-95608118D01*
X2912575Y-95608106D01*
X2915718Y-95608106D01*
X2928669Y-95607612D01*
X2950411Y-95601181D01*
X2950967Y-95600629D01*
X3101188Y-95600629D01*
X3102463Y-95602303D01*
X3119976Y-95606456D01*
X3151485Y-95608118D01*
X3201782Y-95608119D01*
X3201782Y-95551092D01*
X3201662Y-95534007D01*
X3199462Y-95508692D01*
X3192334Y-95501384D01*
X3177508Y-95507057D01*
X3174682Y-95508733D01*
X3152944Y-95527552D01*
X3128820Y-95554817D01*
X3109254Y-95582013D01*
X3101188Y-95600629D01*
X2950967Y-95600629D01*
X2968851Y-95582877D01*
X2990801Y-95547170D01*
X3010853Y-95515826D01*
X3049356Y-95468107D01*
X3092579Y-95424862D01*
X3134627Y-95391781D01*
X3169604Y-95374558D01*
X3183081Y-95370338D01*
X3192334Y-95362520D01*
X3195454Y-95359884D01*
X3200696Y-95338338D01*
X3201782Y-95298686D01*
X3201781Y-95230891D01*
X3314951Y-95230891D01*
X3314951Y-95390423D01*
X3492733Y-95405318D01*
X3517037Y-95407318D01*
X3577880Y-95411977D01*
X3627389Y-95415269D01*
X3660992Y-95416908D01*
X3674116Y-95416610D01*
X3670344Y-95412276D01*
X3650676Y-95392504D01*
X3615818Y-95358322D01*
X3567576Y-95311459D01*
X3507757Y-95253646D01*
X3438167Y-95186613D01*
X3360615Y-95112088D01*
X3276907Y-95031803D01*
X3188848Y-94947487D01*
X3098250Y-94860870D01*
X3006915Y-94773681D01*
X2916653Y-94687651D01*
X2829269Y-94604508D01*
X2746572Y-94525984D01*
X2670368Y-94453808D01*
X2602463Y-94389709D01*
X2544666Y-94335417D01*
X2441040Y-94238408D01*
X2529314Y-94237966D01*
X2617589Y-94237526D01*
X3249158Y-94838062D01*
G36*
X3249158Y-94838062D02*
G01*
X3880726Y-95438599D01*
X4024673Y-95450604D01*
X4600635Y-95498635D01*
X4702791Y-95507124D01*
X4830612Y-95517657D01*
X4949767Y-95527379D01*
X5057914Y-95536102D01*
X5152713Y-95543642D01*
X5231819Y-95549813D01*
X5292892Y-95554427D01*
X5333590Y-95557300D01*
X5351570Y-95558246D01*
X5359808Y-95555749D01*
X5377599Y-95544529D01*
X5404411Y-95523249D01*
X5416129Y-95512979D01*
X5441466Y-95490775D01*
X5489986Y-95445977D01*
X5551192Y-95387719D01*
X5626307Y-95314871D01*
X5716549Y-95226297D01*
X5823144Y-95120866D01*
X5893094Y-95051508D01*
X5990658Y-94954820D01*
X6087941Y-94858474D01*
X6182014Y-94765362D01*
X6269950Y-94678382D01*
X6348820Y-94600431D01*
X6415699Y-94534404D01*
X6467658Y-94483198D01*
X6671620Y-94282486D01*
X6709671Y-94318942D01*
X6718245Y-94327540D01*
X6739297Y-94352905D01*
X6747723Y-94370305D01*
X6740530Y-94383928D01*
X6718944Y-94409256D01*
X6687995Y-94439621D01*
X6668447Y-94458104D01*
X6632752Y-94492573D01*
X6582684Y-94541288D01*
X6520001Y-94602531D01*
X6446457Y-94674580D01*
X6363810Y-94755715D01*
X6273815Y-94844216D01*
X6178228Y-94938363D01*
X6078805Y-95036435D01*
X5529343Y-95578839D01*
X5814746Y-95600934D01*
X5875662Y-95605750D01*
X5957548Y-95612784D01*
X6019569Y-95619128D01*
X6064987Y-95625252D01*
X6097062Y-95631628D01*
X6119052Y-95638723D01*
X6134219Y-95647009D01*
X6155416Y-95658607D01*
X6194386Y-95668150D01*
X6250531Y-95670989D01*
X6332773Y-95670990D01*
X6332773Y-95897326D01*
X6156733Y-95897326D01*
X6156733Y-96742918D01*
X6212262Y-96791797D01*
X6226722Y-96805164D01*
X6284813Y-96877612D01*
X6320576Y-96959468D01*
X6332773Y-97048100D01*
X6326306Y-97126308D01*
X6299047Y-97214768D01*
X6250327Y-97290493D01*
X6236403Y-97305252D01*
X6191328Y-97342136D01*
X6138819Y-97374497D01*
X6087061Y-97397703D01*
X6044239Y-97407121D01*
X6038023Y-97407303D01*
X6015246Y-97408658D01*
X5999513Y-97412200D01*
X5992069Y-97419610D01*
X5994156Y-97432568D01*
X6007020Y-97452757D01*
X6031905Y-97481855D01*
X6070053Y-97521544D01*
X6122710Y-97573504D01*
X6191119Y-97639416D01*
X6276524Y-97720960D01*
X6322111Y-97764396D01*
X6398441Y-97837000D01*
X6470808Y-97905691D01*
X6536366Y-97967777D01*
X6592274Y-98020566D01*
X6635686Y-98061366D01*
X6663758Y-98087485D01*
X6741436Y-98158881D01*
X6653416Y-98247137D01*
X6081287Y-97701310D01*
X6045188Y-97666895D01*
X5916272Y-97544454D01*
X5804754Y-97439349D01*
X5710288Y-97351264D01*
X5632529Y-97279884D01*
X5571131Y-97224895D01*
X5525748Y-97185981D01*
X5496035Y-97162827D01*
X5481644Y-97155118D01*
X5481559Y-97155117D01*
X5463624Y-97156175D01*
X5423421Y-97159262D01*
X5363687Y-97164142D01*
X5287158Y-97170568D01*
X5196569Y-97178300D01*
X5094657Y-97187095D01*
X4984159Y-97196713D01*
X4867811Y-97206909D01*
X4748348Y-97217444D01*
X4628507Y-97228074D01*
X4511025Y-97238558D01*
X4398637Y-97248654D01*
X4294081Y-97258119D01*
X4200091Y-97266712D01*
X4119405Y-97274191D01*
X4054759Y-97280313D01*
X4008888Y-97284838D01*
X3984530Y-97287522D01*
X3931089Y-97294610D01*
X3931089Y-97569703D01*
X3720470Y-97570032D01*
X3509852Y-97570361D01*
X3050891Y-98022086D01*
X2591931Y-98473811D01*
X2504848Y-98474430D01*
X2417767Y-98475049D01*
X2966952Y-97933230D01*
X3019998Y-97880863D01*
X3129772Y-97772197D01*
X3223114Y-97679291D01*
X3301173Y-97600945D01*
X3365097Y-97535957D01*
X3416035Y-97483128D01*
X3429126Y-97469109D01*
X3611172Y-97469109D01*
X3830496Y-97469109D01*
X3830495Y-97387377D01*
X3830489Y-97380105D01*
X3829612Y-97339050D01*
X3825867Y-97316723D01*
X3817270Y-97307471D01*
X3801840Y-97305644D01*
X3779160Y-97313694D01*
X3741428Y-97341270D01*
X3692179Y-97387377D01*
X3611172Y-97469109D01*
X3429126Y-97469109D01*
X3455135Y-97441257D01*
X3483548Y-97409145D01*
X3502420Y-97385590D01*
X3512901Y-97369392D01*
X3516139Y-97359351D01*
X3515158Y-97342421D01*
X3507995Y-97332916D01*
X3488401Y-97331278D01*
X3450124Y-97335218D01*
X3426025Y-97337935D01*
X3385744Y-97341716D01*
X3358961Y-97343240D01*
X3349728Y-97343985D01*
X3339838Y-97351254D01*
X3336562Y-97371332D01*
X3337992Y-97410311D01*
X3338553Y-97420263D01*
X3337921Y-97460102D01*
X3329167Y-97488440D01*
X3309289Y-97516370D01*
X3305104Y-97521180D01*
X3254427Y-97560518D01*
X3195934Y-97577828D01*
X3134575Y-97572526D01*
X3075297Y-97544025D01*
X3071607Y-97541267D01*
X3039850Y-97503178D01*
X3021067Y-97453524D01*
X3016071Y-97399998D01*
X3025679Y-97350293D01*
X3050704Y-97312100D01*
X3063480Y-97299169D01*
X3066576Y-97286572D01*
X3056998Y-97268533D01*
X3033082Y-97238072D01*
X3025731Y-97228726D01*
X2979339Y-97156570D01*
X2938084Y-97071085D01*
X2904936Y-96980233D01*
X2882868Y-96891973D01*
X2874852Y-96814264D01*
X2874788Y-96806009D01*
X2870321Y-96760121D01*
X2857795Y-96734921D01*
X2835784Y-96727227D01*
X2828849Y-96726324D01*
X2822885Y-96721385D01*
X2818519Y-96709388D01*
X2815503Y-96687320D01*
X2813590Y-96652164D01*
X2812530Y-96600906D01*
X2812077Y-96530529D01*
X2811980Y-96438020D01*
X2812150Y-96351340D01*
X2812835Y-96277668D01*
X2813558Y-96249406D01*
X2912575Y-96249406D01*
X2912576Y-96626633D01*
X2975446Y-96626633D01*
X2975446Y-96249406D01*
X2912575Y-96249406D01*
X2813558Y-96249406D01*
X2814215Y-96223735D01*
X2816470Y-96186712D01*
X2819778Y-96163770D01*
X2824320Y-96152079D01*
X2830270Y-96148813D01*
X2972893Y-96148813D01*
X3076040Y-96148812D01*
X3076040Y-96727227D01*
X2985122Y-96727227D01*
X2993753Y-96799529D01*
X3012249Y-96910002D01*
X3045691Y-97021184D01*
X3092324Y-97113150D01*
X3152786Y-97187458D01*
X3201782Y-97235302D01*
X3201782Y-97225149D01*
X3314951Y-97225149D01*
X3362104Y-97220987D01*
X3383498Y-97219065D01*
X3441909Y-97213076D01*
X3480382Y-97207174D01*
X3502912Y-97200273D01*
X3513498Y-97191288D01*
X3516139Y-97179130D01*
X3517937Y-97168199D01*
X3523438Y-97163558D01*
X3935703Y-97163558D01*
X3943732Y-97163747D01*
X3974653Y-97162092D01*
X4026653Y-97158451D01*
X4097487Y-97153005D01*
X4184912Y-97145937D01*
X4286681Y-97137430D01*
X4400552Y-97127665D01*
X4524279Y-97116825D01*
X4655618Y-97105093D01*
X4756908Y-97095921D01*
X4882526Y-97084434D01*
X4998762Y-97073678D01*
X5103380Y-97063869D01*
X5194140Y-97055219D01*
X5268804Y-97047943D01*
X5325134Y-97042254D01*
X5360891Y-97038366D01*
X5373837Y-97036494D01*
X5369826Y-97030812D01*
X5350138Y-97009980D01*
X5316322Y-96976128D01*
X5270837Y-96931588D01*
X5216146Y-96878690D01*
X5154710Y-96819764D01*
X5088990Y-96757141D01*
X5021449Y-96693152D01*
X4954547Y-96630126D01*
X4890746Y-96570394D01*
X4832507Y-96516287D01*
X4782292Y-96470135D01*
X4742563Y-96434267D01*
X4715780Y-96411016D01*
X4704406Y-96402710D01*
X4693383Y-96410852D01*
X4666999Y-96434522D01*
X4627527Y-96471522D01*
X4577191Y-96519650D01*
X4518217Y-96576704D01*
X4452830Y-96640480D01*
X4383255Y-96708778D01*
X4311716Y-96779395D01*
X4240438Y-96850129D01*
X4171647Y-96918778D01*
X4107566Y-96983139D01*
X4050422Y-97041012D01*
X4002439Y-97090189D01*
X3965841Y-97128476D01*
X3942854Y-97153666D01*
X3935703Y-97163558D01*
X3523438Y-97163558D01*
X3526530Y-97160950D01*
X3546505Y-97156900D01*
X3582450Y-97155137D01*
X3638952Y-97154752D01*
X3761766Y-97154752D01*
X3801840Y-97114554D01*
X3899654Y-97016435D01*
X4037542Y-96878119D01*
X3931089Y-96878119D01*
X3931089Y-96123663D01*
X4170000Y-96123663D01*
X4170000Y-96742169D01*
X4386906Y-96532408D01*
X4428334Y-96492230D01*
X4485200Y-96436672D01*
X4534082Y-96388430D01*
X4572441Y-96350029D01*
X4597741Y-96323997D01*
X4607443Y-96312860D01*
X4604767Y-96308627D01*
X4602222Y-96305818D01*
X4803046Y-96305818D01*
X4807405Y-96313556D01*
X4827241Y-96336605D01*
X4860375Y-96371291D01*
X4903820Y-96414513D01*
X4954587Y-96463168D01*
X4968051Y-96475860D01*
X5028275Y-96532771D01*
X5099864Y-96600587D01*
X5177437Y-96674200D01*
X5255611Y-96748507D01*
X5329005Y-96818401D01*
X5333409Y-96822599D01*
X5401784Y-96887580D01*
X5454732Y-96937165D01*
X5494767Y-96973312D01*
X5524411Y-96997983D01*
X5546181Y-97013142D01*
X5562595Y-97020744D01*
X5576174Y-97022753D01*
X5589434Y-97021128D01*
X5590819Y-97020844D01*
X5622228Y-97007302D01*
X5636863Y-96980252D01*
X5668063Y-96896871D01*
X5720038Y-96822582D01*
X5788791Y-96764155D01*
X5871315Y-96724110D01*
X5964606Y-96704974D01*
X6043565Y-96698636D01*
X6043565Y-95749161D01*
X6015273Y-95742542D01*
X6008329Y-95741371D01*
X5977281Y-95737732D01*
X5927081Y-95732766D01*
X5861727Y-95726842D01*
X5785219Y-95720331D01*
X5701555Y-95713599D01*
X5416129Y-95691276D01*
X5110565Y-95992174D01*
X5054705Y-96047364D01*
X4986888Y-96114891D01*
X4926643Y-96175471D01*
X4876053Y-96226979D01*
X4837200Y-96267290D01*
X4812170Y-96294278D01*
X4803046Y-96305818D01*
X4602222Y-96305818D01*
X4586782Y-96288776D01*
X4553480Y-96254549D01*
X4506712Y-96207773D01*
X4448325Y-96150276D01*
X4380169Y-96083888D01*
X4304094Y-96010436D01*
X4221950Y-95931748D01*
X4138943Y-95852659D01*
X4057136Y-95775129D01*
X3990082Y-95712254D01*
X3936007Y-95662498D01*
X3893129Y-95624322D01*
X3859673Y-95596189D01*
X3833861Y-95576560D01*
X3830135Y-95574195D01*
X4024673Y-95574195D01*
X4024908Y-95574616D01*
X4036350Y-95586491D01*
X4063198Y-95612869D01*
X4103018Y-95651429D01*
X4153372Y-95699847D01*
X4211828Y-95755797D01*
X4275948Y-95816957D01*
X4343298Y-95881005D01*
X4411443Y-95945615D01*
X4477948Y-96008465D01*
X4540377Y-96067232D01*
X4596295Y-96119591D01*
X4704406Y-96220467D01*
X4706476Y-96222399D01*
X4981968Y-95946695D01*
X5049224Y-95879274D01*
X5112162Y-95815733D01*
X5160100Y-95766510D01*
X5194594Y-95729804D01*
X5217199Y-95703810D01*
X5229471Y-95686725D01*
X5232966Y-95676744D01*
X5229238Y-95672065D01*
X5219844Y-95670884D01*
X5204749Y-95670127D01*
X5165883Y-95667399D01*
X5106895Y-95662892D01*
X5030473Y-95656821D01*
X4939305Y-95649404D01*
X4836080Y-95640858D01*
X4723483Y-95631398D01*
X4604205Y-95621242D01*
X4499077Y-95612277D01*
X4388350Y-95602934D01*
X4287814Y-95594558D01*
X4199943Y-95587347D01*
X4127215Y-95581504D01*
X4072110Y-95577231D01*
X4037104Y-95574727D01*
X4024673Y-95574195D01*
X3830135Y-95574195D01*
X3813914Y-95563899D01*
X3798056Y-95556666D01*
X3784509Y-95553325D01*
X3777910Y-95552439D01*
X3741548Y-95548511D01*
X3688018Y-95543541D01*
X3623421Y-95538073D01*
X3553863Y-95532656D01*
X3529635Y-95530820D01*
X3464178Y-95525512D01*
X3407717Y-95520452D01*
X3365618Y-95516137D01*
X3343243Y-95513066D01*
X3314951Y-95507045D01*
X3314951Y-97225149D01*
X3201782Y-97225149D01*
X3201782Y-95820779D01*
X3111094Y-95824474D01*
X3020406Y-95828168D01*
X3005252Y-95903614D01*
X2998379Y-95941449D01*
X2988756Y-96004632D01*
X2981496Y-96063935D01*
X2972893Y-96148813D01*
X2830270Y-96148813D01*
X2830272Y-96148812D01*
X2844888Y-96138063D01*
X2854215Y-96107945D01*
X2855846Y-96096418D01*
X2861591Y-96057114D01*
X2869378Y-96004812D01*
X2878003Y-95947624D01*
X2882393Y-95916084D01*
X2887148Y-95869925D01*
X2888295Y-95837359D01*
X2885495Y-95823977D01*
X2883671Y-95821692D01*
X2879165Y-95800595D01*
X2876029Y-95762645D01*
X2874852Y-95713953D01*
X2874852Y-95608118D01*
X2912575Y-95608106D01*
X2915718Y-95608106D01*
X2928669Y-95607612D01*
X2950411Y-95601181D01*
X2950967Y-95600629D01*
X3101188Y-95600629D01*
X3102463Y-95602303D01*
X3119976Y-95606456D01*
X3151485Y-95608118D01*
X3201782Y-95608119D01*
X3201782Y-95551092D01*
X3201662Y-95534007D01*
X3199462Y-95508692D01*
X3192334Y-95501384D01*
X3177508Y-95507057D01*
X3174682Y-95508733D01*
X3152944Y-95527552D01*
X3128820Y-95554817D01*
X3109254Y-95582013D01*
X3101188Y-95600629D01*
X2950967Y-95600629D01*
X2968851Y-95582877D01*
X2990801Y-95547170D01*
X3010853Y-95515826D01*
X3049356Y-95468107D01*
X3092579Y-95424862D01*
X3134627Y-95391781D01*
X3169604Y-95374558D01*
X3183081Y-95370338D01*
X3192334Y-95362520D01*
X3195454Y-95359884D01*
X3200696Y-95338338D01*
X3201782Y-95298686D01*
X3201781Y-95230891D01*
X3314951Y-95230891D01*
X3314951Y-95390423D01*
X3492733Y-95405318D01*
X3517037Y-95407318D01*
X3577880Y-95411977D01*
X3627389Y-95415269D01*
X3660992Y-95416908D01*
X3674116Y-95416610D01*
X3670344Y-95412276D01*
X3650676Y-95392504D01*
X3615818Y-95358322D01*
X3567576Y-95311459D01*
X3507757Y-95253646D01*
X3438167Y-95186613D01*
X3360615Y-95112088D01*
X3276907Y-95031803D01*
X3188848Y-94947487D01*
X3098250Y-94860870D01*
X3006915Y-94773681D01*
X2916653Y-94687651D01*
X2829269Y-94604508D01*
X2746572Y-94525984D01*
X2670368Y-94453808D01*
X2602463Y-94389709D01*
X2544666Y-94335417D01*
X2441040Y-94238408D01*
X2529314Y-94237966D01*
X2617589Y-94237526D01*
X3249158Y-94838062D01*
G37*
D16*
%TO.C,U4*%
X15725000Y-79610000D02*
X15725000Y-92080000D01*
X15725000Y-92080000D02*
X23585000Y-92080000D01*
X15785000Y-83310000D02*
X15785000Y-88380000D01*
X15785000Y-88380000D02*
X23525000Y-88380000D01*
X23525000Y-83310000D02*
X15785000Y-83310000D01*
X23525000Y-84845000D02*
X23525000Y-83310000D01*
X23525000Y-88380000D02*
X23525000Y-86845000D01*
X23585000Y-79610000D02*
X15725000Y-79610000D01*
X23585000Y-92080000D02*
X23585000Y-79610000D01*
X23525000Y-86845000D02*
G75*
G02*
X23525000Y-84845000I0J1000000D01*
G01*
D15*
%TO.C,D12*%
X945000Y-7390000D02*
G75*
G02*
X845000Y-7390000I-50000J0D01*
G01*
X845000Y-7390000D02*
G75*
G02*
X945000Y-7390000I50000J0D01*
G01*
D16*
%TO.C,R47*%
X15414556Y-77740559D02*
X15197275Y-77957840D01*
X15951957Y-78277960D02*
X15734676Y-78495241D01*
%TO.C,RN2*%
X8790000Y-2260000D02*
X8290000Y-2260000D01*
X8790000Y-4620000D02*
X8290000Y-4620000D01*
%TO.C,U11*%
X10594508Y-81826356D02*
X10594508Y-83326356D01*
X10594508Y-84826356D02*
X10594508Y-83326356D01*
X13814508Y-81826356D02*
X13814508Y-83326356D01*
X13814508Y-84826356D02*
X13814508Y-83326356D01*
X13969508Y-85778856D02*
X13639508Y-85538856D01*
X13969508Y-85298856D01*
X13969508Y-85778856D01*
G36*
X13969508Y-85778856D02*
G01*
X13639508Y-85538856D01*
X13969508Y-85298856D01*
X13969508Y-85778856D01*
G37*
%TO.C,R34*%
X8492338Y-72290186D02*
X8492338Y-72597468D01*
X9252338Y-72290186D02*
X9252338Y-72597468D01*
D15*
%TO.C,D20*%
X945000Y-9290000D02*
G75*
G02*
X845000Y-9290000I-50000J0D01*
G01*
X845000Y-9290000D02*
G75*
G02*
X945000Y-9290000I50000J0D01*
G01*
D16*
%TO.C,R45*%
X11803657Y-70046358D02*
X11803657Y-70353640D01*
X12563657Y-70046358D02*
X12563657Y-70353640D01*
%TO.C,R35*%
X7553657Y-72286358D02*
X7553657Y-72593640D01*
X8313657Y-72286358D02*
X8313657Y-72593640D01*
D15*
%TO.C,D18*%
X932500Y-5500000D02*
G75*
G02*
X832500Y-5500000I-50000J0D01*
G01*
X832500Y-5500000D02*
G75*
G02*
X932500Y-5500000I50000J0D01*
G01*
D16*
%TO.C,R46*%
X14347297Y-63569999D02*
X14040015Y-63569999D01*
X14347297Y-64329999D02*
X14040015Y-64329999D01*
%TO.C,C36*%
X14073657Y-85057835D02*
X14073657Y-84842163D01*
X14793657Y-85057835D02*
X14793657Y-84842163D01*
%TD*%
%LPC*%
D14*
X22444763Y-11588601D02*
X22444763Y-9488601D01*
D17*
X14040504Y-43486276D02*
X16386617Y-43486276D01*
X16386617Y-48412814D01*
X14040504Y-48412814D01*
X14040504Y-43486276D01*
G36*
X14040504Y-43486276D02*
G01*
X16386617Y-43486276D01*
X16386617Y-48412814D01*
X14040504Y-48412814D01*
X14040504Y-43486276D01*
G37*
X375367Y-77386701D02*
X1971480Y-77386701D01*
X1971480Y-96063239D01*
X375367Y-96063239D01*
X375367Y-77386701D01*
G36*
X375367Y-77386701D02*
G01*
X1971480Y-77386701D01*
X1971480Y-96063239D01*
X375367Y-96063239D01*
X375367Y-77386701D01*
G37*
X337544Y-18773461D02*
X1683657Y-18773461D01*
X1683657Y-30949999D01*
X337544Y-30949999D01*
X337544Y-18773461D01*
G36*
X337544Y-18773461D02*
G01*
X1683657Y-18773461D01*
X1683657Y-30949999D01*
X337544Y-30949999D01*
X337544Y-18773461D01*
G37*
X26947773Y-80161731D02*
X28940000Y-80161731D01*
X28940000Y-81398957D01*
X26947773Y-81398957D01*
X26947773Y-80161731D01*
G36*
X26947773Y-80161731D02*
G01*
X28940000Y-80161731D01*
X28940000Y-81398957D01*
X26947773Y-81398957D01*
X26947773Y-80161731D01*
G37*
X433657Y-449999D02*
X2771926Y-449999D01*
X2771926Y-2046112D01*
X433657Y-2046112D01*
X433657Y-449999D01*
G36*
X433657Y-449999D02*
G01*
X2771926Y-449999D01*
X2771926Y-2046112D01*
X433657Y-2046112D01*
X433657Y-449999D01*
G37*
X19496544Y-55658743D02*
X22688771Y-55658743D01*
X22688771Y-58835281D01*
X19496544Y-58835281D01*
X19496544Y-55658743D01*
G36*
X19496544Y-55658743D02*
G01*
X22688771Y-55658743D01*
X22688771Y-58835281D01*
X19496544Y-58835281D01*
X19496544Y-55658743D01*
G37*
X337544Y-57023461D02*
X1433657Y-57023461D01*
X1433657Y-69199999D01*
X337544Y-69199999D01*
X337544Y-57023461D01*
G36*
X337544Y-57023461D02*
G01*
X1433657Y-57023461D01*
X1433657Y-69199999D01*
X337544Y-69199999D01*
X337544Y-57023461D01*
G37*
D14*
X22444763Y-22788601D02*
X22444763Y-20688601D01*
D17*
X344782Y-35537990D02*
X2690895Y-35537990D01*
X2690895Y-47714528D01*
X344782Y-47714528D01*
X344782Y-35537990D01*
G36*
X344782Y-35537990D02*
G01*
X2690895Y-35537990D01*
X2690895Y-47714528D01*
X344782Y-47714528D01*
X344782Y-35537990D01*
G37*
D18*
G36*
X30991509Y-10756685D02*
G01*
X30978943Y-10686759D01*
X30941244Y-10630168D01*
X30880769Y-10591214D01*
X30815068Y-10580244D01*
X29227441Y-10580244D01*
X29157514Y-10592725D01*
X29100923Y-10630168D01*
X29061969Y-10690738D01*
X29051000Y-10756685D01*
X29051000Y-11076057D01*
X29223337Y-11076057D01*
X29223337Y-10829177D01*
X29268366Y-10777004D01*
X29282151Y-10776176D01*
X30760016Y-10776176D01*
X30817393Y-10813908D01*
X30818829Y-10829177D01*
X30818829Y-11076057D01*
X30991509Y-11076057D01*
X30991509Y-10756685D01*
G37*
G36*
X30272610Y-11198273D02*
G01*
X30343760Y-11212251D01*
X30409527Y-11244976D01*
X30430089Y-11260852D01*
X30479045Y-11313922D01*
X30513135Y-11374571D01*
X30530160Y-11422133D01*
X30544193Y-11491104D01*
X30548355Y-11559902D01*
X30547911Y-11584250D01*
X30540345Y-11654891D01*
X30519974Y-11720272D01*
X30499209Y-11758642D01*
X30452612Y-11812596D01*
X30442936Y-11820215D01*
X30383882Y-11859784D01*
X30383882Y-11889191D01*
X30389695Y-11889191D01*
X30428509Y-11894282D01*
X30485780Y-11932275D01*
X30509856Y-11974817D01*
X30521000Y-12043747D01*
X30521000Y-12194885D01*
X30352423Y-12194885D01*
X30352423Y-12112477D01*
X30350987Y-12096716D01*
X30293609Y-12057767D01*
X29895591Y-12057767D01*
X29884663Y-12057661D01*
X29812543Y-12051014D01*
X29739496Y-12030754D01*
X29676450Y-11996987D01*
X29623407Y-11949714D01*
X29611772Y-11935936D01*
X29572737Y-11874547D01*
X29545713Y-11803114D01*
X29531920Y-11732370D01*
X29527322Y-11653936D01*
X29530432Y-11588275D01*
X29542682Y-11515664D01*
X29566645Y-11446036D01*
X29579436Y-11419943D01*
X29618397Y-11359916D01*
X29669569Y-11307893D01*
X29685699Y-11295342D01*
X29745772Y-11258401D01*
X29811474Y-11232324D01*
X29872339Y-11420733D01*
X29867453Y-11421859D01*
X29801130Y-11447490D01*
X29744796Y-11492882D01*
X29728178Y-11515246D01*
X29702775Y-11580798D01*
X29695898Y-11651884D01*
X29696694Y-11677524D01*
X29710277Y-11748974D01*
X29746847Y-11808835D01*
X29750064Y-11811969D01*
X29810342Y-11848589D01*
X29881914Y-11859784D01*
X29944831Y-11859784D01*
X29944831Y-11577341D01*
X30101439Y-11577341D01*
X30101439Y-11859784D01*
X30121272Y-11859784D01*
X30192097Y-11852504D01*
X30258358Y-11827681D01*
X30312416Y-11785241D01*
X30351936Y-11728457D01*
X30375051Y-11660602D01*
X30381830Y-11589309D01*
X30381792Y-11583832D01*
X30373265Y-11514792D01*
X30342849Y-11450140D01*
X30306384Y-11417152D01*
X30236847Y-11399191D01*
X30191407Y-11406067D01*
X30135975Y-11448088D01*
X30109028Y-11508920D01*
X30101439Y-11577341D01*
X29944831Y-11577341D01*
X29944831Y-11565715D01*
X29946925Y-11514125D01*
X29957921Y-11442029D01*
X29978341Y-11376281D01*
X29987140Y-11356053D01*
X30025933Y-11293838D01*
X30077161Y-11244976D01*
X30107521Y-11226323D01*
X30172584Y-11203836D01*
X30242660Y-11197104D01*
X30272610Y-11198273D01*
G37*
G36*
X30912863Y-12591535D02*
G01*
X30389695Y-12591535D01*
X30389695Y-12622994D01*
X30413971Y-12639243D01*
X30465263Y-12685569D01*
X30494491Y-12724820D01*
X30524761Y-12789519D01*
X30530291Y-12806135D01*
X30544461Y-12876630D01*
X30548355Y-12948179D01*
X30548125Y-12963318D01*
X30540084Y-13036688D01*
X30520556Y-13106184D01*
X30489541Y-13171807D01*
X30478060Y-13190550D01*
X30433233Y-13247771D01*
X30378323Y-13296912D01*
X30320281Y-13334229D01*
X30269602Y-13357945D01*
X30197952Y-13379878D01*
X30128132Y-13391290D01*
X30052542Y-13395094D01*
X30023135Y-13395094D01*
X29966018Y-13392918D01*
X29894873Y-13383248D01*
X29821681Y-13363121D01*
X29755738Y-13333203D01*
X29742092Y-13325356D01*
X29679955Y-13281511D01*
X29627970Y-13229987D01*
X29586136Y-13170782D01*
X29579014Y-13158091D01*
X29550296Y-13092194D01*
X29533065Y-13022223D01*
X29527322Y-12948179D01*
X29527372Y-12939438D01*
X29530753Y-12889365D01*
X29705473Y-12889365D01*
X29706215Y-12913579D01*
X29717350Y-12981352D01*
X29745393Y-13048091D01*
X29789932Y-13105813D01*
X29823964Y-13134865D01*
X29884344Y-13167172D01*
X29955922Y-13185955D01*
X30028948Y-13191298D01*
X30046729Y-13191298D01*
X30093907Y-13189236D01*
X30162066Y-13177359D01*
X30227964Y-13151378D01*
X30287796Y-13106839D01*
X30302829Y-13090634D01*
X30342259Y-13030367D01*
X30365260Y-12960483D01*
X30371914Y-12889365D01*
X30371585Y-12873379D01*
X30360085Y-12798580D01*
X30332155Y-12732329D01*
X30287796Y-12674627D01*
X30253588Y-12645691D01*
X30192763Y-12613513D01*
X30120524Y-12594805D01*
X30046729Y-12589484D01*
X30028948Y-12589484D01*
X29982270Y-12591562D01*
X29914774Y-12603536D01*
X29849417Y-12629727D01*
X29789932Y-12674627D01*
X29774838Y-12691040D01*
X29735248Y-12751307D01*
X29712153Y-12820122D01*
X29705473Y-12889365D01*
X29530753Y-12889365D01*
X29532297Y-12866507D01*
X29547224Y-12797592D01*
X29578271Y-12731731D01*
X29587944Y-12717898D01*
X29636265Y-12662247D01*
X29693847Y-12618891D01*
X29693847Y-12587774D01*
X29554677Y-12587774D01*
X29554677Y-12389791D01*
X30912863Y-12389791D01*
X30912863Y-12591535D01*
G37*
G36*
X30521000Y-13784222D02*
G01*
X29725305Y-13784222D01*
X29725305Y-13513747D01*
X29554677Y-13513747D01*
X29554677Y-13784222D01*
X29343016Y-13784222D01*
X29272630Y-13794301D01*
X29212323Y-13827470D01*
X29202137Y-13836881D01*
X29164094Y-13894308D01*
X29149602Y-13961870D01*
X29149136Y-13978102D01*
X29149136Y-14227034D01*
X29319422Y-14227034D01*
X29319422Y-14042729D01*
X29361293Y-13987352D01*
X29378236Y-13985967D01*
X29554677Y-13985967D01*
X29554677Y-14264306D01*
X29725305Y-14264306D01*
X29725305Y-13985967D01*
X30521000Y-13985967D01*
X30521000Y-13784222D01*
G37*
G36*
X30548355Y-14467076D02*
G01*
X30534182Y-14396896D01*
X30503561Y-14352184D01*
X30444668Y-14315135D01*
X30387643Y-14306364D01*
X30320232Y-14319296D01*
X30273093Y-14352184D01*
X30237426Y-14411257D01*
X30228983Y-14467076D01*
X30243264Y-14537148D01*
X30274119Y-14581626D01*
X30332254Y-14618952D01*
X30387643Y-14627788D01*
X30455610Y-14614760D01*
X30503561Y-14581626D01*
X30539781Y-14522830D01*
X30548355Y-14467076D01*
G37*
G36*
X30272610Y-14824204D02*
G01*
X30343760Y-14838183D01*
X30409527Y-14870907D01*
X30430089Y-14886784D01*
X30479045Y-14939854D01*
X30513135Y-15000503D01*
X30530160Y-15048065D01*
X30544193Y-15117035D01*
X30548355Y-15185834D01*
X30547911Y-15210181D01*
X30540345Y-15280823D01*
X30519974Y-15346204D01*
X30499209Y-15384574D01*
X30452612Y-15438528D01*
X30442936Y-15446147D01*
X30383882Y-15485715D01*
X30383882Y-15515122D01*
X30389695Y-15515122D01*
X30428509Y-15520213D01*
X30485780Y-15558207D01*
X30509856Y-15600749D01*
X30521000Y-15669679D01*
X30521000Y-15820817D01*
X30352423Y-15820817D01*
X30352423Y-15738409D01*
X30350987Y-15722648D01*
X30293609Y-15683699D01*
X29895591Y-15683699D01*
X29884663Y-15683593D01*
X29812543Y-15676945D01*
X29739496Y-15656685D01*
X29676450Y-15622919D01*
X29623407Y-15575646D01*
X29611772Y-15561868D01*
X29572737Y-15500479D01*
X29545713Y-15429045D01*
X29531920Y-15358302D01*
X29527322Y-15279868D01*
X29530432Y-15214207D01*
X29542682Y-15141596D01*
X29566645Y-15071968D01*
X29579436Y-15045875D01*
X29618397Y-14985847D01*
X29669569Y-14933824D01*
X29685699Y-14921274D01*
X29745772Y-14884332D01*
X29811474Y-14858255D01*
X29872339Y-15046664D01*
X29867453Y-15047791D01*
X29801130Y-15073421D01*
X29744796Y-15118814D01*
X29728178Y-15141177D01*
X29702775Y-15206730D01*
X29695898Y-15277816D01*
X29696694Y-15303456D01*
X29710277Y-15374905D01*
X29746847Y-15434766D01*
X29750064Y-15437901D01*
X29810342Y-15474521D01*
X29881914Y-15485715D01*
X29944831Y-15485715D01*
X29944831Y-15203273D01*
X30101439Y-15203273D01*
X30101439Y-15485715D01*
X30121272Y-15485715D01*
X30192097Y-15478436D01*
X30258358Y-15453612D01*
X30312416Y-15411172D01*
X30351936Y-15354389D01*
X30375051Y-15286534D01*
X30381830Y-15215241D01*
X30381792Y-15209763D01*
X30373265Y-15140724D01*
X30342849Y-15076071D01*
X30306384Y-15043084D01*
X30236847Y-15025122D01*
X30191407Y-15031998D01*
X30135975Y-15074020D01*
X30109028Y-15134852D01*
X30101439Y-15203273D01*
X29944831Y-15203273D01*
X29944831Y-15191647D01*
X29946925Y-15140057D01*
X29957921Y-15067961D01*
X29978341Y-15002212D01*
X29987140Y-14981984D01*
X30025933Y-14919770D01*
X30077161Y-14870907D01*
X30107521Y-14852254D01*
X30172584Y-14829768D01*
X30242660Y-14823036D01*
X30272610Y-14824204D01*
G37*
G36*
X30538780Y-16361424D02*
G01*
X30533002Y-16288750D01*
X30515669Y-16221652D01*
X30489883Y-16165492D01*
X30447231Y-16106059D01*
X30393135Y-16057012D01*
X30350713Y-16030084D01*
X30284490Y-16002245D01*
X30217063Y-15986964D01*
X30142758Y-15981234D01*
X30134949Y-15981186D01*
X29554677Y-15981186D01*
X29554677Y-16182931D01*
X30121272Y-16182931D01*
X30193293Y-16189042D01*
X30262792Y-16212507D01*
X30306603Y-16245506D01*
X30345125Y-16304696D01*
X30363254Y-16373658D01*
X30366101Y-16420237D01*
X30357986Y-16492679D01*
X30330316Y-16561489D01*
X30283009Y-16618904D01*
X30223684Y-16658755D01*
X30158015Y-16682001D01*
X30089878Y-16692628D01*
X30042625Y-16694473D01*
X29554677Y-16694473D01*
X29554677Y-16896560D01*
X30521000Y-16896560D01*
X30521000Y-16698577D01*
X30376017Y-16698577D01*
X30376017Y-16667118D01*
X30433121Y-16628906D01*
X30480282Y-16577659D01*
X30486806Y-16568981D01*
X30518478Y-16506775D01*
X30534669Y-16433278D01*
X30538780Y-16361424D01*
G37*
G36*
X30109775Y-17148340D02*
G01*
X30181038Y-17157957D01*
X30254311Y-17177972D01*
X30320281Y-17207725D01*
X30333885Y-17215618D01*
X30395855Y-17259769D01*
X30447740Y-17311735D01*
X30489541Y-17371514D01*
X30496663Y-17384321D01*
X30525381Y-17450438D01*
X30542611Y-17520029D01*
X30548355Y-17593092D01*
X30548305Y-17601853D01*
X30543379Y-17674910D01*
X30528453Y-17743839D01*
X30497406Y-17809540D01*
X30487751Y-17823372D01*
X30439991Y-17879023D01*
X30383882Y-17922380D01*
X30383882Y-17953838D01*
X30521000Y-17953838D01*
X30521000Y-18151821D01*
X29149136Y-18151821D01*
X29149136Y-17949735D01*
X29685982Y-17949735D01*
X29685982Y-17918276D01*
X29661886Y-17902909D01*
X29610755Y-17855701D01*
X29581294Y-17815413D01*
X29550916Y-17750726D01*
X29545386Y-17734350D01*
X29531216Y-17664471D01*
X29530419Y-17649854D01*
X29705473Y-17649854D01*
X29706215Y-17674425D01*
X29717350Y-17742947D01*
X29745393Y-17809946D01*
X29789932Y-17867327D01*
X29817947Y-17891659D01*
X29884344Y-17927950D01*
X29955922Y-17946508D01*
X30028948Y-17951787D01*
X30046729Y-17951787D01*
X30093907Y-17949700D01*
X30162066Y-17937678D01*
X30227964Y-17911382D01*
X30287796Y-17866302D01*
X30302829Y-17849932D01*
X30342259Y-17789504D01*
X30365260Y-17720061D01*
X30371914Y-17649854D01*
X30371585Y-17633868D01*
X30360085Y-17559068D01*
X30332155Y-17492818D01*
X30287796Y-17435115D01*
X30253588Y-17406180D01*
X30192763Y-17374002D01*
X30120524Y-17355294D01*
X30046729Y-17349972D01*
X30028948Y-17349972D01*
X29982270Y-17352051D01*
X29914774Y-17364024D01*
X29849417Y-17390216D01*
X29789932Y-17435115D01*
X29774838Y-17451528D01*
X29735248Y-17511795D01*
X29712153Y-17580611D01*
X29705473Y-17649854D01*
X29530419Y-17649854D01*
X29527322Y-17593092D01*
X29527552Y-17577993D01*
X29535593Y-17504743D01*
X29555121Y-17435233D01*
X29586136Y-17369463D01*
X29597629Y-17350717D01*
X29642669Y-17293443D01*
X29698060Y-17244182D01*
X29756764Y-17206699D01*
X29807611Y-17183116D01*
X29879093Y-17161307D01*
X29948400Y-17149959D01*
X30023135Y-17146176D01*
X30052542Y-17146176D01*
X30109775Y-17148340D01*
G37*
G36*
X30521000Y-18448967D02*
G01*
X29554677Y-18448967D01*
X29554677Y-18650712D01*
X30521000Y-18650712D01*
X30521000Y-18448967D01*
G37*
G36*
X29423372Y-18550523D02*
G01*
X29407026Y-18481283D01*
X29385417Y-18451361D01*
X29325432Y-18416081D01*
X29286254Y-18411354D01*
X29219122Y-18426982D01*
X29187434Y-18451361D01*
X29153662Y-18512271D01*
X29149136Y-18550523D01*
X29164096Y-18618057D01*
X29187434Y-18650370D01*
X29247116Y-18685046D01*
X29286254Y-18689693D01*
X29353520Y-18674332D01*
X29385417Y-18650370D01*
X29418887Y-18589782D01*
X29423372Y-18550523D01*
G37*
G36*
X30108417Y-18904652D02*
G01*
X30178429Y-18914750D01*
X30251062Y-18935766D01*
X30317203Y-18967006D01*
X30350876Y-18988379D01*
X30405093Y-19032783D01*
X30451086Y-19084814D01*
X30488857Y-19144473D01*
X30509077Y-19187918D01*
X30531563Y-19257323D01*
X30544636Y-19331814D01*
X30548355Y-19402296D01*
X30546902Y-19446835D01*
X30536966Y-19523134D01*
X30517618Y-19594457D01*
X30488857Y-19660803D01*
X30468888Y-19695184D01*
X30426549Y-19751011D01*
X30375988Y-19799048D01*
X30317203Y-19839295D01*
X30266321Y-19864477D01*
X30195131Y-19887765D01*
X30126401Y-19899883D01*
X30052542Y-19903922D01*
X30023135Y-19903922D01*
X29967296Y-19901650D01*
X29897444Y-19891552D01*
X29825145Y-19870536D01*
X29759499Y-19839295D01*
X29726105Y-19817897D01*
X29672180Y-19773322D01*
X29626208Y-19720957D01*
X29588187Y-19660803D01*
X29567503Y-19617125D01*
X29544500Y-19547462D01*
X29531126Y-19472821D01*
X29527322Y-19402296D01*
X29707524Y-19402296D01*
X29708276Y-19427158D01*
X29719546Y-19496191D01*
X29747929Y-19563123D01*
X29793009Y-19619770D01*
X29821219Y-19643510D01*
X29887256Y-19678920D01*
X29957653Y-19697027D01*
X30028948Y-19702177D01*
X30046729Y-19702177D01*
X30083407Y-19700874D01*
X30158471Y-19688408D01*
X30223203Y-19662742D01*
X30283009Y-19618744D01*
X30298225Y-19602664D01*
X30338136Y-19542772D01*
X30361417Y-19473195D01*
X30368152Y-19402296D01*
X30367404Y-19378097D01*
X30356179Y-19310549D01*
X30327909Y-19244378D01*
X30283009Y-19187558D01*
X30254701Y-19163522D01*
X30188517Y-19127671D01*
X30118045Y-19109339D01*
X30046729Y-19104124D01*
X30028948Y-19104124D01*
X29992275Y-19105428D01*
X29917262Y-19117894D01*
X29852635Y-19143560D01*
X29793009Y-19187558D01*
X29777732Y-19203622D01*
X29737661Y-19263248D01*
X29714286Y-19332224D01*
X29707524Y-19402296D01*
X29527322Y-19402296D01*
X29528808Y-19357774D01*
X29538972Y-19281588D01*
X29558765Y-19210488D01*
X29588187Y-19144473D01*
X29608328Y-19110388D01*
X29650766Y-19054966D01*
X29701157Y-19007173D01*
X29759499Y-18967006D01*
X29809982Y-18941825D01*
X29880802Y-18918536D01*
X29949340Y-18906419D01*
X30023135Y-18902380D01*
X30052542Y-18902380D01*
X30108417Y-18904652D01*
G37*
G36*
X30991509Y-20022233D02*
G01*
X30818829Y-20022233D01*
X30818829Y-20271165D01*
X30773800Y-20323338D01*
X30760016Y-20324166D01*
X29282151Y-20324166D01*
X29224773Y-20286434D01*
X29223337Y-20271165D01*
X29223337Y-20022233D01*
X29051000Y-20022233D01*
X29051000Y-20341947D01*
X29063480Y-20413156D01*
X29100923Y-20470175D01*
X29161494Y-20509128D01*
X29227441Y-20520098D01*
X30815068Y-20520098D01*
X30884738Y-20507617D01*
X30941244Y-20470175D01*
X30980464Y-20409121D01*
X30991509Y-20341947D01*
X30991509Y-20022233D01*
G37*
D14*
G36*
X24452553Y-18219907D02*
G01*
X24066160Y-18219907D01*
X24066160Y-18518128D01*
X24067236Y-18536003D01*
X24088631Y-18581143D01*
X24100721Y-18589798D01*
X24148714Y-18600926D01*
X24452553Y-18600926D01*
X24452553Y-18753334D01*
X24127710Y-18753334D01*
X24076340Y-18746250D01*
X24033432Y-18721094D01*
X24007969Y-18683786D01*
X23997528Y-18635853D01*
X23975058Y-18635853D01*
X23961884Y-18666170D01*
X23934395Y-18707179D01*
X23897633Y-18742831D01*
X23890558Y-18748185D01*
X23846498Y-18771454D01*
X23798881Y-18783542D01*
X23749866Y-18787039D01*
X23734234Y-18787039D01*
X23690399Y-18783987D01*
X23641651Y-18771965D01*
X23594527Y-18748449D01*
X23563581Y-18724426D01*
X23529051Y-18684761D01*
X23504158Y-18640738D01*
X23498527Y-18627543D01*
X23483758Y-18580831D01*
X23475142Y-18529922D01*
X23472650Y-18480514D01*
X23472650Y-18463662D01*
X23609670Y-18463662D01*
X23611657Y-18497932D01*
X23624308Y-18548090D01*
X23651192Y-18590179D01*
X23667727Y-18605203D01*
X23714523Y-18628171D01*
X23763788Y-18634387D01*
X23775023Y-18634387D01*
X23796577Y-18633290D01*
X23845751Y-18620168D01*
X23887619Y-18589447D01*
X23907572Y-18561426D01*
X23924018Y-18515110D01*
X23928896Y-18463662D01*
X23928896Y-18219907D01*
X23609670Y-18219907D01*
X23609670Y-18463662D01*
X23472650Y-18463662D01*
X23472650Y-18068721D01*
X24452553Y-18068721D01*
X24452553Y-18219907D01*
G37*
G36*
X24252273Y-19386900D02*
G01*
X24452553Y-19386900D01*
X24452553Y-19533934D01*
X24252273Y-19533934D01*
X24252273Y-19699286D01*
X24122092Y-19699286D01*
X24122092Y-19533934D01*
X23472650Y-19533934D01*
X23472650Y-19364674D01*
X23564974Y-19364674D01*
X23564974Y-19386900D01*
X24122092Y-19386900D01*
X24122092Y-19034213D01*
X24102553Y-19034213D01*
X23564974Y-19364674D01*
X23472650Y-19364674D01*
X23472650Y-19266488D01*
X24081548Y-18891331D01*
X24252273Y-18891331D01*
X24252273Y-19386900D01*
G37*
G36*
X24732455Y-19720780D02*
G01*
X23472650Y-20132329D01*
X23472650Y-20276676D01*
X24732455Y-19865127D01*
X24732455Y-19720780D01*
G37*
G36*
X24129034Y-20341031D02*
G01*
X24184044Y-20347465D01*
X24234225Y-20358848D01*
X24288066Y-20379041D01*
X24334952Y-20406361D01*
X24374883Y-20440808D01*
X24397667Y-20467293D01*
X24426146Y-20511085D01*
X24447790Y-20559754D01*
X24462599Y-20613300D01*
X24469719Y-20661648D01*
X24472092Y-20713383D01*
X24471238Y-20745046D01*
X24466016Y-20795051D01*
X24453486Y-20850492D01*
X24434120Y-20900953D01*
X24407919Y-20946434D01*
X24374883Y-20986935D01*
X24342091Y-21016206D01*
X24296364Y-21044782D01*
X24243682Y-21066214D01*
X24194467Y-21078617D01*
X24140422Y-21086059D01*
X24081548Y-21088540D01*
X23843655Y-21088540D01*
X23797108Y-21086952D01*
X23742991Y-21080502D01*
X23693395Y-21069092D01*
X23639846Y-21048850D01*
X23592805Y-21021464D01*
X23552273Y-20986935D01*
X23528975Y-20960488D01*
X23499852Y-20916667D01*
X23477718Y-20867866D01*
X23462574Y-20814085D01*
X23455293Y-20765463D01*
X23452867Y-20713383D01*
X23584513Y-20713383D01*
X23586106Y-20745879D01*
X23596996Y-20798514D01*
X23618202Y-20843613D01*
X23649726Y-20881177D01*
X23685676Y-20907571D01*
X23734403Y-20928250D01*
X23785079Y-20938619D01*
X23835107Y-20941505D01*
X24087165Y-20941505D01*
X24130422Y-20939530D01*
X24182194Y-20930753D01*
X24232372Y-20912485D01*
X24274011Y-20885330D01*
X24296588Y-20862243D01*
X24321696Y-20819692D01*
X24336293Y-20767635D01*
X24340445Y-20713383D01*
X24338859Y-20679280D01*
X24329723Y-20630497D01*
X24309737Y-20584118D01*
X24275476Y-20543145D01*
X24239252Y-20518355D01*
X24189851Y-20498932D01*
X24138251Y-20489192D01*
X24087165Y-20486481D01*
X23835107Y-20486481D01*
X23792846Y-20488550D01*
X23742082Y-20497748D01*
X23692599Y-20516889D01*
X23651192Y-20545343D01*
X23628532Y-20569186D01*
X23603332Y-20611582D01*
X23588681Y-20661939D01*
X23584513Y-20713383D01*
X23452867Y-20713383D01*
X23453740Y-20681935D01*
X23459079Y-20632233D01*
X23471894Y-20577061D01*
X23491697Y-20526766D01*
X23518491Y-20481348D01*
X23552273Y-20440808D01*
X23585598Y-20411607D01*
X23631554Y-20383099D01*
X23684018Y-20361718D01*
X23732711Y-20349345D01*
X23785923Y-20341921D01*
X23843655Y-20339447D01*
X24081548Y-20339447D01*
X24129034Y-20341031D01*
G37*
G36*
X24452553Y-21525002D02*
G01*
X23576209Y-21525002D01*
X23576209Y-21502531D01*
X23906670Y-21341575D01*
X23906670Y-21186237D01*
X23472650Y-21403124D01*
X23472650Y-21672036D01*
X24452553Y-21672036D01*
X24452553Y-21525002D01*
G37*
G36*
X24472092Y-21967081D02*
G01*
X24461968Y-21916952D01*
X24440096Y-21885015D01*
X24398030Y-21858551D01*
X24357298Y-21852287D01*
X24309147Y-21861524D01*
X24275476Y-21885015D01*
X24250000Y-21927210D01*
X24243969Y-21967081D01*
X24254170Y-22017133D01*
X24276209Y-22048902D01*
X24317734Y-22075564D01*
X24357298Y-22081875D01*
X24405846Y-22072569D01*
X24440096Y-22048902D01*
X24465968Y-22006905D01*
X24472092Y-21967081D01*
G37*
G36*
X24452553Y-22226955D02*
G01*
X24341910Y-22226955D01*
X24287362Y-22229718D01*
X24238570Y-22238007D01*
X24191110Y-22253696D01*
X24174116Y-22261882D01*
X24131693Y-22289583D01*
X24095100Y-22324326D01*
X24066893Y-22362022D01*
X24042383Y-22405427D01*
X24020449Y-22454128D01*
X24002910Y-22502486D01*
X23997528Y-22519558D01*
X23970906Y-22605043D01*
X23953455Y-22652180D01*
X23931126Y-22695836D01*
X23926209Y-22703718D01*
X23894200Y-22742198D01*
X23859775Y-22767221D01*
X23813493Y-22784754D01*
X23766474Y-22789691D01*
X23760857Y-22789691D01*
X23708314Y-22783082D01*
X23660607Y-22760797D01*
X23631408Y-22733759D01*
X23604709Y-22691150D01*
X23589093Y-22640230D01*
X23584513Y-22586725D01*
X23588513Y-22536789D01*
X23602337Y-22487922D01*
X23628949Y-22442212D01*
X23635072Y-22434806D01*
X23675290Y-22401711D01*
X23721620Y-22383545D01*
X23771270Y-22376903D01*
X23783327Y-22376676D01*
X23805797Y-22376676D01*
X23805797Y-22231108D01*
X23784793Y-22231108D01*
X23733608Y-22233993D01*
X23680953Y-22244136D01*
X23633514Y-22261582D01*
X23604786Y-22277270D01*
X23562201Y-22309660D01*
X23526342Y-22348825D01*
X23499820Y-22389865D01*
X23492190Y-22404764D01*
X23473181Y-22452040D01*
X23460393Y-22502369D01*
X23453827Y-22555750D01*
X23452867Y-22586725D01*
X23455233Y-22635803D01*
X23463551Y-22687767D01*
X23477858Y-22736292D01*
X23490724Y-22766732D01*
X23517391Y-22812900D01*
X23550068Y-22852484D01*
X23588755Y-22885486D01*
X23597214Y-22891296D01*
X23642423Y-22915253D01*
X23692259Y-22930337D01*
X23741068Y-22936326D01*
X23758170Y-22936725D01*
X23770871Y-22936725D01*
X23821783Y-22933731D01*
X23872416Y-22923379D01*
X23920894Y-22903452D01*
X23928896Y-22898868D01*
X23969592Y-22869574D01*
X24005036Y-22833411D01*
X24032699Y-22794576D01*
X24056799Y-22751075D01*
X24078418Y-22703614D01*
X24095755Y-22657515D01*
X24101087Y-22641436D01*
X24126244Y-22558882D01*
X24142883Y-22509574D01*
X24163483Y-22463299D01*
X24169231Y-22452880D01*
X24199766Y-22413009D01*
X24224430Y-22394262D01*
X24271790Y-22378100D01*
X24306984Y-22375455D01*
X24320906Y-22375455D01*
X24320906Y-22928421D01*
X24452553Y-22928421D01*
X24452553Y-22226955D01*
G37*
G36*
X24472092Y-23419838D02*
G01*
X24469558Y-23366348D01*
X24461956Y-23316523D01*
X24447346Y-23264848D01*
X24431548Y-23227863D01*
X24406075Y-23185168D01*
X24371519Y-23144572D01*
X24330379Y-23111179D01*
X24316753Y-23102566D01*
X24268034Y-23079382D01*
X24220230Y-23065858D01*
X24168677Y-23059289D01*
X24144562Y-23058602D01*
X24129175Y-23058602D01*
X24129175Y-23208567D01*
X24143097Y-23208567D01*
X24195638Y-23213958D01*
X24245388Y-23232340D01*
X24286712Y-23263766D01*
X24317304Y-23306939D01*
X24334096Y-23355254D01*
X24340235Y-23406119D01*
X24340445Y-23418372D01*
X24336021Y-23472266D01*
X24320727Y-23523538D01*
X24294509Y-23565746D01*
X24284513Y-23576641D01*
X24241414Y-23608485D01*
X24194168Y-23625964D01*
X24145080Y-23632355D01*
X24133327Y-23632573D01*
X24120871Y-23632573D01*
X24067509Y-23627159D01*
X24021304Y-23610916D01*
X23978742Y-23580541D01*
X23975302Y-23577130D01*
X23944153Y-23535631D01*
X23925934Y-23487032D01*
X23920592Y-23436690D01*
X23925758Y-23385816D01*
X23935246Y-23357556D01*
X23962020Y-23315928D01*
X23970906Y-23306997D01*
X24010227Y-23276519D01*
X24011450Y-23275734D01*
X24011450Y-23089377D01*
X23472650Y-23089377D01*
X23472650Y-23746146D01*
X23605518Y-23746146D01*
X23605518Y-23236411D01*
X23893969Y-23236411D01*
X23893969Y-23258882D01*
X23855316Y-23290895D01*
X23848540Y-23298693D01*
X23822345Y-23341911D01*
X23812880Y-23366593D01*
X23801827Y-23415984D01*
X23798714Y-23467465D01*
X23802340Y-23520082D01*
X23813216Y-23569551D01*
X23831344Y-23615871D01*
X23835839Y-23624757D01*
X23862453Y-23666212D01*
X23895889Y-23702037D01*
X23936146Y-23732234D01*
X23945016Y-23737597D01*
X23993006Y-23759751D01*
X24041254Y-23772674D01*
X24094294Y-23778951D01*
X24119405Y-23779607D01*
X24134793Y-23779607D01*
X24184191Y-23776890D01*
X24235822Y-23767337D01*
X24283281Y-23750907D01*
X24312601Y-23736132D01*
X24356503Y-23705463D01*
X24393869Y-23667496D01*
X24421911Y-23627085D01*
X24430082Y-23612301D01*
X24450390Y-23564589D01*
X24464051Y-23511854D01*
X24470615Y-23460762D01*
X24472092Y-23419838D01*
G37*
D18*
G36*
X23174763Y-12543172D02*
G01*
X23160270Y-12442807D01*
X23112578Y-12357270D01*
X23099047Y-12342893D01*
X23017116Y-12289598D01*
X22920892Y-12269296D01*
X22897791Y-12268643D01*
X22038056Y-12268643D01*
X22038056Y-11888113D01*
X21794302Y-11888113D01*
X21794302Y-12268643D01*
X21338056Y-12268643D01*
X21338056Y-12557338D01*
X21794302Y-12557338D01*
X21794302Y-12968643D01*
X22038056Y-12968643D01*
X22038056Y-12557338D01*
X22846989Y-12557338D01*
X22928957Y-12612980D01*
X22931008Y-12635496D01*
X22931008Y-12924191D01*
X23174763Y-12924191D01*
X23174763Y-12543172D01*
G37*
G36*
X23174763Y-13307164D02*
G01*
X21794302Y-13307164D01*
X21794302Y-13595370D01*
X23174763Y-13595370D01*
X23174763Y-13307164D01*
G37*
G36*
X21606723Y-13452244D02*
G01*
X21583372Y-13353328D01*
X21552502Y-13310583D01*
X21466809Y-13260184D01*
X21410841Y-13253430D01*
X21314937Y-13275756D01*
X21269668Y-13310583D01*
X21221423Y-13397598D01*
X21214958Y-13452244D01*
X21236329Y-13548720D01*
X21269668Y-13594882D01*
X21354930Y-13644420D01*
X21410841Y-13651058D01*
X21506935Y-13629114D01*
X21552502Y-13594882D01*
X21600316Y-13508328D01*
X21606723Y-13452244D01*
G37*
G36*
X23174763Y-14022307D02*
G01*
X21214958Y-14022307D01*
X21214958Y-14310513D01*
X23174763Y-14310513D01*
X23174763Y-14022307D01*
G37*
G36*
X23174763Y-14737450D02*
G01*
X21794302Y-14737450D01*
X21794302Y-15025656D01*
X23174763Y-15025656D01*
X23174763Y-14737450D01*
G37*
G36*
X21606723Y-14882530D02*
G01*
X21583372Y-14783615D01*
X21552502Y-14740869D01*
X21466809Y-14690470D01*
X21410841Y-14683716D01*
X21314937Y-14706042D01*
X21269668Y-14740869D01*
X21221423Y-14827884D01*
X21214958Y-14882530D01*
X21236329Y-14979006D01*
X21269668Y-15025168D01*
X21354930Y-15074706D01*
X21410841Y-15081344D01*
X21506935Y-15059400D01*
X21552502Y-15025168D01*
X21600316Y-14938614D01*
X21606723Y-14882530D01*
G37*
G36*
X22587299Y-15388222D02*
G01*
X22689103Y-15401731D01*
X22793778Y-15429848D01*
X22888021Y-15471644D01*
X22907456Y-15482742D01*
X22995984Y-15545100D01*
X23070106Y-15618907D01*
X23129822Y-15704163D01*
X23139996Y-15722527D01*
X23181021Y-15817553D01*
X23205636Y-15917921D01*
X23213841Y-16023633D01*
X23213315Y-16056537D01*
X23204329Y-16154092D01*
X23180136Y-16248825D01*
X23150083Y-16317642D01*
X23095139Y-16398790D01*
X23065666Y-16429560D01*
X22987184Y-16488183D01*
X22987184Y-16533123D01*
X23734567Y-16533123D01*
X23734567Y-16821818D01*
X21794302Y-16821818D01*
X21794302Y-16538985D01*
X21993116Y-16538985D01*
X21993116Y-16494044D01*
X21964741Y-16476070D01*
X21890370Y-16411528D01*
X21828007Y-16332844D01*
X21823529Y-16326035D01*
X21780882Y-16229968D01*
X21760980Y-16129656D01*
X21759626Y-16104721D01*
X22009724Y-16104721D01*
X22010785Y-16139313D01*
X22026691Y-16236132D01*
X22066753Y-16331472D01*
X22130380Y-16413933D01*
X22178998Y-16455435D01*
X22265255Y-16501588D01*
X22367509Y-16528422D01*
X22471832Y-16536054D01*
X22497233Y-16536054D01*
X22564631Y-16533108D01*
X22662000Y-16516141D01*
X22756140Y-16479025D01*
X22841615Y-16415398D01*
X22863090Y-16392249D01*
X22919419Y-16306153D01*
X22952277Y-16206319D01*
X22961783Y-16104721D01*
X22961313Y-16081885D01*
X22944884Y-15975028D01*
X22904985Y-15880384D01*
X22841615Y-15797952D01*
X22792746Y-15756616D01*
X22705853Y-15710647D01*
X22602654Y-15683921D01*
X22497233Y-15676319D01*
X22471832Y-15676319D01*
X22405149Y-15679289D01*
X22308726Y-15696394D01*
X22215359Y-15733810D01*
X22130380Y-15797952D01*
X22108818Y-15821400D01*
X22052260Y-15907495D01*
X22019268Y-16005803D01*
X22009724Y-16104721D01*
X21759626Y-16104721D01*
X21755223Y-16023633D01*
X21755551Y-16002361D01*
X21767038Y-15898977D01*
X21794935Y-15800555D01*
X21839243Y-15707094D01*
X21855649Y-15680302D01*
X21919763Y-15598252D01*
X21998378Y-15527364D01*
X22081532Y-15473109D01*
X22153907Y-15438849D01*
X22256165Y-15407164D01*
X22355755Y-15390677D01*
X22463527Y-15385182D01*
X22505537Y-15385182D01*
X22587299Y-15388222D01*
G37*
G36*
X23200164Y-17775342D02*
G01*
X23191910Y-17671522D01*
X23167147Y-17575668D01*
X23130310Y-17495440D01*
X23069379Y-17410535D01*
X22992099Y-17340468D01*
X22931497Y-17302000D01*
X22836891Y-17262230D01*
X22740568Y-17240400D01*
X22634418Y-17232214D01*
X22623262Y-17232146D01*
X21794302Y-17232146D01*
X21794302Y-17520353D01*
X22603723Y-17520353D01*
X22706610Y-17529083D01*
X22805895Y-17562605D01*
X22868482Y-17609746D01*
X22923514Y-17694303D01*
X22949411Y-17792821D01*
X22953478Y-17859362D01*
X22941886Y-17962850D01*
X22902358Y-18061150D01*
X22834776Y-18143172D01*
X22750026Y-18200102D01*
X22656213Y-18233311D01*
X22558874Y-18248492D01*
X22491371Y-18251127D01*
X21794302Y-18251127D01*
X21794302Y-18539822D01*
X23174763Y-18539822D01*
X23174763Y-18256989D01*
X22967645Y-18256989D01*
X22967645Y-18212049D01*
X23049222Y-18157460D01*
X23116595Y-18084250D01*
X23125914Y-18071853D01*
X23171160Y-17982987D01*
X23194290Y-17877992D01*
X23200164Y-17775342D01*
G37*
G36*
X22819921Y-18875616D02*
G01*
X22921563Y-18895585D01*
X23015516Y-18942335D01*
X23044890Y-18965015D01*
X23114827Y-19040830D01*
X23163527Y-19127471D01*
X23187849Y-19195417D01*
X23207896Y-19293946D01*
X23213841Y-19392230D01*
X23213208Y-19427012D01*
X23202399Y-19527928D01*
X23173297Y-19621330D01*
X23143633Y-19676144D01*
X23077065Y-19753221D01*
X23063243Y-19764105D01*
X22978880Y-19820632D01*
X22978880Y-19862642D01*
X22987184Y-19862642D01*
X23042633Y-19869915D01*
X23124448Y-19924191D01*
X23158843Y-19984965D01*
X23174763Y-20083437D01*
X23174763Y-20299348D01*
X22933939Y-20299348D01*
X22933939Y-20181623D01*
X22931888Y-20159107D01*
X22849920Y-20103465D01*
X22281322Y-20103465D01*
X22265711Y-20103314D01*
X22162681Y-20093818D01*
X22058328Y-20064875D01*
X21968264Y-20016637D01*
X21892488Y-19949104D01*
X21875866Y-19929421D01*
X21820102Y-19841723D01*
X21781496Y-19739675D01*
X21761791Y-19638612D01*
X21755223Y-19526564D01*
X21759667Y-19432763D01*
X21777167Y-19329032D01*
X21811399Y-19229564D01*
X21829672Y-19192289D01*
X21885330Y-19106535D01*
X21958433Y-19032216D01*
X21981476Y-19014287D01*
X22067295Y-18961513D01*
X22161155Y-18924261D01*
X22248105Y-19193416D01*
X22241125Y-19195025D01*
X22146378Y-19231640D01*
X22065900Y-19296487D01*
X22042161Y-19328435D01*
X22005870Y-19422081D01*
X21996047Y-19523633D01*
X21997184Y-19560261D01*
X22016588Y-19662332D01*
X22068831Y-19747848D01*
X22073426Y-19752326D01*
X22159537Y-19804639D01*
X22261783Y-19820632D01*
X22351664Y-19820632D01*
X22351664Y-19417143D01*
X22575391Y-19417143D01*
X22575391Y-19820632D01*
X22603723Y-19820632D01*
X22704902Y-19810233D01*
X22799560Y-19774771D01*
X22876786Y-19714142D01*
X22933243Y-19633022D01*
X22966265Y-19536087D01*
X22975949Y-19434240D01*
X22975894Y-19426415D01*
X22963713Y-19327787D01*
X22920261Y-19235426D01*
X22868169Y-19188301D01*
X22768831Y-19162642D01*
X22703916Y-19172465D01*
X22624728Y-19232495D01*
X22586231Y-19319398D01*
X22575391Y-19417143D01*
X22351664Y-19417143D01*
X22351664Y-19400534D01*
X22354656Y-19326834D01*
X22370364Y-19223840D01*
X22399536Y-19129913D01*
X22412107Y-19101016D01*
X22467525Y-19012139D01*
X22540708Y-18942335D01*
X22584078Y-18915687D01*
X22677026Y-18883564D01*
X22777135Y-18873947D01*
X22819921Y-18875616D01*
G37*
D19*
%TO.C,G\u002A\u002A\u002A*%
G36*
X28156413Y-28053482D02*
G01*
X28229611Y-28109336D01*
X28283164Y-28190224D01*
X28287689Y-28200923D01*
X28306825Y-28292698D01*
X28292052Y-28381799D01*
X28244922Y-28463642D01*
X28166982Y-28533646D01*
X28166909Y-28533696D01*
X28085412Y-28568291D01*
X27995538Y-28568417D01*
X27898292Y-28534071D01*
X27857782Y-28508648D01*
X27797151Y-28443536D01*
X27762803Y-28364916D01*
X27754854Y-28280018D01*
X27773422Y-28196074D01*
X27818624Y-28120316D01*
X27890579Y-28059975D01*
X27890682Y-28059916D01*
X27979773Y-28026391D01*
X28070742Y-28025040D01*
X28156413Y-28053482D01*
G37*
G36*
X28976502Y-26997726D02*
G01*
X29059323Y-27038729D01*
X29125319Y-27107739D01*
X29129612Y-27114367D01*
X29157493Y-27179610D01*
X29165865Y-27261391D01*
X29160606Y-27319042D01*
X29127905Y-27407886D01*
X29069254Y-27477150D01*
X28989272Y-27522157D01*
X28892580Y-27538227D01*
X28829117Y-27531194D01*
X28749971Y-27498098D01*
X28688981Y-27443491D01*
X28647491Y-27373615D01*
X28626843Y-27294709D01*
X28628386Y-27213012D01*
X28653458Y-27134766D01*
X28703407Y-27066211D01*
X28779576Y-27013587D01*
X28791575Y-27008226D01*
X28884653Y-26986849D01*
X28976502Y-26997726D01*
G37*
G36*
X29999009Y-27862758D02*
G01*
X30047556Y-27881929D01*
X30118318Y-27931540D01*
X30172480Y-27996163D01*
X30200598Y-28066261D01*
X30205200Y-28110348D01*
X30193264Y-28207157D01*
X30152362Y-28290402D01*
X30086016Y-28354395D01*
X29997754Y-28393449D01*
X29972003Y-28398774D01*
X29880948Y-28398435D01*
X29801072Y-28370293D01*
X29735592Y-28320012D01*
X29687729Y-28253250D01*
X29660701Y-28175667D01*
X29657728Y-28092924D01*
X29682027Y-28010684D01*
X29736820Y-27934605D01*
X29746549Y-27925424D01*
X29823180Y-27877874D01*
X29911725Y-27855782D01*
X29999009Y-27862758D01*
G37*
G36*
X29110085Y-28893299D02*
G01*
X29199981Y-28923925D01*
X29264187Y-28972460D01*
X29309867Y-29044535D01*
X29336246Y-29120592D01*
X29340318Y-29205376D01*
X29313199Y-29288391D01*
X29307820Y-29298579D01*
X29248504Y-29371061D01*
X29167805Y-29416123D01*
X29069448Y-29431578D01*
X29011068Y-29426631D01*
X28920777Y-29395156D01*
X28851306Y-29337958D01*
X28806656Y-29258911D01*
X28790826Y-29161888D01*
X28791416Y-29142725D01*
X28813848Y-29051701D01*
X28868142Y-28976184D01*
X28953456Y-28917443D01*
X28955814Y-28916275D01*
X29012109Y-28892345D01*
X29057519Y-28885613D01*
X29110085Y-28893299D01*
G37*
G36*
X29576695Y-32001700D02*
G01*
X29576007Y-32056855D01*
X29571987Y-32110644D01*
X29563230Y-32140608D01*
X29548440Y-32153714D01*
X29540359Y-32154945D01*
X29499737Y-32157174D01*
X29429282Y-32159207D01*
X29332856Y-32160990D01*
X29214321Y-32162470D01*
X29077541Y-32163593D01*
X28926377Y-32164306D01*
X28764692Y-32164556D01*
X28735706Y-32164553D01*
X28551723Y-32164333D01*
X28400016Y-32163697D01*
X28277567Y-32162547D01*
X28181359Y-32160785D01*
X28108371Y-32158314D01*
X28055591Y-32155034D01*
X28019997Y-32150849D01*
X27998570Y-32145660D01*
X27988296Y-32139370D01*
X27979997Y-32120292D01*
X27972842Y-32067349D01*
X27972712Y-31992008D01*
X27978030Y-31869830D01*
X28777363Y-31865181D01*
X29576695Y-31860531D01*
X29576695Y-32001700D01*
G37*
G36*
X28991909Y-28320371D02*
G01*
X29013052Y-28346974D01*
X29024634Y-28368665D01*
X29040963Y-28423252D01*
X29046513Y-28480851D01*
X29040705Y-28529304D01*
X29022967Y-28556452D01*
X29004136Y-28564408D01*
X28956844Y-28580952D01*
X28897932Y-28599306D01*
X28896705Y-28599669D01*
X28771016Y-28654421D01*
X28662771Y-28736025D01*
X28575626Y-28839065D01*
X28513237Y-28958122D01*
X28479261Y-29087778D01*
X28477353Y-29222615D01*
X28478391Y-29231244D01*
X28513657Y-29371633D01*
X28580079Y-29498197D01*
X28674339Y-29606025D01*
X28793121Y-29690207D01*
X28898910Y-29731586D01*
X29025564Y-29751991D01*
X29155548Y-29747769D01*
X29276639Y-29718211D01*
X29377335Y-29667960D01*
X29484806Y-29580827D01*
X29570542Y-29470738D01*
X29630559Y-29343036D01*
X29660872Y-29203066D01*
X29662975Y-29182952D01*
X29674147Y-29117355D01*
X29692870Y-29078994D01*
X29724454Y-29061009D01*
X29774203Y-29056539D01*
X29782939Y-29056623D01*
X29859186Y-29065863D01*
X29913129Y-29088653D01*
X29938582Y-29122508D01*
X29942088Y-29151086D01*
X29940783Y-29199436D01*
X29938988Y-29214028D01*
X29932306Y-29267696D01*
X29924583Y-29329105D01*
X29912238Y-29388647D01*
X29873141Y-29494798D01*
X29815560Y-29604710D01*
X29745585Y-29707350D01*
X29669308Y-29791681D01*
X29554904Y-29882911D01*
X29404274Y-29966432D01*
X29247219Y-30018075D01*
X29087546Y-30038520D01*
X28929065Y-30028450D01*
X28775584Y-29988548D01*
X28630913Y-29919495D01*
X28498860Y-29821974D01*
X28383232Y-29696666D01*
X28287841Y-29544255D01*
X28210239Y-29391151D01*
X28210239Y-29164417D01*
X28210239Y-28937684D01*
X28285990Y-28784840D01*
X28306026Y-28746787D01*
X28395669Y-28614637D01*
X28504815Y-28500801D01*
X28627900Y-28409605D01*
X28759359Y-28345376D01*
X28893628Y-28312439D01*
X28924693Y-28309122D01*
X28966589Y-28308948D01*
X28991909Y-28320371D01*
G37*
G36*
X29966312Y-27255620D02*
G01*
X30037495Y-27265487D01*
X30064185Y-27269709D01*
X30236503Y-27315372D01*
X30389270Y-27390476D01*
X30524217Y-27495843D01*
X30564360Y-27536521D01*
X30672531Y-27677682D01*
X30750944Y-27834773D01*
X30796844Y-28002671D01*
X30803842Y-28066957D01*
X30799639Y-28204278D01*
X30773601Y-28346586D01*
X30727705Y-28480217D01*
X30674835Y-28581572D01*
X30573887Y-28716446D01*
X30451793Y-28827122D01*
X30312844Y-28912115D01*
X30161333Y-28969938D01*
X30001553Y-28999104D01*
X29837795Y-28998132D01*
X29674351Y-28965532D01*
X29515514Y-28899820D01*
X29407038Y-28827504D01*
X29296271Y-28722559D01*
X29200449Y-28599173D01*
X29126226Y-28466031D01*
X29080255Y-28331813D01*
X29071621Y-28274751D01*
X29080641Y-28221520D01*
X29116461Y-28184008D01*
X29183543Y-28154561D01*
X29224907Y-28141353D01*
X29262342Y-28133312D01*
X29286155Y-28137480D01*
X29307973Y-28153787D01*
X29314716Y-28161190D01*
X29337339Y-28204083D01*
X29352059Y-28258842D01*
X29354137Y-28271044D01*
X29389465Y-28373808D01*
X29452439Y-28474652D01*
X29536373Y-28566132D01*
X29634583Y-28640803D01*
X29740380Y-28691221D01*
X29789794Y-28704400D01*
X29903500Y-28717793D01*
X30021424Y-28713573D01*
X30125930Y-28691715D01*
X30191203Y-28663622D01*
X30293935Y-28595300D01*
X30385282Y-28506126D01*
X30455004Y-28405023D01*
X30487571Y-28331623D01*
X30519225Y-28196870D01*
X30519627Y-28058932D01*
X30488152Y-27926817D01*
X30442108Y-27831339D01*
X30356084Y-27719791D01*
X30247199Y-27632167D01*
X30120125Y-27571993D01*
X29979532Y-27542798D01*
X29930071Y-27536955D01*
X29878024Y-27526763D01*
X29849093Y-27515831D01*
X29835922Y-27495279D01*
X29826975Y-27446677D01*
X29828523Y-27386857D01*
X29839907Y-27328987D01*
X29860478Y-27286233D01*
X29875659Y-27268755D01*
X29894294Y-27256211D01*
X29921544Y-27252182D01*
X29966312Y-27255620D01*
G37*
G36*
X28051846Y-27441105D02*
G01*
X28141725Y-27442304D01*
X28207721Y-27446313D01*
X28259801Y-27454605D01*
X28307927Y-27468654D01*
X28362067Y-27489934D01*
X28386059Y-27500414D01*
X28538705Y-27588807D01*
X28669475Y-27704305D01*
X28775576Y-27843986D01*
X28854216Y-28004931D01*
X28865540Y-28036405D01*
X28888831Y-28123880D01*
X28888481Y-28188056D01*
X28862531Y-28233190D01*
X28809020Y-28263540D01*
X28725986Y-28283361D01*
X28695067Y-28287052D01*
X28665391Y-28282436D01*
X28643668Y-28261375D01*
X28624428Y-28217782D01*
X28602201Y-28145569D01*
X28600759Y-28140640D01*
X28545113Y-28008871D01*
X28465766Y-27899106D01*
X28367391Y-27812722D01*
X28254661Y-27751091D01*
X28132248Y-27715588D01*
X28004826Y-27707588D01*
X27877068Y-27728465D01*
X27753647Y-27779593D01*
X27639235Y-27862347D01*
X27585993Y-27915720D01*
X27506845Y-28025841D01*
X27460412Y-28145782D01*
X27444836Y-28279536D01*
X27445036Y-28307929D01*
X27456488Y-28425670D01*
X27488132Y-28527763D01*
X27543845Y-28627846D01*
X27614329Y-28715157D01*
X27722992Y-28801016D01*
X27853673Y-28859128D01*
X28007107Y-28889906D01*
X28021713Y-28891552D01*
X28089300Y-28905532D01*
X28127488Y-28931037D01*
X28141456Y-28974111D01*
X28136381Y-29040794D01*
X28123876Y-29094509D01*
X28093911Y-29146279D01*
X28045552Y-29170446D01*
X27973866Y-29170955D01*
X27907848Y-29161238D01*
X27730410Y-29113465D01*
X27573042Y-29037603D01*
X27437698Y-28935341D01*
X27326334Y-28808370D01*
X27240905Y-28658384D01*
X27183367Y-28487071D01*
X27174526Y-28438026D01*
X27167440Y-28324807D01*
X27173018Y-28201009D01*
X27190252Y-28081331D01*
X27218132Y-27980468D01*
X27231970Y-27946592D01*
X27312604Y-27804358D01*
X27421555Y-27677218D01*
X27553659Y-27570397D01*
X27703752Y-27489118D01*
X27714686Y-27484519D01*
X27765843Y-27464975D01*
X27813251Y-27452304D01*
X27866773Y-27445060D01*
X27936273Y-27441799D01*
X28031616Y-27441073D01*
X28051846Y-27441105D01*
G37*
G36*
X29115346Y-26421156D02*
G01*
X29264800Y-26475238D01*
X29402195Y-26555397D01*
X29523702Y-26659825D01*
X29625493Y-26786712D01*
X29703742Y-26934250D01*
X29754618Y-27100632D01*
X29765581Y-27174635D01*
X29765425Y-27331212D01*
X29737052Y-27490153D01*
X29681934Y-27640549D01*
X29606386Y-27765673D01*
X29504961Y-27882772D01*
X29386096Y-27983535D01*
X29257289Y-28061618D01*
X29126041Y-28110681D01*
X29118807Y-28112455D01*
X29042571Y-28124913D01*
X28989848Y-28116725D01*
X28953511Y-28084881D01*
X28926435Y-28026371D01*
X28916933Y-27997640D01*
X28903292Y-27952313D01*
X28897932Y-27928041D01*
X28903572Y-27911158D01*
X28931780Y-27879722D01*
X28971664Y-27853063D01*
X29009571Y-27841737D01*
X29032947Y-27839007D01*
X29095996Y-27818682D01*
X29170056Y-27783139D01*
X29244370Y-27737900D01*
X29308178Y-27688487D01*
X29333467Y-27663342D01*
X29387740Y-27597340D01*
X29430706Y-27530457D01*
X29446771Y-27498454D01*
X29463457Y-27455419D01*
X29473036Y-27408671D01*
X29477399Y-27347548D01*
X29478439Y-27261392D01*
X29477817Y-27185553D01*
X29474428Y-27123971D01*
X29466322Y-27078875D01*
X29451549Y-27040033D01*
X29428163Y-26997214D01*
X29342841Y-26875891D01*
X29244509Y-26784398D01*
X29129229Y-26720837D01*
X28992093Y-26681657D01*
X28899741Y-26672920D01*
X28771833Y-26687827D01*
X28650364Y-26730953D01*
X28540156Y-26798403D01*
X28446038Y-26886280D01*
X28372835Y-26990688D01*
X28325374Y-27107732D01*
X28308481Y-27233514D01*
X28302124Y-27305379D01*
X28279445Y-27351173D01*
X28236501Y-27371014D01*
X28169358Y-27368725D01*
X28165902Y-27368205D01*
X28100238Y-27356552D01*
X28061252Y-27343275D01*
X28040394Y-27323789D01*
X28029116Y-27293508D01*
X28027679Y-27286775D01*
X28025834Y-27225876D01*
X28035795Y-27144309D01*
X28055392Y-27052558D01*
X28082447Y-26961107D01*
X28114786Y-26880442D01*
X28128388Y-26854030D01*
X28196261Y-26752450D01*
X28284360Y-26652072D01*
X28382313Y-26563759D01*
X28479745Y-26498372D01*
X28632905Y-26433451D01*
X28795570Y-26398454D01*
X28957660Y-26394958D01*
X29115346Y-26421156D01*
G37*
G36*
X28546340Y-35041200D02*
G01*
X28596546Y-35048816D01*
X28626428Y-35061799D01*
X28634046Y-35075541D01*
X28643975Y-35119222D01*
X28647862Y-35176512D01*
X28647862Y-35269790D01*
X28982778Y-35275647D01*
X29046816Y-35276848D01*
X29151499Y-35279529D01*
X29229244Y-35283086D01*
X29285915Y-35288138D01*
X29327377Y-35295303D01*
X29359493Y-35305201D01*
X29388129Y-35318454D01*
X29447676Y-35357088D01*
X29506573Y-35423115D01*
X29550042Y-35514745D01*
X29552663Y-35522896D01*
X29564369Y-35581758D01*
X29572583Y-35661160D01*
X29575911Y-35748475D01*
X29575950Y-35759149D01*
X29574926Y-35835802D01*
X29570698Y-35884174D01*
X29562219Y-35910903D01*
X29548440Y-35922631D01*
X29538947Y-35925526D01*
X29492653Y-35931692D01*
X29435663Y-35932647D01*
X29383351Y-35928610D01*
X29351098Y-35919803D01*
X29350096Y-35919001D01*
X29339299Y-35893030D01*
X29329860Y-35842401D01*
X29323724Y-35777236D01*
X29320171Y-35720216D01*
X29313331Y-35670122D01*
X29299039Y-35634189D01*
X29272585Y-35609920D01*
X29229255Y-35594817D01*
X29164344Y-35586381D01*
X29073138Y-35582115D01*
X28950928Y-35579519D01*
X28647862Y-35573877D01*
X28647862Y-35726252D01*
X28647862Y-35727228D01*
X28645536Y-35811407D01*
X28635921Y-35866199D01*
X28614966Y-35897740D01*
X28578618Y-35912166D01*
X28522827Y-35915611D01*
X28467516Y-35912236D01*
X28430884Y-35897878D01*
X28409776Y-35866390D01*
X28400107Y-35811623D01*
X28397792Y-35727430D01*
X28397792Y-35576230D01*
X28204880Y-35576230D01*
X28183319Y-35576154D01*
X28086003Y-35573191D01*
X28021250Y-35566022D01*
X27990534Y-35554795D01*
X27980758Y-35533143D01*
X27972268Y-35482190D01*
X27969100Y-35413809D01*
X27969228Y-35392636D01*
X27972497Y-35332266D01*
X27981348Y-35298277D01*
X27997354Y-35283415D01*
X28013973Y-35280220D01*
X28062307Y-35276275D01*
X28131210Y-35273574D01*
X28211700Y-35272573D01*
X28397792Y-35272573D01*
X28397792Y-35177903D01*
X28399271Y-35141950D01*
X28407036Y-35090905D01*
X28419226Y-35061799D01*
X28428345Y-35055883D01*
X28468651Y-35044773D01*
X28522827Y-35040365D01*
X28546340Y-35041200D01*
G37*
G36*
X28986177Y-32450351D02*
G01*
X29060851Y-32450454D01*
X29194135Y-32451179D01*
X29313521Y-32452521D01*
X29414645Y-32454389D01*
X29493140Y-32456695D01*
X29544643Y-32459348D01*
X29564786Y-32462259D01*
X29567683Y-32467634D01*
X29573425Y-32501572D01*
X29576199Y-32555079D01*
X29576163Y-32617109D01*
X29573472Y-32676615D01*
X29568287Y-32722555D01*
X29560764Y-32743883D01*
X29558618Y-32744623D01*
X29529103Y-32748004D01*
X29470772Y-32751564D01*
X29389216Y-32755054D01*
X29290029Y-32758225D01*
X29178803Y-32760829D01*
X29054939Y-32763639D01*
X28945540Y-32767812D01*
X28862496Y-32774175D01*
X28800853Y-32783876D01*
X28755661Y-32798064D01*
X28721968Y-32817889D01*
X28694819Y-32844499D01*
X28669265Y-32879043D01*
X28643665Y-32924405D01*
X28632932Y-32971748D01*
X28634445Y-33036564D01*
X28642595Y-33095762D01*
X28661928Y-33143969D01*
X28698858Y-33188393D01*
X28755642Y-33245217D01*
X29125978Y-33249834D01*
X29152205Y-33250182D01*
X29264334Y-33252171D01*
X29364954Y-33254727D01*
X29448010Y-33257646D01*
X29507449Y-33260721D01*
X29537219Y-33263750D01*
X29552877Y-33268270D01*
X29566631Y-33279409D01*
X29573394Y-33303296D01*
X29574915Y-33347576D01*
X29572943Y-33419894D01*
X29567763Y-33566736D01*
X29176130Y-33571559D01*
X29120055Y-33572174D01*
X28976250Y-33572518D01*
X28861485Y-33569865D01*
X28770791Y-33563198D01*
X28699203Y-33551500D01*
X28641752Y-33533753D01*
X28593470Y-33508941D01*
X28549391Y-33476047D01*
X28504546Y-33434052D01*
X28453555Y-33376687D01*
X28409896Y-33302434D01*
X28386834Y-33217126D01*
X28380028Y-33109451D01*
X28388493Y-33001028D01*
X28417905Y-32907655D01*
X28472290Y-32820991D01*
X28524510Y-32754007D01*
X28482586Y-32754007D01*
X28452031Y-32750513D01*
X28419844Y-32729140D01*
X28402791Y-32683725D01*
X28397792Y-32608999D01*
X28397215Y-32573396D01*
X28396821Y-32537062D01*
X28400111Y-32508627D01*
X28410646Y-32487131D01*
X28431983Y-32471615D01*
X28467681Y-32461119D01*
X28521302Y-32454684D01*
X28596403Y-32451348D01*
X28696543Y-32450154D01*
X28825281Y-32450142D01*
X28986177Y-32450351D01*
G37*
G36*
X29206518Y-33832150D02*
G01*
X29335094Y-33879788D01*
X29439994Y-33954151D01*
X29521188Y-34055221D01*
X29578646Y-34182981D01*
X29581723Y-34196940D01*
X29586781Y-34247433D01*
X29589501Y-34317799D01*
X29589348Y-34397327D01*
X29588412Y-34432809D01*
X29584059Y-34508573D01*
X29575041Y-34565387D01*
X29558838Y-34615462D01*
X29532934Y-34671010D01*
X29532369Y-34672122D01*
X29486711Y-34746908D01*
X29433767Y-34810620D01*
X29378757Y-34859401D01*
X29326901Y-34889389D01*
X29283419Y-34896728D01*
X29253532Y-34877557D01*
X29244514Y-34846529D01*
X29239316Y-34794281D01*
X29238017Y-34732409D01*
X29240501Y-34672211D01*
X29246652Y-34624980D01*
X29256354Y-34602012D01*
X29265577Y-34594068D01*
X29293622Y-34562339D01*
X29327804Y-34517900D01*
X29329176Y-34515990D01*
X29371213Y-34429868D01*
X29379053Y-34340245D01*
X29352233Y-34252139D01*
X29323624Y-34215748D01*
X29265141Y-34173146D01*
X29194700Y-34142085D01*
X29125675Y-34129786D01*
X29076554Y-34129395D01*
X29076553Y-34521158D01*
X29076675Y-34646996D01*
X29075988Y-34751199D01*
X29072754Y-34827455D01*
X29065228Y-34879784D01*
X29051667Y-34912207D01*
X29030328Y-34928743D01*
X28999469Y-34933412D01*
X28957345Y-34930236D01*
X28902213Y-34923234D01*
X28889475Y-34921597D01*
X28738123Y-34886979D01*
X28611952Y-34828083D01*
X28512005Y-34746009D01*
X28439324Y-34641857D01*
X28394952Y-34516729D01*
X28379929Y-34371724D01*
X28380086Y-34362741D01*
X28594107Y-34362741D01*
X28606537Y-34440205D01*
X28649331Y-34512375D01*
X28703567Y-34558613D01*
X28780716Y-34596845D01*
X28857742Y-34611573D01*
X28863011Y-34609200D01*
X28871028Y-34589134D01*
X28876297Y-34545320D01*
X28879188Y-34473780D01*
X28880070Y-34370533D01*
X28880070Y-34129394D01*
X28834841Y-34129395D01*
X28782671Y-34134877D01*
X28706325Y-34166049D01*
X28647269Y-34218914D01*
X28608774Y-34286728D01*
X28594107Y-34362741D01*
X28380086Y-34362741D01*
X28380498Y-34339210D01*
X28398016Y-34205758D01*
X28441636Y-34091656D01*
X28513546Y-33990658D01*
X28527082Y-33976014D01*
X28608230Y-33905443D01*
X28699809Y-33856695D01*
X28809531Y-33826576D01*
X28834841Y-33823835D01*
X28945104Y-33811892D01*
X29054297Y-33811255D01*
X29206518Y-33832150D01*
G37*
G36*
X29058500Y-30435227D02*
G01*
X29180284Y-30436777D01*
X29293773Y-30439119D01*
X29393484Y-30442220D01*
X29473930Y-30446048D01*
X29529628Y-30450570D01*
X29555091Y-30455755D01*
X29567782Y-30478189D01*
X29573584Y-30527394D01*
X29572953Y-30607584D01*
X29567763Y-30744514D01*
X29183727Y-30753445D01*
X29161892Y-30753955D01*
X29032334Y-30757389D01*
X28932651Y-30761512D01*
X28857751Y-30767411D01*
X28802533Y-30776174D01*
X28761903Y-30788886D01*
X28730765Y-30806634D01*
X28704024Y-30830505D01*
X28676582Y-30861585D01*
X28674130Y-30864566D01*
X28639055Y-30934294D01*
X28630031Y-31015250D01*
X28645200Y-31097003D01*
X28682704Y-31169126D01*
X28740682Y-31221187D01*
X28740960Y-31221343D01*
X28770887Y-31230417D01*
X28826803Y-31237998D01*
X28911138Y-31244264D01*
X29026325Y-31249400D01*
X29174796Y-31253585D01*
X29567763Y-31262517D01*
X29573033Y-31403864D01*
X29573367Y-31413387D01*
X29573581Y-31491025D01*
X29567688Y-31538347D01*
X29555171Y-31559883D01*
X29552197Y-31561204D01*
X29518748Y-31566426D01*
X29457560Y-31570330D01*
X29375161Y-31572938D01*
X29278082Y-31574275D01*
X29172853Y-31574364D01*
X29066004Y-31573230D01*
X28964064Y-31570896D01*
X28873565Y-31567388D01*
X28801036Y-31562729D01*
X28753007Y-31556941D01*
X28742349Y-31554815D01*
X28621779Y-31513211D01*
X28520189Y-31444659D01*
X28442919Y-31352679D01*
X28424321Y-31321435D01*
X28405152Y-31281026D01*
X28394477Y-31238663D01*
X28389858Y-31183099D01*
X28388861Y-31103082D01*
X28389126Y-31056103D01*
X28391955Y-30989747D01*
X28399778Y-30941807D01*
X28414914Y-30901027D01*
X28439679Y-30856152D01*
X28461655Y-30821787D01*
X28489308Y-30785421D01*
X28506662Y-30771307D01*
X28511482Y-30770404D01*
X28522827Y-30751534D01*
X28518460Y-30742653D01*
X28494740Y-30742539D01*
X28472469Y-30745370D01*
X28432222Y-30734890D01*
X28418253Y-30724873D01*
X28405469Y-30701829D01*
X28399357Y-30660691D01*
X28397792Y-30592685D01*
X28398724Y-30534686D01*
X28403625Y-30490049D01*
X28414842Y-30464549D01*
X28434702Y-30449153D01*
X28460777Y-30444362D01*
X28517142Y-30440484D01*
X28598124Y-30437591D01*
X28698234Y-30435651D01*
X28811990Y-30434632D01*
X28933907Y-30434501D01*
X29058500Y-30435227D01*
G37*
G36*
X9105045Y-41416250D02*
G01*
X9105045Y-41550001D01*
X8637499Y-41550001D01*
X8169954Y-41550000D01*
X8169953Y-41913751D01*
X8169953Y-42277500D01*
X8637499Y-42277500D01*
X9105045Y-42277500D01*
X9105045Y-42411250D01*
X9105045Y-42545000D01*
X8122427Y-42545000D01*
X7139808Y-42545000D01*
X7140455Y-42411875D01*
X7141102Y-42278750D01*
X7544267Y-42278117D01*
X7947432Y-42277483D01*
X7947432Y-41913751D01*
X7947432Y-41550015D01*
X7544267Y-41549382D01*
X7141102Y-41548750D01*
X7140455Y-41415625D01*
X7139808Y-41282500D01*
X8122428Y-41282500D01*
X9105045Y-41282499D01*
X9105045Y-41416250D01*
G37*
G36*
X11562787Y-38791243D02*
G01*
X11562787Y-39155000D01*
X11494031Y-39155000D01*
X11425274Y-39155000D01*
X11425275Y-38872500D01*
X11425274Y-38590000D01*
X11207752Y-38590000D01*
X10990231Y-38590000D01*
X10990231Y-38852500D01*
X10990231Y-39115000D01*
X10922725Y-39115000D01*
X10855218Y-39115000D01*
X10855218Y-38852500D01*
X10855218Y-38590000D01*
X10676451Y-38590000D01*
X10497683Y-38590000D01*
X10497683Y-38865000D01*
X10497683Y-39140000D01*
X10428917Y-39140000D01*
X10360152Y-39140000D01*
X10360786Y-38784375D01*
X10361419Y-38428750D01*
X10962103Y-38428119D01*
X11562787Y-38427489D01*
X11562787Y-38791243D01*
G37*
G36*
X10973930Y-39652360D02*
G01*
X10997317Y-39657204D01*
X11007156Y-39660968D01*
X11024297Y-39671293D01*
X11039301Y-39685224D01*
X11051497Y-39701935D01*
X11060215Y-39720599D01*
X11064784Y-39740390D01*
X11065487Y-39748868D01*
X11064516Y-39772732D01*
X11059106Y-39794789D01*
X11049370Y-39814688D01*
X11035419Y-39832078D01*
X11021617Y-39843852D01*
X11002330Y-39854987D01*
X10981770Y-39861742D01*
X10960564Y-39864128D01*
X10939337Y-39862153D01*
X10918717Y-39855824D01*
X10899330Y-39845149D01*
X10881804Y-39830135D01*
X10875091Y-39822490D01*
X10862598Y-39803392D01*
X10854635Y-39783086D01*
X10851198Y-39762133D01*
X10852283Y-39741094D01*
X10857888Y-39720530D01*
X10868010Y-39701003D01*
X10882645Y-39683075D01*
X10889279Y-39676978D01*
X10907784Y-39664523D01*
X10928502Y-39656169D01*
X10950771Y-39652065D01*
X10973930Y-39652360D01*
G37*
G36*
X10973477Y-40644808D02*
G01*
X10997317Y-40649740D01*
X11007584Y-40653669D01*
X11024573Y-40663991D01*
X11039459Y-40677904D01*
X11051573Y-40694578D01*
X11060238Y-40713183D01*
X11064784Y-40732890D01*
X11065486Y-40741305D01*
X11064530Y-40765252D01*
X11059089Y-40787352D01*
X11049254Y-40807323D01*
X11035116Y-40824880D01*
X11021126Y-40836722D01*
X11001953Y-40847576D01*
X10981446Y-40854123D01*
X10960258Y-40856377D01*
X10939047Y-40854345D01*
X10918464Y-40848038D01*
X10899164Y-40837465D01*
X10881804Y-40822635D01*
X10875508Y-40815504D01*
X10862879Y-40796428D01*
X10854791Y-40776119D01*
X10851239Y-40755137D01*
X10852222Y-40734042D01*
X10857739Y-40713393D01*
X10867787Y-40693750D01*
X10882363Y-40675671D01*
X10888884Y-40669586D01*
X10907302Y-40656967D01*
X10927911Y-40648547D01*
X10950156Y-40644452D01*
X10973477Y-40644808D01*
G37*
G36*
X10976480Y-41637627D02*
G01*
X10982177Y-41638574D01*
X11003207Y-41644971D01*
X11022029Y-41655290D01*
X11038121Y-41669011D01*
X11050959Y-41685615D01*
X11060021Y-41704581D01*
X11064784Y-41725390D01*
X11065486Y-41733805D01*
X11064530Y-41757751D01*
X11059089Y-41779852D01*
X11049254Y-41799823D01*
X11035116Y-41817380D01*
X11017748Y-41831447D01*
X10997978Y-41841536D01*
X10976737Y-41847318D01*
X10954744Y-41848674D01*
X10932719Y-41845488D01*
X10911383Y-41837641D01*
X10908775Y-41836285D01*
X10894759Y-41826781D01*
X10881207Y-41814333D01*
X10869558Y-41800408D01*
X10861251Y-41786477D01*
X10854155Y-41766031D01*
X10851299Y-41744864D01*
X10852742Y-41724324D01*
X10858129Y-41704872D01*
X10867105Y-41686965D01*
X10879316Y-41671062D01*
X10894408Y-41657619D01*
X10912024Y-41647096D01*
X10931812Y-41639951D01*
X10953415Y-41636642D01*
X10976480Y-41637627D01*
G37*
G36*
X10499948Y-42437503D02*
G01*
X10518069Y-42437570D01*
X10534283Y-42437712D01*
X10547971Y-42437919D01*
X10558513Y-42438179D01*
X10565292Y-42438480D01*
X10567689Y-42438813D01*
X10567509Y-42439760D01*
X10566384Y-42444991D01*
X10564316Y-42454394D01*
X10561405Y-42467520D01*
X10557749Y-42483922D01*
X10553450Y-42503152D01*
X10548606Y-42524763D01*
X10543319Y-42548308D01*
X10537686Y-42573337D01*
X10534410Y-42587896D01*
X10528962Y-42612149D01*
X10523916Y-42634670D01*
X10519373Y-42655011D01*
X10515431Y-42672721D01*
X10512191Y-42687352D01*
X10509754Y-42698454D01*
X10508219Y-42705578D01*
X10507684Y-42708273D01*
X10509033Y-42708406D01*
X10515030Y-42708581D01*
X10525598Y-42708750D01*
X10540489Y-42708913D01*
X10559457Y-42709068D01*
X10582254Y-42709214D01*
X10608633Y-42709351D01*
X10638348Y-42709478D01*
X10671151Y-42709592D01*
X10706795Y-42709694D01*
X10745032Y-42709784D01*
X10785616Y-42709859D01*
X10828300Y-42709919D01*
X10872837Y-42709963D01*
X10918979Y-42709990D01*
X10966479Y-42710000D01*
X11425274Y-42710000D01*
X11425274Y-42583750D01*
X11425275Y-42457500D01*
X11494031Y-42457500D01*
X11562787Y-42457500D01*
X11562787Y-42788790D01*
X11562787Y-43120080D01*
X11494657Y-43119415D01*
X11426524Y-43118750D01*
X11425876Y-42994380D01*
X11425227Y-42870011D01*
X10893323Y-42869381D01*
X10361419Y-42868750D01*
X10360717Y-42791250D01*
X10360014Y-42713750D01*
X10390623Y-42575625D01*
X10421231Y-42437500D01*
X10494460Y-42437500D01*
X10499948Y-42437503D01*
G37*
G36*
X11143063Y-43315000D02*
G01*
X11198053Y-43315000D01*
X11275259Y-43315000D01*
X11275259Y-43568750D01*
X11275259Y-43822500D01*
X11419023Y-43822500D01*
X11562787Y-43822500D01*
X11562787Y-43903750D01*
X11562787Y-43985001D01*
X11419023Y-43985000D01*
X11275259Y-43985001D01*
X11275259Y-44065000D01*
X11275259Y-44145001D01*
X11210253Y-44145000D01*
X11145246Y-44145001D01*
X11145246Y-44065007D01*
X11145246Y-43985015D01*
X10753333Y-43984382D01*
X10361419Y-43983750D01*
X10361419Y-43890035D01*
X10361419Y-43820121D01*
X10512685Y-43820121D01*
X10513177Y-43820295D01*
X10517838Y-43820592D01*
X10527151Y-43820873D01*
X10540893Y-43821136D01*
X10558841Y-43821379D01*
X10580773Y-43821601D01*
X10606463Y-43821801D01*
X10635692Y-43821975D01*
X10668234Y-43822124D01*
X10703868Y-43822244D01*
X10742370Y-43822336D01*
X10783519Y-43822396D01*
X10827090Y-43822423D01*
X11145246Y-43822500D01*
X11145246Y-43633750D01*
X11145219Y-43603389D01*
X11145139Y-43574019D01*
X11145009Y-43546745D01*
X11144833Y-43521931D01*
X11144617Y-43499936D01*
X11144363Y-43481127D01*
X11144077Y-43465866D01*
X11143763Y-43454515D01*
X11143424Y-43447439D01*
X11143064Y-43445000D01*
X11143063Y-43445000D01*
X11140680Y-43446271D01*
X11134247Y-43449966D01*
X11124005Y-43455942D01*
X11110194Y-43464056D01*
X11093054Y-43474166D01*
X11072825Y-43486130D01*
X11049748Y-43499804D01*
X11024064Y-43515046D01*
X10996013Y-43531713D01*
X10965834Y-43549664D01*
X10933769Y-43568755D01*
X10900058Y-43588844D01*
X10864941Y-43609789D01*
X10828658Y-43631447D01*
X10792546Y-43653010D01*
X10757366Y-43674020D01*
X10723573Y-43694199D01*
X10691409Y-43713405D01*
X10661118Y-43731493D01*
X10632941Y-43748319D01*
X10607119Y-43763737D01*
X10583897Y-43777603D01*
X10563515Y-43789774D01*
X10546215Y-43800104D01*
X10532240Y-43808447D01*
X10521832Y-43814661D01*
X10515232Y-43818600D01*
X10512685Y-43820121D01*
X10361419Y-43820121D01*
X10361419Y-43796323D01*
X10741133Y-43555661D01*
X11120848Y-43315000D01*
X11143063Y-43315000D01*
G37*
G36*
X9995133Y-37105000D02*
G01*
X9995133Y-41248750D01*
X9995133Y-45392500D01*
X8083695Y-45392500D01*
X6172257Y-45392500D01*
X6172257Y-45228750D01*
X6172257Y-45217263D01*
X6172275Y-45189718D01*
X6172308Y-45163860D01*
X6172357Y-45140107D01*
X6172419Y-45118871D01*
X6172494Y-45100566D01*
X6172579Y-45085606D01*
X6172673Y-45074405D01*
X6172775Y-45067376D01*
X6172882Y-45064933D01*
X6174406Y-45064921D01*
X6180695Y-45064895D01*
X6191704Y-45064860D01*
X6207277Y-45064814D01*
X6227253Y-45064760D01*
X6251476Y-45064696D01*
X6279785Y-45064623D01*
X6312021Y-45064542D01*
X6348029Y-45064453D01*
X6387648Y-45064357D01*
X6430719Y-45064253D01*
X6477084Y-45064143D01*
X6526585Y-45064025D01*
X6579062Y-45063902D01*
X6634358Y-45063772D01*
X6692314Y-45063638D01*
X6752771Y-45063497D01*
X6815570Y-45063353D01*
X6880554Y-45063203D01*
X6947562Y-45063050D01*
X7016438Y-45062893D01*
X7087022Y-45062732D01*
X7159156Y-45062568D01*
X7232681Y-45062402D01*
X7307438Y-45062233D01*
X7383270Y-45062063D01*
X7460017Y-45061890D01*
X7537520Y-45061717D01*
X7615622Y-45061542D01*
X7694163Y-45061367D01*
X7772987Y-45061192D01*
X7851932Y-45061016D01*
X7930841Y-45060842D01*
X8009555Y-45060668D01*
X8087916Y-45060495D01*
X8165766Y-45060324D01*
X8242945Y-45060154D01*
X8319295Y-45059987D01*
X8394658Y-45059822D01*
X8468875Y-45059661D01*
X8541786Y-45059503D01*
X8613234Y-45059348D01*
X8683061Y-45059197D01*
X8751107Y-45059051D01*
X8817214Y-45058909D01*
X8881224Y-45058773D01*
X8942978Y-45058641D01*
X9002317Y-45058516D01*
X9059082Y-45058397D01*
X9113115Y-45058284D01*
X9164260Y-45058178D01*
X9212353Y-45058079D01*
X9257238Y-45057987D01*
X9298759Y-45057904D01*
X9336755Y-45057829D01*
X9371067Y-45057762D01*
X9401537Y-45057704D01*
X9428007Y-45057655D01*
X9450317Y-45057617D01*
X9468310Y-45057588D01*
X9481827Y-45057568D01*
X9490707Y-45057562D01*
X9660101Y-45057500D01*
X9660101Y-41250000D01*
X9660101Y-37442500D01*
X8084945Y-37442500D01*
X6509790Y-37442500D01*
X6509790Y-40681250D01*
X6509790Y-43920000D01*
X6341023Y-43920000D01*
X6172257Y-43920000D01*
X6172257Y-40512500D01*
X6172257Y-37105000D01*
X8083695Y-37104999D01*
X9995133Y-37105000D01*
G37*
G36*
X11143034Y-44305000D02*
G01*
X11199954Y-44305000D01*
X11275259Y-44305000D01*
X11275259Y-44560000D01*
X11275259Y-44815000D01*
X11419023Y-44815000D01*
X11562787Y-44815000D01*
X11562787Y-44896251D01*
X11562787Y-44977500D01*
X11419023Y-44977501D01*
X11275259Y-44977500D01*
X11275259Y-45057501D01*
X11275259Y-45137500D01*
X11210253Y-45137500D01*
X11145246Y-45137500D01*
X11145245Y-45057507D01*
X11145246Y-44977516D01*
X10753334Y-44976882D01*
X10361419Y-44976251D01*
X10360764Y-44883265D01*
X10360276Y-44814042D01*
X10510392Y-44814042D01*
X10510407Y-44814055D01*
X10513245Y-44814173D01*
X10520758Y-44814287D01*
X10532647Y-44814396D01*
X10548619Y-44814499D01*
X10568377Y-44814594D01*
X10591626Y-44814682D01*
X10618071Y-44814761D01*
X10647417Y-44814830D01*
X10679366Y-44814889D01*
X10713625Y-44814936D01*
X10749896Y-44814971D01*
X10787886Y-44814992D01*
X10827298Y-44815000D01*
X11145246Y-44815000D01*
X11145246Y-44626250D01*
X11145226Y-44598739D01*
X11145149Y-44568521D01*
X11145022Y-44540586D01*
X11144848Y-44515273D01*
X11144631Y-44492925D01*
X11144374Y-44473877D01*
X11144082Y-44458471D01*
X11143759Y-44447048D01*
X11143408Y-44439943D01*
X11143034Y-44437500D01*
X11142244Y-44437909D01*
X11137648Y-44440543D01*
X11129213Y-44445469D01*
X11117229Y-44452514D01*
X11101988Y-44461506D01*
X11083778Y-44472271D01*
X11062890Y-44484640D01*
X11039613Y-44498437D01*
X11014239Y-44513489D01*
X10987056Y-44529626D01*
X10958355Y-44546673D01*
X10928427Y-44564459D01*
X10897560Y-44582811D01*
X10866045Y-44601555D01*
X10834173Y-44620520D01*
X10802234Y-44639532D01*
X10770515Y-44658419D01*
X10739310Y-44677010D01*
X10708907Y-44695130D01*
X10679597Y-44712607D01*
X10651669Y-44729269D01*
X10625413Y-44744942D01*
X10601121Y-44759454D01*
X10579081Y-44772634D01*
X10559584Y-44784308D01*
X10542920Y-44794303D01*
X10529378Y-44802446D01*
X10519250Y-44808566D01*
X10512824Y-44812488D01*
X10510392Y-44814042D01*
X10360276Y-44814042D01*
X10360108Y-44790281D01*
X10370765Y-44783057D01*
X10371454Y-44782602D01*
X10376148Y-44779579D01*
X10384765Y-44774071D01*
X10397085Y-44766221D01*
X10412884Y-44756168D01*
X10431942Y-44744053D01*
X10454036Y-44730017D01*
X10478948Y-44714199D01*
X10506454Y-44696742D01*
X10536332Y-44677784D01*
X10568362Y-44657468D01*
X10602322Y-44635933D01*
X10637991Y-44613319D01*
X10675147Y-44589768D01*
X10713568Y-44565420D01*
X10753035Y-44540416D01*
X11124648Y-44305000D01*
X11143034Y-44305000D01*
G37*
G36*
X10962728Y-37387500D02*
G01*
X11562787Y-37387501D01*
X11562787Y-37519800D01*
X11562787Y-37522309D01*
X11562726Y-37559206D01*
X11562538Y-37591647D01*
X11562202Y-37620143D01*
X11561691Y-37645204D01*
X11560984Y-37667340D01*
X11560055Y-37687063D01*
X11558883Y-37704882D01*
X11557442Y-37721309D01*
X11555710Y-37736853D01*
X11553660Y-37752026D01*
X11551272Y-37767338D01*
X11547087Y-37790274D01*
X11535309Y-37838772D01*
X11520098Y-37883706D01*
X11501402Y-37925129D01*
X11479170Y-37963093D01*
X11453349Y-37997649D01*
X11423888Y-38028850D01*
X11390734Y-38056747D01*
X11353835Y-38081391D01*
X11313139Y-38102835D01*
X11268594Y-38121130D01*
X11220148Y-38136329D01*
X11167748Y-38148482D01*
X11128922Y-38155079D01*
X11080257Y-38160910D01*
X11029642Y-38164581D01*
X10977894Y-38166123D01*
X10925834Y-38165561D01*
X10874283Y-38162925D01*
X10824061Y-38158242D01*
X10775988Y-38151541D01*
X10730886Y-38142848D01*
X10689574Y-38132193D01*
X10674648Y-38127573D01*
X10631743Y-38111903D01*
X10592692Y-38093720D01*
X10556992Y-38072742D01*
X10524139Y-38048679D01*
X10493630Y-38021250D01*
X10472008Y-37998211D01*
X10448305Y-37968009D01*
X10427845Y-37935546D01*
X10410303Y-37900239D01*
X10395363Y-37861502D01*
X10382703Y-37818750D01*
X10379389Y-37805298D01*
X10375568Y-37787629D01*
X10372256Y-37769299D01*
X10369420Y-37749879D01*
X10367032Y-37728931D01*
X10365059Y-37706023D01*
X10363471Y-37680722D01*
X10362238Y-37652592D01*
X10361327Y-37621202D01*
X10360708Y-37586115D01*
X10360378Y-37550000D01*
X10495182Y-37550000D01*
X10495182Y-37610985D01*
X10495208Y-37622333D01*
X10495547Y-37649627D01*
X10496336Y-37673216D01*
X10497644Y-37694032D01*
X10499539Y-37713009D01*
X10502089Y-37731079D01*
X10505365Y-37749176D01*
X10509134Y-37766371D01*
X10520025Y-37803370D01*
X10533986Y-37836547D01*
X10551081Y-37866038D01*
X10571370Y-37891979D01*
X10574205Y-37895042D01*
X10595783Y-37914681D01*
X10621315Y-37932135D01*
X10650895Y-37947434D01*
X10684613Y-37960610D01*
X10722564Y-37971695D01*
X10764837Y-37980721D01*
X10811524Y-37987721D01*
X10862718Y-37992724D01*
X10874868Y-37993479D01*
X10896133Y-37994294D01*
X10920365Y-37994751D01*
X10946678Y-37994869D01*
X10974188Y-37994664D01*
X11002010Y-37994156D01*
X11029259Y-37993361D01*
X11055051Y-37992297D01*
X11078500Y-37990982D01*
X11098722Y-37989434D01*
X11114833Y-37987670D01*
X11152483Y-37981865D01*
X11193388Y-37973574D01*
X11229992Y-37963676D01*
X11262577Y-37952014D01*
X11291429Y-37938434D01*
X11316832Y-37922776D01*
X11339068Y-37904885D01*
X11358424Y-37884604D01*
X11375182Y-37861779D01*
X11389629Y-37836250D01*
X11397913Y-37818238D01*
X11408827Y-37788551D01*
X11417294Y-37756576D01*
X11423508Y-37721528D01*
X11427664Y-37682625D01*
X11428331Y-37672386D01*
X11429106Y-37655777D01*
X11429721Y-37637017D01*
X11430127Y-37617720D01*
X11430274Y-37599500D01*
X11430274Y-37550000D01*
X10962728Y-37550000D01*
X10495182Y-37550000D01*
X10360378Y-37550000D01*
X10360350Y-37546901D01*
X10360224Y-37503125D01*
X10360169Y-37387500D01*
X10961478Y-37387500D01*
X10962728Y-37387500D01*
G37*
G36*
X10977263Y-39370413D02*
G01*
X10998537Y-39370451D01*
X11023899Y-39370778D01*
X11046484Y-39371396D01*
X11065390Y-39372320D01*
X11099287Y-39374894D01*
X11161313Y-39381822D01*
X11219094Y-39391357D01*
X11272651Y-39403503D01*
X11322003Y-39418265D01*
X11367168Y-39435647D01*
X11408165Y-39455659D01*
X11445014Y-39478301D01*
X11455541Y-39486126D01*
X11469495Y-39497693D01*
X11484114Y-39510820D01*
X11498205Y-39524399D01*
X11510585Y-39537318D01*
X11520065Y-39548467D01*
X11538229Y-39575435D01*
X11554117Y-39606030D01*
X11567141Y-39638930D01*
X11576845Y-39672977D01*
X11582771Y-39707015D01*
X11583282Y-39712203D01*
X11584149Y-39728251D01*
X11584394Y-39747022D01*
X11584065Y-39767231D01*
X11583206Y-39787591D01*
X11581869Y-39806818D01*
X11580101Y-39823629D01*
X11577949Y-39836735D01*
X11576886Y-39841542D01*
X11566244Y-39879299D01*
X11552106Y-39913782D01*
X11534176Y-39945529D01*
X11512157Y-39975076D01*
X11485750Y-40002959D01*
X11464036Y-40021880D01*
X11429867Y-40046255D01*
X11391485Y-40068004D01*
X11348924Y-40087113D01*
X11302217Y-40103566D01*
X11251398Y-40117349D01*
X11196501Y-40128447D01*
X11173478Y-40132097D01*
X11121162Y-40138508D01*
X11065827Y-40142968D01*
X11008553Y-40145475D01*
X10950424Y-40146029D01*
X10892519Y-40144632D01*
X10835922Y-40141278D01*
X10781713Y-40135971D01*
X10730973Y-40128709D01*
X10694598Y-40121813D01*
X10642770Y-40109140D01*
X10594855Y-40093807D01*
X10550911Y-40075851D01*
X10510995Y-40055313D01*
X10475165Y-40032228D01*
X10443480Y-40006640D01*
X10415996Y-39978584D01*
X10392773Y-39948099D01*
X10373868Y-39915225D01*
X10359338Y-39880000D01*
X10352537Y-39857013D01*
X10345281Y-39821030D01*
X10341389Y-39783626D01*
X10340971Y-39755529D01*
X10468077Y-39755529D01*
X10469992Y-39784063D01*
X10476579Y-39811470D01*
X10487670Y-39837369D01*
X10503092Y-39861379D01*
X10522677Y-39883120D01*
X10546255Y-39902211D01*
X10570368Y-39917164D01*
X10599134Y-39931366D01*
X10631171Y-39943761D01*
X10666668Y-39954386D01*
X10705810Y-39963277D01*
X10748783Y-39970469D01*
X10795775Y-39976000D01*
X10846973Y-39979905D01*
X10902561Y-39982221D01*
X10962728Y-39982983D01*
X10990918Y-39982882D01*
X11026472Y-39982370D01*
X11058525Y-39981380D01*
X11087940Y-39979852D01*
X11115581Y-39977727D01*
X11142313Y-39974947D01*
X11168998Y-39971453D01*
X11196501Y-39967188D01*
X11226155Y-39961616D01*
X11263563Y-39952579D01*
X11298379Y-39941830D01*
X11330022Y-39929577D01*
X11357907Y-39916028D01*
X11381454Y-39901389D01*
X11385494Y-39898413D01*
X11404157Y-39882135D01*
X11420917Y-39863412D01*
X11435057Y-39843236D01*
X11445864Y-39822601D01*
X11452624Y-39802499D01*
X11453756Y-39796409D01*
X11455259Y-39783236D01*
X11456214Y-39767880D01*
X11456562Y-39752095D01*
X11456242Y-39737634D01*
X11455197Y-39726250D01*
X11454219Y-39720688D01*
X11446817Y-39695675D01*
X11434864Y-39671650D01*
X11418708Y-39649049D01*
X11398701Y-39628305D01*
X11375196Y-39609854D01*
X11348540Y-39594128D01*
X11336019Y-39588120D01*
X11302585Y-39574738D01*
X11265048Y-39563190D01*
X11223289Y-39553452D01*
X11177190Y-39545499D01*
X11126630Y-39539304D01*
X11071489Y-39534842D01*
X11052689Y-39533945D01*
X11030129Y-39533331D01*
X11004696Y-39532990D01*
X10977263Y-39532909D01*
X10948704Y-39533075D01*
X10919896Y-39533477D01*
X10891712Y-39534103D01*
X10865026Y-39534939D01*
X10840715Y-39535975D01*
X10819652Y-39537197D01*
X10802713Y-39538594D01*
X10771676Y-39542131D01*
X10722297Y-39549613D01*
X10677492Y-39558938D01*
X10637200Y-39570142D01*
X10601362Y-39583260D01*
X10569916Y-39598326D01*
X10542803Y-39615376D01*
X10519961Y-39634445D01*
X10501331Y-39655568D01*
X10486852Y-39678780D01*
X10476463Y-39704117D01*
X10470103Y-39731612D01*
X10468077Y-39755529D01*
X10340971Y-39755529D01*
X10340825Y-39745688D01*
X10343550Y-39708102D01*
X10349525Y-39671753D01*
X10358713Y-39637526D01*
X10371074Y-39606307D01*
X10374826Y-39598651D01*
X10394148Y-39565609D01*
X10417337Y-39535217D01*
X10444447Y-39507441D01*
X10475533Y-39482257D01*
X10510647Y-39459636D01*
X10549846Y-39439549D01*
X10593180Y-39421967D01*
X10640705Y-39406863D01*
X10692475Y-39394210D01*
X10748543Y-39383975D01*
X10808963Y-39376134D01*
X10818963Y-39375206D01*
X10838523Y-39373865D01*
X10861617Y-39372724D01*
X10887343Y-39371794D01*
X10914800Y-39371086D01*
X10943085Y-39370619D01*
X10971299Y-39370402D01*
X10977263Y-39370413D01*
G37*
G36*
X10961027Y-40362606D02*
G01*
X10983328Y-40362647D01*
X11009399Y-40362920D01*
X11033609Y-40363418D01*
X11054915Y-40364140D01*
X11072271Y-40365087D01*
X11099452Y-40367253D01*
X11161502Y-40374268D01*
X11219293Y-40383866D01*
X11272843Y-40396054D01*
X11322172Y-40410835D01*
X11367297Y-40428218D01*
X11408237Y-40448204D01*
X11445014Y-40470802D01*
X11455541Y-40478626D01*
X11469495Y-40490193D01*
X11484113Y-40503320D01*
X11498205Y-40516899D01*
X11510586Y-40529818D01*
X11520065Y-40540966D01*
X11521445Y-40542774D01*
X11539396Y-40569932D01*
X11554982Y-40600383D01*
X11567701Y-40632857D01*
X11577048Y-40666085D01*
X11582524Y-40698796D01*
X11582726Y-40700775D01*
X11584344Y-40724319D01*
X11584870Y-40749690D01*
X11584299Y-40774653D01*
X11582630Y-40796973D01*
X11578995Y-40822324D01*
X11569674Y-40861333D01*
X11556098Y-40897770D01*
X11538246Y-40931660D01*
X11516100Y-40963032D01*
X11489638Y-40991911D01*
X11458841Y-41018324D01*
X11423689Y-41042299D01*
X11384162Y-41063861D01*
X11348611Y-41079628D01*
X11303817Y-41095603D01*
X11255344Y-41108989D01*
X11203054Y-41119816D01*
X11146812Y-41128108D01*
X11086483Y-41133893D01*
X11021933Y-41137199D01*
X11012904Y-41137462D01*
X10940664Y-41138098D01*
X10872388Y-41136020D01*
X10808103Y-41131237D01*
X10747837Y-41123754D01*
X10691617Y-41113578D01*
X10639472Y-41100716D01*
X10591432Y-41085175D01*
X10547522Y-41066961D01*
X10507772Y-41046082D01*
X10472209Y-41022544D01*
X10440861Y-40996354D01*
X10416182Y-40970800D01*
X10393850Y-40941912D01*
X10375688Y-40911135D01*
X10361451Y-40877976D01*
X10350893Y-40841947D01*
X10343767Y-40802555D01*
X10343553Y-40800918D01*
X10340408Y-40760450D01*
X10340914Y-40738448D01*
X10468679Y-40738448D01*
X10469009Y-40765635D01*
X10473428Y-40792513D01*
X10481696Y-40817955D01*
X10493578Y-40840835D01*
X10494029Y-40841535D01*
X10510664Y-40863318D01*
X10531073Y-40883067D01*
X10555361Y-40900823D01*
X10583634Y-40916624D01*
X10615991Y-40930510D01*
X10652540Y-40942520D01*
X10693384Y-40952692D01*
X10738624Y-40961066D01*
X10788367Y-40967682D01*
X10842717Y-40972578D01*
X10849110Y-40972988D01*
X10867646Y-40973837D01*
X10889809Y-40974489D01*
X10914643Y-40974943D01*
X10941188Y-40975199D01*
X10968487Y-40975258D01*
X10995580Y-40975120D01*
X11021511Y-40974783D01*
X11045320Y-40974250D01*
X11066049Y-40973517D01*
X11082740Y-40972586D01*
X11086578Y-40972308D01*
X11139961Y-40967372D01*
X11188757Y-40960790D01*
X11233106Y-40952516D01*
X11273151Y-40942502D01*
X11309032Y-40930704D01*
X11340891Y-40917074D01*
X11368869Y-40901568D01*
X11393107Y-40884139D01*
X11413746Y-40864741D01*
X11414255Y-40864188D01*
X11426934Y-40848318D01*
X11438152Y-40830426D01*
X11447013Y-40812118D01*
X11452624Y-40795000D01*
X11453671Y-40789484D01*
X11455230Y-40776204D01*
X11456200Y-40760628D01*
X11456526Y-40744508D01*
X11456154Y-40729593D01*
X11455029Y-40717635D01*
X11453242Y-40708908D01*
X11449712Y-40696354D01*
X11445596Y-40684957D01*
X11443808Y-40680848D01*
X11430802Y-40657149D01*
X11414023Y-40635524D01*
X11393378Y-40615930D01*
X11368773Y-40598330D01*
X11340113Y-40582682D01*
X11307305Y-40568947D01*
X11270253Y-40557082D01*
X11228865Y-40547050D01*
X11183046Y-40538808D01*
X11132703Y-40532319D01*
X11077740Y-40527540D01*
X11074377Y-40527323D01*
X11057388Y-40526523D01*
X11036595Y-40525905D01*
X11012961Y-40525470D01*
X10987450Y-40525217D01*
X10961026Y-40525147D01*
X10934656Y-40525260D01*
X10909299Y-40525555D01*
X10885924Y-40526033D01*
X10865491Y-40526693D01*
X10848967Y-40527537D01*
X10816970Y-40529973D01*
X10763900Y-40535717D01*
X10715406Y-40543318D01*
X10671430Y-40552801D01*
X10631916Y-40564196D01*
X10596809Y-40577534D01*
X10566054Y-40592844D01*
X10539591Y-40610156D01*
X10517368Y-40629498D01*
X10499327Y-40650902D01*
X10485412Y-40674396D01*
X10475568Y-40700010D01*
X10469739Y-40727773D01*
X10468679Y-40738448D01*
X10340914Y-40738448D01*
X10341330Y-40720386D01*
X10346190Y-40681285D01*
X10354861Y-40643704D01*
X10367215Y-40608205D01*
X10383125Y-40575344D01*
X10402462Y-40545681D01*
X10411715Y-40534217D01*
X10427599Y-40516855D01*
X10445330Y-40499559D01*
X10463441Y-40483737D01*
X10480461Y-40470802D01*
X10498176Y-40459273D01*
X10536783Y-40438125D01*
X10579619Y-40419508D01*
X10626612Y-40403441D01*
X10677693Y-40389945D01*
X10732796Y-40379038D01*
X10791852Y-40370740D01*
X10854791Y-40365070D01*
X10861665Y-40364655D01*
X10881355Y-40363803D01*
X10904413Y-40363177D01*
X10929790Y-40362775D01*
X10956444Y-40362598D01*
X10961027Y-40362606D01*
G37*
G36*
X10999755Y-41356194D02*
G01*
X11025808Y-41356454D01*
X11049890Y-41356905D01*
X11071243Y-41357553D01*
X11089113Y-41358400D01*
X11102742Y-41359450D01*
X11149844Y-41364968D01*
X11202035Y-41373002D01*
X11250052Y-41382694D01*
X11294224Y-41394142D01*
X11334878Y-41407442D01*
X11372345Y-41422692D01*
X11406951Y-41439992D01*
X11439025Y-41459437D01*
X11444580Y-41463258D01*
X11460817Y-41475629D01*
X11477754Y-41490003D01*
X11494141Y-41505239D01*
X11508730Y-41520198D01*
X11520273Y-41533737D01*
X11522341Y-41536459D01*
X11539994Y-41563436D01*
X11555343Y-41593683D01*
X11567882Y-41625926D01*
X11577112Y-41658888D01*
X11582524Y-41691296D01*
X11583666Y-41704007D01*
X11584976Y-41738273D01*
X11583881Y-41772514D01*
X11580463Y-41805237D01*
X11574802Y-41834946D01*
X11571953Y-41845852D01*
X11559012Y-41883285D01*
X11541816Y-41918093D01*
X11520365Y-41950275D01*
X11494658Y-41979832D01*
X11464697Y-42006763D01*
X11430482Y-42031068D01*
X11392012Y-42052747D01*
X11349289Y-42071800D01*
X11302312Y-42088226D01*
X11251081Y-42102025D01*
X11195598Y-42113198D01*
X11135861Y-42121744D01*
X11071872Y-42127663D01*
X11062298Y-42128226D01*
X11043031Y-42128956D01*
X11020448Y-42129426D01*
X10995383Y-42129652D01*
X10968665Y-42129642D01*
X10941127Y-42129410D01*
X10913599Y-42128964D01*
X10886912Y-42128320D01*
X10861900Y-42127486D01*
X10839391Y-42126475D01*
X10820218Y-42125299D01*
X10805213Y-42123968D01*
X10778783Y-42120731D01*
X10737224Y-42114428D01*
X10696973Y-42106873D01*
X10658950Y-42098261D01*
X10624070Y-42088789D01*
X10593253Y-42078652D01*
X10560815Y-42065572D01*
X10522446Y-42046604D01*
X10487106Y-42025083D01*
X10455242Y-42001319D01*
X10427305Y-41975621D01*
X10403743Y-41948297D01*
X10401368Y-41945111D01*
X10381561Y-41914015D01*
X10365522Y-41880059D01*
X10353330Y-41843714D01*
X10345064Y-41805453D01*
X10340802Y-41765750D01*
X10340661Y-41733525D01*
X10468457Y-41733525D01*
X10469245Y-41762512D01*
X10474794Y-41790450D01*
X10484968Y-41816925D01*
X10499627Y-41841526D01*
X10518634Y-41863841D01*
X10520608Y-41865778D01*
X10541680Y-41883701D01*
X10566068Y-41899766D01*
X10593957Y-41914032D01*
X10625533Y-41926557D01*
X10660980Y-41937397D01*
X10700488Y-41946610D01*
X10744239Y-41954254D01*
X10792420Y-41960386D01*
X10845217Y-41965065D01*
X10854909Y-41965648D01*
X10873133Y-41966386D01*
X10894814Y-41966946D01*
X10919026Y-41967330D01*
X10944841Y-41967538D01*
X10971332Y-41967569D01*
X10997574Y-41967423D01*
X11022638Y-41967100D01*
X11045596Y-41966602D01*
X11065523Y-41965926D01*
X11081490Y-41965073D01*
X11133193Y-41960589D01*
X11183147Y-41954152D01*
X11228635Y-41945917D01*
X11269774Y-41935845D01*
X11306681Y-41923899D01*
X11339475Y-41910040D01*
X11368270Y-41894230D01*
X11393184Y-41876432D01*
X11414335Y-41856606D01*
X11415738Y-41855063D01*
X11427820Y-41839596D01*
X11438609Y-41822073D01*
X11447183Y-41804153D01*
X11452624Y-41787499D01*
X11453678Y-41781950D01*
X11455232Y-41768676D01*
X11456201Y-41753113D01*
X11456527Y-41737014D01*
X11456158Y-41722127D01*
X11455038Y-41710207D01*
X11452329Y-41697651D01*
X11445789Y-41678341D01*
X11436930Y-41659426D01*
X11426648Y-41643028D01*
X11420460Y-41635133D01*
X11401899Y-41615694D01*
X11379903Y-41598138D01*
X11354299Y-41582401D01*
X11324913Y-41568414D01*
X11291574Y-41556111D01*
X11254110Y-41545425D01*
X11212349Y-41536290D01*
X11166117Y-41528638D01*
X11115243Y-41522403D01*
X11111799Y-41522075D01*
X11097858Y-41521106D01*
X11079937Y-41520253D01*
X11058814Y-41519527D01*
X11035262Y-41518931D01*
X11010058Y-41518474D01*
X10983977Y-41518165D01*
X10957796Y-41518010D01*
X10932289Y-41518018D01*
X10908234Y-41518195D01*
X10886404Y-41518550D01*
X10867576Y-41519089D01*
X10852526Y-41519822D01*
X10817689Y-41522459D01*
X10764609Y-41528208D01*
X10716110Y-41535779D01*
X10672130Y-41545204D01*
X10632612Y-41556513D01*
X10597495Y-41569737D01*
X10566720Y-41584908D01*
X10540227Y-41602055D01*
X10517958Y-41621210D01*
X10499853Y-41642404D01*
X10485852Y-41665668D01*
X10475896Y-41691032D01*
X10469926Y-41718528D01*
X10468457Y-41733525D01*
X10340661Y-41733525D01*
X10340624Y-41725076D01*
X10344605Y-41683903D01*
X10352828Y-41642705D01*
X10357520Y-41626174D01*
X10371296Y-41590794D01*
X10389630Y-41557405D01*
X10412456Y-41526116D01*
X10439707Y-41497040D01*
X10452808Y-41485232D01*
X10483671Y-41461553D01*
X10518189Y-41440290D01*
X10556490Y-41421396D01*
X10598701Y-41404823D01*
X10644947Y-41390527D01*
X10695356Y-41378458D01*
X10750056Y-41368572D01*
X10809172Y-41360820D01*
X10811080Y-41360620D01*
X10825688Y-41359468D01*
X10844371Y-41358480D01*
X10866377Y-41357659D01*
X10890947Y-41357009D01*
X10917326Y-41356534D01*
X10944758Y-41356239D01*
X10957796Y-41356184D01*
X10972487Y-41356123D01*
X10999755Y-41356194D01*
G37*
G36*
X8228506Y-38014855D02*
G01*
X8302885Y-38018665D01*
X8375549Y-38024498D01*
X8445780Y-38032351D01*
X8512863Y-38042215D01*
X8576081Y-38054087D01*
X8595041Y-38058231D01*
X8655018Y-38073370D01*
X8711966Y-38090904D01*
X8765604Y-38110715D01*
X8815653Y-38132682D01*
X8861832Y-38156686D01*
X8903861Y-38182606D01*
X8941459Y-38210323D01*
X8947509Y-38215287D01*
X8985782Y-38250079D01*
X9019815Y-38287334D01*
X9049647Y-38327129D01*
X9075314Y-38369540D01*
X9096854Y-38414647D01*
X9114305Y-38462525D01*
X9127705Y-38513251D01*
X9137090Y-38566903D01*
X9142498Y-38623558D01*
X9143257Y-38639013D01*
X9143511Y-38693134D01*
X9140055Y-38746214D01*
X9132979Y-38797700D01*
X9122374Y-38847042D01*
X9108331Y-38893691D01*
X9090939Y-38937098D01*
X9089750Y-38939705D01*
X9086078Y-38947876D01*
X9083509Y-38953775D01*
X9082543Y-38956269D01*
X9082285Y-38957111D01*
X9079951Y-38961654D01*
X9075618Y-38969163D01*
X9069808Y-38978799D01*
X9063045Y-38989723D01*
X9055851Y-39001094D01*
X9048750Y-39012075D01*
X9042264Y-39021824D01*
X9036915Y-39029504D01*
X9035063Y-39032009D01*
X9025017Y-39044456D01*
X9012264Y-39058945D01*
X8997722Y-39074532D01*
X8982310Y-39090276D01*
X8966944Y-39105232D01*
X8952545Y-39118458D01*
X8940029Y-39129011D01*
X8934663Y-39133200D01*
X8891177Y-39163797D01*
X8843450Y-39191795D01*
X8791518Y-39217179D01*
X8735416Y-39239936D01*
X8675181Y-39260049D01*
X8610848Y-39277504D01*
X8542453Y-39292286D01*
X8499436Y-39299861D01*
X8430620Y-39309642D01*
X8358635Y-39317278D01*
X8284250Y-39322772D01*
X8208236Y-39326127D01*
X8131361Y-39327343D01*
X8054396Y-39326426D01*
X7978111Y-39323373D01*
X7903274Y-39318191D01*
X7830656Y-39310879D01*
X7761026Y-39301441D01*
X7695155Y-39289878D01*
X7658177Y-39282047D01*
X7592269Y-39265323D01*
X7530557Y-39245885D01*
X7473040Y-39223729D01*
X7419716Y-39198856D01*
X7370582Y-39171262D01*
X7325635Y-39140946D01*
X7284874Y-39107908D01*
X7248296Y-39072144D01*
X7215898Y-39033653D01*
X7187679Y-38992434D01*
X7163635Y-38948486D01*
X7143766Y-38901805D01*
X7139482Y-38889731D01*
X7126660Y-38845899D01*
X7116830Y-38799086D01*
X7110061Y-38750136D01*
X7106421Y-38699894D01*
X7106204Y-38674876D01*
X7321544Y-38674876D01*
X7322145Y-38697188D01*
X7323584Y-38717613D01*
X7325859Y-38734627D01*
X7330909Y-38758009D01*
X7342137Y-38793733D01*
X7357184Y-38826703D01*
X7376147Y-38857016D01*
X7399123Y-38884770D01*
X7426209Y-38910061D01*
X7457503Y-38932989D01*
X7493100Y-38953652D01*
X7533099Y-38972146D01*
X7577595Y-38988570D01*
X7607589Y-38997780D01*
X7653474Y-39009579D01*
X7703149Y-39019827D01*
X7756738Y-39028538D01*
X7814367Y-39035723D01*
X7876159Y-39041397D01*
X7942239Y-39045570D01*
X8012732Y-39048257D01*
X8087762Y-39049470D01*
X8167453Y-39049222D01*
X8172375Y-39049162D01*
X8229173Y-39048132D01*
X8281596Y-39046515D01*
X8330197Y-39044264D01*
X8375530Y-39041331D01*
X8418147Y-39037672D01*
X8458599Y-39033237D01*
X8497439Y-39027980D01*
X8535220Y-39021854D01*
X8572493Y-39014813D01*
X8602546Y-39008295D01*
X8653004Y-38995028D01*
X8698969Y-38979707D01*
X8740517Y-38962268D01*
X8777719Y-38942648D01*
X8810646Y-38920782D01*
X8839372Y-38896606D01*
X8863968Y-38870056D01*
X8884506Y-38841068D01*
X8901060Y-38809578D01*
X8913699Y-38775522D01*
X8922497Y-38738835D01*
X8927527Y-38699453D01*
X8927549Y-38699164D01*
X8928445Y-38687037D01*
X8929133Y-38676560D01*
X8929547Y-38668844D01*
X8929620Y-38665000D01*
X8929434Y-38662631D01*
X8928908Y-38655885D01*
X8928158Y-38646262D01*
X8927282Y-38635000D01*
X8925801Y-38621141D01*
X8921643Y-38596876D01*
X8915732Y-38572250D01*
X8908515Y-38549046D01*
X8900447Y-38529044D01*
X8889011Y-38507224D01*
X8868146Y-38476284D01*
X8843054Y-38447839D01*
X8813870Y-38422018D01*
X8780728Y-38398951D01*
X8743760Y-38378764D01*
X8731067Y-38372890D01*
X8691595Y-38357203D01*
X8647416Y-38343156D01*
X8598544Y-38330751D01*
X8544995Y-38319990D01*
X8486778Y-38310875D01*
X8423911Y-38303408D01*
X8356405Y-38297592D01*
X8284276Y-38293426D01*
X8207536Y-38290914D01*
X8126199Y-38290059D01*
X8126095Y-38290059D01*
X8045697Y-38290848D01*
X7969658Y-38293261D01*
X7898029Y-38297292D01*
X7830856Y-38302935D01*
X7768188Y-38310186D01*
X7710071Y-38319038D01*
X7656556Y-38329486D01*
X7607689Y-38341524D01*
X7563518Y-38355148D01*
X7560170Y-38356313D01*
X7517139Y-38373479D01*
X7478380Y-38393236D01*
X7443884Y-38415595D01*
X7413639Y-38440567D01*
X7387637Y-38468163D01*
X7365865Y-38498394D01*
X7348314Y-38531269D01*
X7334975Y-38566800D01*
X7325835Y-38605001D01*
X7324770Y-38611817D01*
X7322857Y-38630670D01*
X7321782Y-38652196D01*
X7321544Y-38674876D01*
X7106204Y-38674876D01*
X7105981Y-38649203D01*
X7108808Y-38598909D01*
X7114973Y-38549856D01*
X7125511Y-38498350D01*
X7140320Y-38448263D01*
X7159188Y-38400976D01*
X7182130Y-38356478D01*
X7209160Y-38314756D01*
X7240291Y-38275799D01*
X7275539Y-38239595D01*
X7314917Y-38206131D01*
X7358439Y-38175396D01*
X7406121Y-38147377D01*
X7457975Y-38122062D01*
X7514017Y-38099440D01*
X7574260Y-38079499D01*
X7638718Y-38062224D01*
X7707407Y-38047606D01*
X7720039Y-38045290D01*
X7786355Y-38034787D01*
X7855972Y-38026343D01*
X7928175Y-38019956D01*
X8002247Y-38015619D01*
X8077471Y-38013328D01*
X8126095Y-38013164D01*
X8153129Y-38013074D01*
X8228506Y-38014855D01*
G37*
G36*
X7721007Y-39666324D02*
G01*
X7749597Y-39668008D01*
X7775241Y-39670694D01*
X7799172Y-39674556D01*
X7822624Y-39679770D01*
X7846831Y-39686513D01*
X7870743Y-39694418D01*
X7911292Y-39711295D01*
X7948927Y-39731769D01*
X7983890Y-39756037D01*
X8016422Y-39784297D01*
X8046764Y-39816746D01*
X8075157Y-39853581D01*
X8101842Y-39895000D01*
X8104426Y-39899485D01*
X8112103Y-39913790D01*
X8120773Y-39931049D01*
X8129853Y-39950032D01*
X8138762Y-39969506D01*
X8146919Y-39988239D01*
X8153742Y-40005000D01*
X8159401Y-40019946D01*
X8167463Y-40042687D01*
X8175308Y-40066720D01*
X8183111Y-40092652D01*
X8191046Y-40121091D01*
X8199285Y-40152639D01*
X8208003Y-40187907D01*
X8217372Y-40227500D01*
X8219220Y-40235442D01*
X8227410Y-40270524D01*
X8234654Y-40301255D01*
X8241073Y-40328073D01*
X8246788Y-40351414D01*
X8251920Y-40371715D01*
X8256591Y-40389416D01*
X8260921Y-40404950D01*
X8265030Y-40418757D01*
X8269043Y-40431272D01*
X8273077Y-40442933D01*
X8277255Y-40454177D01*
X8281697Y-40465442D01*
X8286525Y-40477164D01*
X8300572Y-40507934D01*
X8319874Y-40542426D01*
X8341252Y-40572491D01*
X8364926Y-40598280D01*
X8391116Y-40619947D01*
X8420041Y-40637643D01*
X8451921Y-40651522D01*
X8486977Y-40661735D01*
X8525427Y-40668432D01*
X8567493Y-40671769D01*
X8594822Y-40672045D01*
X8636634Y-40669180D01*
X8676005Y-40662292D01*
X8712739Y-40651433D01*
X8746640Y-40636650D01*
X8777513Y-40617996D01*
X8797112Y-40602857D01*
X8824013Y-40577026D01*
X8848261Y-40547398D01*
X8869558Y-40514400D01*
X8887605Y-40478458D01*
X8902103Y-40440000D01*
X8910816Y-40409100D01*
X8920193Y-40362626D01*
X8926105Y-40313548D01*
X8928579Y-40262423D01*
X8927655Y-40209805D01*
X8923361Y-40156249D01*
X8915729Y-40102311D01*
X8904793Y-40048544D01*
X8890584Y-39995506D01*
X8873136Y-39943750D01*
X8867649Y-39929477D01*
X8851576Y-39890940D01*
X8833082Y-39850489D01*
X8812827Y-39809428D01*
X8791468Y-39769061D01*
X8769661Y-39730692D01*
X8748063Y-39695625D01*
X8744435Y-39690000D01*
X8885367Y-39690000D01*
X9026300Y-39690000D01*
X9041076Y-39727803D01*
X9059835Y-39778524D01*
X9082750Y-39849600D01*
X9102286Y-39921780D01*
X9118278Y-39994299D01*
X9130563Y-40066393D01*
X9138979Y-40137297D01*
X9143361Y-40206250D01*
X9143396Y-40207313D01*
X9143795Y-40218429D01*
X9144190Y-40228780D01*
X9144504Y-40236250D01*
X9144610Y-40243886D01*
X9144398Y-40256174D01*
X9143892Y-40271627D01*
X9143144Y-40289291D01*
X9142203Y-40308216D01*
X9141120Y-40327447D01*
X9139947Y-40346033D01*
X9138734Y-40363021D01*
X9137531Y-40377461D01*
X9136391Y-40388395D01*
X9132832Y-40414804D01*
X9127675Y-40447195D01*
X9121942Y-40477795D01*
X9115916Y-40505000D01*
X9101742Y-40555548D01*
X9083245Y-40606386D01*
X9061360Y-40653765D01*
X9036140Y-40697604D01*
X9007632Y-40737823D01*
X8975891Y-40774342D01*
X8940968Y-40807082D01*
X8902914Y-40835962D01*
X8897513Y-40839551D01*
X8870216Y-40855684D01*
X8839523Y-40871015D01*
X8806747Y-40884975D01*
X8773205Y-40896991D01*
X8740210Y-40906496D01*
X8728841Y-40909254D01*
X8708898Y-40913604D01*
X8689687Y-40917028D01*
X8670255Y-40919621D01*
X8649648Y-40921481D01*
X8626912Y-40922704D01*
X8601095Y-40923387D01*
X8571243Y-40923629D01*
X8553158Y-40923627D01*
X8531409Y-40923474D01*
X8513030Y-40923075D01*
X8497074Y-40922349D01*
X8482589Y-40921219D01*
X8468626Y-40919604D01*
X8454233Y-40917426D01*
X8438461Y-40914607D01*
X8420360Y-40911065D01*
X8404301Y-40907562D01*
X8362928Y-40895992D01*
X8322774Y-40881174D01*
X8284975Y-40863563D01*
X8250668Y-40843609D01*
X8241639Y-40837567D01*
X8206437Y-40810694D01*
X8173640Y-40780061D01*
X8143162Y-40745537D01*
X8114911Y-40706991D01*
X8088799Y-40664295D01*
X8064737Y-40617318D01*
X8042635Y-40565929D01*
X8022406Y-40510000D01*
X8019107Y-40499914D01*
X8012984Y-40480344D01*
X8007047Y-40460082D01*
X8001107Y-40438422D01*
X7994981Y-40414663D01*
X7988486Y-40388100D01*
X7981438Y-40358030D01*
X7973650Y-40323750D01*
X7965729Y-40288949D01*
X7957962Y-40256060D01*
X7950725Y-40226932D01*
X7943846Y-40200965D01*
X7937153Y-40177557D01*
X7930474Y-40156107D01*
X7923636Y-40136014D01*
X7916469Y-40116679D01*
X7908796Y-40097500D01*
X7901172Y-40079845D01*
X7884868Y-40047107D01*
X7867436Y-40018832D01*
X7848560Y-39994691D01*
X7827927Y-39974351D01*
X7805223Y-39957482D01*
X7780133Y-39943753D01*
X7752341Y-39932833D01*
X7728385Y-39926246D01*
X7695281Y-39920583D01*
X7660494Y-39918006D01*
X7625167Y-39918486D01*
X7590446Y-39921999D01*
X7557473Y-39928517D01*
X7527390Y-39938014D01*
X7518064Y-39941862D01*
X7486922Y-39958103D01*
X7457571Y-39978708D01*
X7430369Y-40003322D01*
X7405677Y-40031592D01*
X7383853Y-40063161D01*
X7365259Y-40097678D01*
X7360224Y-40108764D01*
X7347921Y-40140086D01*
X7338150Y-40172405D01*
X7330773Y-40206448D01*
X7325649Y-40242949D01*
X7322640Y-40282639D01*
X7321603Y-40326251D01*
X7322033Y-40356512D01*
X7324964Y-40404174D01*
X7330838Y-40450432D01*
X7339863Y-40496461D01*
X7352240Y-40543434D01*
X7368179Y-40592523D01*
X7380437Y-40625586D01*
X7403777Y-40680452D01*
X7430604Y-40734178D01*
X7461556Y-40788098D01*
X7465542Y-40794690D01*
X7470364Y-40802856D01*
X7473663Y-40808687D01*
X7474885Y-40811223D01*
X7474296Y-40811343D01*
X7469594Y-40811578D01*
X7460573Y-40811796D01*
X7447693Y-40811993D01*
X7431410Y-40812164D01*
X7412183Y-40812304D01*
X7390471Y-40812411D01*
X7366732Y-40812476D01*
X7341422Y-40812500D01*
X7207960Y-40812500D01*
X7196402Y-40779768D01*
X7187695Y-40754578D01*
X7164030Y-40679455D01*
X7144403Y-40606109D01*
X7128807Y-40534631D01*
X7117234Y-40465109D01*
X7109674Y-40397632D01*
X7106119Y-40332290D01*
X7106561Y-40269172D01*
X7110990Y-40208367D01*
X7119399Y-40149964D01*
X7131779Y-40094052D01*
X7148121Y-40040721D01*
X7168416Y-39990060D01*
X7192657Y-39942158D01*
X7220834Y-39897104D01*
X7252940Y-39854987D01*
X7288964Y-39815898D01*
X7311910Y-39794506D01*
X7350990Y-39763441D01*
X7392552Y-39736712D01*
X7436651Y-39714284D01*
X7483345Y-39696121D01*
X7500956Y-39690495D01*
X7538823Y-39680288D01*
X7576633Y-39672865D01*
X7615530Y-39668066D01*
X7656657Y-39665731D01*
X7701157Y-39665701D01*
X7721007Y-39666324D01*
G37*
G36*
X7147979Y-42725922D02*
G01*
X7148065Y-42725936D01*
X7151535Y-42726470D01*
X7159722Y-42727707D01*
X7172422Y-42729619D01*
X7189431Y-42732173D01*
X7210541Y-42735339D01*
X7235549Y-42739087D01*
X7264253Y-42743385D01*
X7296445Y-42748206D01*
X7331921Y-42753516D01*
X7370476Y-42759285D01*
X7411906Y-42765483D01*
X7456006Y-42772079D01*
X7502571Y-42779043D01*
X7551396Y-42786344D01*
X7602276Y-42793951D01*
X7655008Y-42801834D01*
X7709386Y-42809963D01*
X7765205Y-42818306D01*
X7822260Y-42826833D01*
X7880348Y-42835514D01*
X7939261Y-42844318D01*
X7998799Y-42853214D01*
X8058754Y-42862171D01*
X8118921Y-42871160D01*
X8179096Y-42880150D01*
X8239075Y-42889109D01*
X8298652Y-42898008D01*
X8357623Y-42906815D01*
X8415784Y-42915501D01*
X8472927Y-42924034D01*
X8528851Y-42932385D01*
X8583349Y-42940522D01*
X8636218Y-42948414D01*
X8687252Y-42956032D01*
X8736246Y-42963345D01*
X8782997Y-42970322D01*
X8827298Y-42976932D01*
X8868945Y-42983145D01*
X8907734Y-42988930D01*
X8943460Y-42994258D01*
X8975918Y-42999097D01*
X9004903Y-43003415D01*
X9030210Y-43007184D01*
X9051637Y-43010372D01*
X9068974Y-43012949D01*
X9082021Y-43014883D01*
X9090571Y-43016147D01*
X9094419Y-43016707D01*
X9105045Y-43018179D01*
X9105045Y-43143594D01*
X9105045Y-43269011D01*
X8991909Y-43294737D01*
X8983914Y-43296557D01*
X8956707Y-43302747D01*
X8928304Y-43309216D01*
X8899716Y-43315730D01*
X8871956Y-43322062D01*
X8846037Y-43327978D01*
X8822969Y-43333249D01*
X8803766Y-43337642D01*
X8799925Y-43338520D01*
X8787083Y-43341456D01*
X8769823Y-43345395D01*
X8748474Y-43350264D01*
X8723366Y-43355989D01*
X8694825Y-43362494D01*
X8663177Y-43369705D01*
X8628753Y-43377547D01*
X8591879Y-43385946D01*
X8552881Y-43394827D01*
X8512090Y-43404115D01*
X8469833Y-43413735D01*
X8426437Y-43423614D01*
X8382230Y-43433674D01*
X8337541Y-43443846D01*
X8306882Y-43450826D01*
X8264444Y-43460498D01*
X8223497Y-43469842D01*
X8184301Y-43478800D01*
X8147117Y-43487310D01*
X8112205Y-43495312D01*
X8079826Y-43502747D01*
X8050239Y-43509555D01*
X8023705Y-43515675D01*
X8000485Y-43521049D01*
X7980840Y-43525617D01*
X7965029Y-43529316D01*
X7953313Y-43532090D01*
X7945953Y-43533875D01*
X7943208Y-43534614D01*
X7945346Y-43535281D01*
X7952127Y-43537009D01*
X7963321Y-43539745D01*
X7978697Y-43543436D01*
X7998024Y-43548026D01*
X8021069Y-43553464D01*
X8047604Y-43559695D01*
X8077394Y-43566666D01*
X8110209Y-43574324D01*
X8145818Y-43582616D01*
X8183988Y-43591487D01*
X8224488Y-43600884D01*
X8267089Y-43610754D01*
X8311557Y-43621044D01*
X8357661Y-43631699D01*
X8405170Y-43642667D01*
X8453851Y-43653894D01*
X8503475Y-43665326D01*
X8553809Y-43676910D01*
X8604622Y-43688593D01*
X8655682Y-43700321D01*
X8706758Y-43712041D01*
X8757619Y-43723698D01*
X8808033Y-43735241D01*
X8857768Y-43746615D01*
X8906593Y-43757767D01*
X8954279Y-43768643D01*
X9000590Y-43779190D01*
X9045297Y-43789354D01*
X9088169Y-43799082D01*
X9105045Y-43802908D01*
X9105038Y-43928329D01*
X9105030Y-44053751D01*
X8911894Y-44095608D01*
X8901291Y-44097906D01*
X8816106Y-44116369D01*
X8735691Y-44133798D01*
X8659941Y-44150216D01*
X8588753Y-44165646D01*
X8522020Y-44180111D01*
X8459640Y-44193633D01*
X8401506Y-44206235D01*
X8347516Y-44217940D01*
X8297563Y-44228770D01*
X8251544Y-44238748D01*
X8209354Y-44247896D01*
X8170888Y-44256238D01*
X8136043Y-44263796D01*
X8104712Y-44270592D01*
X8076793Y-44276650D01*
X8052180Y-44281993D01*
X8030769Y-44286640D01*
X8012455Y-44290618D01*
X7997133Y-44293948D01*
X7984700Y-44296652D01*
X7975050Y-44298754D01*
X7968079Y-44300276D01*
X7963683Y-44301241D01*
X7959136Y-44302238D01*
X7948669Y-44304526D01*
X7933807Y-44307764D01*
X7914735Y-44311913D01*
X7891642Y-44316933D01*
X7864710Y-44322784D01*
X7834125Y-44329425D01*
X7800075Y-44336816D01*
X7762743Y-44344918D01*
X7722315Y-44353689D01*
X7678979Y-44363091D01*
X7632918Y-44373081D01*
X7584318Y-44383620D01*
X7533367Y-44394668D01*
X7480247Y-44406185D01*
X7425146Y-44418130D01*
X7368249Y-44430465D01*
X7309742Y-44443146D01*
X7249811Y-44456137D01*
X7188640Y-44469396D01*
X7126416Y-44482880D01*
X7063325Y-44496553D01*
X6999551Y-44510372D01*
X6935281Y-44524298D01*
X6870700Y-44538291D01*
X6805994Y-44552310D01*
X6741348Y-44566315D01*
X6676949Y-44580266D01*
X6612981Y-44594123D01*
X6549631Y-44607846D01*
X6487083Y-44621393D01*
X6425524Y-44634726D01*
X6365141Y-44647803D01*
X6306116Y-44660586D01*
X6248636Y-44673032D01*
X6192888Y-44685103D01*
X6139056Y-44696757D01*
X6087328Y-44707956D01*
X6037887Y-44718658D01*
X5990920Y-44728823D01*
X5946612Y-44738411D01*
X5905149Y-44747382D01*
X5866717Y-44755696D01*
X5831501Y-44763313D01*
X5799686Y-44770191D01*
X5771462Y-44776292D01*
X5747007Y-44781574D01*
X5726513Y-44785998D01*
X5710162Y-44789523D01*
X5698142Y-44792109D01*
X5690637Y-44793716D01*
X5687834Y-44794304D01*
X5679707Y-44795654D01*
X5679708Y-44666908D01*
X5679708Y-44538162D01*
X5691585Y-44535775D01*
X5698142Y-44534444D01*
X5710404Y-44531930D01*
X5727061Y-44528496D01*
X5747954Y-44524175D01*
X5772922Y-44519002D01*
X5801805Y-44513009D01*
X5834443Y-44506229D01*
X5870676Y-44498698D01*
X5910343Y-44490447D01*
X5953284Y-44481511D01*
X5999340Y-44471921D01*
X6048349Y-44461714D01*
X6100152Y-44450921D01*
X6154589Y-44439576D01*
X6211499Y-44427713D01*
X6270723Y-44415365D01*
X6332099Y-44402566D01*
X6395468Y-44389348D01*
X6460670Y-44375746D01*
X6527544Y-44361793D01*
X6595931Y-44347522D01*
X6665669Y-44332968D01*
X6736600Y-44318162D01*
X6808562Y-44303140D01*
X6881397Y-44287934D01*
X6954942Y-44272577D01*
X7029038Y-44257104D01*
X7103525Y-44241547D01*
X7178243Y-44225941D01*
X7253032Y-44210317D01*
X7327732Y-44194712D01*
X7402181Y-44179156D01*
X7476220Y-44163685D01*
X7549690Y-44148331D01*
X7622429Y-44133128D01*
X7694277Y-44118109D01*
X7765075Y-44103310D01*
X7834662Y-44088759D01*
X7902878Y-44074494D01*
X7969563Y-44060548D01*
X8034556Y-44046953D01*
X8097696Y-44033743D01*
X8158827Y-44020952D01*
X8217785Y-44008613D01*
X8274411Y-43996760D01*
X8328544Y-43985425D01*
X8380025Y-43974644D01*
X8428693Y-43964448D01*
X8474388Y-43954871D01*
X8516950Y-43945947D01*
X8556219Y-43937710D01*
X8592034Y-43930192D01*
X8624236Y-43923428D01*
X8652663Y-43917450D01*
X8677157Y-43912292D01*
X8697557Y-43907989D01*
X8713702Y-43904573D01*
X8725432Y-43902077D01*
X8732588Y-43900535D01*
X8735009Y-43899980D01*
X8735008Y-43899978D01*
X8732526Y-43899312D01*
X8725380Y-43897653D01*
X8713795Y-43895049D01*
X8697992Y-43891548D01*
X8678197Y-43887198D01*
X8654633Y-43882049D01*
X8627523Y-43876147D01*
X8597090Y-43869544D01*
X8563559Y-43862284D01*
X8527153Y-43854419D01*
X8488095Y-43845995D01*
X8446609Y-43837060D01*
X8402919Y-43827667D01*
X8357247Y-43817859D01*
X8309819Y-43807688D01*
X8260856Y-43797200D01*
X8210582Y-43786444D01*
X8210332Y-43786391D01*
X8160019Y-43775631D01*
X8110992Y-43765141D01*
X8063475Y-43754971D01*
X8017694Y-43745167D01*
X7973875Y-43735779D01*
X7932242Y-43726854D01*
X7893021Y-43718442D01*
X7856437Y-43710591D01*
X7822716Y-43703348D01*
X7792083Y-43696763D01*
X7764762Y-43690884D01*
X7740980Y-43685759D01*
X7720962Y-43681436D01*
X7704933Y-43677965D01*
X7693117Y-43675393D01*
X7685741Y-43673768D01*
X7683031Y-43673140D01*
X7682562Y-43672548D01*
X7681925Y-43669885D01*
X7681393Y-43664813D01*
X7680954Y-43657008D01*
X7680603Y-43646146D01*
X7680332Y-43631904D01*
X7680135Y-43613958D01*
X7680002Y-43591983D01*
X7679929Y-43565656D01*
X7679905Y-43534654D01*
X7679915Y-43513990D01*
X7679970Y-43486062D01*
X7680081Y-43462599D01*
X7680255Y-43443278D01*
X7680499Y-43427775D01*
X7680821Y-43415766D01*
X7681228Y-43406928D01*
X7681727Y-43400935D01*
X7682325Y-43397466D01*
X7683031Y-43396195D01*
X7685399Y-43395650D01*
X7692460Y-43394110D01*
X7703975Y-43391628D01*
X7719719Y-43388253D01*
X7739466Y-43384032D01*
X7762988Y-43379014D01*
X7790061Y-43373247D01*
X7820457Y-43366779D01*
X7853949Y-43359657D01*
X7890312Y-43351932D01*
X7929320Y-43343650D01*
X7970744Y-43334860D01*
X8014359Y-43325609D01*
X8059940Y-43315946D01*
X8107259Y-43305919D01*
X8156090Y-43295576D01*
X8206207Y-43284966D01*
X8252745Y-43275111D01*
X8301692Y-43264740D01*
X8349148Y-43254677D01*
X8394886Y-43244972D01*
X8438680Y-43235673D01*
X8480304Y-43226827D01*
X8519530Y-43218484D01*
X8556130Y-43210691D01*
X8589879Y-43203496D01*
X8620550Y-43196950D01*
X8647916Y-43191098D01*
X8671750Y-43185991D01*
X8691826Y-43181676D01*
X8707918Y-43178201D01*
X8719795Y-43175615D01*
X8727235Y-43173968D01*
X8730009Y-43173304D01*
X8730273Y-43173192D01*
X8732507Y-43171826D01*
X8730009Y-43170912D01*
X8728661Y-43170734D01*
X8722633Y-43169996D01*
X8711954Y-43168711D01*
X8696814Y-43166904D01*
X8677399Y-43164592D01*
X8653896Y-43161802D01*
X8626495Y-43158554D01*
X8595382Y-43154871D01*
X8560746Y-43150775D01*
X8522775Y-43146289D01*
X8481656Y-43141431D01*
X8437578Y-43136229D01*
X8390727Y-43130701D01*
X8341293Y-43124872D01*
X8289462Y-43118762D01*
X8235424Y-43112394D01*
X8179364Y-43105791D01*
X8121473Y-43098974D01*
X8061936Y-43091966D01*
X8000943Y-43084789D01*
X7938681Y-43077464D01*
X7896451Y-43072496D01*
X7834996Y-43065264D01*
X7774927Y-43058192D01*
X7716432Y-43051301D01*
X7659700Y-43044615D01*
X7604919Y-43038155D01*
X7552277Y-43031945D01*
X7501964Y-43026005D01*
X7454166Y-43020359D01*
X7409074Y-43015029D01*
X7366875Y-43010037D01*
X7327758Y-43005405D01*
X7291910Y-43001156D01*
X7259522Y-42997312D01*
X7230781Y-42993896D01*
X7205874Y-42990928D01*
X7184994Y-42988433D01*
X7168325Y-42986432D01*
X7156057Y-42984948D01*
X7148378Y-42984003D01*
X7145478Y-42983617D01*
X7139852Y-42982404D01*
X7139852Y-42853424D01*
X7139852Y-42724443D01*
X7147979Y-42725922D01*
G37*
%TD*%
D20*
%TO.C,J5*%
X5565000Y-17145000D03*
X6465000Y-17145000D03*
X7365000Y-17145000D03*
X8265000Y-17145000D03*
X9165000Y-17145000D03*
X10515000Y-17145000D03*
X11415000Y-17145000D03*
X5565000Y-17895000D03*
X6465000Y-17895000D03*
X9615000Y-17895000D03*
X8715000Y-17895000D03*
X7815000Y-17895000D03*
X10515000Y-17895000D03*
X11415000Y-17895000D03*
D21*
X5440000Y-18950000D03*
D22*
X11540000Y-18950000D03*
D21*
X5440000Y-16090000D03*
D22*
X11540000Y-16090000D03*
%TD*%
D23*
%TO.C,J6*%
X20230000Y-105980000D03*
D24*
X17690000Y-105980000D03*
X20230000Y-103440000D03*
X17690000Y-103440000D03*
X20230000Y-100900000D03*
X17690000Y-100900000D03*
X20230000Y-98360000D03*
X17690000Y-98360000D03*
X20230000Y-95820000D03*
X17690000Y-95820000D03*
%TD*%
D25*
%TO.C,J10*%
X2065000Y-33600000D03*
X6965000Y-34200000D03*
X6965000Y-48700000D03*
X2065000Y-49300000D03*
%TD*%
D26*
%TO.C,H3*%
X23615000Y-47200000D03*
%TD*%
D20*
%TO.C,J7*%
X5498750Y-26005000D03*
X6398750Y-26005000D03*
X7298750Y-26005000D03*
X8198750Y-26005000D03*
X9098750Y-26005000D03*
X10448750Y-26005000D03*
X11348750Y-26005000D03*
X5498750Y-26755000D03*
X6398750Y-26755000D03*
X9548750Y-26755000D03*
X8648750Y-26755000D03*
X7748750Y-26755000D03*
X10448750Y-26755000D03*
X11348750Y-26755000D03*
D21*
X5373750Y-27810000D03*
D22*
X11473750Y-27810000D03*
D21*
X5373750Y-24950000D03*
D22*
X11473750Y-24950000D03*
%TD*%
D23*
%TO.C,J3*%
X6440000Y-68950000D03*
D24*
X6440000Y-66410000D03*
X6440000Y-63870000D03*
X6440000Y-61330000D03*
X6440000Y-58790000D03*
X6440000Y-56250000D03*
X3900000Y-68950000D03*
X3900000Y-66410000D03*
X3900000Y-63870000D03*
X3900000Y-61330000D03*
X3900000Y-58790000D03*
X3900000Y-56250000D03*
%TD*%
D27*
%TO.C,H1*%
X27082000Y-23758800D03*
X27565274Y-22592074D03*
X27565274Y-24925526D03*
X28732000Y-22108800D03*
D28*
X28732000Y-23758800D03*
D27*
X28732000Y-25408800D03*
X29898726Y-22592074D03*
X29898726Y-24925526D03*
X30382000Y-23758800D03*
%TD*%
D25*
%TO.C,SW3*%
X5340000Y-3450000D03*
X5340000Y-8450000D03*
X5340000Y-5950000D03*
X11590000Y-3450000D03*
X11590000Y-8450000D03*
%TD*%
D23*
%TO.C,J2*%
X6440000Y-91810000D03*
D24*
X6440000Y-89270000D03*
X6440000Y-86730000D03*
X6440000Y-84190000D03*
X6440000Y-81650000D03*
X6440000Y-79110000D03*
X3900000Y-91810000D03*
X3900000Y-89270000D03*
X3900000Y-86730000D03*
X3900000Y-84190000D03*
X3900000Y-81650000D03*
X3900000Y-79110000D03*
%TD*%
D29*
%TO.C,J8*%
X29640000Y-67434400D03*
D30*
X9640000Y-67434400D03*
%TD*%
D27*
%TO.C,H2*%
X27082000Y-88842074D03*
X27565274Y-87675348D03*
X27565274Y-90008800D03*
X28732000Y-87192074D03*
D28*
X28732000Y-88842074D03*
D27*
X28732000Y-90492074D03*
X29898726Y-87675348D03*
X29898726Y-90008800D03*
X30382000Y-88842074D03*
%TD*%
D31*
%TO.C,J4*%
X1090000Y-103507736D03*
X9190000Y-101507736D03*
X7290000Y-103507736D03*
X3590000Y-101507736D03*
X12890000Y-103507736D03*
%TD*%
D32*
%TO.C,D6*%
X1480000Y-2650000D03*
X2450000Y-2650000D03*
%TD*%
D33*
%TO.C,R49*%
X11858960Y-73873543D03*
X12580208Y-73152295D03*
%TD*%
D34*
%TO.C,R37*%
X9454893Y-79649130D03*
X8733645Y-80370378D03*
%TD*%
D35*
%TO.C,Y2*%
X11300798Y-87562359D03*
X13500798Y-87562359D03*
X13500798Y-89262359D03*
X11300798Y-89262359D03*
%TD*%
D32*
%TO.C,D16*%
X1500000Y-8340000D03*
X2470000Y-8340000D03*
%TD*%
%TO.C,D14*%
X1480000Y-4550000D03*
X2450000Y-4550000D03*
%TD*%
D36*
%TO.C,U6*%
X14133656Y-67837499D03*
X13183657Y-67837499D03*
X12233658Y-67837499D03*
X12233658Y-65562499D03*
X14133656Y-65562499D03*
%TD*%
D33*
%TO.C,R48*%
X14510724Y-77794791D03*
X15231972Y-77073543D03*
%TD*%
D32*
%TO.C,D10*%
X1487500Y-3600000D03*
X2457500Y-3600000D03*
%TD*%
%TO.C,D8*%
X1495000Y-6440000D03*
X2465000Y-6440000D03*
%TD*%
D37*
%TO.C,J1*%
X8800000Y-50100000D03*
X8800000Y-50600000D03*
X8800000Y-51100000D03*
X8800000Y-51600000D03*
X8800000Y-52100000D03*
X8800000Y-52600000D03*
X8800000Y-53100000D03*
X8800000Y-53600000D03*
X8800000Y-54100000D03*
X8800000Y-54600000D03*
X8800000Y-55100000D03*
X8800000Y-55600000D03*
X8800000Y-56100000D03*
X8800000Y-56600000D03*
D38*
X10700000Y-48150000D03*
X10700000Y-58550000D03*
%TD*%
D39*
%TO.C,RN4*%
X9110000Y-7690000D03*
D40*
X9110000Y-8190000D03*
X9110000Y-8690000D03*
D39*
X9110000Y-9190000D03*
X8110000Y-9190000D03*
D40*
X8110000Y-8690000D03*
X8110000Y-8190000D03*
D39*
X8110000Y-7690000D03*
%TD*%
D33*
%TO.C,R36*%
X8380646Y-79392067D03*
X9101894Y-78670819D03*
%TD*%
D41*
%TO.C,U4*%
X22195000Y-90290000D03*
X19655000Y-90290000D03*
X17115000Y-90290000D03*
X17115000Y-81400000D03*
X19655000Y-81400000D03*
X22195000Y-81400000D03*
%TD*%
D32*
%TO.C,D12*%
X1500000Y-7390000D03*
X2470000Y-7390000D03*
%TD*%
D33*
%TO.C,R47*%
X15213992Y-78478524D03*
X15935240Y-77757276D03*
%TD*%
D39*
%TO.C,RN2*%
X9040000Y-2690000D03*
D40*
X9040000Y-3190000D03*
X9040000Y-3690000D03*
D39*
X9040000Y-4190000D03*
X8040000Y-4190000D03*
D40*
X8040000Y-3690000D03*
X8040000Y-3190000D03*
D39*
X8040000Y-2690000D03*
%TD*%
D42*
%TO.C,U11*%
X13204508Y-85438856D03*
X12704508Y-85438856D03*
X12204508Y-85438856D03*
X11704508Y-85438856D03*
X11204508Y-85438856D03*
X11204508Y-81213856D03*
X11704508Y-81213856D03*
X12204508Y-81213856D03*
X12704508Y-81213856D03*
X13204508Y-81213856D03*
%TD*%
D43*
%TO.C,R34*%
X8872338Y-72953827D03*
X8872338Y-71933827D03*
%TD*%
D32*
%TO.C,D20*%
X1500000Y-9290000D03*
X2470000Y-9290000D03*
%TD*%
D43*
%TO.C,R45*%
X12183657Y-70709998D03*
X12183657Y-69690000D03*
%TD*%
%TO.C,R35*%
X7933657Y-72949999D03*
X7933657Y-71929999D03*
%TD*%
D32*
%TO.C,D18*%
X1487500Y-5500000D03*
X2457500Y-5500000D03*
%TD*%
D44*
%TO.C,R46*%
X13683657Y-63949999D03*
X14703655Y-63949999D03*
%TD*%
D45*
%TO.C,C36*%
X14433657Y-84469999D03*
X14433657Y-85429999D03*
%TD*%
%LPD*%
M02*
