%TF.GenerationSoftware,KiCad,Pcbnew,8.0.7*%
%TF.CreationDate,2025-01-05T12:24:48+01:00*%
%TF.ProjectId,tiliqua-motherboard,74696c69-7175-4612-9d6d-6f7468657262,rev?*%
%TF.SameCoordinates,Original*%
%TF.FileFunction,Soldermask,Bot*%
%TF.FilePolarity,Negative*%
%FSLAX46Y46*%
G04 Gerber Fmt 4.6, Leading zero omitted, Abs format (unit mm)*
G04 Created by KiCad (PCBNEW 8.0.7) date 2025-01-05 12:24:48*
%MOMM*%
%LPD*%
G01*
G04 APERTURE LIST*
G04 Aperture macros list*
%AMRoundRect*
0 Rectangle with rounded corners*
0 $1 Rounding radius*
0 $2 $3 $4 $5 $6 $7 $8 $9 X,Y pos of 4 corners*
0 Add a 4 corners polygon primitive as box body*
4,1,4,$2,$3,$4,$5,$6,$7,$8,$9,$2,$3,0*
0 Add four circle primitives for the rounded corners*
1,1,$1+$1,$2,$3*
1,1,$1+$1,$4,$5*
1,1,$1+$1,$6,$7*
1,1,$1+$1,$8,$9*
0 Add four rect primitives between the rounded corners*
20,1,$1+$1,$2,$3,$4,$5,0*
20,1,$1+$1,$4,$5,$6,$7,0*
20,1,$1+$1,$6,$7,$8,$9,0*
20,1,$1+$1,$8,$9,$2,$3,0*%
G04 Aperture macros list end*
%ADD10C,0.250000*%
%ADD11C,0.010000*%
%ADD12C,0.300000*%
%ADD13C,0.000000*%
%ADD14C,0.600000*%
%ADD15O,1.600000X1.000000*%
%ADD16O,2.000000X1.000000*%
%ADD17R,1.700000X1.700000*%
%ADD18O,1.700000X1.700000*%
%ADD19C,1.800000*%
%ADD20C,6.400000*%
%ADD21C,0.700000*%
%ADD22C,4.400000*%
%ADD23C,1.100000*%
%ADD24C,1.600000*%
%ADD25O,1.500000X3.500000*%
%ADD26RoundRect,0.147500X-0.147500X-0.172500X0.147500X-0.172500X0.147500X0.172500X-0.147500X0.172500X0*%
%ADD27RoundRect,0.135000X0.035355X-0.226274X0.226274X-0.035355X-0.035355X0.226274X-0.226274X0.035355X0*%
%ADD28RoundRect,0.135000X-0.035355X0.226274X-0.226274X0.035355X0.035355X-0.226274X0.226274X-0.035355X0*%
%ADD29R,1.400000X1.200000*%
%ADD30RoundRect,0.150000X0.150000X-0.512500X0.150000X0.512500X-0.150000X0.512500X-0.150000X-0.512500X0*%
%ADD31R,1.800000X0.300000*%
%ADD32R,3.200000X2.500000*%
%ADD33R,0.500000X0.400000*%
%ADD34R,0.500000X0.300000*%
%ADD35R,1.600000X3.100000*%
%ADD36RoundRect,0.087500X0.087500X-0.725000X0.087500X0.725000X-0.087500X0.725000X-0.087500X-0.725000X0*%
%ADD37RoundRect,0.135000X0.185000X-0.135000X0.185000X0.135000X-0.185000X0.135000X-0.185000X-0.135000X0*%
%ADD38RoundRect,0.135000X-0.135000X-0.185000X0.135000X-0.185000X0.135000X0.185000X-0.135000X0.185000X0*%
%ADD39RoundRect,0.140000X-0.170000X0.140000X-0.170000X-0.140000X0.170000X-0.140000X0.170000X0.140000X0*%
G04 APERTURE END LIST*
D10*
X22333657Y-17499999D02*
X22333657Y-15399999D01*
D11*
X14040504Y-43486276D02*
X16386617Y-43486276D01*
X16386617Y-48412814D01*
X14040504Y-48412814D01*
X14040504Y-43486276D01*
G36*
X14040504Y-43486276D02*
G01*
X16386617Y-43486276D01*
X16386617Y-48412814D01*
X14040504Y-48412814D01*
X14040504Y-43486276D01*
G37*
X375367Y-77386701D02*
X1971480Y-77386701D01*
X1971480Y-96063239D01*
X375367Y-96063239D01*
X375367Y-77386701D01*
G36*
X375367Y-77386701D02*
G01*
X1971480Y-77386701D01*
X1971480Y-96063239D01*
X375367Y-96063239D01*
X375367Y-77386701D01*
G37*
X337544Y-18773461D02*
X1683657Y-18773461D01*
X1683657Y-30949999D01*
X337544Y-30949999D01*
X337544Y-18773461D01*
G36*
X337544Y-18773461D02*
G01*
X1683657Y-18773461D01*
X1683657Y-30949999D01*
X337544Y-30949999D01*
X337544Y-18773461D01*
G37*
X26947773Y-80161731D02*
X28940000Y-80161731D01*
X28940000Y-81398957D01*
X26947773Y-81398957D01*
X26947773Y-80161731D01*
G36*
X26947773Y-80161731D02*
G01*
X28940000Y-80161731D01*
X28940000Y-81398957D01*
X26947773Y-81398957D01*
X26947773Y-80161731D01*
G37*
X433657Y-449999D02*
X2771926Y-449999D01*
X2771926Y-2046112D01*
X433657Y-2046112D01*
X433657Y-449999D01*
G36*
X433657Y-449999D02*
G01*
X2771926Y-449999D01*
X2771926Y-2046112D01*
X433657Y-2046112D01*
X433657Y-449999D01*
G37*
X19496544Y-55658743D02*
X22688771Y-55658743D01*
X22688771Y-58835281D01*
X19496544Y-58835281D01*
X19496544Y-55658743D01*
G36*
X19496544Y-55658743D02*
G01*
X22688771Y-55658743D01*
X22688771Y-58835281D01*
X19496544Y-58835281D01*
X19496544Y-55658743D01*
G37*
X337544Y-57023461D02*
X1433657Y-57023461D01*
X1433657Y-69199999D01*
X337544Y-69199999D01*
X337544Y-57023461D01*
G36*
X337544Y-57023461D02*
G01*
X1433657Y-57023461D01*
X1433657Y-69199999D01*
X337544Y-69199999D01*
X337544Y-57023461D01*
G37*
D10*
X22333657Y-28699999D02*
X22333657Y-26599999D01*
D11*
X344782Y-35537990D02*
X2690895Y-35537990D01*
X2690895Y-47714528D01*
X344782Y-47714528D01*
X344782Y-35537990D01*
G36*
X344782Y-35537990D02*
G01*
X2690895Y-35537990D01*
X2690895Y-47714528D01*
X344782Y-47714528D01*
X344782Y-35537990D01*
G37*
D12*
G36*
X30991509Y-10756685D02*
G01*
X30978943Y-10686759D01*
X30941244Y-10630168D01*
X30880769Y-10591214D01*
X30815068Y-10580244D01*
X29227441Y-10580244D01*
X29157514Y-10592725D01*
X29100923Y-10630168D01*
X29061969Y-10690738D01*
X29051000Y-10756685D01*
X29051000Y-11076057D01*
X29223337Y-11076057D01*
X29223337Y-10829177D01*
X29268366Y-10777004D01*
X29282151Y-10776176D01*
X30760016Y-10776176D01*
X30817393Y-10813908D01*
X30818829Y-10829177D01*
X30818829Y-11076057D01*
X30991509Y-11076057D01*
X30991509Y-10756685D01*
G37*
G36*
X30272610Y-11198273D02*
G01*
X30343760Y-11212251D01*
X30409527Y-11244976D01*
X30430089Y-11260852D01*
X30479045Y-11313922D01*
X30513135Y-11374571D01*
X30530160Y-11422133D01*
X30544193Y-11491104D01*
X30548355Y-11559902D01*
X30547911Y-11584250D01*
X30540345Y-11654891D01*
X30519974Y-11720272D01*
X30499209Y-11758642D01*
X30452612Y-11812596D01*
X30442936Y-11820215D01*
X30383882Y-11859784D01*
X30383882Y-11889191D01*
X30389695Y-11889191D01*
X30428509Y-11894282D01*
X30485780Y-11932275D01*
X30509856Y-11974817D01*
X30521000Y-12043747D01*
X30521000Y-12194885D01*
X30352423Y-12194885D01*
X30352423Y-12112477D01*
X30350987Y-12096716D01*
X30293609Y-12057767D01*
X29895591Y-12057767D01*
X29884663Y-12057661D01*
X29812543Y-12051014D01*
X29739496Y-12030754D01*
X29676450Y-11996987D01*
X29623407Y-11949714D01*
X29611772Y-11935936D01*
X29572737Y-11874547D01*
X29545713Y-11803114D01*
X29531920Y-11732370D01*
X29527322Y-11653936D01*
X29530432Y-11588275D01*
X29542682Y-11515664D01*
X29566645Y-11446036D01*
X29579436Y-11419943D01*
X29618397Y-11359916D01*
X29669569Y-11307893D01*
X29685699Y-11295342D01*
X29745772Y-11258401D01*
X29811474Y-11232324D01*
X29872339Y-11420733D01*
X29867453Y-11421859D01*
X29801130Y-11447490D01*
X29744796Y-11492882D01*
X29728178Y-11515246D01*
X29702775Y-11580798D01*
X29695898Y-11651884D01*
X29696694Y-11677524D01*
X29710277Y-11748974D01*
X29746847Y-11808835D01*
X29750064Y-11811969D01*
X29810342Y-11848589D01*
X29881914Y-11859784D01*
X29944831Y-11859784D01*
X29944831Y-11577341D01*
X30101439Y-11577341D01*
X30101439Y-11859784D01*
X30121272Y-11859784D01*
X30192097Y-11852504D01*
X30258358Y-11827681D01*
X30312416Y-11785241D01*
X30351936Y-11728457D01*
X30375051Y-11660602D01*
X30381830Y-11589309D01*
X30381792Y-11583832D01*
X30373265Y-11514792D01*
X30342849Y-11450140D01*
X30306384Y-11417152D01*
X30236847Y-11399191D01*
X30191407Y-11406067D01*
X30135975Y-11448088D01*
X30109028Y-11508920D01*
X30101439Y-11577341D01*
X29944831Y-11577341D01*
X29944831Y-11565715D01*
X29946925Y-11514125D01*
X29957921Y-11442029D01*
X29978341Y-11376281D01*
X29987140Y-11356053D01*
X30025933Y-11293838D01*
X30077161Y-11244976D01*
X30107521Y-11226323D01*
X30172584Y-11203836D01*
X30242660Y-11197104D01*
X30272610Y-11198273D01*
G37*
G36*
X30912863Y-12591535D02*
G01*
X30389695Y-12591535D01*
X30389695Y-12622994D01*
X30413971Y-12639243D01*
X30465263Y-12685569D01*
X30494491Y-12724820D01*
X30524761Y-12789519D01*
X30530291Y-12806135D01*
X30544461Y-12876630D01*
X30548355Y-12948179D01*
X30548125Y-12963318D01*
X30540084Y-13036688D01*
X30520556Y-13106184D01*
X30489541Y-13171807D01*
X30478060Y-13190550D01*
X30433233Y-13247771D01*
X30378323Y-13296912D01*
X30320281Y-13334229D01*
X30269602Y-13357945D01*
X30197952Y-13379878D01*
X30128132Y-13391290D01*
X30052542Y-13395094D01*
X30023135Y-13395094D01*
X29966018Y-13392918D01*
X29894873Y-13383248D01*
X29821681Y-13363121D01*
X29755738Y-13333203D01*
X29742092Y-13325356D01*
X29679955Y-13281511D01*
X29627970Y-13229987D01*
X29586136Y-13170782D01*
X29579014Y-13158091D01*
X29550296Y-13092194D01*
X29533065Y-13022223D01*
X29527322Y-12948179D01*
X29527372Y-12939438D01*
X29530753Y-12889365D01*
X29705473Y-12889365D01*
X29706215Y-12913579D01*
X29717350Y-12981352D01*
X29745393Y-13048091D01*
X29789932Y-13105813D01*
X29823964Y-13134865D01*
X29884344Y-13167172D01*
X29955922Y-13185955D01*
X30028948Y-13191298D01*
X30046729Y-13191298D01*
X30093907Y-13189236D01*
X30162066Y-13177359D01*
X30227964Y-13151378D01*
X30287796Y-13106839D01*
X30302829Y-13090634D01*
X30342259Y-13030367D01*
X30365260Y-12960483D01*
X30371914Y-12889365D01*
X30371585Y-12873379D01*
X30360085Y-12798580D01*
X30332155Y-12732329D01*
X30287796Y-12674627D01*
X30253588Y-12645691D01*
X30192763Y-12613513D01*
X30120524Y-12594805D01*
X30046729Y-12589484D01*
X30028948Y-12589484D01*
X29982270Y-12591562D01*
X29914774Y-12603536D01*
X29849417Y-12629727D01*
X29789932Y-12674627D01*
X29774838Y-12691040D01*
X29735248Y-12751307D01*
X29712153Y-12820122D01*
X29705473Y-12889365D01*
X29530753Y-12889365D01*
X29532297Y-12866507D01*
X29547224Y-12797592D01*
X29578271Y-12731731D01*
X29587944Y-12717898D01*
X29636265Y-12662247D01*
X29693847Y-12618891D01*
X29693847Y-12587774D01*
X29554677Y-12587774D01*
X29554677Y-12389791D01*
X30912863Y-12389791D01*
X30912863Y-12591535D01*
G37*
G36*
X30521000Y-13784222D02*
G01*
X29725305Y-13784222D01*
X29725305Y-13513747D01*
X29554677Y-13513747D01*
X29554677Y-13784222D01*
X29343016Y-13784222D01*
X29272630Y-13794301D01*
X29212323Y-13827470D01*
X29202137Y-13836881D01*
X29164094Y-13894308D01*
X29149602Y-13961870D01*
X29149136Y-13978102D01*
X29149136Y-14227034D01*
X29319422Y-14227034D01*
X29319422Y-14042729D01*
X29361293Y-13987352D01*
X29378236Y-13985967D01*
X29554677Y-13985967D01*
X29554677Y-14264306D01*
X29725305Y-14264306D01*
X29725305Y-13985967D01*
X30521000Y-13985967D01*
X30521000Y-13784222D01*
G37*
G36*
X30548355Y-14467076D02*
G01*
X30534182Y-14396896D01*
X30503561Y-14352184D01*
X30444668Y-14315135D01*
X30387643Y-14306364D01*
X30320232Y-14319296D01*
X30273093Y-14352184D01*
X30237426Y-14411257D01*
X30228983Y-14467076D01*
X30243264Y-14537148D01*
X30274119Y-14581626D01*
X30332254Y-14618952D01*
X30387643Y-14627788D01*
X30455610Y-14614760D01*
X30503561Y-14581626D01*
X30539781Y-14522830D01*
X30548355Y-14467076D01*
G37*
G36*
X30272610Y-14824204D02*
G01*
X30343760Y-14838183D01*
X30409527Y-14870907D01*
X30430089Y-14886784D01*
X30479045Y-14939854D01*
X30513135Y-15000503D01*
X30530160Y-15048065D01*
X30544193Y-15117035D01*
X30548355Y-15185834D01*
X30547911Y-15210181D01*
X30540345Y-15280823D01*
X30519974Y-15346204D01*
X30499209Y-15384574D01*
X30452612Y-15438528D01*
X30442936Y-15446147D01*
X30383882Y-15485715D01*
X30383882Y-15515122D01*
X30389695Y-15515122D01*
X30428509Y-15520213D01*
X30485780Y-15558207D01*
X30509856Y-15600749D01*
X30521000Y-15669679D01*
X30521000Y-15820817D01*
X30352423Y-15820817D01*
X30352423Y-15738409D01*
X30350987Y-15722648D01*
X30293609Y-15683699D01*
X29895591Y-15683699D01*
X29884663Y-15683593D01*
X29812543Y-15676945D01*
X29739496Y-15656685D01*
X29676450Y-15622919D01*
X29623407Y-15575646D01*
X29611772Y-15561868D01*
X29572737Y-15500479D01*
X29545713Y-15429045D01*
X29531920Y-15358302D01*
X29527322Y-15279868D01*
X29530432Y-15214207D01*
X29542682Y-15141596D01*
X29566645Y-15071968D01*
X29579436Y-15045875D01*
X29618397Y-14985847D01*
X29669569Y-14933824D01*
X29685699Y-14921274D01*
X29745772Y-14884332D01*
X29811474Y-14858255D01*
X29872339Y-15046664D01*
X29867453Y-15047791D01*
X29801130Y-15073421D01*
X29744796Y-15118814D01*
X29728178Y-15141177D01*
X29702775Y-15206730D01*
X29695898Y-15277816D01*
X29696694Y-15303456D01*
X29710277Y-15374905D01*
X29746847Y-15434766D01*
X29750064Y-15437901D01*
X29810342Y-15474521D01*
X29881914Y-15485715D01*
X29944831Y-15485715D01*
X29944831Y-15203273D01*
X30101439Y-15203273D01*
X30101439Y-15485715D01*
X30121272Y-15485715D01*
X30192097Y-15478436D01*
X30258358Y-15453612D01*
X30312416Y-15411172D01*
X30351936Y-15354389D01*
X30375051Y-15286534D01*
X30381830Y-15215241D01*
X30381792Y-15209763D01*
X30373265Y-15140724D01*
X30342849Y-15076071D01*
X30306384Y-15043084D01*
X30236847Y-15025122D01*
X30191407Y-15031998D01*
X30135975Y-15074020D01*
X30109028Y-15134852D01*
X30101439Y-15203273D01*
X29944831Y-15203273D01*
X29944831Y-15191647D01*
X29946925Y-15140057D01*
X29957921Y-15067961D01*
X29978341Y-15002212D01*
X29987140Y-14981984D01*
X30025933Y-14919770D01*
X30077161Y-14870907D01*
X30107521Y-14852254D01*
X30172584Y-14829768D01*
X30242660Y-14823036D01*
X30272610Y-14824204D01*
G37*
G36*
X30538780Y-16361424D02*
G01*
X30533002Y-16288750D01*
X30515669Y-16221652D01*
X30489883Y-16165492D01*
X30447231Y-16106059D01*
X30393135Y-16057012D01*
X30350713Y-16030084D01*
X30284490Y-16002245D01*
X30217063Y-15986964D01*
X30142758Y-15981234D01*
X30134949Y-15981186D01*
X29554677Y-15981186D01*
X29554677Y-16182931D01*
X30121272Y-16182931D01*
X30193293Y-16189042D01*
X30262792Y-16212507D01*
X30306603Y-16245506D01*
X30345125Y-16304696D01*
X30363254Y-16373658D01*
X30366101Y-16420237D01*
X30357986Y-16492679D01*
X30330316Y-16561489D01*
X30283009Y-16618904D01*
X30223684Y-16658755D01*
X30158015Y-16682001D01*
X30089878Y-16692628D01*
X30042625Y-16694473D01*
X29554677Y-16694473D01*
X29554677Y-16896560D01*
X30521000Y-16896560D01*
X30521000Y-16698577D01*
X30376017Y-16698577D01*
X30376017Y-16667118D01*
X30433121Y-16628906D01*
X30480282Y-16577659D01*
X30486806Y-16568981D01*
X30518478Y-16506775D01*
X30534669Y-16433278D01*
X30538780Y-16361424D01*
G37*
G36*
X30109775Y-17148340D02*
G01*
X30181038Y-17157957D01*
X30254311Y-17177972D01*
X30320281Y-17207725D01*
X30333885Y-17215618D01*
X30395855Y-17259769D01*
X30447740Y-17311735D01*
X30489541Y-17371514D01*
X30496663Y-17384321D01*
X30525381Y-17450438D01*
X30542611Y-17520029D01*
X30548355Y-17593092D01*
X30548305Y-17601853D01*
X30543379Y-17674910D01*
X30528453Y-17743839D01*
X30497406Y-17809540D01*
X30487751Y-17823372D01*
X30439991Y-17879023D01*
X30383882Y-17922380D01*
X30383882Y-17953838D01*
X30521000Y-17953838D01*
X30521000Y-18151821D01*
X29149136Y-18151821D01*
X29149136Y-17949735D01*
X29685982Y-17949735D01*
X29685982Y-17918276D01*
X29661886Y-17902909D01*
X29610755Y-17855701D01*
X29581294Y-17815413D01*
X29550916Y-17750726D01*
X29545386Y-17734350D01*
X29531216Y-17664471D01*
X29530419Y-17649854D01*
X29705473Y-17649854D01*
X29706215Y-17674425D01*
X29717350Y-17742947D01*
X29745393Y-17809946D01*
X29789932Y-17867327D01*
X29817947Y-17891659D01*
X29884344Y-17927950D01*
X29955922Y-17946508D01*
X30028948Y-17951787D01*
X30046729Y-17951787D01*
X30093907Y-17949700D01*
X30162066Y-17937678D01*
X30227964Y-17911382D01*
X30287796Y-17866302D01*
X30302829Y-17849932D01*
X30342259Y-17789504D01*
X30365260Y-17720061D01*
X30371914Y-17649854D01*
X30371585Y-17633868D01*
X30360085Y-17559068D01*
X30332155Y-17492818D01*
X30287796Y-17435115D01*
X30253588Y-17406180D01*
X30192763Y-17374002D01*
X30120524Y-17355294D01*
X30046729Y-17349972D01*
X30028948Y-17349972D01*
X29982270Y-17352051D01*
X29914774Y-17364024D01*
X29849417Y-17390216D01*
X29789932Y-17435115D01*
X29774838Y-17451528D01*
X29735248Y-17511795D01*
X29712153Y-17580611D01*
X29705473Y-17649854D01*
X29530419Y-17649854D01*
X29527322Y-17593092D01*
X29527552Y-17577993D01*
X29535593Y-17504743D01*
X29555121Y-17435233D01*
X29586136Y-17369463D01*
X29597629Y-17350717D01*
X29642669Y-17293443D01*
X29698060Y-17244182D01*
X29756764Y-17206699D01*
X29807611Y-17183116D01*
X29879093Y-17161307D01*
X29948400Y-17149959D01*
X30023135Y-17146176D01*
X30052542Y-17146176D01*
X30109775Y-17148340D01*
G37*
G36*
X30521000Y-18448967D02*
G01*
X29554677Y-18448967D01*
X29554677Y-18650712D01*
X30521000Y-18650712D01*
X30521000Y-18448967D01*
G37*
G36*
X29423372Y-18550523D02*
G01*
X29407026Y-18481283D01*
X29385417Y-18451361D01*
X29325432Y-18416081D01*
X29286254Y-18411354D01*
X29219122Y-18426982D01*
X29187434Y-18451361D01*
X29153662Y-18512271D01*
X29149136Y-18550523D01*
X29164096Y-18618057D01*
X29187434Y-18650370D01*
X29247116Y-18685046D01*
X29286254Y-18689693D01*
X29353520Y-18674332D01*
X29385417Y-18650370D01*
X29418887Y-18589782D01*
X29423372Y-18550523D01*
G37*
G36*
X30108417Y-18904652D02*
G01*
X30178429Y-18914750D01*
X30251062Y-18935766D01*
X30317203Y-18967006D01*
X30350876Y-18988379D01*
X30405093Y-19032783D01*
X30451086Y-19084814D01*
X30488857Y-19144473D01*
X30509077Y-19187918D01*
X30531563Y-19257323D01*
X30544636Y-19331814D01*
X30548355Y-19402296D01*
X30546902Y-19446835D01*
X30536966Y-19523134D01*
X30517618Y-19594457D01*
X30488857Y-19660803D01*
X30468888Y-19695184D01*
X30426549Y-19751011D01*
X30375988Y-19799048D01*
X30317203Y-19839295D01*
X30266321Y-19864477D01*
X30195131Y-19887765D01*
X30126401Y-19899883D01*
X30052542Y-19903922D01*
X30023135Y-19903922D01*
X29967296Y-19901650D01*
X29897444Y-19891552D01*
X29825145Y-19870536D01*
X29759499Y-19839295D01*
X29726105Y-19817897D01*
X29672180Y-19773322D01*
X29626208Y-19720957D01*
X29588187Y-19660803D01*
X29567503Y-19617125D01*
X29544500Y-19547462D01*
X29531126Y-19472821D01*
X29527322Y-19402296D01*
X29707524Y-19402296D01*
X29708276Y-19427158D01*
X29719546Y-19496191D01*
X29747929Y-19563123D01*
X29793009Y-19619770D01*
X29821219Y-19643510D01*
X29887256Y-19678920D01*
X29957653Y-19697027D01*
X30028948Y-19702177D01*
X30046729Y-19702177D01*
X30083407Y-19700874D01*
X30158471Y-19688408D01*
X30223203Y-19662742D01*
X30283009Y-19618744D01*
X30298225Y-19602664D01*
X30338136Y-19542772D01*
X30361417Y-19473195D01*
X30368152Y-19402296D01*
X30367404Y-19378097D01*
X30356179Y-19310549D01*
X30327909Y-19244378D01*
X30283009Y-19187558D01*
X30254701Y-19163522D01*
X30188517Y-19127671D01*
X30118045Y-19109339D01*
X30046729Y-19104124D01*
X30028948Y-19104124D01*
X29992275Y-19105428D01*
X29917262Y-19117894D01*
X29852635Y-19143560D01*
X29793009Y-19187558D01*
X29777732Y-19203622D01*
X29737661Y-19263248D01*
X29714286Y-19332224D01*
X29707524Y-19402296D01*
X29527322Y-19402296D01*
X29528808Y-19357774D01*
X29538972Y-19281588D01*
X29558765Y-19210488D01*
X29588187Y-19144473D01*
X29608328Y-19110388D01*
X29650766Y-19054966D01*
X29701157Y-19007173D01*
X29759499Y-18967006D01*
X29809982Y-18941825D01*
X29880802Y-18918536D01*
X29949340Y-18906419D01*
X30023135Y-18902380D01*
X30052542Y-18902380D01*
X30108417Y-18904652D01*
G37*
G36*
X30991509Y-20022233D02*
G01*
X30818829Y-20022233D01*
X30818829Y-20271165D01*
X30773800Y-20323338D01*
X30760016Y-20324166D01*
X29282151Y-20324166D01*
X29224773Y-20286434D01*
X29223337Y-20271165D01*
X29223337Y-20022233D01*
X29051000Y-20022233D01*
X29051000Y-20341947D01*
X29063480Y-20413156D01*
X29100923Y-20470175D01*
X29161494Y-20509128D01*
X29227441Y-20520098D01*
X30815068Y-20520098D01*
X30884738Y-20507617D01*
X30941244Y-20470175D01*
X30980464Y-20409121D01*
X30991509Y-20341947D01*
X30991509Y-20022233D01*
G37*
D10*
G36*
X23748657Y-26968945D02*
G01*
X23362264Y-26968945D01*
X23362264Y-27267166D01*
X23363340Y-27285041D01*
X23384735Y-27330181D01*
X23396825Y-27338836D01*
X23444818Y-27349964D01*
X23748657Y-27349964D01*
X23748657Y-27502372D01*
X23423814Y-27502372D01*
X23372444Y-27495288D01*
X23329536Y-27470132D01*
X23304073Y-27432824D01*
X23293632Y-27384891D01*
X23271162Y-27384891D01*
X23257988Y-27415208D01*
X23230499Y-27456217D01*
X23193737Y-27491869D01*
X23186662Y-27497223D01*
X23142602Y-27520492D01*
X23094985Y-27532580D01*
X23045970Y-27536077D01*
X23030338Y-27536077D01*
X22986503Y-27533025D01*
X22937755Y-27521003D01*
X22890631Y-27497487D01*
X22859685Y-27473464D01*
X22825155Y-27433799D01*
X22800262Y-27389776D01*
X22794631Y-27376581D01*
X22779862Y-27329869D01*
X22771246Y-27278960D01*
X22768754Y-27229552D01*
X22768754Y-27212700D01*
X22905774Y-27212700D01*
X22907761Y-27246970D01*
X22920412Y-27297128D01*
X22947296Y-27339217D01*
X22963831Y-27354241D01*
X23010627Y-27377209D01*
X23059892Y-27383425D01*
X23071127Y-27383425D01*
X23092681Y-27382328D01*
X23141855Y-27369206D01*
X23183723Y-27338485D01*
X23203676Y-27310464D01*
X23220122Y-27264148D01*
X23225000Y-27212700D01*
X23225000Y-26968945D01*
X22905774Y-26968945D01*
X22905774Y-27212700D01*
X22768754Y-27212700D01*
X22768754Y-26817759D01*
X23748657Y-26817759D01*
X23748657Y-26968945D01*
G37*
G36*
X23548377Y-28135938D02*
G01*
X23748657Y-28135938D01*
X23748657Y-28282972D01*
X23548377Y-28282972D01*
X23548377Y-28448324D01*
X23418196Y-28448324D01*
X23418196Y-28282972D01*
X22768754Y-28282972D01*
X22768754Y-28113712D01*
X22861078Y-28113712D01*
X22861078Y-28135938D01*
X23418196Y-28135938D01*
X23418196Y-27783251D01*
X23398657Y-27783251D01*
X22861078Y-28113712D01*
X22768754Y-28113712D01*
X22768754Y-28015526D01*
X23377652Y-27640369D01*
X23548377Y-27640369D01*
X23548377Y-28135938D01*
G37*
G36*
X24028559Y-28469818D02*
G01*
X22768754Y-28881367D01*
X22768754Y-29025714D01*
X24028559Y-28614165D01*
X24028559Y-28469818D01*
G37*
G36*
X23425138Y-29090069D02*
G01*
X23480148Y-29096503D01*
X23530329Y-29107886D01*
X23584170Y-29128079D01*
X23631056Y-29155399D01*
X23670987Y-29189846D01*
X23693771Y-29216331D01*
X23722250Y-29260123D01*
X23743894Y-29308792D01*
X23758703Y-29362338D01*
X23765823Y-29410686D01*
X23768196Y-29462421D01*
X23767342Y-29494084D01*
X23762120Y-29544089D01*
X23749590Y-29599530D01*
X23730224Y-29649991D01*
X23704023Y-29695472D01*
X23670987Y-29735973D01*
X23638195Y-29765244D01*
X23592468Y-29793820D01*
X23539786Y-29815252D01*
X23490571Y-29827655D01*
X23436526Y-29835097D01*
X23377652Y-29837578D01*
X23139759Y-29837578D01*
X23093212Y-29835990D01*
X23039095Y-29829540D01*
X22989499Y-29818130D01*
X22935950Y-29797888D01*
X22888909Y-29770502D01*
X22848377Y-29735973D01*
X22825079Y-29709526D01*
X22795956Y-29665705D01*
X22773822Y-29616904D01*
X22758678Y-29563123D01*
X22751397Y-29514501D01*
X22748971Y-29462421D01*
X22880617Y-29462421D01*
X22882210Y-29494917D01*
X22893100Y-29547552D01*
X22914306Y-29592651D01*
X22945830Y-29630215D01*
X22981780Y-29656609D01*
X23030507Y-29677288D01*
X23081183Y-29687657D01*
X23131211Y-29690543D01*
X23383269Y-29690543D01*
X23426526Y-29688568D01*
X23478298Y-29679791D01*
X23528476Y-29661523D01*
X23570115Y-29634368D01*
X23592692Y-29611281D01*
X23617800Y-29568730D01*
X23632397Y-29516673D01*
X23636549Y-29462421D01*
X23634963Y-29428318D01*
X23625827Y-29379535D01*
X23605841Y-29333156D01*
X23571580Y-29292183D01*
X23535356Y-29267393D01*
X23485955Y-29247970D01*
X23434355Y-29238230D01*
X23383269Y-29235519D01*
X23131211Y-29235519D01*
X23088950Y-29237588D01*
X23038186Y-29246786D01*
X22988703Y-29265927D01*
X22947296Y-29294381D01*
X22924636Y-29318224D01*
X22899436Y-29360620D01*
X22884785Y-29410977D01*
X22880617Y-29462421D01*
X22748971Y-29462421D01*
X22749844Y-29430973D01*
X22755183Y-29381271D01*
X22767998Y-29326099D01*
X22787801Y-29275804D01*
X22814595Y-29230386D01*
X22848377Y-29189846D01*
X22881702Y-29160645D01*
X22927658Y-29132137D01*
X22980122Y-29110756D01*
X23028815Y-29098383D01*
X23082027Y-29090959D01*
X23139759Y-29088485D01*
X23377652Y-29088485D01*
X23425138Y-29090069D01*
G37*
G36*
X23748657Y-30274040D02*
G01*
X22872313Y-30274040D01*
X22872313Y-30251569D01*
X23202774Y-30090613D01*
X23202774Y-29935275D01*
X22768754Y-30152162D01*
X22768754Y-30421074D01*
X23748657Y-30421074D01*
X23748657Y-30274040D01*
G37*
G36*
X23768196Y-30716119D02*
G01*
X23758072Y-30665990D01*
X23736200Y-30634053D01*
X23694134Y-30607589D01*
X23653402Y-30601325D01*
X23605251Y-30610562D01*
X23571580Y-30634053D01*
X23546104Y-30676248D01*
X23540073Y-30716119D01*
X23550274Y-30766171D01*
X23572313Y-30797940D01*
X23613838Y-30824602D01*
X23653402Y-30830913D01*
X23701950Y-30821607D01*
X23736200Y-30797940D01*
X23762072Y-30755943D01*
X23768196Y-30716119D01*
G37*
G36*
X23748657Y-30975993D02*
G01*
X23638014Y-30975993D01*
X23583466Y-30978756D01*
X23534674Y-30987045D01*
X23487214Y-31002734D01*
X23470220Y-31010920D01*
X23427797Y-31038621D01*
X23391204Y-31073364D01*
X23362997Y-31111060D01*
X23338487Y-31154465D01*
X23316553Y-31203166D01*
X23299014Y-31251524D01*
X23293632Y-31268596D01*
X23267010Y-31354081D01*
X23249559Y-31401218D01*
X23227230Y-31444874D01*
X23222313Y-31452756D01*
X23190304Y-31491236D01*
X23155879Y-31516259D01*
X23109597Y-31533792D01*
X23062578Y-31538729D01*
X23056961Y-31538729D01*
X23004418Y-31532120D01*
X22956711Y-31509835D01*
X22927512Y-31482797D01*
X22900813Y-31440188D01*
X22885197Y-31389268D01*
X22880617Y-31335763D01*
X22884617Y-31285827D01*
X22898441Y-31236960D01*
X22925053Y-31191250D01*
X22931176Y-31183844D01*
X22971394Y-31150749D01*
X23017724Y-31132583D01*
X23067374Y-31125941D01*
X23079431Y-31125714D01*
X23101901Y-31125714D01*
X23101901Y-30980146D01*
X23080897Y-30980146D01*
X23029712Y-30983031D01*
X22977057Y-30993174D01*
X22929618Y-31010620D01*
X22900890Y-31026308D01*
X22858305Y-31058698D01*
X22822446Y-31097863D01*
X22795924Y-31138903D01*
X22788294Y-31153802D01*
X22769285Y-31201078D01*
X22756497Y-31251407D01*
X22749931Y-31304788D01*
X22748971Y-31335763D01*
X22751337Y-31384841D01*
X22759655Y-31436805D01*
X22773962Y-31485330D01*
X22786828Y-31515770D01*
X22813495Y-31561938D01*
X22846172Y-31601522D01*
X22884859Y-31634524D01*
X22893318Y-31640334D01*
X22938527Y-31664291D01*
X22988363Y-31679375D01*
X23037172Y-31685364D01*
X23054274Y-31685763D01*
X23066975Y-31685763D01*
X23117887Y-31682769D01*
X23168520Y-31672417D01*
X23216998Y-31652490D01*
X23225000Y-31647906D01*
X23265696Y-31618612D01*
X23301140Y-31582449D01*
X23328803Y-31543614D01*
X23352903Y-31500113D01*
X23374522Y-31452652D01*
X23391859Y-31406553D01*
X23397191Y-31390474D01*
X23422348Y-31307920D01*
X23438987Y-31258612D01*
X23459587Y-31212337D01*
X23465335Y-31201918D01*
X23495870Y-31162047D01*
X23520534Y-31143300D01*
X23567894Y-31127138D01*
X23603088Y-31124493D01*
X23617010Y-31124493D01*
X23617010Y-31677459D01*
X23748657Y-31677459D01*
X23748657Y-30975993D01*
G37*
G36*
X23768196Y-32168876D02*
G01*
X23765662Y-32115386D01*
X23758060Y-32065561D01*
X23743450Y-32013886D01*
X23727652Y-31976901D01*
X23702179Y-31934206D01*
X23667623Y-31893610D01*
X23626483Y-31860217D01*
X23612857Y-31851604D01*
X23564138Y-31828420D01*
X23516334Y-31814896D01*
X23464781Y-31808327D01*
X23440666Y-31807640D01*
X23425279Y-31807640D01*
X23425279Y-31957605D01*
X23439201Y-31957605D01*
X23491742Y-31962996D01*
X23541492Y-31981378D01*
X23582816Y-32012804D01*
X23613408Y-32055977D01*
X23630200Y-32104292D01*
X23636339Y-32155157D01*
X23636549Y-32167410D01*
X23632125Y-32221304D01*
X23616831Y-32272576D01*
X23590613Y-32314784D01*
X23580617Y-32325679D01*
X23537518Y-32357523D01*
X23490272Y-32375002D01*
X23441184Y-32381393D01*
X23429431Y-32381611D01*
X23416975Y-32381611D01*
X23363613Y-32376197D01*
X23317408Y-32359954D01*
X23274846Y-32329579D01*
X23271406Y-32326168D01*
X23240257Y-32284669D01*
X23222038Y-32236070D01*
X23216696Y-32185728D01*
X23221862Y-32134854D01*
X23231350Y-32106594D01*
X23258124Y-32064966D01*
X23267010Y-32056035D01*
X23306331Y-32025557D01*
X23307554Y-32024772D01*
X23307554Y-31838415D01*
X22768754Y-31838415D01*
X22768754Y-32495184D01*
X22901622Y-32495184D01*
X22901622Y-31985449D01*
X23190073Y-31985449D01*
X23190073Y-32007920D01*
X23151420Y-32039933D01*
X23144644Y-32047731D01*
X23118449Y-32090949D01*
X23108984Y-32115631D01*
X23097931Y-32165022D01*
X23094818Y-32216503D01*
X23098444Y-32269120D01*
X23109320Y-32318589D01*
X23127448Y-32364909D01*
X23131943Y-32373795D01*
X23158557Y-32415250D01*
X23191993Y-32451075D01*
X23232250Y-32481272D01*
X23241120Y-32486635D01*
X23289110Y-32508789D01*
X23337358Y-32521712D01*
X23390398Y-32527989D01*
X23415509Y-32528645D01*
X23430897Y-32528645D01*
X23480295Y-32525928D01*
X23531926Y-32516375D01*
X23579385Y-32499945D01*
X23608705Y-32485170D01*
X23652607Y-32454501D01*
X23689973Y-32416534D01*
X23718015Y-32376123D01*
X23726186Y-32361339D01*
X23746494Y-32313627D01*
X23760155Y-32260892D01*
X23766719Y-32209800D01*
X23768196Y-32168876D01*
G37*
D12*
G36*
X23063657Y-18454570D02*
G01*
X23049164Y-18354205D01*
X23001472Y-18268668D01*
X22987941Y-18254291D01*
X22906010Y-18200996D01*
X22809786Y-18180694D01*
X22786685Y-18180041D01*
X21926950Y-18180041D01*
X21926950Y-17799511D01*
X21683196Y-17799511D01*
X21683196Y-18180041D01*
X21226950Y-18180041D01*
X21226950Y-18468736D01*
X21683196Y-18468736D01*
X21683196Y-18880041D01*
X21926950Y-18880041D01*
X21926950Y-18468736D01*
X22735883Y-18468736D01*
X22817851Y-18524378D01*
X22819902Y-18546894D01*
X22819902Y-18835589D01*
X23063657Y-18835589D01*
X23063657Y-18454570D01*
G37*
G36*
X23063657Y-19218562D02*
G01*
X21683196Y-19218562D01*
X21683196Y-19506768D01*
X23063657Y-19506768D01*
X23063657Y-19218562D01*
G37*
G36*
X21495617Y-19363642D02*
G01*
X21472266Y-19264726D01*
X21441396Y-19221981D01*
X21355703Y-19171582D01*
X21299735Y-19164828D01*
X21203831Y-19187154D01*
X21158562Y-19221981D01*
X21110317Y-19308996D01*
X21103852Y-19363642D01*
X21125223Y-19460118D01*
X21158562Y-19506280D01*
X21243824Y-19555818D01*
X21299735Y-19562456D01*
X21395829Y-19540512D01*
X21441396Y-19506280D01*
X21489210Y-19419726D01*
X21495617Y-19363642D01*
G37*
G36*
X23063657Y-19933705D02*
G01*
X21103852Y-19933705D01*
X21103852Y-20221911D01*
X23063657Y-20221911D01*
X23063657Y-19933705D01*
G37*
G36*
X23063657Y-20648848D02*
G01*
X21683196Y-20648848D01*
X21683196Y-20937054D01*
X23063657Y-20937054D01*
X23063657Y-20648848D01*
G37*
G36*
X21495617Y-20793928D02*
G01*
X21472266Y-20695013D01*
X21441396Y-20652267D01*
X21355703Y-20601868D01*
X21299735Y-20595114D01*
X21203831Y-20617440D01*
X21158562Y-20652267D01*
X21110317Y-20739282D01*
X21103852Y-20793928D01*
X21125223Y-20890404D01*
X21158562Y-20936566D01*
X21243824Y-20986104D01*
X21299735Y-20992742D01*
X21395829Y-20970798D01*
X21441396Y-20936566D01*
X21489210Y-20850012D01*
X21495617Y-20793928D01*
G37*
G36*
X22476193Y-21299620D02*
G01*
X22577997Y-21313129D01*
X22682672Y-21341246D01*
X22776915Y-21383042D01*
X22796350Y-21394140D01*
X22884878Y-21456498D01*
X22959000Y-21530305D01*
X23018716Y-21615561D01*
X23028890Y-21633925D01*
X23069915Y-21728951D01*
X23094530Y-21829319D01*
X23102735Y-21935031D01*
X23102209Y-21967935D01*
X23093223Y-22065490D01*
X23069030Y-22160223D01*
X23038977Y-22229040D01*
X22984033Y-22310188D01*
X22954560Y-22340958D01*
X22876078Y-22399581D01*
X22876078Y-22444521D01*
X23623461Y-22444521D01*
X23623461Y-22733216D01*
X21683196Y-22733216D01*
X21683196Y-22450383D01*
X21882010Y-22450383D01*
X21882010Y-22405442D01*
X21853635Y-22387468D01*
X21779264Y-22322926D01*
X21716901Y-22244242D01*
X21712423Y-22237433D01*
X21669776Y-22141366D01*
X21649874Y-22041054D01*
X21648520Y-22016119D01*
X21898618Y-22016119D01*
X21899679Y-22050711D01*
X21915585Y-22147530D01*
X21955647Y-22242870D01*
X22019274Y-22325331D01*
X22067892Y-22366833D01*
X22154149Y-22412986D01*
X22256403Y-22439820D01*
X22360726Y-22447452D01*
X22386127Y-22447452D01*
X22453525Y-22444506D01*
X22550894Y-22427539D01*
X22645034Y-22390423D01*
X22730509Y-22326796D01*
X22751984Y-22303647D01*
X22808313Y-22217551D01*
X22841171Y-22117717D01*
X22850677Y-22016119D01*
X22850207Y-21993283D01*
X22833778Y-21886426D01*
X22793879Y-21791782D01*
X22730509Y-21709350D01*
X22681640Y-21668014D01*
X22594747Y-21622045D01*
X22491548Y-21595319D01*
X22386127Y-21587717D01*
X22360726Y-21587717D01*
X22294043Y-21590687D01*
X22197620Y-21607792D01*
X22104253Y-21645208D01*
X22019274Y-21709350D01*
X21997712Y-21732798D01*
X21941154Y-21818893D01*
X21908162Y-21917201D01*
X21898618Y-22016119D01*
X21648520Y-22016119D01*
X21644117Y-21935031D01*
X21644445Y-21913759D01*
X21655932Y-21810375D01*
X21683829Y-21711953D01*
X21728137Y-21618492D01*
X21744543Y-21591700D01*
X21808657Y-21509650D01*
X21887272Y-21438762D01*
X21970426Y-21384507D01*
X22042801Y-21350247D01*
X22145059Y-21318562D01*
X22244649Y-21302075D01*
X22352421Y-21296580D01*
X22394431Y-21296580D01*
X22476193Y-21299620D01*
G37*
G36*
X23089058Y-23686740D02*
G01*
X23080804Y-23582920D01*
X23056041Y-23487066D01*
X23019204Y-23406838D01*
X22958273Y-23321933D01*
X22880993Y-23251866D01*
X22820391Y-23213398D01*
X22725785Y-23173628D01*
X22629462Y-23151798D01*
X22523312Y-23143612D01*
X22512156Y-23143544D01*
X21683196Y-23143544D01*
X21683196Y-23431751D01*
X22492617Y-23431751D01*
X22595504Y-23440481D01*
X22694789Y-23474003D01*
X22757376Y-23521144D01*
X22812408Y-23605701D01*
X22838305Y-23704219D01*
X22842372Y-23770760D01*
X22830780Y-23874248D01*
X22791252Y-23972548D01*
X22723670Y-24054570D01*
X22638920Y-24111500D01*
X22545107Y-24144709D01*
X22447768Y-24159890D01*
X22380265Y-24162525D01*
X21683196Y-24162525D01*
X21683196Y-24451220D01*
X23063657Y-24451220D01*
X23063657Y-24168387D01*
X22856539Y-24168387D01*
X22856539Y-24123447D01*
X22938116Y-24068858D01*
X23005489Y-23995648D01*
X23014808Y-23983251D01*
X23060054Y-23894385D01*
X23083184Y-23789390D01*
X23089058Y-23686740D01*
G37*
G36*
X22708815Y-24787014D02*
G01*
X22810457Y-24806983D01*
X22904410Y-24853733D01*
X22933784Y-24876413D01*
X23003721Y-24952228D01*
X23052421Y-25038869D01*
X23076743Y-25106815D01*
X23096790Y-25205344D01*
X23102735Y-25303628D01*
X23102102Y-25338410D01*
X23091293Y-25439326D01*
X23062191Y-25532728D01*
X23032527Y-25587542D01*
X22965959Y-25664619D01*
X22952137Y-25675503D01*
X22867774Y-25732030D01*
X22867774Y-25774040D01*
X22876078Y-25774040D01*
X22931527Y-25781313D01*
X23013342Y-25835589D01*
X23047737Y-25896363D01*
X23063657Y-25994835D01*
X23063657Y-26210746D01*
X22822833Y-26210746D01*
X22822833Y-26093021D01*
X22820782Y-26070505D01*
X22738814Y-26014863D01*
X22170216Y-26014863D01*
X22154605Y-26014712D01*
X22051575Y-26005216D01*
X21947222Y-25976273D01*
X21857158Y-25928035D01*
X21781382Y-25860502D01*
X21764760Y-25840819D01*
X21708996Y-25753121D01*
X21670390Y-25651073D01*
X21650685Y-25550010D01*
X21644117Y-25437962D01*
X21648561Y-25344161D01*
X21666061Y-25240430D01*
X21700293Y-25140962D01*
X21718566Y-25103687D01*
X21774224Y-25017933D01*
X21847327Y-24943614D01*
X21870370Y-24925685D01*
X21956189Y-24872911D01*
X22050049Y-24835659D01*
X22136999Y-25104814D01*
X22130019Y-25106423D01*
X22035272Y-25143038D01*
X21954794Y-25207885D01*
X21931055Y-25239833D01*
X21894764Y-25333479D01*
X21884941Y-25435031D01*
X21886078Y-25471659D01*
X21905482Y-25573730D01*
X21957725Y-25659246D01*
X21962320Y-25663724D01*
X22048431Y-25716037D01*
X22150677Y-25732030D01*
X22240558Y-25732030D01*
X22240558Y-25328541D01*
X22464285Y-25328541D01*
X22464285Y-25732030D01*
X22492617Y-25732030D01*
X22593796Y-25721631D01*
X22688454Y-25686169D01*
X22765680Y-25625540D01*
X22822137Y-25544420D01*
X22855159Y-25447485D01*
X22864843Y-25345638D01*
X22864788Y-25337813D01*
X22852607Y-25239185D01*
X22809155Y-25146824D01*
X22757063Y-25099699D01*
X22657725Y-25074040D01*
X22592810Y-25083863D01*
X22513622Y-25143893D01*
X22475125Y-25230796D01*
X22464285Y-25328541D01*
X22240558Y-25328541D01*
X22240558Y-25311932D01*
X22243550Y-25238232D01*
X22259258Y-25135238D01*
X22288430Y-25041311D01*
X22301001Y-25012414D01*
X22356419Y-24923537D01*
X22429602Y-24853733D01*
X22472972Y-24827085D01*
X22565920Y-24794962D01*
X22666029Y-24785345D01*
X22708815Y-24787014D01*
G37*
D13*
%TO.C,G\u002A\u002A\u002A*%
G36*
X28156413Y-28053482D02*
G01*
X28229611Y-28109336D01*
X28283164Y-28190224D01*
X28287689Y-28200923D01*
X28306825Y-28292698D01*
X28292052Y-28381799D01*
X28244922Y-28463642D01*
X28166982Y-28533646D01*
X28166909Y-28533696D01*
X28085412Y-28568291D01*
X27995538Y-28568417D01*
X27898292Y-28534071D01*
X27857782Y-28508648D01*
X27797151Y-28443536D01*
X27762803Y-28364916D01*
X27754854Y-28280018D01*
X27773422Y-28196074D01*
X27818624Y-28120316D01*
X27890579Y-28059975D01*
X27890682Y-28059916D01*
X27979773Y-28026391D01*
X28070742Y-28025040D01*
X28156413Y-28053482D01*
G37*
G36*
X28976502Y-26997726D02*
G01*
X29059323Y-27038729D01*
X29125319Y-27107739D01*
X29129612Y-27114367D01*
X29157493Y-27179610D01*
X29165865Y-27261391D01*
X29160606Y-27319042D01*
X29127905Y-27407886D01*
X29069254Y-27477150D01*
X28989272Y-27522157D01*
X28892580Y-27538227D01*
X28829117Y-27531194D01*
X28749971Y-27498098D01*
X28688981Y-27443491D01*
X28647491Y-27373615D01*
X28626843Y-27294709D01*
X28628386Y-27213012D01*
X28653458Y-27134766D01*
X28703407Y-27066211D01*
X28779576Y-27013587D01*
X28791575Y-27008226D01*
X28884653Y-26986849D01*
X28976502Y-26997726D01*
G37*
G36*
X29999009Y-27862758D02*
G01*
X30047556Y-27881929D01*
X30118318Y-27931540D01*
X30172480Y-27996163D01*
X30200598Y-28066261D01*
X30205200Y-28110348D01*
X30193264Y-28207157D01*
X30152362Y-28290402D01*
X30086016Y-28354395D01*
X29997754Y-28393449D01*
X29972003Y-28398774D01*
X29880948Y-28398435D01*
X29801072Y-28370293D01*
X29735592Y-28320012D01*
X29687729Y-28253250D01*
X29660701Y-28175667D01*
X29657728Y-28092924D01*
X29682027Y-28010684D01*
X29736820Y-27934605D01*
X29746549Y-27925424D01*
X29823180Y-27877874D01*
X29911725Y-27855782D01*
X29999009Y-27862758D01*
G37*
G36*
X29110085Y-28893299D02*
G01*
X29199981Y-28923925D01*
X29264187Y-28972460D01*
X29309867Y-29044535D01*
X29336246Y-29120592D01*
X29340318Y-29205376D01*
X29313199Y-29288391D01*
X29307820Y-29298579D01*
X29248504Y-29371061D01*
X29167805Y-29416123D01*
X29069448Y-29431578D01*
X29011068Y-29426631D01*
X28920777Y-29395156D01*
X28851306Y-29337958D01*
X28806656Y-29258911D01*
X28790826Y-29161888D01*
X28791416Y-29142725D01*
X28813848Y-29051701D01*
X28868142Y-28976184D01*
X28953456Y-28917443D01*
X28955814Y-28916275D01*
X29012109Y-28892345D01*
X29057519Y-28885613D01*
X29110085Y-28893299D01*
G37*
G36*
X29576695Y-32001700D02*
G01*
X29576007Y-32056855D01*
X29571987Y-32110644D01*
X29563230Y-32140608D01*
X29548440Y-32153714D01*
X29540359Y-32154945D01*
X29499737Y-32157174D01*
X29429282Y-32159207D01*
X29332856Y-32160990D01*
X29214321Y-32162470D01*
X29077541Y-32163593D01*
X28926377Y-32164306D01*
X28764692Y-32164556D01*
X28735706Y-32164553D01*
X28551723Y-32164333D01*
X28400016Y-32163697D01*
X28277567Y-32162547D01*
X28181359Y-32160785D01*
X28108371Y-32158314D01*
X28055591Y-32155034D01*
X28019997Y-32150849D01*
X27998570Y-32145660D01*
X27988296Y-32139370D01*
X27979997Y-32120292D01*
X27972842Y-32067349D01*
X27972712Y-31992008D01*
X27978030Y-31869830D01*
X28777363Y-31865181D01*
X29576695Y-31860531D01*
X29576695Y-32001700D01*
G37*
G36*
X28991909Y-28320371D02*
G01*
X29013052Y-28346974D01*
X29024634Y-28368665D01*
X29040963Y-28423252D01*
X29046513Y-28480851D01*
X29040705Y-28529304D01*
X29022967Y-28556452D01*
X29004136Y-28564408D01*
X28956844Y-28580952D01*
X28897932Y-28599306D01*
X28896705Y-28599669D01*
X28771016Y-28654421D01*
X28662771Y-28736025D01*
X28575626Y-28839065D01*
X28513237Y-28958122D01*
X28479261Y-29087778D01*
X28477353Y-29222615D01*
X28478391Y-29231244D01*
X28513657Y-29371633D01*
X28580079Y-29498197D01*
X28674339Y-29606025D01*
X28793121Y-29690207D01*
X28898910Y-29731586D01*
X29025564Y-29751991D01*
X29155548Y-29747769D01*
X29276639Y-29718211D01*
X29377335Y-29667960D01*
X29484806Y-29580827D01*
X29570542Y-29470738D01*
X29630559Y-29343036D01*
X29660872Y-29203066D01*
X29662975Y-29182952D01*
X29674147Y-29117355D01*
X29692870Y-29078994D01*
X29724454Y-29061009D01*
X29774203Y-29056539D01*
X29782939Y-29056623D01*
X29859186Y-29065863D01*
X29913129Y-29088653D01*
X29938582Y-29122508D01*
X29942088Y-29151086D01*
X29940783Y-29199436D01*
X29938988Y-29214028D01*
X29932306Y-29267696D01*
X29924583Y-29329105D01*
X29912238Y-29388647D01*
X29873141Y-29494798D01*
X29815560Y-29604710D01*
X29745585Y-29707350D01*
X29669308Y-29791681D01*
X29554904Y-29882911D01*
X29404274Y-29966432D01*
X29247219Y-30018075D01*
X29087546Y-30038520D01*
X28929065Y-30028450D01*
X28775584Y-29988548D01*
X28630913Y-29919495D01*
X28498860Y-29821974D01*
X28383232Y-29696666D01*
X28287841Y-29544255D01*
X28210239Y-29391151D01*
X28210239Y-29164417D01*
X28210239Y-28937684D01*
X28285990Y-28784840D01*
X28306026Y-28746787D01*
X28395669Y-28614637D01*
X28504815Y-28500801D01*
X28627900Y-28409605D01*
X28759359Y-28345376D01*
X28893628Y-28312439D01*
X28924693Y-28309122D01*
X28966589Y-28308948D01*
X28991909Y-28320371D01*
G37*
G36*
X29966312Y-27255620D02*
G01*
X30037495Y-27265487D01*
X30064185Y-27269709D01*
X30236503Y-27315372D01*
X30389270Y-27390476D01*
X30524217Y-27495843D01*
X30564360Y-27536521D01*
X30672531Y-27677682D01*
X30750944Y-27834773D01*
X30796844Y-28002671D01*
X30803842Y-28066957D01*
X30799639Y-28204278D01*
X30773601Y-28346586D01*
X30727705Y-28480217D01*
X30674835Y-28581572D01*
X30573887Y-28716446D01*
X30451793Y-28827122D01*
X30312844Y-28912115D01*
X30161333Y-28969938D01*
X30001553Y-28999104D01*
X29837795Y-28998132D01*
X29674351Y-28965532D01*
X29515514Y-28899820D01*
X29407038Y-28827504D01*
X29296271Y-28722559D01*
X29200449Y-28599173D01*
X29126226Y-28466031D01*
X29080255Y-28331813D01*
X29071621Y-28274751D01*
X29080641Y-28221520D01*
X29116461Y-28184008D01*
X29183543Y-28154561D01*
X29224907Y-28141353D01*
X29262342Y-28133312D01*
X29286155Y-28137480D01*
X29307973Y-28153787D01*
X29314716Y-28161190D01*
X29337339Y-28204083D01*
X29352059Y-28258842D01*
X29354137Y-28271044D01*
X29389465Y-28373808D01*
X29452439Y-28474652D01*
X29536373Y-28566132D01*
X29634583Y-28640803D01*
X29740380Y-28691221D01*
X29789794Y-28704400D01*
X29903500Y-28717793D01*
X30021424Y-28713573D01*
X30125930Y-28691715D01*
X30191203Y-28663622D01*
X30293935Y-28595300D01*
X30385282Y-28506126D01*
X30455004Y-28405023D01*
X30487571Y-28331623D01*
X30519225Y-28196870D01*
X30519627Y-28058932D01*
X30488152Y-27926817D01*
X30442108Y-27831339D01*
X30356084Y-27719791D01*
X30247199Y-27632167D01*
X30120125Y-27571993D01*
X29979532Y-27542798D01*
X29930071Y-27536955D01*
X29878024Y-27526763D01*
X29849093Y-27515831D01*
X29835922Y-27495279D01*
X29826975Y-27446677D01*
X29828523Y-27386857D01*
X29839907Y-27328987D01*
X29860478Y-27286233D01*
X29875659Y-27268755D01*
X29894294Y-27256211D01*
X29921544Y-27252182D01*
X29966312Y-27255620D01*
G37*
G36*
X28051846Y-27441105D02*
G01*
X28141725Y-27442304D01*
X28207721Y-27446313D01*
X28259801Y-27454605D01*
X28307927Y-27468654D01*
X28362067Y-27489934D01*
X28386059Y-27500414D01*
X28538705Y-27588807D01*
X28669475Y-27704305D01*
X28775576Y-27843986D01*
X28854216Y-28004931D01*
X28865540Y-28036405D01*
X28888831Y-28123880D01*
X28888481Y-28188056D01*
X28862531Y-28233190D01*
X28809020Y-28263540D01*
X28725986Y-28283361D01*
X28695067Y-28287052D01*
X28665391Y-28282436D01*
X28643668Y-28261375D01*
X28624428Y-28217782D01*
X28602201Y-28145569D01*
X28600759Y-28140640D01*
X28545113Y-28008871D01*
X28465766Y-27899106D01*
X28367391Y-27812722D01*
X28254661Y-27751091D01*
X28132248Y-27715588D01*
X28004826Y-27707588D01*
X27877068Y-27728465D01*
X27753647Y-27779593D01*
X27639235Y-27862347D01*
X27585993Y-27915720D01*
X27506845Y-28025841D01*
X27460412Y-28145782D01*
X27444836Y-28279536D01*
X27445036Y-28307929D01*
X27456488Y-28425670D01*
X27488132Y-28527763D01*
X27543845Y-28627846D01*
X27614329Y-28715157D01*
X27722992Y-28801016D01*
X27853673Y-28859128D01*
X28007107Y-28889906D01*
X28021713Y-28891552D01*
X28089300Y-28905532D01*
X28127488Y-28931037D01*
X28141456Y-28974111D01*
X28136381Y-29040794D01*
X28123876Y-29094509D01*
X28093911Y-29146279D01*
X28045552Y-29170446D01*
X27973866Y-29170955D01*
X27907848Y-29161238D01*
X27730410Y-29113465D01*
X27573042Y-29037603D01*
X27437698Y-28935341D01*
X27326334Y-28808370D01*
X27240905Y-28658384D01*
X27183367Y-28487071D01*
X27174526Y-28438026D01*
X27167440Y-28324807D01*
X27173018Y-28201009D01*
X27190252Y-28081331D01*
X27218132Y-27980468D01*
X27231970Y-27946592D01*
X27312604Y-27804358D01*
X27421555Y-27677218D01*
X27553659Y-27570397D01*
X27703752Y-27489118D01*
X27714686Y-27484519D01*
X27765843Y-27464975D01*
X27813251Y-27452304D01*
X27866773Y-27445060D01*
X27936273Y-27441799D01*
X28031616Y-27441073D01*
X28051846Y-27441105D01*
G37*
G36*
X29115346Y-26421156D02*
G01*
X29264800Y-26475238D01*
X29402195Y-26555397D01*
X29523702Y-26659825D01*
X29625493Y-26786712D01*
X29703742Y-26934250D01*
X29754618Y-27100632D01*
X29765581Y-27174635D01*
X29765425Y-27331212D01*
X29737052Y-27490153D01*
X29681934Y-27640549D01*
X29606386Y-27765673D01*
X29504961Y-27882772D01*
X29386096Y-27983535D01*
X29257289Y-28061618D01*
X29126041Y-28110681D01*
X29118807Y-28112455D01*
X29042571Y-28124913D01*
X28989848Y-28116725D01*
X28953511Y-28084881D01*
X28926435Y-28026371D01*
X28916933Y-27997640D01*
X28903292Y-27952313D01*
X28897932Y-27928041D01*
X28903572Y-27911158D01*
X28931780Y-27879722D01*
X28971664Y-27853063D01*
X29009571Y-27841737D01*
X29032947Y-27839007D01*
X29095996Y-27818682D01*
X29170056Y-27783139D01*
X29244370Y-27737900D01*
X29308178Y-27688487D01*
X29333467Y-27663342D01*
X29387740Y-27597340D01*
X29430706Y-27530457D01*
X29446771Y-27498454D01*
X29463457Y-27455419D01*
X29473036Y-27408671D01*
X29477399Y-27347548D01*
X29478439Y-27261392D01*
X29477817Y-27185553D01*
X29474428Y-27123971D01*
X29466322Y-27078875D01*
X29451549Y-27040033D01*
X29428163Y-26997214D01*
X29342841Y-26875891D01*
X29244509Y-26784398D01*
X29129229Y-26720837D01*
X28992093Y-26681657D01*
X28899741Y-26672920D01*
X28771833Y-26687827D01*
X28650364Y-26730953D01*
X28540156Y-26798403D01*
X28446038Y-26886280D01*
X28372835Y-26990688D01*
X28325374Y-27107732D01*
X28308481Y-27233514D01*
X28302124Y-27305379D01*
X28279445Y-27351173D01*
X28236501Y-27371014D01*
X28169358Y-27368725D01*
X28165902Y-27368205D01*
X28100238Y-27356552D01*
X28061252Y-27343275D01*
X28040394Y-27323789D01*
X28029116Y-27293508D01*
X28027679Y-27286775D01*
X28025834Y-27225876D01*
X28035795Y-27144309D01*
X28055392Y-27052558D01*
X28082447Y-26961107D01*
X28114786Y-26880442D01*
X28128388Y-26854030D01*
X28196261Y-26752450D01*
X28284360Y-26652072D01*
X28382313Y-26563759D01*
X28479745Y-26498372D01*
X28632905Y-26433451D01*
X28795570Y-26398454D01*
X28957660Y-26394958D01*
X29115346Y-26421156D01*
G37*
G36*
X28546340Y-35041200D02*
G01*
X28596546Y-35048816D01*
X28626428Y-35061799D01*
X28634046Y-35075541D01*
X28643975Y-35119222D01*
X28647862Y-35176512D01*
X28647862Y-35269790D01*
X28982778Y-35275647D01*
X29046816Y-35276848D01*
X29151499Y-35279529D01*
X29229244Y-35283086D01*
X29285915Y-35288138D01*
X29327377Y-35295303D01*
X29359493Y-35305201D01*
X29388129Y-35318454D01*
X29447676Y-35357088D01*
X29506573Y-35423115D01*
X29550042Y-35514745D01*
X29552663Y-35522896D01*
X29564369Y-35581758D01*
X29572583Y-35661160D01*
X29575911Y-35748475D01*
X29575950Y-35759149D01*
X29574926Y-35835802D01*
X29570698Y-35884174D01*
X29562219Y-35910903D01*
X29548440Y-35922631D01*
X29538947Y-35925526D01*
X29492653Y-35931692D01*
X29435663Y-35932647D01*
X29383351Y-35928610D01*
X29351098Y-35919803D01*
X29350096Y-35919001D01*
X29339299Y-35893030D01*
X29329860Y-35842401D01*
X29323724Y-35777236D01*
X29320171Y-35720216D01*
X29313331Y-35670122D01*
X29299039Y-35634189D01*
X29272585Y-35609920D01*
X29229255Y-35594817D01*
X29164344Y-35586381D01*
X29073138Y-35582115D01*
X28950928Y-35579519D01*
X28647862Y-35573877D01*
X28647862Y-35726252D01*
X28647862Y-35727228D01*
X28645536Y-35811407D01*
X28635921Y-35866199D01*
X28614966Y-35897740D01*
X28578618Y-35912166D01*
X28522827Y-35915611D01*
X28467516Y-35912236D01*
X28430884Y-35897878D01*
X28409776Y-35866390D01*
X28400107Y-35811623D01*
X28397792Y-35727430D01*
X28397792Y-35576230D01*
X28204880Y-35576230D01*
X28183319Y-35576154D01*
X28086003Y-35573191D01*
X28021250Y-35566022D01*
X27990534Y-35554795D01*
X27980758Y-35533143D01*
X27972268Y-35482190D01*
X27969100Y-35413809D01*
X27969228Y-35392636D01*
X27972497Y-35332266D01*
X27981348Y-35298277D01*
X27997354Y-35283415D01*
X28013973Y-35280220D01*
X28062307Y-35276275D01*
X28131210Y-35273574D01*
X28211700Y-35272573D01*
X28397792Y-35272573D01*
X28397792Y-35177903D01*
X28399271Y-35141950D01*
X28407036Y-35090905D01*
X28419226Y-35061799D01*
X28428345Y-35055883D01*
X28468651Y-35044773D01*
X28522827Y-35040365D01*
X28546340Y-35041200D01*
G37*
G36*
X28986177Y-32450351D02*
G01*
X29060851Y-32450454D01*
X29194135Y-32451179D01*
X29313521Y-32452521D01*
X29414645Y-32454389D01*
X29493140Y-32456695D01*
X29544643Y-32459348D01*
X29564786Y-32462259D01*
X29567683Y-32467634D01*
X29573425Y-32501572D01*
X29576199Y-32555079D01*
X29576163Y-32617109D01*
X29573472Y-32676615D01*
X29568287Y-32722555D01*
X29560764Y-32743883D01*
X29558618Y-32744623D01*
X29529103Y-32748004D01*
X29470772Y-32751564D01*
X29389216Y-32755054D01*
X29290029Y-32758225D01*
X29178803Y-32760829D01*
X29054939Y-32763639D01*
X28945540Y-32767812D01*
X28862496Y-32774175D01*
X28800853Y-32783876D01*
X28755661Y-32798064D01*
X28721968Y-32817889D01*
X28694819Y-32844499D01*
X28669265Y-32879043D01*
X28643665Y-32924405D01*
X28632932Y-32971748D01*
X28634445Y-33036564D01*
X28642595Y-33095762D01*
X28661928Y-33143969D01*
X28698858Y-33188393D01*
X28755642Y-33245217D01*
X29125978Y-33249834D01*
X29152205Y-33250182D01*
X29264334Y-33252171D01*
X29364954Y-33254727D01*
X29448010Y-33257646D01*
X29507449Y-33260721D01*
X29537219Y-33263750D01*
X29552877Y-33268270D01*
X29566631Y-33279409D01*
X29573394Y-33303296D01*
X29574915Y-33347576D01*
X29572943Y-33419894D01*
X29567763Y-33566736D01*
X29176130Y-33571559D01*
X29120055Y-33572174D01*
X28976250Y-33572518D01*
X28861485Y-33569865D01*
X28770791Y-33563198D01*
X28699203Y-33551500D01*
X28641752Y-33533753D01*
X28593470Y-33508941D01*
X28549391Y-33476047D01*
X28504546Y-33434052D01*
X28453555Y-33376687D01*
X28409896Y-33302434D01*
X28386834Y-33217126D01*
X28380028Y-33109451D01*
X28388493Y-33001028D01*
X28417905Y-32907655D01*
X28472290Y-32820991D01*
X28524510Y-32754007D01*
X28482586Y-32754007D01*
X28452031Y-32750513D01*
X28419844Y-32729140D01*
X28402791Y-32683725D01*
X28397792Y-32608999D01*
X28397215Y-32573396D01*
X28396821Y-32537062D01*
X28400111Y-32508627D01*
X28410646Y-32487131D01*
X28431983Y-32471615D01*
X28467681Y-32461119D01*
X28521302Y-32454684D01*
X28596403Y-32451348D01*
X28696543Y-32450154D01*
X28825281Y-32450142D01*
X28986177Y-32450351D01*
G37*
G36*
X29206518Y-33832150D02*
G01*
X29335094Y-33879788D01*
X29439994Y-33954151D01*
X29521188Y-34055221D01*
X29578646Y-34182981D01*
X29581723Y-34196940D01*
X29586781Y-34247433D01*
X29589501Y-34317799D01*
X29589348Y-34397327D01*
X29588412Y-34432809D01*
X29584059Y-34508573D01*
X29575041Y-34565387D01*
X29558838Y-34615462D01*
X29532934Y-34671010D01*
X29532369Y-34672122D01*
X29486711Y-34746908D01*
X29433767Y-34810620D01*
X29378757Y-34859401D01*
X29326901Y-34889389D01*
X29283419Y-34896728D01*
X29253532Y-34877557D01*
X29244514Y-34846529D01*
X29239316Y-34794281D01*
X29238017Y-34732409D01*
X29240501Y-34672211D01*
X29246652Y-34624980D01*
X29256354Y-34602012D01*
X29265577Y-34594068D01*
X29293622Y-34562339D01*
X29327804Y-34517900D01*
X29329176Y-34515990D01*
X29371213Y-34429868D01*
X29379053Y-34340245D01*
X29352233Y-34252139D01*
X29323624Y-34215748D01*
X29265141Y-34173146D01*
X29194700Y-34142085D01*
X29125675Y-34129786D01*
X29076554Y-34129395D01*
X29076553Y-34521158D01*
X29076675Y-34646996D01*
X29075988Y-34751199D01*
X29072754Y-34827455D01*
X29065228Y-34879784D01*
X29051667Y-34912207D01*
X29030328Y-34928743D01*
X28999469Y-34933412D01*
X28957345Y-34930236D01*
X28902213Y-34923234D01*
X28889475Y-34921597D01*
X28738123Y-34886979D01*
X28611952Y-34828083D01*
X28512005Y-34746009D01*
X28439324Y-34641857D01*
X28394952Y-34516729D01*
X28379929Y-34371724D01*
X28380086Y-34362741D01*
X28594107Y-34362741D01*
X28606537Y-34440205D01*
X28649331Y-34512375D01*
X28703567Y-34558613D01*
X28780716Y-34596845D01*
X28857742Y-34611573D01*
X28863011Y-34609200D01*
X28871028Y-34589134D01*
X28876297Y-34545320D01*
X28879188Y-34473780D01*
X28880070Y-34370533D01*
X28880070Y-34129394D01*
X28834841Y-34129395D01*
X28782671Y-34134877D01*
X28706325Y-34166049D01*
X28647269Y-34218914D01*
X28608774Y-34286728D01*
X28594107Y-34362741D01*
X28380086Y-34362741D01*
X28380498Y-34339210D01*
X28398016Y-34205758D01*
X28441636Y-34091656D01*
X28513546Y-33990658D01*
X28527082Y-33976014D01*
X28608230Y-33905443D01*
X28699809Y-33856695D01*
X28809531Y-33826576D01*
X28834841Y-33823835D01*
X28945104Y-33811892D01*
X29054297Y-33811255D01*
X29206518Y-33832150D01*
G37*
G36*
X29058500Y-30435227D02*
G01*
X29180284Y-30436777D01*
X29293773Y-30439119D01*
X29393484Y-30442220D01*
X29473930Y-30446048D01*
X29529628Y-30450570D01*
X29555091Y-30455755D01*
X29567782Y-30478189D01*
X29573584Y-30527394D01*
X29572953Y-30607584D01*
X29567763Y-30744514D01*
X29183727Y-30753445D01*
X29161892Y-30753955D01*
X29032334Y-30757389D01*
X28932651Y-30761512D01*
X28857751Y-30767411D01*
X28802533Y-30776174D01*
X28761903Y-30788886D01*
X28730765Y-30806634D01*
X28704024Y-30830505D01*
X28676582Y-30861585D01*
X28674130Y-30864566D01*
X28639055Y-30934294D01*
X28630031Y-31015250D01*
X28645200Y-31097003D01*
X28682704Y-31169126D01*
X28740682Y-31221187D01*
X28740960Y-31221343D01*
X28770887Y-31230417D01*
X28826803Y-31237998D01*
X28911138Y-31244264D01*
X29026325Y-31249400D01*
X29174796Y-31253585D01*
X29567763Y-31262517D01*
X29573033Y-31403864D01*
X29573367Y-31413387D01*
X29573581Y-31491025D01*
X29567688Y-31538347D01*
X29555171Y-31559883D01*
X29552197Y-31561204D01*
X29518748Y-31566426D01*
X29457560Y-31570330D01*
X29375161Y-31572938D01*
X29278082Y-31574275D01*
X29172853Y-31574364D01*
X29066004Y-31573230D01*
X28964064Y-31570896D01*
X28873565Y-31567388D01*
X28801036Y-31562729D01*
X28753007Y-31556941D01*
X28742349Y-31554815D01*
X28621779Y-31513211D01*
X28520189Y-31444659D01*
X28442919Y-31352679D01*
X28424321Y-31321435D01*
X28405152Y-31281026D01*
X28394477Y-31238663D01*
X28389858Y-31183099D01*
X28388861Y-31103082D01*
X28389126Y-31056103D01*
X28391955Y-30989747D01*
X28399778Y-30941807D01*
X28414914Y-30901027D01*
X28439679Y-30856152D01*
X28461655Y-30821787D01*
X28489308Y-30785421D01*
X28506662Y-30771307D01*
X28511482Y-30770404D01*
X28522827Y-30751534D01*
X28518460Y-30742653D01*
X28494740Y-30742539D01*
X28472469Y-30745370D01*
X28432222Y-30734890D01*
X28418253Y-30724873D01*
X28405469Y-30701829D01*
X28399357Y-30660691D01*
X28397792Y-30592685D01*
X28398724Y-30534686D01*
X28403625Y-30490049D01*
X28414842Y-30464549D01*
X28434702Y-30449153D01*
X28460777Y-30444362D01*
X28517142Y-30440484D01*
X28598124Y-30437591D01*
X28698234Y-30435651D01*
X28811990Y-30434632D01*
X28933907Y-30434501D01*
X29058500Y-30435227D01*
G37*
G36*
X9105045Y-41416250D02*
G01*
X9105045Y-41550001D01*
X8637499Y-41550001D01*
X8169954Y-41550000D01*
X8169953Y-41913751D01*
X8169953Y-42277500D01*
X8637499Y-42277500D01*
X9105045Y-42277500D01*
X9105045Y-42411250D01*
X9105045Y-42545000D01*
X8122427Y-42545000D01*
X7139808Y-42545000D01*
X7140455Y-42411875D01*
X7141102Y-42278750D01*
X7544267Y-42278117D01*
X7947432Y-42277483D01*
X7947432Y-41913751D01*
X7947432Y-41550015D01*
X7544267Y-41549382D01*
X7141102Y-41548750D01*
X7140455Y-41415625D01*
X7139808Y-41282500D01*
X8122428Y-41282500D01*
X9105045Y-41282499D01*
X9105045Y-41416250D01*
G37*
G36*
X11562787Y-38791243D02*
G01*
X11562787Y-39155000D01*
X11494031Y-39155000D01*
X11425274Y-39155000D01*
X11425275Y-38872500D01*
X11425274Y-38590000D01*
X11207752Y-38590000D01*
X10990231Y-38590000D01*
X10990231Y-38852500D01*
X10990231Y-39115000D01*
X10922725Y-39115000D01*
X10855218Y-39115000D01*
X10855218Y-38852500D01*
X10855218Y-38590000D01*
X10676451Y-38590000D01*
X10497683Y-38590000D01*
X10497683Y-38865000D01*
X10497683Y-39140000D01*
X10428917Y-39140000D01*
X10360152Y-39140000D01*
X10360786Y-38784375D01*
X10361419Y-38428750D01*
X10962103Y-38428119D01*
X11562787Y-38427489D01*
X11562787Y-38791243D01*
G37*
G36*
X10973930Y-39652360D02*
G01*
X10997317Y-39657204D01*
X11007156Y-39660968D01*
X11024297Y-39671293D01*
X11039301Y-39685224D01*
X11051497Y-39701935D01*
X11060215Y-39720599D01*
X11064784Y-39740390D01*
X11065487Y-39748868D01*
X11064516Y-39772732D01*
X11059106Y-39794789D01*
X11049370Y-39814688D01*
X11035419Y-39832078D01*
X11021617Y-39843852D01*
X11002330Y-39854987D01*
X10981770Y-39861742D01*
X10960564Y-39864128D01*
X10939337Y-39862153D01*
X10918717Y-39855824D01*
X10899330Y-39845149D01*
X10881804Y-39830135D01*
X10875091Y-39822490D01*
X10862598Y-39803392D01*
X10854635Y-39783086D01*
X10851198Y-39762133D01*
X10852283Y-39741094D01*
X10857888Y-39720530D01*
X10868010Y-39701003D01*
X10882645Y-39683075D01*
X10889279Y-39676978D01*
X10907784Y-39664523D01*
X10928502Y-39656169D01*
X10950771Y-39652065D01*
X10973930Y-39652360D01*
G37*
G36*
X10973477Y-40644808D02*
G01*
X10997317Y-40649740D01*
X11007584Y-40653669D01*
X11024573Y-40663991D01*
X11039459Y-40677904D01*
X11051573Y-40694578D01*
X11060238Y-40713183D01*
X11064784Y-40732890D01*
X11065486Y-40741305D01*
X11064530Y-40765252D01*
X11059089Y-40787352D01*
X11049254Y-40807323D01*
X11035116Y-40824880D01*
X11021126Y-40836722D01*
X11001953Y-40847576D01*
X10981446Y-40854123D01*
X10960258Y-40856377D01*
X10939047Y-40854345D01*
X10918464Y-40848038D01*
X10899164Y-40837465D01*
X10881804Y-40822635D01*
X10875508Y-40815504D01*
X10862879Y-40796428D01*
X10854791Y-40776119D01*
X10851239Y-40755137D01*
X10852222Y-40734042D01*
X10857739Y-40713393D01*
X10867787Y-40693750D01*
X10882363Y-40675671D01*
X10888884Y-40669586D01*
X10907302Y-40656967D01*
X10927911Y-40648547D01*
X10950156Y-40644452D01*
X10973477Y-40644808D01*
G37*
G36*
X10976480Y-41637627D02*
G01*
X10982177Y-41638574D01*
X11003207Y-41644971D01*
X11022029Y-41655290D01*
X11038121Y-41669011D01*
X11050959Y-41685615D01*
X11060021Y-41704581D01*
X11064784Y-41725390D01*
X11065486Y-41733805D01*
X11064530Y-41757751D01*
X11059089Y-41779852D01*
X11049254Y-41799823D01*
X11035116Y-41817380D01*
X11017748Y-41831447D01*
X10997978Y-41841536D01*
X10976737Y-41847318D01*
X10954744Y-41848674D01*
X10932719Y-41845488D01*
X10911383Y-41837641D01*
X10908775Y-41836285D01*
X10894759Y-41826781D01*
X10881207Y-41814333D01*
X10869558Y-41800408D01*
X10861251Y-41786477D01*
X10854155Y-41766031D01*
X10851299Y-41744864D01*
X10852742Y-41724324D01*
X10858129Y-41704872D01*
X10867105Y-41686965D01*
X10879316Y-41671062D01*
X10894408Y-41657619D01*
X10912024Y-41647096D01*
X10931812Y-41639951D01*
X10953415Y-41636642D01*
X10976480Y-41637627D01*
G37*
G36*
X10499948Y-42437503D02*
G01*
X10518069Y-42437570D01*
X10534283Y-42437712D01*
X10547971Y-42437919D01*
X10558513Y-42438179D01*
X10565292Y-42438480D01*
X10567689Y-42438813D01*
X10567509Y-42439760D01*
X10566384Y-42444991D01*
X10564316Y-42454394D01*
X10561405Y-42467520D01*
X10557749Y-42483922D01*
X10553450Y-42503152D01*
X10548606Y-42524763D01*
X10543319Y-42548308D01*
X10537686Y-42573337D01*
X10534410Y-42587896D01*
X10528962Y-42612149D01*
X10523916Y-42634670D01*
X10519373Y-42655011D01*
X10515431Y-42672721D01*
X10512191Y-42687352D01*
X10509754Y-42698454D01*
X10508219Y-42705578D01*
X10507684Y-42708273D01*
X10509033Y-42708406D01*
X10515030Y-42708581D01*
X10525598Y-42708750D01*
X10540489Y-42708913D01*
X10559457Y-42709068D01*
X10582254Y-42709214D01*
X10608633Y-42709351D01*
X10638348Y-42709478D01*
X10671151Y-42709592D01*
X10706795Y-42709694D01*
X10745032Y-42709784D01*
X10785616Y-42709859D01*
X10828300Y-42709919D01*
X10872837Y-42709963D01*
X10918979Y-42709990D01*
X10966479Y-42710000D01*
X11425274Y-42710000D01*
X11425274Y-42583750D01*
X11425275Y-42457500D01*
X11494031Y-42457500D01*
X11562787Y-42457500D01*
X11562787Y-42788790D01*
X11562787Y-43120080D01*
X11494657Y-43119415D01*
X11426524Y-43118750D01*
X11425876Y-42994380D01*
X11425227Y-42870011D01*
X10893323Y-42869381D01*
X10361419Y-42868750D01*
X10360717Y-42791250D01*
X10360014Y-42713750D01*
X10390623Y-42575625D01*
X10421231Y-42437500D01*
X10494460Y-42437500D01*
X10499948Y-42437503D01*
G37*
G36*
X11143063Y-43315000D02*
G01*
X11198053Y-43315000D01*
X11275259Y-43315000D01*
X11275259Y-43568750D01*
X11275259Y-43822500D01*
X11419023Y-43822500D01*
X11562787Y-43822500D01*
X11562787Y-43903750D01*
X11562787Y-43985001D01*
X11419023Y-43985000D01*
X11275259Y-43985001D01*
X11275259Y-44065000D01*
X11275259Y-44145001D01*
X11210253Y-44145000D01*
X11145246Y-44145001D01*
X11145246Y-44065007D01*
X11145246Y-43985015D01*
X10753333Y-43984382D01*
X10361419Y-43983750D01*
X10361419Y-43890035D01*
X10361419Y-43820121D01*
X10512685Y-43820121D01*
X10513177Y-43820295D01*
X10517838Y-43820592D01*
X10527151Y-43820873D01*
X10540893Y-43821136D01*
X10558841Y-43821379D01*
X10580773Y-43821601D01*
X10606463Y-43821801D01*
X10635692Y-43821975D01*
X10668234Y-43822124D01*
X10703868Y-43822244D01*
X10742370Y-43822336D01*
X10783519Y-43822396D01*
X10827090Y-43822423D01*
X11145246Y-43822500D01*
X11145246Y-43633750D01*
X11145219Y-43603389D01*
X11145139Y-43574019D01*
X11145009Y-43546745D01*
X11144833Y-43521931D01*
X11144617Y-43499936D01*
X11144363Y-43481127D01*
X11144077Y-43465866D01*
X11143763Y-43454515D01*
X11143424Y-43447439D01*
X11143064Y-43445000D01*
X11143063Y-43445000D01*
X11140680Y-43446271D01*
X11134247Y-43449966D01*
X11124005Y-43455942D01*
X11110194Y-43464056D01*
X11093054Y-43474166D01*
X11072825Y-43486130D01*
X11049748Y-43499804D01*
X11024064Y-43515046D01*
X10996013Y-43531713D01*
X10965834Y-43549664D01*
X10933769Y-43568755D01*
X10900058Y-43588844D01*
X10864941Y-43609789D01*
X10828658Y-43631447D01*
X10792546Y-43653010D01*
X10757366Y-43674020D01*
X10723573Y-43694199D01*
X10691409Y-43713405D01*
X10661118Y-43731493D01*
X10632941Y-43748319D01*
X10607119Y-43763737D01*
X10583897Y-43777603D01*
X10563515Y-43789774D01*
X10546215Y-43800104D01*
X10532240Y-43808447D01*
X10521832Y-43814661D01*
X10515232Y-43818600D01*
X10512685Y-43820121D01*
X10361419Y-43820121D01*
X10361419Y-43796323D01*
X10741133Y-43555661D01*
X11120848Y-43315000D01*
X11143063Y-43315000D01*
G37*
G36*
X9995133Y-37105000D02*
G01*
X9995133Y-41248750D01*
X9995133Y-45392500D01*
X8083695Y-45392500D01*
X6172257Y-45392500D01*
X6172257Y-45228750D01*
X6172257Y-45217263D01*
X6172275Y-45189718D01*
X6172308Y-45163860D01*
X6172357Y-45140107D01*
X6172419Y-45118871D01*
X6172494Y-45100566D01*
X6172579Y-45085606D01*
X6172673Y-45074405D01*
X6172775Y-45067376D01*
X6172882Y-45064933D01*
X6174406Y-45064921D01*
X6180695Y-45064895D01*
X6191704Y-45064860D01*
X6207277Y-45064814D01*
X6227253Y-45064760D01*
X6251476Y-45064696D01*
X6279785Y-45064623D01*
X6312021Y-45064542D01*
X6348029Y-45064453D01*
X6387648Y-45064357D01*
X6430719Y-45064253D01*
X6477084Y-45064143D01*
X6526585Y-45064025D01*
X6579062Y-45063902D01*
X6634358Y-45063772D01*
X6692314Y-45063638D01*
X6752771Y-45063497D01*
X6815570Y-45063353D01*
X6880554Y-45063203D01*
X6947562Y-45063050D01*
X7016438Y-45062893D01*
X7087022Y-45062732D01*
X7159156Y-45062568D01*
X7232681Y-45062402D01*
X7307438Y-45062233D01*
X7383270Y-45062063D01*
X7460017Y-45061890D01*
X7537520Y-45061717D01*
X7615622Y-45061542D01*
X7694163Y-45061367D01*
X7772987Y-45061192D01*
X7851932Y-45061016D01*
X7930841Y-45060842D01*
X8009555Y-45060668D01*
X8087916Y-45060495D01*
X8165766Y-45060324D01*
X8242945Y-45060154D01*
X8319295Y-45059987D01*
X8394658Y-45059822D01*
X8468875Y-45059661D01*
X8541786Y-45059503D01*
X8613234Y-45059348D01*
X8683061Y-45059197D01*
X8751107Y-45059051D01*
X8817214Y-45058909D01*
X8881224Y-45058773D01*
X8942978Y-45058641D01*
X9002317Y-45058516D01*
X9059082Y-45058397D01*
X9113115Y-45058284D01*
X9164260Y-45058178D01*
X9212353Y-45058079D01*
X9257238Y-45057987D01*
X9298759Y-45057904D01*
X9336755Y-45057829D01*
X9371067Y-45057762D01*
X9401537Y-45057704D01*
X9428007Y-45057655D01*
X9450317Y-45057617D01*
X9468310Y-45057588D01*
X9481827Y-45057568D01*
X9490707Y-45057562D01*
X9660101Y-45057500D01*
X9660101Y-41250000D01*
X9660101Y-37442500D01*
X8084945Y-37442500D01*
X6509790Y-37442500D01*
X6509790Y-40681250D01*
X6509790Y-43920000D01*
X6341023Y-43920000D01*
X6172257Y-43920000D01*
X6172257Y-40512500D01*
X6172257Y-37105000D01*
X8083695Y-37104999D01*
X9995133Y-37105000D01*
G37*
G36*
X11143034Y-44305000D02*
G01*
X11199954Y-44305000D01*
X11275259Y-44305000D01*
X11275259Y-44560000D01*
X11275259Y-44815000D01*
X11419023Y-44815000D01*
X11562787Y-44815000D01*
X11562787Y-44896251D01*
X11562787Y-44977500D01*
X11419023Y-44977501D01*
X11275259Y-44977500D01*
X11275259Y-45057501D01*
X11275259Y-45137500D01*
X11210253Y-45137500D01*
X11145246Y-45137500D01*
X11145245Y-45057507D01*
X11145246Y-44977516D01*
X10753334Y-44976882D01*
X10361419Y-44976251D01*
X10360764Y-44883265D01*
X10360276Y-44814042D01*
X10510392Y-44814042D01*
X10510407Y-44814055D01*
X10513245Y-44814173D01*
X10520758Y-44814287D01*
X10532647Y-44814396D01*
X10548619Y-44814499D01*
X10568377Y-44814594D01*
X10591626Y-44814682D01*
X10618071Y-44814761D01*
X10647417Y-44814830D01*
X10679366Y-44814889D01*
X10713625Y-44814936D01*
X10749896Y-44814971D01*
X10787886Y-44814992D01*
X10827298Y-44815000D01*
X11145246Y-44815000D01*
X11145246Y-44626250D01*
X11145226Y-44598739D01*
X11145149Y-44568521D01*
X11145022Y-44540586D01*
X11144848Y-44515273D01*
X11144631Y-44492925D01*
X11144374Y-44473877D01*
X11144082Y-44458471D01*
X11143759Y-44447048D01*
X11143408Y-44439943D01*
X11143034Y-44437500D01*
X11142244Y-44437909D01*
X11137648Y-44440543D01*
X11129213Y-44445469D01*
X11117229Y-44452514D01*
X11101988Y-44461506D01*
X11083778Y-44472271D01*
X11062890Y-44484640D01*
X11039613Y-44498437D01*
X11014239Y-44513489D01*
X10987056Y-44529626D01*
X10958355Y-44546673D01*
X10928427Y-44564459D01*
X10897560Y-44582811D01*
X10866045Y-44601555D01*
X10834173Y-44620520D01*
X10802234Y-44639532D01*
X10770515Y-44658419D01*
X10739310Y-44677010D01*
X10708907Y-44695130D01*
X10679597Y-44712607D01*
X10651669Y-44729269D01*
X10625413Y-44744942D01*
X10601121Y-44759454D01*
X10579081Y-44772634D01*
X10559584Y-44784308D01*
X10542920Y-44794303D01*
X10529378Y-44802446D01*
X10519250Y-44808566D01*
X10512824Y-44812488D01*
X10510392Y-44814042D01*
X10360276Y-44814042D01*
X10360108Y-44790281D01*
X10370765Y-44783057D01*
X10371454Y-44782602D01*
X10376148Y-44779579D01*
X10384765Y-44774071D01*
X10397085Y-44766221D01*
X10412884Y-44756168D01*
X10431942Y-44744053D01*
X10454036Y-44730017D01*
X10478948Y-44714199D01*
X10506454Y-44696742D01*
X10536332Y-44677784D01*
X10568362Y-44657468D01*
X10602322Y-44635933D01*
X10637991Y-44613319D01*
X10675147Y-44589768D01*
X10713568Y-44565420D01*
X10753035Y-44540416D01*
X11124648Y-44305000D01*
X11143034Y-44305000D01*
G37*
G36*
X10962728Y-37387500D02*
G01*
X11562787Y-37387501D01*
X11562787Y-37519800D01*
X11562787Y-37522309D01*
X11562726Y-37559206D01*
X11562538Y-37591647D01*
X11562202Y-37620143D01*
X11561691Y-37645204D01*
X11560984Y-37667340D01*
X11560055Y-37687063D01*
X11558883Y-37704882D01*
X11557442Y-37721309D01*
X11555710Y-37736853D01*
X11553660Y-37752026D01*
X11551272Y-37767338D01*
X11547087Y-37790274D01*
X11535309Y-37838772D01*
X11520098Y-37883706D01*
X11501402Y-37925129D01*
X11479170Y-37963093D01*
X11453349Y-37997649D01*
X11423888Y-38028850D01*
X11390734Y-38056747D01*
X11353835Y-38081391D01*
X11313139Y-38102835D01*
X11268594Y-38121130D01*
X11220148Y-38136329D01*
X11167748Y-38148482D01*
X11128922Y-38155079D01*
X11080257Y-38160910D01*
X11029642Y-38164581D01*
X10977894Y-38166123D01*
X10925834Y-38165561D01*
X10874283Y-38162925D01*
X10824061Y-38158242D01*
X10775988Y-38151541D01*
X10730886Y-38142848D01*
X10689574Y-38132193D01*
X10674648Y-38127573D01*
X10631743Y-38111903D01*
X10592692Y-38093720D01*
X10556992Y-38072742D01*
X10524139Y-38048679D01*
X10493630Y-38021250D01*
X10472008Y-37998211D01*
X10448305Y-37968009D01*
X10427845Y-37935546D01*
X10410303Y-37900239D01*
X10395363Y-37861502D01*
X10382703Y-37818750D01*
X10379389Y-37805298D01*
X10375568Y-37787629D01*
X10372256Y-37769299D01*
X10369420Y-37749879D01*
X10367032Y-37728931D01*
X10365059Y-37706023D01*
X10363471Y-37680722D01*
X10362238Y-37652592D01*
X10361327Y-37621202D01*
X10360708Y-37586115D01*
X10360378Y-37550000D01*
X10495182Y-37550000D01*
X10495182Y-37610985D01*
X10495208Y-37622333D01*
X10495547Y-37649627D01*
X10496336Y-37673216D01*
X10497644Y-37694032D01*
X10499539Y-37713009D01*
X10502089Y-37731079D01*
X10505365Y-37749176D01*
X10509134Y-37766371D01*
X10520025Y-37803370D01*
X10533986Y-37836547D01*
X10551081Y-37866038D01*
X10571370Y-37891979D01*
X10574205Y-37895042D01*
X10595783Y-37914681D01*
X10621315Y-37932135D01*
X10650895Y-37947434D01*
X10684613Y-37960610D01*
X10722564Y-37971695D01*
X10764837Y-37980721D01*
X10811524Y-37987721D01*
X10862718Y-37992724D01*
X10874868Y-37993479D01*
X10896133Y-37994294D01*
X10920365Y-37994751D01*
X10946678Y-37994869D01*
X10974188Y-37994664D01*
X11002010Y-37994156D01*
X11029259Y-37993361D01*
X11055051Y-37992297D01*
X11078500Y-37990982D01*
X11098722Y-37989434D01*
X11114833Y-37987670D01*
X11152483Y-37981865D01*
X11193388Y-37973574D01*
X11229992Y-37963676D01*
X11262577Y-37952014D01*
X11291429Y-37938434D01*
X11316832Y-37922776D01*
X11339068Y-37904885D01*
X11358424Y-37884604D01*
X11375182Y-37861779D01*
X11389629Y-37836250D01*
X11397913Y-37818238D01*
X11408827Y-37788551D01*
X11417294Y-37756576D01*
X11423508Y-37721528D01*
X11427664Y-37682625D01*
X11428331Y-37672386D01*
X11429106Y-37655777D01*
X11429721Y-37637017D01*
X11430127Y-37617720D01*
X11430274Y-37599500D01*
X11430274Y-37550000D01*
X10962728Y-37550000D01*
X10495182Y-37550000D01*
X10360378Y-37550000D01*
X10360350Y-37546901D01*
X10360224Y-37503125D01*
X10360169Y-37387500D01*
X10961478Y-37387500D01*
X10962728Y-37387500D01*
G37*
G36*
X10977263Y-39370413D02*
G01*
X10998537Y-39370451D01*
X11023899Y-39370778D01*
X11046484Y-39371396D01*
X11065390Y-39372320D01*
X11099287Y-39374894D01*
X11161313Y-39381822D01*
X11219094Y-39391357D01*
X11272651Y-39403503D01*
X11322003Y-39418265D01*
X11367168Y-39435647D01*
X11408165Y-39455659D01*
X11445014Y-39478301D01*
X11455541Y-39486126D01*
X11469495Y-39497693D01*
X11484114Y-39510820D01*
X11498205Y-39524399D01*
X11510585Y-39537318D01*
X11520065Y-39548467D01*
X11538229Y-39575435D01*
X11554117Y-39606030D01*
X11567141Y-39638930D01*
X11576845Y-39672977D01*
X11582771Y-39707015D01*
X11583282Y-39712203D01*
X11584149Y-39728251D01*
X11584394Y-39747022D01*
X11584065Y-39767231D01*
X11583206Y-39787591D01*
X11581869Y-39806818D01*
X11580101Y-39823629D01*
X11577949Y-39836735D01*
X11576886Y-39841542D01*
X11566244Y-39879299D01*
X11552106Y-39913782D01*
X11534176Y-39945529D01*
X11512157Y-39975076D01*
X11485750Y-40002959D01*
X11464036Y-40021880D01*
X11429867Y-40046255D01*
X11391485Y-40068004D01*
X11348924Y-40087113D01*
X11302217Y-40103566D01*
X11251398Y-40117349D01*
X11196501Y-40128447D01*
X11173478Y-40132097D01*
X11121162Y-40138508D01*
X11065827Y-40142968D01*
X11008553Y-40145475D01*
X10950424Y-40146029D01*
X10892519Y-40144632D01*
X10835922Y-40141278D01*
X10781713Y-40135971D01*
X10730973Y-40128709D01*
X10694598Y-40121813D01*
X10642770Y-40109140D01*
X10594855Y-40093807D01*
X10550911Y-40075851D01*
X10510995Y-40055313D01*
X10475165Y-40032228D01*
X10443480Y-40006640D01*
X10415996Y-39978584D01*
X10392773Y-39948099D01*
X10373868Y-39915225D01*
X10359338Y-39880000D01*
X10352537Y-39857013D01*
X10345281Y-39821030D01*
X10341389Y-39783626D01*
X10340971Y-39755529D01*
X10468077Y-39755529D01*
X10469992Y-39784063D01*
X10476579Y-39811470D01*
X10487670Y-39837369D01*
X10503092Y-39861379D01*
X10522677Y-39883120D01*
X10546255Y-39902211D01*
X10570368Y-39917164D01*
X10599134Y-39931366D01*
X10631171Y-39943761D01*
X10666668Y-39954386D01*
X10705810Y-39963277D01*
X10748783Y-39970469D01*
X10795775Y-39976000D01*
X10846973Y-39979905D01*
X10902561Y-39982221D01*
X10962728Y-39982983D01*
X10990918Y-39982882D01*
X11026472Y-39982370D01*
X11058525Y-39981380D01*
X11087940Y-39979852D01*
X11115581Y-39977727D01*
X11142313Y-39974947D01*
X11168998Y-39971453D01*
X11196501Y-39967188D01*
X11226155Y-39961616D01*
X11263563Y-39952579D01*
X11298379Y-39941830D01*
X11330022Y-39929577D01*
X11357907Y-39916028D01*
X11381454Y-39901389D01*
X11385494Y-39898413D01*
X11404157Y-39882135D01*
X11420917Y-39863412D01*
X11435057Y-39843236D01*
X11445864Y-39822601D01*
X11452624Y-39802499D01*
X11453756Y-39796409D01*
X11455259Y-39783236D01*
X11456214Y-39767880D01*
X11456562Y-39752095D01*
X11456242Y-39737634D01*
X11455197Y-39726250D01*
X11454219Y-39720688D01*
X11446817Y-39695675D01*
X11434864Y-39671650D01*
X11418708Y-39649049D01*
X11398701Y-39628305D01*
X11375196Y-39609854D01*
X11348540Y-39594128D01*
X11336019Y-39588120D01*
X11302585Y-39574738D01*
X11265048Y-39563190D01*
X11223289Y-39553452D01*
X11177190Y-39545499D01*
X11126630Y-39539304D01*
X11071489Y-39534842D01*
X11052689Y-39533945D01*
X11030129Y-39533331D01*
X11004696Y-39532990D01*
X10977263Y-39532909D01*
X10948704Y-39533075D01*
X10919896Y-39533477D01*
X10891712Y-39534103D01*
X10865026Y-39534939D01*
X10840715Y-39535975D01*
X10819652Y-39537197D01*
X10802713Y-39538594D01*
X10771676Y-39542131D01*
X10722297Y-39549613D01*
X10677492Y-39558938D01*
X10637200Y-39570142D01*
X10601362Y-39583260D01*
X10569916Y-39598326D01*
X10542803Y-39615376D01*
X10519961Y-39634445D01*
X10501331Y-39655568D01*
X10486852Y-39678780D01*
X10476463Y-39704117D01*
X10470103Y-39731612D01*
X10468077Y-39755529D01*
X10340971Y-39755529D01*
X10340825Y-39745688D01*
X10343550Y-39708102D01*
X10349525Y-39671753D01*
X10358713Y-39637526D01*
X10371074Y-39606307D01*
X10374826Y-39598651D01*
X10394148Y-39565609D01*
X10417337Y-39535217D01*
X10444447Y-39507441D01*
X10475533Y-39482257D01*
X10510647Y-39459636D01*
X10549846Y-39439549D01*
X10593180Y-39421967D01*
X10640705Y-39406863D01*
X10692475Y-39394210D01*
X10748543Y-39383975D01*
X10808963Y-39376134D01*
X10818963Y-39375206D01*
X10838523Y-39373865D01*
X10861617Y-39372724D01*
X10887343Y-39371794D01*
X10914800Y-39371086D01*
X10943085Y-39370619D01*
X10971299Y-39370402D01*
X10977263Y-39370413D01*
G37*
G36*
X10961027Y-40362606D02*
G01*
X10983328Y-40362647D01*
X11009399Y-40362920D01*
X11033609Y-40363418D01*
X11054915Y-40364140D01*
X11072271Y-40365087D01*
X11099452Y-40367253D01*
X11161502Y-40374268D01*
X11219293Y-40383866D01*
X11272843Y-40396054D01*
X11322172Y-40410835D01*
X11367297Y-40428218D01*
X11408237Y-40448204D01*
X11445014Y-40470802D01*
X11455541Y-40478626D01*
X11469495Y-40490193D01*
X11484113Y-40503320D01*
X11498205Y-40516899D01*
X11510586Y-40529818D01*
X11520065Y-40540966D01*
X11521445Y-40542774D01*
X11539396Y-40569932D01*
X11554982Y-40600383D01*
X11567701Y-40632857D01*
X11577048Y-40666085D01*
X11582524Y-40698796D01*
X11582726Y-40700775D01*
X11584344Y-40724319D01*
X11584870Y-40749690D01*
X11584299Y-40774653D01*
X11582630Y-40796973D01*
X11578995Y-40822324D01*
X11569674Y-40861333D01*
X11556098Y-40897770D01*
X11538246Y-40931660D01*
X11516100Y-40963032D01*
X11489638Y-40991911D01*
X11458841Y-41018324D01*
X11423689Y-41042299D01*
X11384162Y-41063861D01*
X11348611Y-41079628D01*
X11303817Y-41095603D01*
X11255344Y-41108989D01*
X11203054Y-41119816D01*
X11146812Y-41128108D01*
X11086483Y-41133893D01*
X11021933Y-41137199D01*
X11012904Y-41137462D01*
X10940664Y-41138098D01*
X10872388Y-41136020D01*
X10808103Y-41131237D01*
X10747837Y-41123754D01*
X10691617Y-41113578D01*
X10639472Y-41100716D01*
X10591432Y-41085175D01*
X10547522Y-41066961D01*
X10507772Y-41046082D01*
X10472209Y-41022544D01*
X10440861Y-40996354D01*
X10416182Y-40970800D01*
X10393850Y-40941912D01*
X10375688Y-40911135D01*
X10361451Y-40877976D01*
X10350893Y-40841947D01*
X10343767Y-40802555D01*
X10343553Y-40800918D01*
X10340408Y-40760450D01*
X10340914Y-40738448D01*
X10468679Y-40738448D01*
X10469009Y-40765635D01*
X10473428Y-40792513D01*
X10481696Y-40817955D01*
X10493578Y-40840835D01*
X10494029Y-40841535D01*
X10510664Y-40863318D01*
X10531073Y-40883067D01*
X10555361Y-40900823D01*
X10583634Y-40916624D01*
X10615991Y-40930510D01*
X10652540Y-40942520D01*
X10693384Y-40952692D01*
X10738624Y-40961066D01*
X10788367Y-40967682D01*
X10842717Y-40972578D01*
X10849110Y-40972988D01*
X10867646Y-40973837D01*
X10889809Y-40974489D01*
X10914643Y-40974943D01*
X10941188Y-40975199D01*
X10968487Y-40975258D01*
X10995580Y-40975120D01*
X11021511Y-40974783D01*
X11045320Y-40974250D01*
X11066049Y-40973517D01*
X11082740Y-40972586D01*
X11086578Y-40972308D01*
X11139961Y-40967372D01*
X11188757Y-40960790D01*
X11233106Y-40952516D01*
X11273151Y-40942502D01*
X11309032Y-40930704D01*
X11340891Y-40917074D01*
X11368869Y-40901568D01*
X11393107Y-40884139D01*
X11413746Y-40864741D01*
X11414255Y-40864188D01*
X11426934Y-40848318D01*
X11438152Y-40830426D01*
X11447013Y-40812118D01*
X11452624Y-40795000D01*
X11453671Y-40789484D01*
X11455230Y-40776204D01*
X11456200Y-40760628D01*
X11456526Y-40744508D01*
X11456154Y-40729593D01*
X11455029Y-40717635D01*
X11453242Y-40708908D01*
X11449712Y-40696354D01*
X11445596Y-40684957D01*
X11443808Y-40680848D01*
X11430802Y-40657149D01*
X11414023Y-40635524D01*
X11393378Y-40615930D01*
X11368773Y-40598330D01*
X11340113Y-40582682D01*
X11307305Y-40568947D01*
X11270253Y-40557082D01*
X11228865Y-40547050D01*
X11183046Y-40538808D01*
X11132703Y-40532319D01*
X11077740Y-40527540D01*
X11074377Y-40527323D01*
X11057388Y-40526523D01*
X11036595Y-40525905D01*
X11012961Y-40525470D01*
X10987450Y-40525217D01*
X10961026Y-40525147D01*
X10934656Y-40525260D01*
X10909299Y-40525555D01*
X10885924Y-40526033D01*
X10865491Y-40526693D01*
X10848967Y-40527537D01*
X10816970Y-40529973D01*
X10763900Y-40535717D01*
X10715406Y-40543318D01*
X10671430Y-40552801D01*
X10631916Y-40564196D01*
X10596809Y-40577534D01*
X10566054Y-40592844D01*
X10539591Y-40610156D01*
X10517368Y-40629498D01*
X10499327Y-40650902D01*
X10485412Y-40674396D01*
X10475568Y-40700010D01*
X10469739Y-40727773D01*
X10468679Y-40738448D01*
X10340914Y-40738448D01*
X10341330Y-40720386D01*
X10346190Y-40681285D01*
X10354861Y-40643704D01*
X10367215Y-40608205D01*
X10383125Y-40575344D01*
X10402462Y-40545681D01*
X10411715Y-40534217D01*
X10427599Y-40516855D01*
X10445330Y-40499559D01*
X10463441Y-40483737D01*
X10480461Y-40470802D01*
X10498176Y-40459273D01*
X10536783Y-40438125D01*
X10579619Y-40419508D01*
X10626612Y-40403441D01*
X10677693Y-40389945D01*
X10732796Y-40379038D01*
X10791852Y-40370740D01*
X10854791Y-40365070D01*
X10861665Y-40364655D01*
X10881355Y-40363803D01*
X10904413Y-40363177D01*
X10929790Y-40362775D01*
X10956444Y-40362598D01*
X10961027Y-40362606D01*
G37*
G36*
X10999755Y-41356194D02*
G01*
X11025808Y-41356454D01*
X11049890Y-41356905D01*
X11071243Y-41357553D01*
X11089113Y-41358400D01*
X11102742Y-41359450D01*
X11149844Y-41364968D01*
X11202035Y-41373002D01*
X11250052Y-41382694D01*
X11294224Y-41394142D01*
X11334878Y-41407442D01*
X11372345Y-41422692D01*
X11406951Y-41439992D01*
X11439025Y-41459437D01*
X11444580Y-41463258D01*
X11460817Y-41475629D01*
X11477754Y-41490003D01*
X11494141Y-41505239D01*
X11508730Y-41520198D01*
X11520273Y-41533737D01*
X11522341Y-41536459D01*
X11539994Y-41563436D01*
X11555343Y-41593683D01*
X11567882Y-41625926D01*
X11577112Y-41658888D01*
X11582524Y-41691296D01*
X11583666Y-41704007D01*
X11584976Y-41738273D01*
X11583881Y-41772514D01*
X11580463Y-41805237D01*
X11574802Y-41834946D01*
X11571953Y-41845852D01*
X11559012Y-41883285D01*
X11541816Y-41918093D01*
X11520365Y-41950275D01*
X11494658Y-41979832D01*
X11464697Y-42006763D01*
X11430482Y-42031068D01*
X11392012Y-42052747D01*
X11349289Y-42071800D01*
X11302312Y-42088226D01*
X11251081Y-42102025D01*
X11195598Y-42113198D01*
X11135861Y-42121744D01*
X11071872Y-42127663D01*
X11062298Y-42128226D01*
X11043031Y-42128956D01*
X11020448Y-42129426D01*
X10995383Y-42129652D01*
X10968665Y-42129642D01*
X10941127Y-42129410D01*
X10913599Y-42128964D01*
X10886912Y-42128320D01*
X10861900Y-42127486D01*
X10839391Y-42126475D01*
X10820218Y-42125299D01*
X10805213Y-42123968D01*
X10778783Y-42120731D01*
X10737224Y-42114428D01*
X10696973Y-42106873D01*
X10658950Y-42098261D01*
X10624070Y-42088789D01*
X10593253Y-42078652D01*
X10560815Y-42065572D01*
X10522446Y-42046604D01*
X10487106Y-42025083D01*
X10455242Y-42001319D01*
X10427305Y-41975621D01*
X10403743Y-41948297D01*
X10401368Y-41945111D01*
X10381561Y-41914015D01*
X10365522Y-41880059D01*
X10353330Y-41843714D01*
X10345064Y-41805453D01*
X10340802Y-41765750D01*
X10340661Y-41733525D01*
X10468457Y-41733525D01*
X10469245Y-41762512D01*
X10474794Y-41790450D01*
X10484968Y-41816925D01*
X10499627Y-41841526D01*
X10518634Y-41863841D01*
X10520608Y-41865778D01*
X10541680Y-41883701D01*
X10566068Y-41899766D01*
X10593957Y-41914032D01*
X10625533Y-41926557D01*
X10660980Y-41937397D01*
X10700488Y-41946610D01*
X10744239Y-41954254D01*
X10792420Y-41960386D01*
X10845217Y-41965065D01*
X10854909Y-41965648D01*
X10873133Y-41966386D01*
X10894814Y-41966946D01*
X10919026Y-41967330D01*
X10944841Y-41967538D01*
X10971332Y-41967569D01*
X10997574Y-41967423D01*
X11022638Y-41967100D01*
X11045596Y-41966602D01*
X11065523Y-41965926D01*
X11081490Y-41965073D01*
X11133193Y-41960589D01*
X11183147Y-41954152D01*
X11228635Y-41945917D01*
X11269774Y-41935845D01*
X11306681Y-41923899D01*
X11339475Y-41910040D01*
X11368270Y-41894230D01*
X11393184Y-41876432D01*
X11414335Y-41856606D01*
X11415738Y-41855063D01*
X11427820Y-41839596D01*
X11438609Y-41822073D01*
X11447183Y-41804153D01*
X11452624Y-41787499D01*
X11453678Y-41781950D01*
X11455232Y-41768676D01*
X11456201Y-41753113D01*
X11456527Y-41737014D01*
X11456158Y-41722127D01*
X11455038Y-41710207D01*
X11452329Y-41697651D01*
X11445789Y-41678341D01*
X11436930Y-41659426D01*
X11426648Y-41643028D01*
X11420460Y-41635133D01*
X11401899Y-41615694D01*
X11379903Y-41598138D01*
X11354299Y-41582401D01*
X11324913Y-41568414D01*
X11291574Y-41556111D01*
X11254110Y-41545425D01*
X11212349Y-41536290D01*
X11166117Y-41528638D01*
X11115243Y-41522403D01*
X11111799Y-41522075D01*
X11097858Y-41521106D01*
X11079937Y-41520253D01*
X11058814Y-41519527D01*
X11035262Y-41518931D01*
X11010058Y-41518474D01*
X10983977Y-41518165D01*
X10957796Y-41518010D01*
X10932289Y-41518018D01*
X10908234Y-41518195D01*
X10886404Y-41518550D01*
X10867576Y-41519089D01*
X10852526Y-41519822D01*
X10817689Y-41522459D01*
X10764609Y-41528208D01*
X10716110Y-41535779D01*
X10672130Y-41545204D01*
X10632612Y-41556513D01*
X10597495Y-41569737D01*
X10566720Y-41584908D01*
X10540227Y-41602055D01*
X10517958Y-41621210D01*
X10499853Y-41642404D01*
X10485852Y-41665668D01*
X10475896Y-41691032D01*
X10469926Y-41718528D01*
X10468457Y-41733525D01*
X10340661Y-41733525D01*
X10340624Y-41725076D01*
X10344605Y-41683903D01*
X10352828Y-41642705D01*
X10357520Y-41626174D01*
X10371296Y-41590794D01*
X10389630Y-41557405D01*
X10412456Y-41526116D01*
X10439707Y-41497040D01*
X10452808Y-41485232D01*
X10483671Y-41461553D01*
X10518189Y-41440290D01*
X10556490Y-41421396D01*
X10598701Y-41404823D01*
X10644947Y-41390527D01*
X10695356Y-41378458D01*
X10750056Y-41368572D01*
X10809172Y-41360820D01*
X10811080Y-41360620D01*
X10825688Y-41359468D01*
X10844371Y-41358480D01*
X10866377Y-41357659D01*
X10890947Y-41357009D01*
X10917326Y-41356534D01*
X10944758Y-41356239D01*
X10957796Y-41356184D01*
X10972487Y-41356123D01*
X10999755Y-41356194D01*
G37*
G36*
X8228506Y-38014855D02*
G01*
X8302885Y-38018665D01*
X8375549Y-38024498D01*
X8445780Y-38032351D01*
X8512863Y-38042215D01*
X8576081Y-38054087D01*
X8595041Y-38058231D01*
X8655018Y-38073370D01*
X8711966Y-38090904D01*
X8765604Y-38110715D01*
X8815653Y-38132682D01*
X8861832Y-38156686D01*
X8903861Y-38182606D01*
X8941459Y-38210323D01*
X8947509Y-38215287D01*
X8985782Y-38250079D01*
X9019815Y-38287334D01*
X9049647Y-38327129D01*
X9075314Y-38369540D01*
X9096854Y-38414647D01*
X9114305Y-38462525D01*
X9127705Y-38513251D01*
X9137090Y-38566903D01*
X9142498Y-38623558D01*
X9143257Y-38639013D01*
X9143511Y-38693134D01*
X9140055Y-38746214D01*
X9132979Y-38797700D01*
X9122374Y-38847042D01*
X9108331Y-38893691D01*
X9090939Y-38937098D01*
X9089750Y-38939705D01*
X9086078Y-38947876D01*
X9083509Y-38953775D01*
X9082543Y-38956269D01*
X9082285Y-38957111D01*
X9079951Y-38961654D01*
X9075618Y-38969163D01*
X9069808Y-38978799D01*
X9063045Y-38989723D01*
X9055851Y-39001094D01*
X9048750Y-39012075D01*
X9042264Y-39021824D01*
X9036915Y-39029504D01*
X9035063Y-39032009D01*
X9025017Y-39044456D01*
X9012264Y-39058945D01*
X8997722Y-39074532D01*
X8982310Y-39090276D01*
X8966944Y-39105232D01*
X8952545Y-39118458D01*
X8940029Y-39129011D01*
X8934663Y-39133200D01*
X8891177Y-39163797D01*
X8843450Y-39191795D01*
X8791518Y-39217179D01*
X8735416Y-39239936D01*
X8675181Y-39260049D01*
X8610848Y-39277504D01*
X8542453Y-39292286D01*
X8499436Y-39299861D01*
X8430620Y-39309642D01*
X8358635Y-39317278D01*
X8284250Y-39322772D01*
X8208236Y-39326127D01*
X8131361Y-39327343D01*
X8054396Y-39326426D01*
X7978111Y-39323373D01*
X7903274Y-39318191D01*
X7830656Y-39310879D01*
X7761026Y-39301441D01*
X7695155Y-39289878D01*
X7658177Y-39282047D01*
X7592269Y-39265323D01*
X7530557Y-39245885D01*
X7473040Y-39223729D01*
X7419716Y-39198856D01*
X7370582Y-39171262D01*
X7325635Y-39140946D01*
X7284874Y-39107908D01*
X7248296Y-39072144D01*
X7215898Y-39033653D01*
X7187679Y-38992434D01*
X7163635Y-38948486D01*
X7143766Y-38901805D01*
X7139482Y-38889731D01*
X7126660Y-38845899D01*
X7116830Y-38799086D01*
X7110061Y-38750136D01*
X7106421Y-38699894D01*
X7106204Y-38674876D01*
X7321544Y-38674876D01*
X7322145Y-38697188D01*
X7323584Y-38717613D01*
X7325859Y-38734627D01*
X7330909Y-38758009D01*
X7342137Y-38793733D01*
X7357184Y-38826703D01*
X7376147Y-38857016D01*
X7399123Y-38884770D01*
X7426209Y-38910061D01*
X7457503Y-38932989D01*
X7493100Y-38953652D01*
X7533099Y-38972146D01*
X7577595Y-38988570D01*
X7607589Y-38997780D01*
X7653474Y-39009579D01*
X7703149Y-39019827D01*
X7756738Y-39028538D01*
X7814367Y-39035723D01*
X7876159Y-39041397D01*
X7942239Y-39045570D01*
X8012732Y-39048257D01*
X8087762Y-39049470D01*
X8167453Y-39049222D01*
X8172375Y-39049162D01*
X8229173Y-39048132D01*
X8281596Y-39046515D01*
X8330197Y-39044264D01*
X8375530Y-39041331D01*
X8418147Y-39037672D01*
X8458599Y-39033237D01*
X8497439Y-39027980D01*
X8535220Y-39021854D01*
X8572493Y-39014813D01*
X8602546Y-39008295D01*
X8653004Y-38995028D01*
X8698969Y-38979707D01*
X8740517Y-38962268D01*
X8777719Y-38942648D01*
X8810646Y-38920782D01*
X8839372Y-38896606D01*
X8863968Y-38870056D01*
X8884506Y-38841068D01*
X8901060Y-38809578D01*
X8913699Y-38775522D01*
X8922497Y-38738835D01*
X8927527Y-38699453D01*
X8927549Y-38699164D01*
X8928445Y-38687037D01*
X8929133Y-38676560D01*
X8929547Y-38668844D01*
X8929620Y-38665000D01*
X8929434Y-38662631D01*
X8928908Y-38655885D01*
X8928158Y-38646262D01*
X8927282Y-38635000D01*
X8925801Y-38621141D01*
X8921643Y-38596876D01*
X8915732Y-38572250D01*
X8908515Y-38549046D01*
X8900447Y-38529044D01*
X8889011Y-38507224D01*
X8868146Y-38476284D01*
X8843054Y-38447839D01*
X8813870Y-38422018D01*
X8780728Y-38398951D01*
X8743760Y-38378764D01*
X8731067Y-38372890D01*
X8691595Y-38357203D01*
X8647416Y-38343156D01*
X8598544Y-38330751D01*
X8544995Y-38319990D01*
X8486778Y-38310875D01*
X8423911Y-38303408D01*
X8356405Y-38297592D01*
X8284276Y-38293426D01*
X8207536Y-38290914D01*
X8126199Y-38290059D01*
X8126095Y-38290059D01*
X8045697Y-38290848D01*
X7969658Y-38293261D01*
X7898029Y-38297292D01*
X7830856Y-38302935D01*
X7768188Y-38310186D01*
X7710071Y-38319038D01*
X7656556Y-38329486D01*
X7607689Y-38341524D01*
X7563518Y-38355148D01*
X7560170Y-38356313D01*
X7517139Y-38373479D01*
X7478380Y-38393236D01*
X7443884Y-38415595D01*
X7413639Y-38440567D01*
X7387637Y-38468163D01*
X7365865Y-38498394D01*
X7348314Y-38531269D01*
X7334975Y-38566800D01*
X7325835Y-38605001D01*
X7324770Y-38611817D01*
X7322857Y-38630670D01*
X7321782Y-38652196D01*
X7321544Y-38674876D01*
X7106204Y-38674876D01*
X7105981Y-38649203D01*
X7108808Y-38598909D01*
X7114973Y-38549856D01*
X7125511Y-38498350D01*
X7140320Y-38448263D01*
X7159188Y-38400976D01*
X7182130Y-38356478D01*
X7209160Y-38314756D01*
X7240291Y-38275799D01*
X7275539Y-38239595D01*
X7314917Y-38206131D01*
X7358439Y-38175396D01*
X7406121Y-38147377D01*
X7457975Y-38122062D01*
X7514017Y-38099440D01*
X7574260Y-38079499D01*
X7638718Y-38062224D01*
X7707407Y-38047606D01*
X7720039Y-38045290D01*
X7786355Y-38034787D01*
X7855972Y-38026343D01*
X7928175Y-38019956D01*
X8002247Y-38015619D01*
X8077471Y-38013328D01*
X8126095Y-38013164D01*
X8153129Y-38013074D01*
X8228506Y-38014855D01*
G37*
G36*
X7721007Y-39666324D02*
G01*
X7749597Y-39668008D01*
X7775241Y-39670694D01*
X7799172Y-39674556D01*
X7822624Y-39679770D01*
X7846831Y-39686513D01*
X7870743Y-39694418D01*
X7911292Y-39711295D01*
X7948927Y-39731769D01*
X7983890Y-39756037D01*
X8016422Y-39784297D01*
X8046764Y-39816746D01*
X8075157Y-39853581D01*
X8101842Y-39895000D01*
X8104426Y-39899485D01*
X8112103Y-39913790D01*
X8120773Y-39931049D01*
X8129853Y-39950032D01*
X8138762Y-39969506D01*
X8146919Y-39988239D01*
X8153742Y-40005000D01*
X8159401Y-40019946D01*
X8167463Y-40042687D01*
X8175308Y-40066720D01*
X8183111Y-40092652D01*
X8191046Y-40121091D01*
X8199285Y-40152639D01*
X8208003Y-40187907D01*
X8217372Y-40227500D01*
X8219220Y-40235442D01*
X8227410Y-40270524D01*
X8234654Y-40301255D01*
X8241073Y-40328073D01*
X8246788Y-40351414D01*
X8251920Y-40371715D01*
X8256591Y-40389416D01*
X8260921Y-40404950D01*
X8265030Y-40418757D01*
X8269043Y-40431272D01*
X8273077Y-40442933D01*
X8277255Y-40454177D01*
X8281697Y-40465442D01*
X8286525Y-40477164D01*
X8300572Y-40507934D01*
X8319874Y-40542426D01*
X8341252Y-40572491D01*
X8364926Y-40598280D01*
X8391116Y-40619947D01*
X8420041Y-40637643D01*
X8451921Y-40651522D01*
X8486977Y-40661735D01*
X8525427Y-40668432D01*
X8567493Y-40671769D01*
X8594822Y-40672045D01*
X8636634Y-40669180D01*
X8676005Y-40662292D01*
X8712739Y-40651433D01*
X8746640Y-40636650D01*
X8777513Y-40617996D01*
X8797112Y-40602857D01*
X8824013Y-40577026D01*
X8848261Y-40547398D01*
X8869558Y-40514400D01*
X8887605Y-40478458D01*
X8902103Y-40440000D01*
X8910816Y-40409100D01*
X8920193Y-40362626D01*
X8926105Y-40313548D01*
X8928579Y-40262423D01*
X8927655Y-40209805D01*
X8923361Y-40156249D01*
X8915729Y-40102311D01*
X8904793Y-40048544D01*
X8890584Y-39995506D01*
X8873136Y-39943750D01*
X8867649Y-39929477D01*
X8851576Y-39890940D01*
X8833082Y-39850489D01*
X8812827Y-39809428D01*
X8791468Y-39769061D01*
X8769661Y-39730692D01*
X8748063Y-39695625D01*
X8744435Y-39690000D01*
X8885367Y-39690000D01*
X9026300Y-39690000D01*
X9041076Y-39727803D01*
X9059835Y-39778524D01*
X9082750Y-39849600D01*
X9102286Y-39921780D01*
X9118278Y-39994299D01*
X9130563Y-40066393D01*
X9138979Y-40137297D01*
X9143361Y-40206250D01*
X9143396Y-40207313D01*
X9143795Y-40218429D01*
X9144190Y-40228780D01*
X9144504Y-40236250D01*
X9144610Y-40243886D01*
X9144398Y-40256174D01*
X9143892Y-40271627D01*
X9143144Y-40289291D01*
X9142203Y-40308216D01*
X9141120Y-40327447D01*
X9139947Y-40346033D01*
X9138734Y-40363021D01*
X9137531Y-40377461D01*
X9136391Y-40388395D01*
X9132832Y-40414804D01*
X9127675Y-40447195D01*
X9121942Y-40477795D01*
X9115916Y-40505000D01*
X9101742Y-40555548D01*
X9083245Y-40606386D01*
X9061360Y-40653765D01*
X9036140Y-40697604D01*
X9007632Y-40737823D01*
X8975891Y-40774342D01*
X8940968Y-40807082D01*
X8902914Y-40835962D01*
X8897513Y-40839551D01*
X8870216Y-40855684D01*
X8839523Y-40871015D01*
X8806747Y-40884975D01*
X8773205Y-40896991D01*
X8740210Y-40906496D01*
X8728841Y-40909254D01*
X8708898Y-40913604D01*
X8689687Y-40917028D01*
X8670255Y-40919621D01*
X8649648Y-40921481D01*
X8626912Y-40922704D01*
X8601095Y-40923387D01*
X8571243Y-40923629D01*
X8553158Y-40923627D01*
X8531409Y-40923474D01*
X8513030Y-40923075D01*
X8497074Y-40922349D01*
X8482589Y-40921219D01*
X8468626Y-40919604D01*
X8454233Y-40917426D01*
X8438461Y-40914607D01*
X8420360Y-40911065D01*
X8404301Y-40907562D01*
X8362928Y-40895992D01*
X8322774Y-40881174D01*
X8284975Y-40863563D01*
X8250668Y-40843609D01*
X8241639Y-40837567D01*
X8206437Y-40810694D01*
X8173640Y-40780061D01*
X8143162Y-40745537D01*
X8114911Y-40706991D01*
X8088799Y-40664295D01*
X8064737Y-40617318D01*
X8042635Y-40565929D01*
X8022406Y-40510000D01*
X8019107Y-40499914D01*
X8012984Y-40480344D01*
X8007047Y-40460082D01*
X8001107Y-40438422D01*
X7994981Y-40414663D01*
X7988486Y-40388100D01*
X7981438Y-40358030D01*
X7973650Y-40323750D01*
X7965729Y-40288949D01*
X7957962Y-40256060D01*
X7950725Y-40226932D01*
X7943846Y-40200965D01*
X7937153Y-40177557D01*
X7930474Y-40156107D01*
X7923636Y-40136014D01*
X7916469Y-40116679D01*
X7908796Y-40097500D01*
X7901172Y-40079845D01*
X7884868Y-40047107D01*
X7867436Y-40018832D01*
X7848560Y-39994691D01*
X7827927Y-39974351D01*
X7805223Y-39957482D01*
X7780133Y-39943753D01*
X7752341Y-39932833D01*
X7728385Y-39926246D01*
X7695281Y-39920583D01*
X7660494Y-39918006D01*
X7625167Y-39918486D01*
X7590446Y-39921999D01*
X7557473Y-39928517D01*
X7527390Y-39938014D01*
X7518064Y-39941862D01*
X7486922Y-39958103D01*
X7457571Y-39978708D01*
X7430369Y-40003322D01*
X7405677Y-40031592D01*
X7383853Y-40063161D01*
X7365259Y-40097678D01*
X7360224Y-40108764D01*
X7347921Y-40140086D01*
X7338150Y-40172405D01*
X7330773Y-40206448D01*
X7325649Y-40242949D01*
X7322640Y-40282639D01*
X7321603Y-40326251D01*
X7322033Y-40356512D01*
X7324964Y-40404174D01*
X7330838Y-40450432D01*
X7339863Y-40496461D01*
X7352240Y-40543434D01*
X7368179Y-40592523D01*
X7380437Y-40625586D01*
X7403777Y-40680452D01*
X7430604Y-40734178D01*
X7461556Y-40788098D01*
X7465542Y-40794690D01*
X7470364Y-40802856D01*
X7473663Y-40808687D01*
X7474885Y-40811223D01*
X7474296Y-40811343D01*
X7469594Y-40811578D01*
X7460573Y-40811796D01*
X7447693Y-40811993D01*
X7431410Y-40812164D01*
X7412183Y-40812304D01*
X7390471Y-40812411D01*
X7366732Y-40812476D01*
X7341422Y-40812500D01*
X7207960Y-40812500D01*
X7196402Y-40779768D01*
X7187695Y-40754578D01*
X7164030Y-40679455D01*
X7144403Y-40606109D01*
X7128807Y-40534631D01*
X7117234Y-40465109D01*
X7109674Y-40397632D01*
X7106119Y-40332290D01*
X7106561Y-40269172D01*
X7110990Y-40208367D01*
X7119399Y-40149964D01*
X7131779Y-40094052D01*
X7148121Y-40040721D01*
X7168416Y-39990060D01*
X7192657Y-39942158D01*
X7220834Y-39897104D01*
X7252940Y-39854987D01*
X7288964Y-39815898D01*
X7311910Y-39794506D01*
X7350990Y-39763441D01*
X7392552Y-39736712D01*
X7436651Y-39714284D01*
X7483345Y-39696121D01*
X7500956Y-39690495D01*
X7538823Y-39680288D01*
X7576633Y-39672865D01*
X7615530Y-39668066D01*
X7656657Y-39665731D01*
X7701157Y-39665701D01*
X7721007Y-39666324D01*
G37*
G36*
X7147979Y-42725922D02*
G01*
X7148065Y-42725936D01*
X7151535Y-42726470D01*
X7159722Y-42727707D01*
X7172422Y-42729619D01*
X7189431Y-42732173D01*
X7210541Y-42735339D01*
X7235549Y-42739087D01*
X7264253Y-42743385D01*
X7296445Y-42748206D01*
X7331921Y-42753516D01*
X7370476Y-42759285D01*
X7411906Y-42765483D01*
X7456006Y-42772079D01*
X7502571Y-42779043D01*
X7551396Y-42786344D01*
X7602276Y-42793951D01*
X7655008Y-42801834D01*
X7709386Y-42809963D01*
X7765205Y-42818306D01*
X7822260Y-42826833D01*
X7880348Y-42835514D01*
X7939261Y-42844318D01*
X7998799Y-42853214D01*
X8058754Y-42862171D01*
X8118921Y-42871160D01*
X8179096Y-42880150D01*
X8239075Y-42889109D01*
X8298652Y-42898008D01*
X8357623Y-42906815D01*
X8415784Y-42915501D01*
X8472927Y-42924034D01*
X8528851Y-42932385D01*
X8583349Y-42940522D01*
X8636218Y-42948414D01*
X8687252Y-42956032D01*
X8736246Y-42963345D01*
X8782997Y-42970322D01*
X8827298Y-42976932D01*
X8868945Y-42983145D01*
X8907734Y-42988930D01*
X8943460Y-42994258D01*
X8975918Y-42999097D01*
X9004903Y-43003415D01*
X9030210Y-43007184D01*
X9051637Y-43010372D01*
X9068974Y-43012949D01*
X9082021Y-43014883D01*
X9090571Y-43016147D01*
X9094419Y-43016707D01*
X9105045Y-43018179D01*
X9105045Y-43143594D01*
X9105045Y-43269011D01*
X8991909Y-43294737D01*
X8983914Y-43296557D01*
X8956707Y-43302747D01*
X8928304Y-43309216D01*
X8899716Y-43315730D01*
X8871956Y-43322062D01*
X8846037Y-43327978D01*
X8822969Y-43333249D01*
X8803766Y-43337642D01*
X8799925Y-43338520D01*
X8787083Y-43341456D01*
X8769823Y-43345395D01*
X8748474Y-43350264D01*
X8723366Y-43355989D01*
X8694825Y-43362494D01*
X8663177Y-43369705D01*
X8628753Y-43377547D01*
X8591879Y-43385946D01*
X8552881Y-43394827D01*
X8512090Y-43404115D01*
X8469833Y-43413735D01*
X8426437Y-43423614D01*
X8382230Y-43433674D01*
X8337541Y-43443846D01*
X8306882Y-43450826D01*
X8264444Y-43460498D01*
X8223497Y-43469842D01*
X8184301Y-43478800D01*
X8147117Y-43487310D01*
X8112205Y-43495312D01*
X8079826Y-43502747D01*
X8050239Y-43509555D01*
X8023705Y-43515675D01*
X8000485Y-43521049D01*
X7980840Y-43525617D01*
X7965029Y-43529316D01*
X7953313Y-43532090D01*
X7945953Y-43533875D01*
X7943208Y-43534614D01*
X7945346Y-43535281D01*
X7952127Y-43537009D01*
X7963321Y-43539745D01*
X7978697Y-43543436D01*
X7998024Y-43548026D01*
X8021069Y-43553464D01*
X8047604Y-43559695D01*
X8077394Y-43566666D01*
X8110209Y-43574324D01*
X8145818Y-43582616D01*
X8183988Y-43591487D01*
X8224488Y-43600884D01*
X8267089Y-43610754D01*
X8311557Y-43621044D01*
X8357661Y-43631699D01*
X8405170Y-43642667D01*
X8453851Y-43653894D01*
X8503475Y-43665326D01*
X8553809Y-43676910D01*
X8604622Y-43688593D01*
X8655682Y-43700321D01*
X8706758Y-43712041D01*
X8757619Y-43723698D01*
X8808033Y-43735241D01*
X8857768Y-43746615D01*
X8906593Y-43757767D01*
X8954279Y-43768643D01*
X9000590Y-43779190D01*
X9045297Y-43789354D01*
X9088169Y-43799082D01*
X9105045Y-43802908D01*
X9105038Y-43928329D01*
X9105030Y-44053751D01*
X8911894Y-44095608D01*
X8901291Y-44097906D01*
X8816106Y-44116369D01*
X8735691Y-44133798D01*
X8659941Y-44150216D01*
X8588753Y-44165646D01*
X8522020Y-44180111D01*
X8459640Y-44193633D01*
X8401506Y-44206235D01*
X8347516Y-44217940D01*
X8297563Y-44228770D01*
X8251544Y-44238748D01*
X8209354Y-44247896D01*
X8170888Y-44256238D01*
X8136043Y-44263796D01*
X8104712Y-44270592D01*
X8076793Y-44276650D01*
X8052180Y-44281993D01*
X8030769Y-44286640D01*
X8012455Y-44290618D01*
X7997133Y-44293948D01*
X7984700Y-44296652D01*
X7975050Y-44298754D01*
X7968079Y-44300276D01*
X7963683Y-44301241D01*
X7959136Y-44302238D01*
X7948669Y-44304526D01*
X7933807Y-44307764D01*
X7914735Y-44311913D01*
X7891642Y-44316933D01*
X7864710Y-44322784D01*
X7834125Y-44329425D01*
X7800075Y-44336816D01*
X7762743Y-44344918D01*
X7722315Y-44353689D01*
X7678979Y-44363091D01*
X7632918Y-44373081D01*
X7584318Y-44383620D01*
X7533367Y-44394668D01*
X7480247Y-44406185D01*
X7425146Y-44418130D01*
X7368249Y-44430465D01*
X7309742Y-44443146D01*
X7249811Y-44456137D01*
X7188640Y-44469396D01*
X7126416Y-44482880D01*
X7063325Y-44496553D01*
X6999551Y-44510372D01*
X6935281Y-44524298D01*
X6870700Y-44538291D01*
X6805994Y-44552310D01*
X6741348Y-44566315D01*
X6676949Y-44580266D01*
X6612981Y-44594123D01*
X6549631Y-44607846D01*
X6487083Y-44621393D01*
X6425524Y-44634726D01*
X6365141Y-44647803D01*
X6306116Y-44660586D01*
X6248636Y-44673032D01*
X6192888Y-44685103D01*
X6139056Y-44696757D01*
X6087328Y-44707956D01*
X6037887Y-44718658D01*
X5990920Y-44728823D01*
X5946612Y-44738411D01*
X5905149Y-44747382D01*
X5866717Y-44755696D01*
X5831501Y-44763313D01*
X5799686Y-44770191D01*
X5771462Y-44776292D01*
X5747007Y-44781574D01*
X5726513Y-44785998D01*
X5710162Y-44789523D01*
X5698142Y-44792109D01*
X5690637Y-44793716D01*
X5687834Y-44794304D01*
X5679707Y-44795654D01*
X5679708Y-44666908D01*
X5679708Y-44538162D01*
X5691585Y-44535775D01*
X5698142Y-44534444D01*
X5710404Y-44531930D01*
X5727061Y-44528496D01*
X5747954Y-44524175D01*
X5772922Y-44519002D01*
X5801805Y-44513009D01*
X5834443Y-44506229D01*
X5870676Y-44498698D01*
X5910343Y-44490447D01*
X5953284Y-44481511D01*
X5999340Y-44471921D01*
X6048349Y-44461714D01*
X6100152Y-44450921D01*
X6154589Y-44439576D01*
X6211499Y-44427713D01*
X6270723Y-44415365D01*
X6332099Y-44402566D01*
X6395468Y-44389348D01*
X6460670Y-44375746D01*
X6527544Y-44361793D01*
X6595931Y-44347522D01*
X6665669Y-44332968D01*
X6736600Y-44318162D01*
X6808562Y-44303140D01*
X6881397Y-44287934D01*
X6954942Y-44272577D01*
X7029038Y-44257104D01*
X7103525Y-44241547D01*
X7178243Y-44225941D01*
X7253032Y-44210317D01*
X7327732Y-44194712D01*
X7402181Y-44179156D01*
X7476220Y-44163685D01*
X7549690Y-44148331D01*
X7622429Y-44133128D01*
X7694277Y-44118109D01*
X7765075Y-44103310D01*
X7834662Y-44088759D01*
X7902878Y-44074494D01*
X7969563Y-44060548D01*
X8034556Y-44046953D01*
X8097696Y-44033743D01*
X8158827Y-44020952D01*
X8217785Y-44008613D01*
X8274411Y-43996760D01*
X8328544Y-43985425D01*
X8380025Y-43974644D01*
X8428693Y-43964448D01*
X8474388Y-43954871D01*
X8516950Y-43945947D01*
X8556219Y-43937710D01*
X8592034Y-43930192D01*
X8624236Y-43923428D01*
X8652663Y-43917450D01*
X8677157Y-43912292D01*
X8697557Y-43907989D01*
X8713702Y-43904573D01*
X8725432Y-43902077D01*
X8732588Y-43900535D01*
X8735009Y-43899980D01*
X8735008Y-43899978D01*
X8732526Y-43899312D01*
X8725380Y-43897653D01*
X8713795Y-43895049D01*
X8697992Y-43891548D01*
X8678197Y-43887198D01*
X8654633Y-43882049D01*
X8627523Y-43876147D01*
X8597090Y-43869544D01*
X8563559Y-43862284D01*
X8527153Y-43854419D01*
X8488095Y-43845995D01*
X8446609Y-43837060D01*
X8402919Y-43827667D01*
X8357247Y-43817859D01*
X8309819Y-43807688D01*
X8260856Y-43797200D01*
X8210582Y-43786444D01*
X8210332Y-43786391D01*
X8160019Y-43775631D01*
X8110992Y-43765141D01*
X8063475Y-43754971D01*
X8017694Y-43745167D01*
X7973875Y-43735779D01*
X7932242Y-43726854D01*
X7893021Y-43718442D01*
X7856437Y-43710591D01*
X7822716Y-43703348D01*
X7792083Y-43696763D01*
X7764762Y-43690884D01*
X7740980Y-43685759D01*
X7720962Y-43681436D01*
X7704933Y-43677965D01*
X7693117Y-43675393D01*
X7685741Y-43673768D01*
X7683031Y-43673140D01*
X7682562Y-43672548D01*
X7681925Y-43669885D01*
X7681393Y-43664813D01*
X7680954Y-43657008D01*
X7680603Y-43646146D01*
X7680332Y-43631904D01*
X7680135Y-43613958D01*
X7680002Y-43591983D01*
X7679929Y-43565656D01*
X7679905Y-43534654D01*
X7679915Y-43513990D01*
X7679970Y-43486062D01*
X7680081Y-43462599D01*
X7680255Y-43443278D01*
X7680499Y-43427775D01*
X7680821Y-43415766D01*
X7681228Y-43406928D01*
X7681727Y-43400935D01*
X7682325Y-43397466D01*
X7683031Y-43396195D01*
X7685399Y-43395650D01*
X7692460Y-43394110D01*
X7703975Y-43391628D01*
X7719719Y-43388253D01*
X7739466Y-43384032D01*
X7762988Y-43379014D01*
X7790061Y-43373247D01*
X7820457Y-43366779D01*
X7853949Y-43359657D01*
X7890312Y-43351932D01*
X7929320Y-43343650D01*
X7970744Y-43334860D01*
X8014359Y-43325609D01*
X8059940Y-43315946D01*
X8107259Y-43305919D01*
X8156090Y-43295576D01*
X8206207Y-43284966D01*
X8252745Y-43275111D01*
X8301692Y-43264740D01*
X8349148Y-43254677D01*
X8394886Y-43244972D01*
X8438680Y-43235673D01*
X8480304Y-43226827D01*
X8519530Y-43218484D01*
X8556130Y-43210691D01*
X8589879Y-43203496D01*
X8620550Y-43196950D01*
X8647916Y-43191098D01*
X8671750Y-43185991D01*
X8691826Y-43181676D01*
X8707918Y-43178201D01*
X8719795Y-43175615D01*
X8727235Y-43173968D01*
X8730009Y-43173304D01*
X8730273Y-43173192D01*
X8732507Y-43171826D01*
X8730009Y-43170912D01*
X8728661Y-43170734D01*
X8722633Y-43169996D01*
X8711954Y-43168711D01*
X8696814Y-43166904D01*
X8677399Y-43164592D01*
X8653896Y-43161802D01*
X8626495Y-43158554D01*
X8595382Y-43154871D01*
X8560746Y-43150775D01*
X8522775Y-43146289D01*
X8481656Y-43141431D01*
X8437578Y-43136229D01*
X8390727Y-43130701D01*
X8341293Y-43124872D01*
X8289462Y-43118762D01*
X8235424Y-43112394D01*
X8179364Y-43105791D01*
X8121473Y-43098974D01*
X8061936Y-43091966D01*
X8000943Y-43084789D01*
X7938681Y-43077464D01*
X7896451Y-43072496D01*
X7834996Y-43065264D01*
X7774927Y-43058192D01*
X7716432Y-43051301D01*
X7659700Y-43044615D01*
X7604919Y-43038155D01*
X7552277Y-43031945D01*
X7501964Y-43026005D01*
X7454166Y-43020359D01*
X7409074Y-43015029D01*
X7366875Y-43010037D01*
X7327758Y-43005405D01*
X7291910Y-43001156D01*
X7259522Y-42997312D01*
X7230781Y-42993896D01*
X7205874Y-42990928D01*
X7184994Y-42988433D01*
X7168325Y-42986432D01*
X7156057Y-42984948D01*
X7148378Y-42984003D01*
X7145478Y-42983617D01*
X7139852Y-42982404D01*
X7139852Y-42853424D01*
X7139852Y-42724443D01*
X7147979Y-42725922D01*
G37*
%TD*%
D14*
%TO.C,J5*%
X5565000Y-17145000D03*
X6465000Y-17145000D03*
X7365000Y-17145000D03*
X8265000Y-17145000D03*
X9165000Y-17145000D03*
X10515000Y-17145000D03*
X11415000Y-17145000D03*
X5565000Y-17895000D03*
X6465000Y-17895000D03*
X9615000Y-17895000D03*
X8715000Y-17895000D03*
X7815000Y-17895000D03*
X10515000Y-17895000D03*
X11415000Y-17895000D03*
D15*
X5440000Y-18950000D03*
D16*
X11540000Y-18950000D03*
D15*
X5440000Y-16090000D03*
D16*
X11540000Y-16090000D03*
%TD*%
D17*
%TO.C,J6*%
X20230000Y-105980000D03*
D18*
X17690000Y-105980000D03*
X20230000Y-103440000D03*
X17690000Y-103440000D03*
X20230000Y-100900000D03*
X17690000Y-100900000D03*
X20230000Y-98360000D03*
X17690000Y-98360000D03*
X20230000Y-95820000D03*
X17690000Y-95820000D03*
%TD*%
D19*
%TO.C,J10*%
X2065000Y-33600000D03*
X6965000Y-34200000D03*
X6965000Y-48700000D03*
X2065000Y-49300000D03*
%TD*%
D20*
%TO.C,H3*%
X23615000Y-47200000D03*
%TD*%
D14*
%TO.C,J7*%
X5498750Y-26005000D03*
X6398750Y-26005000D03*
X7298750Y-26005000D03*
X8198750Y-26005000D03*
X9098750Y-26005000D03*
X10448750Y-26005000D03*
X11348750Y-26005000D03*
X5498750Y-26755000D03*
X6398750Y-26755000D03*
X9548750Y-26755000D03*
X8648750Y-26755000D03*
X7748750Y-26755000D03*
X10448750Y-26755000D03*
X11348750Y-26755000D03*
D15*
X5373750Y-27810000D03*
D16*
X11473750Y-27810000D03*
D15*
X5373750Y-24950000D03*
D16*
X11473750Y-24950000D03*
%TD*%
D17*
%TO.C,J3*%
X6440000Y-68950000D03*
D18*
X6440000Y-66410000D03*
X6440000Y-63870000D03*
X6440000Y-61330000D03*
X6440000Y-58790000D03*
X6440000Y-56250000D03*
X3900000Y-68950000D03*
X3900000Y-66410000D03*
X3900000Y-63870000D03*
X3900000Y-61330000D03*
X3900000Y-58790000D03*
X3900000Y-56250000D03*
%TD*%
D21*
%TO.C,H1*%
X27082000Y-23758800D03*
X27565274Y-22592074D03*
X27565274Y-24925526D03*
X28732000Y-22108800D03*
D22*
X28732000Y-23758800D03*
D21*
X28732000Y-25408800D03*
X29898726Y-22592074D03*
X29898726Y-24925526D03*
X30382000Y-23758800D03*
%TD*%
D19*
%TO.C,SW3*%
X5340000Y-3450000D03*
X5340000Y-8450000D03*
X5340000Y-5950000D03*
X11590000Y-3450000D03*
X11590000Y-8450000D03*
%TD*%
D17*
%TO.C,J2*%
X6440000Y-91810000D03*
D18*
X6440000Y-89270000D03*
X6440000Y-86730000D03*
X6440000Y-84190000D03*
X6440000Y-81650000D03*
X6440000Y-79110000D03*
X3900000Y-91810000D03*
X3900000Y-89270000D03*
X3900000Y-86730000D03*
X3900000Y-84190000D03*
X3900000Y-81650000D03*
X3900000Y-79110000D03*
%TD*%
D23*
%TO.C,J8*%
X29640000Y-67434400D03*
D24*
X9640000Y-67434400D03*
%TD*%
D21*
%TO.C,H2*%
X27082000Y-88842074D03*
X27565274Y-87675348D03*
X27565274Y-90008800D03*
X28732000Y-87192074D03*
D22*
X28732000Y-88842074D03*
D21*
X28732000Y-90492074D03*
X29898726Y-87675348D03*
X29898726Y-90008800D03*
X30382000Y-88842074D03*
%TD*%
D25*
%TO.C,J4*%
X1090000Y-103507736D03*
X9190000Y-101507736D03*
X7290000Y-103507736D03*
X3590000Y-101507736D03*
X12890000Y-103507736D03*
%TD*%
D26*
%TO.C,D6*%
X1480000Y-2650000D03*
X2450000Y-2650000D03*
%TD*%
D27*
%TO.C,R49*%
X11858960Y-73873543D03*
X12580208Y-73152295D03*
%TD*%
D28*
%TO.C,R37*%
X9454893Y-79649130D03*
X8733645Y-80370378D03*
%TD*%
D29*
%TO.C,Y2*%
X11300798Y-87562359D03*
X13500798Y-87562359D03*
X13500798Y-89262359D03*
X11300798Y-89262359D03*
%TD*%
D26*
%TO.C,D16*%
X1500000Y-8340000D03*
X2470000Y-8340000D03*
%TD*%
%TO.C,D14*%
X1480000Y-4550000D03*
X2450000Y-4550000D03*
%TD*%
D30*
%TO.C,U6*%
X14133656Y-67837499D03*
X13183657Y-67837499D03*
X12233658Y-67837499D03*
X12233658Y-65562499D03*
X14133656Y-65562499D03*
%TD*%
D27*
%TO.C,R48*%
X14510724Y-77794791D03*
X15231972Y-77073543D03*
%TD*%
D26*
%TO.C,D10*%
X1487500Y-3600000D03*
X2457500Y-3600000D03*
%TD*%
%TO.C,D8*%
X1495000Y-6440000D03*
X2465000Y-6440000D03*
%TD*%
D31*
%TO.C,J1*%
X8800000Y-50100000D03*
X8800000Y-50600000D03*
X8800000Y-51100000D03*
X8800000Y-51600000D03*
X8800000Y-52100000D03*
X8800000Y-52600000D03*
X8800000Y-53100000D03*
X8800000Y-53600000D03*
X8800000Y-54100000D03*
X8800000Y-54600000D03*
X8800000Y-55100000D03*
X8800000Y-55600000D03*
X8800000Y-56100000D03*
X8800000Y-56600000D03*
D32*
X10700000Y-48150000D03*
X10700000Y-58550000D03*
%TD*%
D33*
%TO.C,RN4*%
X9110000Y-7690000D03*
D34*
X9110000Y-8190000D03*
X9110000Y-8690000D03*
D33*
X9110000Y-9190000D03*
X8110000Y-9190000D03*
D34*
X8110000Y-8690000D03*
X8110000Y-8190000D03*
D33*
X8110000Y-7690000D03*
%TD*%
D27*
%TO.C,R36*%
X8380646Y-79392067D03*
X9101894Y-78670819D03*
%TD*%
D35*
%TO.C,U4*%
X22195000Y-90290000D03*
X19655000Y-90290000D03*
X17115000Y-90290000D03*
X17115000Y-81400000D03*
X19655000Y-81400000D03*
X22195000Y-81400000D03*
%TD*%
D26*
%TO.C,D12*%
X1500000Y-7390000D03*
X2470000Y-7390000D03*
%TD*%
D27*
%TO.C,R47*%
X15213992Y-78478524D03*
X15935240Y-77757276D03*
%TD*%
D33*
%TO.C,RN2*%
X9040000Y-2690000D03*
D34*
X9040000Y-3190000D03*
X9040000Y-3690000D03*
D33*
X9040000Y-4190000D03*
X8040000Y-4190000D03*
D34*
X8040000Y-3690000D03*
X8040000Y-3190000D03*
D33*
X8040000Y-2690000D03*
%TD*%
D36*
%TO.C,U11*%
X13204508Y-85438856D03*
X12704508Y-85438856D03*
X12204508Y-85438856D03*
X11704508Y-85438856D03*
X11204508Y-85438856D03*
X11204508Y-81213856D03*
X11704508Y-81213856D03*
X12204508Y-81213856D03*
X12704508Y-81213856D03*
X13204508Y-81213856D03*
%TD*%
D37*
%TO.C,R34*%
X8872338Y-72953827D03*
X8872338Y-71933827D03*
%TD*%
D26*
%TO.C,D20*%
X1500000Y-9290000D03*
X2470000Y-9290000D03*
%TD*%
D37*
%TO.C,R45*%
X12183657Y-70709998D03*
X12183657Y-69690000D03*
%TD*%
%TO.C,R35*%
X7933657Y-72949999D03*
X7933657Y-71929999D03*
%TD*%
D26*
%TO.C,D18*%
X1487500Y-5500000D03*
X2457500Y-5500000D03*
%TD*%
D38*
%TO.C,R46*%
X13683657Y-63949999D03*
X14703655Y-63949999D03*
%TD*%
D39*
%TO.C,C36*%
X14433657Y-84469999D03*
X14433657Y-85429999D03*
%TD*%
M02*
